<?xml version="1.0" encoding="UTF-8" standalone="no"?>
<!DOCTYPE svg PUBLIC "-//W3C//DTD SVG 1.1//EN"
 "http://www.w3.org/Graphics/SVG/1.1/DTD/svg11.dtd">
<!-- Generated by graphviz version 2.43.0 (0)
 -->
<!-- Title: src/Graphicals/ADisplayModule.hpp Pages: 1 -->
<svg width="676pt" height="159pt"
 viewBox="0.00 0.00 676.00 159.00" xmlns="http://www.w3.org/2000/svg" xmlns:xlink="http://www.w3.org/1999/xlink">
<g id="graph0" class="graph" transform="scale(1 1) rotate(0) translate(4 155)">
<title>src/Graphicals/ADisplayModule.hpp</title>
<!-- Node1 -->
<g id="Node000001" class="node">
<title>Node1</title>
<g id="a_Node000001"><a xlink:title="Declares the abstract base class for display modules in the Arcade project.">
<polygon fill="#999999" stroke="#666666" points="457.5,-151 268.5,-151 268.5,-132 457.5,-132 457.5,-151"/>
<text text-anchor="middle" x="363" y="-139" font-family="Helvetica,sans-Serif" font-size="10.00">src/Graphicals/ADisplayModule.hpp</text>
</a>
</g>
</g>
<!-- Node2 -->
<g id="Node000002" class="node">
<title>Node2</title>
<g id="a_Node000002"><a xlink:href="ADisplayModule_8cpp.html" target="_top" xlink:title="Provides default constructor and destructor implementations for ADisplayModule.">
<polygon fill="white" stroke="#666666" points="188,-90.5 0,-90.5 0,-71.5 188,-71.5 188,-90.5"/>
<text text-anchor="middle" x="94" y="-78.5" font-family="Helvetica,sans-Serif" font-size="10.00">src/Graphicals/ADisplayModule.cpp</text>
</a>
</g>
</g>
<!-- Node1&#45;&gt;Node2 -->
<g id="edge1_Node000001_Node000002" class="edge">
<title>Node1&#45;&gt;Node2</title>
<g id="a_edge1_Node000001_Node000002"><a xlink:title=" ">
<path fill="none" stroke="#63b8ff" d="M313.9,-129.82C261.94,-118.52 181,-100.92 133.16,-90.52"/>
<polygon fill="#63b8ff" stroke="#63b8ff" points="313.37,-133.29 323.89,-131.99 314.86,-126.45 313.37,-133.29"/>
</a>
</g>
</g>
<!-- Node3 -->
<g id="Node000003" class="node">
<title>Node3</title>
<g id="a_Node000003"><a xlink:href="NCursesDisplayModule_8hpp.html" target="_top" xlink:title="Declaration of the NCursesDisplayModule class and associated definitions.">
<polygon fill="white" stroke="#666666" points="360,-96 206,-96 206,-66 360,-66 360,-96"/>
<text text-anchor="start" x="214" y="-84" font-family="Helvetica,sans-Serif" font-size="10.00">src/Graphicals/NCurses</text>
<text text-anchor="middle" x="283" y="-73" font-family="Helvetica,sans-Serif" font-size="10.00">/NCursesDisplayModule.hpp</text>
</a>
</g>
</g>
<!-- Node1&#45;&gt;Node3 -->
<g id="edge2_Node000001_Node000003" class="edge">
<title>Node1&#45;&gt;Node3</title>
<g id="a_edge2_Node000001_Node000003"><a xlink:title=" ">
<path fill="none" stroke="#63b8ff" d="M342.85,-125.77C330.42,-116.68 314.57,-105.09 302.3,-96.11"/>
<polygon fill="#63b8ff" stroke="#63b8ff" points="341.06,-128.79 351.2,-131.87 345.19,-123.14 341.06,-128.79"/>
</a>
</g>
</g>
<!-- Node5 -->
<g id="Node000005" class="node">
<title>Node5</title>
<g id="a_Node000005"><a xlink:href="SDLDisplayModule_8hpp.html" target="_top" xlink:title="Header file for SDL display module.">
<polygon fill="white" stroke="#666666" points="510,-96 378,-96 378,-66 510,-66 510,-96"/>
<text text-anchor="start" x="386" y="-84" font-family="Helvetica,sans-Serif" font-size="10.00">src/Graphicals/SDL</text>
<text text-anchor="middle" x="444" y="-73" font-family="Helvetica,sans-Serif" font-size="10.00">/SDLDisplayModule.hpp</text>
</a>
</g>
</g>
<!-- Node1&#45;&gt;Node5 -->
<g id="edge4_Node000001_Node000005" class="edge">
<title>Node1&#45;&gt;Node5</title>
<g id="a_edge4_Node000001_Node000005"><a xlink:title=" ">
<path fill="none" stroke="#63b8ff" d="M383.4,-125.77C395.98,-116.68 412.04,-105.09 424.46,-96.11"/>
<polygon fill="#63b8ff" stroke="#63b8ff" points="381.01,-123.18 374.95,-131.87 385.11,-128.85 381.01,-123.18"/>
</a>
</g>
</g>
<!-- Node7 -->
<g id="Node000007" class="node">
<title>Node7</title>
<g id="a_Node000007"><a xlink:href="SFMLDisplayModule_8hpp.html" target="_top" xlink:title="Header file for SFML display module.">
<polygon fill="white" stroke="#666666" points="668,-96 528,-96 528,-66 668,-66 668,-96"/>
<text text-anchor="start" x="536" y="-84" font-family="Helvetica,sans-Serif" font-size="10.00">src/Graphicals/SFML</text>
<text text-anchor="middle" x="598" y="-73" font-family="Helvetica,sans-Serif" font-size="10.00">/SFMLDisplayModule.hpp</text>
</a>
</g>
</g>
<!-- Node1&#45;&gt;Node7 -->
<g id="edge6_Node000001_Node000007" class="edge">
<title>Node1&#45;&gt;Node7</title>
<g id="a_edge6_Node000001_Node000007"><a xlink:title=" ">
<path fill="none" stroke="#63b8ff" d="M406.93,-129.56C444.96,-120.1 500.19,-106.35 541.5,-96.06"/>
<polygon fill="#63b8ff" stroke="#63b8ff" points="406.03,-126.18 397.17,-131.99 407.72,-132.97 406.03,-126.18"/>
</a>
</g>
</g>
<!-- Node4 -->
<g id="Node000004" class="node">
<title>Node4</title>
<g id="a_Node000004"><a xlink:href="NCursesDisplayModule_8cpp.html" target="_top" xlink:title="NCurses Display Module.">
<polygon fill="white" stroke="#666666" points="359.5,-30 206.5,-30 206.5,0 359.5,0 359.5,-30"/>
<text text-anchor="start" x="214.5" y="-18" font-family="Helvetica,sans-Serif" font-size="10.00">src/Graphicals/NCurses</text>
<text text-anchor="middle" x="283" y="-7" font-family="Helvetica,sans-Serif" font-size="10.00">/NCursesDisplayModule.cpp</text>
</a>
</g>
</g>
<!-- Node3&#45;&gt;Node4 -->
<g id="edge3_Node000003_Node000004" class="edge">
<title>Node3&#45;&gt;Node4</title>
<g id="a_edge3_Node000003_Node000004"><a xlink:title=" ">
<path fill="none" stroke="#63b8ff" d="M283,-55.54C283,-46.96 283,-37.61 283,-30.16"/>
<polygon fill="#63b8ff" stroke="#63b8ff" points="279.5,-55.8 283,-65.8 286.5,-55.8 279.5,-55.8"/>
</a>
</g>
</g>
<!-- Node6 -->
<g id="Node000006" class="node">
<title>Node6</title>
<g id="a_Node000006"><a xlink:href="SDLDisplayModule_8cpp.html" target="_top" xlink:title="This file contains all functions related to SDL.">
<polygon fill="white" stroke="#666666" points="509.5,-30 378.5,-30 378.5,0 509.5,0 509.5,-30"/>
<text text-anchor="start" x="386.5" y="-18" font-family="Helvetica,sans-Serif" font-size="10.00">src/Graphicals/SDL</text>
<text text-anchor="middle" x="444" y="-7" font-family="Helvetica,sans-Serif" font-size="10.00">/SDLDisplayModule.cpp</text>
</a>
</g>
</g>
<!-- Node5&#45;&gt;Node6 -->
<g id="edge5_Node000005_Node000006" class="edge">
<title>Node5&#45;&gt;Node6</title>
<g id="a_edge5_Node000005_Node000006"><a xlink:title=" ">
<path fill="none" stroke="#63b8ff" d="M444,-55.54C444,-46.96 444,-37.61 444,-30.16"/>
<polygon fill="#63b8ff" stroke="#63b8ff" points="440.5,-55.8 444,-65.8 447.5,-55.8 440.5,-55.8"/>
</a>
</g>
</g>
<!-- Node8 -->
<g id="Node000008" class="node">
<title>Node8</title>
<g id="a_Node000008"><a xlink:href="SFMLDisplayModule_8cpp.html" target="_top" xlink:title="This file contains all functions related to SFML.">
<polygon fill="white" stroke="#666666" points="667.5,-30 528.5,-30 528.5,0 667.5,0 667.5,-30"/>
<text text-anchor="start" x="536.5" y="-18" font-family="Helvetica,sans-Serif" font-size="10.00">src/Graphicals/SFML</text>
<text text-anchor="middle" x="598" y="-7" font-family="Helvetica,sans-Serif" font-size="10.00">/SFMLDisplayModule.cpp</text>
</a>
</g>
</g>
<!-- Node7&#45;&gt;Node8 -->
<g id="edge7_Node000007_Node000008" class="edge">
<title>Node7&#45;&gt;Node8</title>
<g id="a_edge7_Node000007_Node000008"><a xlink:title=" ">
<path fill="none" stroke="#63b8ff" d="M598,-55.54C598,-46.96 598,-37.61 598,-30.16"/>
<polygon fill="#63b8ff" stroke="#63b8ff" points="594.5,-55.8 598,-65.8 601.5,-55.8 594.5,-55.8"/>
</a>
</g>
</g>
</g>
</svg>
