<?xml version="1.0" encoding="UTF-8" standalone="no"?>
<!DOCTYPE svg PUBLIC "-//W3C//DTD SVG 1.1//EN"
 "http://www.w3.org/Graphics/SVG/1.1/DTD/svg11.dtd">
<!-- Generated by graphviz version 2.43.0 (0)
 -->
<!-- Title: src/Games/AGame.hpp Pages: 1 -->
<svg width="799pt" height="137pt"
 viewBox="0.00 0.00 798.50 137.00" xmlns="http://www.w3.org/2000/svg" xmlns:xlink="http://www.w3.org/1999/xlink">
<g id="graph0" class="graph" transform="scale(1 1) rotate(0) translate(4 133)">
<title>src/Games/AGame.hpp</title>
<!-- Node1 -->
<g id="Node000001" class="node">
<title>Node1</title>
<g id="a_Node000001"><a xlink:title="Declares the abstract base class for all Arcade games.">
<polygon fill="#999999" stroke="#666666" points="388.5,-129 260.5,-129 260.5,-110 388.5,-110 388.5,-129"/>
<text text-anchor="middle" x="324.5" y="-117" font-family="Helvetica,sans-Serif" font-size="10.00">src/Games/AGame.hpp</text>
</a>
</g>
</g>
<!-- Node2 -->
<g id="Node000002" class="node">
<title>Node2</title>
<g id="a_Node000002"><a xlink:href="Menu_8hpp.html" target="_top" xlink:title="Declares the Menu class, used to display and navigate game and library options.">
<polygon fill="white" stroke="#666666" points="205,-74 56,-74 56,-55 205,-55 205,-74"/>
<text text-anchor="middle" x="130.5" y="-62" font-family="Helvetica,sans-Serif" font-size="10.00">src/Games/Menu/Menu.hpp</text>
</a>
</g>
</g>
<!-- Node1&#45;&gt;Node2 -->
<g id="edge1_Node000001_Node000002" class="edge">
<title>Node1&#45;&gt;Node2</title>
<g id="a_edge1_Node000001_Node000002"><a xlink:title=" ">
<path fill="none" stroke="#63b8ff" d="M283.54,-107.31C247.24,-97.39 195,-83.12 161.91,-74.08"/>
<polygon fill="#63b8ff" stroke="#63b8ff" points="282.76,-110.73 293.33,-109.98 284.61,-103.97 282.76,-110.73"/>
</a>
</g>
</g>
<!-- Node4 -->
<g id="Node000004" class="node">
<title>Node4</title>
<g id="a_Node000004"><a xlink:href="PacmanGame_8hpp.html" target="_top" xlink:title="Main file of the Pacman game.">
<polygon fill="white" stroke="#666666" points="425,-74 224,-74 224,-55 425,-55 425,-74"/>
<text text-anchor="middle" x="324.5" y="-62" font-family="Helvetica,sans-Serif" font-size="10.00">src/Games/Pacman/PacmanGame.hpp</text>
</a>
</g>
</g>
<!-- Node1&#45;&gt;Node4 -->
<g id="edge3_Node000001_Node000004" class="edge">
<title>Node1&#45;&gt;Node4</title>
<g id="a_edge3_Node000001_Node000004"><a xlink:title=" ">
<path fill="none" stroke="#63b8ff" d="M324.5,-99.66C324.5,-90.93 324.5,-80.99 324.5,-74.09"/>
<polygon fill="#63b8ff" stroke="#63b8ff" points="321,-99.75 324.5,-109.75 328,-99.75 321,-99.75"/>
</a>
</g>
</g>
<!-- Node7 -->
<g id="Node000007" class="node">
<title>Node7</title>
<g id="a_Node000007"><a xlink:href="SnakeGame_8hpp.html" target="_top" xlink:title="Declaration of the SnakeGame class and associated definitions.">
<polygon fill="white" stroke="#666666" points="736,-74 553,-74 553,-55 736,-55 736,-74"/>
<text text-anchor="middle" x="644.5" y="-62" font-family="Helvetica,sans-Serif" font-size="10.00">src/Games/Snake/SnakeGame.hpp</text>
</a>
</g>
</g>
<!-- Node1&#45;&gt;Node7 -->
<g id="edge6_Node000001_Node000007" class="edge">
<title>Node1&#45;&gt;Node7</title>
<g id="a_edge6_Node000001_Node000007"><a xlink:title=" ">
<path fill="none" stroke="#63b8ff" d="M386.03,-108.31C446.12,-98.36 536.53,-83.38 592.95,-74.04"/>
<polygon fill="#63b8ff" stroke="#63b8ff" points="385.21,-104.9 375.91,-109.98 386.35,-111.8 385.21,-104.9"/>
</a>
</g>
</g>
<!-- Node3 -->
<g id="Node000003" class="node">
<title>Node3</title>
<g id="a_Node000003"><a xlink:href="Menu_8cpp.html" target="_top" xlink:title="Declares global variables used to store user selections in the Arcade menu.">
<polygon fill="white" stroke="#666666" points="149,-19 0,-19 0,0 149,0 149,-19"/>
<text text-anchor="middle" x="74.5" y="-7" font-family="Helvetica,sans-Serif" font-size="10.00">src/Games/Menu/Menu.cpp</text>
</a>
</g>
</g>
<!-- Node2&#45;&gt;Node3 -->
<g id="edge2_Node000002_Node000003" class="edge">
<title>Node2&#45;&gt;Node3</title>
<g id="a_edge2_Node000002_Node000003"><a xlink:title=" ">
<path fill="none" stroke="#63b8ff" d="M114.17,-48.04C104.24,-38.64 91.91,-26.98 83.66,-19.17"/>
<polygon fill="#63b8ff" stroke="#63b8ff" points="111.83,-50.65 121.5,-54.98 116.65,-45.57 111.83,-50.65"/>
</a>
</g>
</g>
<!-- Node5 -->
<g id="Node000005" class="node">
<title>Node5</title>
<g id="a_Node000005"><a xlink:href="PacmanFactory_8cpp.html" target="_top" xlink:title="Factory functions to create and destroy the Pacman game instance.">
<polygon fill="white" stroke="#666666" points="372,-19 167,-19 167,0 372,0 372,-19"/>
<text text-anchor="middle" x="269.5" y="-7" font-family="Helvetica,sans-Serif" font-size="10.00">src/Games/Pacman/PacmanFactory.cpp</text>
</a>
</g>
</g>
<!-- Node4&#45;&gt;Node5 -->
<g id="edge4_Node000004_Node000005" class="edge">
<title>Node4&#45;&gt;Node5</title>
<g id="a_edge4_Node000004_Node000005"><a xlink:title=" ">
<path fill="none" stroke="#63b8ff" d="M308.21,-47.8C298.46,-38.41 286.45,-26.83 278.41,-19.09"/>
<polygon fill="#63b8ff" stroke="#63b8ff" points="305.79,-50.33 315.42,-54.75 310.65,-45.29 305.79,-50.33"/>
</a>
</g>
</g>
<!-- Node6 -->
<g id="Node000006" class="node">
<title>Node6</title>
<g id="a_Node000006"><a xlink:href="PacmanGame_8cpp.html" target="_top" xlink:title="Implements the Main class of the Pacman game.">
<polygon fill="white" stroke="#666666" points="590.5,-19 390.5,-19 390.5,0 590.5,0 590.5,-19"/>
<text text-anchor="middle" x="490.5" y="-7" font-family="Helvetica,sans-Serif" font-size="10.00">src/Games/Pacman/PacmanGame.cpp</text>
</a>
</g>
</g>
<!-- Node4&#45;&gt;Node6 -->
<g id="edge5_Node000004_Node000006" class="edge">
<title>Node4&#45;&gt;Node6</title>
<g id="a_edge5_Node000004_Node000006"><a xlink:title=" ">
<path fill="none" stroke="#63b8ff" d="M360.75,-51.93C391.75,-42.03 435.67,-28.01 463.62,-19.08"/>
<polygon fill="#63b8ff" stroke="#63b8ff" points="359.63,-48.61 351.17,-54.98 361.76,-55.28 359.63,-48.61"/>
</a>
</g>
</g>
<!-- Node8 -->
<g id="Node000008" class="node">
<title>Node8</title>
<g id="a_Node000008"><a xlink:href="SnakeGame_8cpp.html" target="_top" xlink:title="Snake Game.">
<polygon fill="white" stroke="#666666" points="790.5,-19 608.5,-19 608.5,0 790.5,0 790.5,-19"/>
<text text-anchor="middle" x="699.5" y="-7" font-family="Helvetica,sans-Serif" font-size="10.00">src/Games/Snake/SnakeGame.cpp</text>
</a>
</g>
</g>
<!-- Node7&#45;&gt;Node8 -->
<g id="edge7_Node000007_Node000008" class="edge">
<title>Node7&#45;&gt;Node8</title>
<g id="a_edge7_Node000007_Node000008"><a xlink:title=" ">
<path fill="none" stroke="#63b8ff" d="M660.79,-47.8C670.54,-38.41 682.55,-26.83 690.59,-19.09"/>
<polygon fill="#63b8ff" stroke="#63b8ff" points="658.35,-45.29 653.58,-54.75 663.21,-50.33 658.35,-45.29"/>
</a>
</g>
</g>
</g>
</svg>
