<?xml version="1.0" encoding="UTF-8" standalone="no"?>
<!DOCTYPE svg PUBLIC "-//W3C//DTD SVG 1.1//EN"
 "http://www.w3.org/Graphics/SVG/1.1/DTD/svg11.dtd">
<!-- Generated by graphviz version 2.43.0 (0)
 -->
<!-- Title: arcade::game::IGame Pages: 1 -->
<svg width="466pt" height="137pt"
 viewBox="0.00 0.00 466.00 137.00" xmlns="http://www.w3.org/2000/svg" xmlns:xlink="http://www.w3.org/1999/xlink">
<g id="graph0" class="graph" transform="scale(1 1) rotate(0) translate(4 133)">
<title>arcade::game::IGame</title>
<!-- Node1 -->
<g id="Node000001" class="node">
<title>Node1</title>
<g id="a_Node000001"><a xlink:title="Game interface class.">
<polygon fill="#999999" stroke="#666666" points="274,-129 152,-129 152,-110 274,-110 274,-129"/>
<text text-anchor="middle" x="213" y="-117" font-family="Helvetica,sans-Serif" font-size="10.00">arcade::game::IGame</text>
</a>
</g>
</g>
<!-- Node2 -->
<g id="Node000002" class="node">
<title>Node2</title>
<g id="a_Node000002"><a xlink:href="classarcade_1_1game_1_1AGame.html" target="_top" xlink:title="Abstract base class for games in the Arcade project.">
<polygon fill="white" stroke="#666666" points="275.5,-74 150.5,-74 150.5,-55 275.5,-55 275.5,-74"/>
<text text-anchor="middle" x="213" y="-62" font-family="Helvetica,sans-Serif" font-size="10.00">arcade::game::AGame</text>
</a>
</g>
</g>
<!-- Node1&#45;&gt;Node2 -->
<g id="edge1_Node000001_Node000002" class="edge">
<title>Node1&#45;&gt;Node2</title>
<g id="a_edge1_Node000001_Node000002"><a xlink:title=" ">
<path fill="none" stroke="#63b8ff" d="M213,-99.66C213,-90.93 213,-80.99 213,-74.09"/>
<polygon fill="#63b8ff" stroke="#63b8ff" points="209.5,-99.75 213,-109.75 216.5,-99.75 209.5,-99.75"/>
</a>
</g>
</g>
<!-- Node3 -->
<g id="Node000003" class="node">
<title>Node3</title>
<g id="a_Node000003"><a xlink:href="classarcade_1_1game_1_1Menu.html" target="_top" xlink:title="Implements the game menu interface for Arcade.">
<polygon fill="white" stroke="#666666" points="116,-19 0,-19 0,0 116,0 116,-19"/>
<text text-anchor="middle" x="58" y="-7" font-family="Helvetica,sans-Serif" font-size="10.00">arcade::game::Menu</text>
</a>
</g>
</g>
<!-- Node2&#45;&gt;Node3 -->
<g id="edge2_Node000002_Node000003" class="edge">
<title>Node2&#45;&gt;Node3</title>
<g id="a_edge2_Node000002_Node000003"><a xlink:title=" ">
<path fill="none" stroke="#63b8ff" d="M178.4,-51.67C149.5,-41.79 108.97,-27.93 83.1,-19.08"/>
<polygon fill="#63b8ff" stroke="#63b8ff" points="177.5,-55.06 188.1,-54.98 179.77,-48.44 177.5,-55.06"/>
</a>
</g>
</g>
<!-- Node4 -->
<g id="Node000004" class="node">
<title>Node4</title>
<g id="a_Node000004"><a xlink:href="classarcade_1_1game_1_1PacmanGame.html" target="_top" xlink:title=" ">
<polygon fill="white" stroke="#bfbfbf" points="291.5,-19 134.5,-19 134.5,0 291.5,0 291.5,-19"/>
<text text-anchor="middle" x="213" y="-7" font-family="Helvetica,sans-Serif" font-size="10.00">arcade::game::PacmanGame</text>
</a>
</g>
</g>
<!-- Node2&#45;&gt;Node4 -->
<g id="edge3_Node000002_Node000004" class="edge">
<title>Node2&#45;&gt;Node4</title>
<g id="a_edge3_Node000002_Node000004"><a xlink:title=" ">
<path fill="none" stroke="#63b8ff" d="M213,-44.66C213,-35.93 213,-25.99 213,-19.09"/>
<polygon fill="#63b8ff" stroke="#63b8ff" points="209.5,-44.75 213,-54.75 216.5,-44.75 209.5,-44.75"/>
</a>
</g>
</g>
<!-- Node5 -->
<g id="Node000005" class="node">
<title>Node5</title>
<g id="a_Node000005"><a xlink:href="classarcade_1_1game_1_1SnakeGame.html" target="_top" xlink:title="Implementation of the classic Snake game for the Arcade project.">
<polygon fill="white" stroke="#666666" points="458,-19 310,-19 310,0 458,0 458,-19"/>
<text text-anchor="middle" x="384" y="-7" font-family="Helvetica,sans-Serif" font-size="10.00">arcade::game::SnakeGame</text>
</a>
</g>
</g>
<!-- Node2&#45;&gt;Node5 -->
<g id="edge4_Node000002_Node000005" class="edge">
<title>Node2&#45;&gt;Node5</title>
<g id="a_edge4_Node000002_Node000005"><a xlink:title=" ">
<path fill="none" stroke="#63b8ff" d="M250.34,-51.93C282.28,-42.03 327.52,-28.01 356.31,-19.08"/>
<polygon fill="#63b8ff" stroke="#63b8ff" points="248.99,-48.68 240.47,-54.98 251.06,-55.37 248.99,-48.68"/>
</a>
</g>
</g>
</g>
</svg>
