<?xml version="1.0" encoding="UTF-8" standalone="no"?>
<!DOCTYPE svg PUBLIC "-//W3C//DTD SVG 1.1//EN"
 "http://www.w3.org/Graphics/SVG/1.1/DTD/svg11.dtd">
<!-- Generated by graphviz version 2.43.0 (0)
 -->
<!-- Title: arcade::game::PacmanGame Pages: 1 -->
<svg width="165pt" height="137pt"
 viewBox="0.00 0.00 165.00 137.00" xmlns="http://www.w3.org/2000/svg" xmlns:xlink="http://www.w3.org/1999/xlink">
<g id="graph0" class="graph" transform="scale(1 1) rotate(0) translate(4 133)">
<title>arcade::game::PacmanGame</title>
<!-- Node1 -->
<g id="Node000001" class="node">
<title>Node1</title>
<g id="a_Node000001"><a xlink:title="Main class of the Pacman game.">
<polygon fill="#999999" stroke="#666666" points="157,-19 0,-19 0,0 157,0 157,-19"/>
<text text-anchor="middle" x="78.5" y="-7" font-family="Helvetica,sans-Serif" font-size="10.00">arcade::game::PacmanGame</text>
</a>
</g>
</g>
<!-- Node2 -->
<g id="Node000002" class="node">
<title>Node2</title>
<g id="a_Node000002"><a xlink:href="classarcade_1_1game_1_1AGame.html" target="_top" xlink:title="Abstract base class for games in the Arcade project.">
<polygon fill="white" stroke="#666666" points="141,-74 16,-74 16,-55 141,-55 141,-74"/>
<text text-anchor="middle" x="78.5" y="-62" font-family="Helvetica,sans-Serif" font-size="10.00">arcade::game::AGame</text>
</a>
</g>
</g>
<!-- Node2&#45;&gt;Node1 -->
<g id="edge1_Node000001_Node000002" class="edge">
<title>Node2&#45;&gt;Node1</title>
<g id="a_edge1_Node000001_Node000002"><a xlink:title=" ">
<path fill="none" stroke="#63b8ff" d="M78.5,-44.66C78.5,-35.93 78.5,-25.99 78.5,-19.09"/>
<polygon fill="#63b8ff" stroke="#63b8ff" points="75,-44.75 78.5,-54.75 82,-44.75 75,-44.75"/>
</a>
</g>
</g>
<!-- Node3 -->
<g id="Node000003" class="node">
<title>Node3</title>
<g id="a_Node000003"><a xlink:href="classarcade_1_1game_1_1IGame.html" target="_top" xlink:title="Game interface class.">
<polygon fill="white" stroke="#666666" points="139.5,-129 17.5,-129 17.5,-110 139.5,-110 139.5,-129"/>
<text text-anchor="middle" x="78.5" y="-117" font-family="Helvetica,sans-Serif" font-size="10.00">arcade::game::IGame</text>
</a>
</g>
</g>
<!-- Node3&#45;&gt;Node2 -->
<g id="edge2_Node000002_Node000003" class="edge">
<title>Node3&#45;&gt;Node2</title>
<g id="a_edge2_Node000002_Node000003"><a xlink:title=" ">
<path fill="none" stroke="#63b8ff" d="M78.5,-99.66C78.5,-90.93 78.5,-80.99 78.5,-74.09"/>
<polygon fill="#63b8ff" stroke="#63b8ff" points="75,-99.75 78.5,-109.75 82,-99.75 75,-99.75"/>
</a>
</g>
</g>
</g>
</svg>
