<?xml version="1.0" encoding="UTF-8" standalone="no"?>
<!DOCTYPE svg PUBLIC "-//W3C//DTD SVG 1.1//EN"
 "http://www.w3.org/Graphics/SVG/1.1/DTD/svg11.dtd">
<!-- Generated by graphviz version 2.43.0 (0)
 -->
<!-- Title: arcade::display::IDisplayModule Pages: 1 -->
<svg width="515pt" height="134pt"
 viewBox="0.00 0.00 515.00 134.00" xmlns="http://www.w3.org/2000/svg" xmlns:xlink="http://www.w3.org/1999/xlink">
<g id="graph0" class="graph" transform="scale(1 1) rotate(0) translate(4 130)">
<title>arcade::display::IDisplayModule</title>
<!-- Node1 -->
<g id="Node000001" class="node">
<title>Node1</title>
<g id="a_Node000001"><a xlink:title="Interface for all Arcade&#45;compatible games.">
<polygon fill="#999999" stroke="#666666" points="136,-78 0,-78 0,-48 136,-48 136,-78"/>
<text text-anchor="start" x="8" y="-66" font-family="Helvetica,sans-Serif" font-size="10.00">arcade::display::IDisplay</text>
<text text-anchor="middle" x="68" y="-55" font-family="Helvetica,sans-Serif" font-size="10.00">Module</text>
</a>
</g>
</g>
<!-- Node2 -->
<g id="Node000002" class="node">
<title>Node2</title>
<g id="a_Node000002"><a xlink:href="classarcade_1_1display_1_1ADisplayModule.html" target="_top" xlink:title="Abstract base class for graphical display modules.">
<polygon fill="white" stroke="#666666" points="312,-78 172,-78 172,-48 312,-48 312,-78"/>
<text text-anchor="start" x="180" y="-66" font-family="Helvetica,sans-Serif" font-size="10.00">arcade::display::ADisplay</text>
<text text-anchor="middle" x="242" y="-55" font-family="Helvetica,sans-Serif" font-size="10.00">Module</text>
</a>
</g>
</g>
<!-- Node1&#45;&gt;Node2 -->
<g id="edge1_Node000001_Node000002" class="edge">
<title>Node1&#45;&gt;Node2</title>
<g id="a_edge1_Node000001_Node000002"><a xlink:title=" ">
<path fill="none" stroke="#63b8ff" d="M146.62,-63C154.99,-63 163.47,-63 171.73,-63"/>
<polygon fill="#63b8ff" stroke="#63b8ff" points="146.49,-59.5 136.49,-63 146.49,-66.5 146.49,-59.5"/>
</a>
</g>
</g>
<!-- Node3 -->
<g id="Node000003" class="node">
<title>Node3</title>
<g id="a_Node000003"><a xlink:href="classarcade_1_1display_1_1NCursesDisplayModule.html" target="_top" xlink:title="Class responsible for containing all the methods to use ncruses in the arcade.">
<polygon fill="white" stroke="#666666" points="496,-126 359,-126 359,-96 496,-96 496,-126"/>
<text text-anchor="start" x="367" y="-114" font-family="Helvetica,sans-Serif" font-size="10.00">arcade::display::NCurses</text>
<text text-anchor="middle" x="427.5" y="-103" font-family="Helvetica,sans-Serif" font-size="10.00">DisplayModule</text>
</a>
</g>
</g>
<!-- Node2&#45;&gt;Node3 -->
<g id="edge2_Node000002_Node000003" class="edge">
<title>Node2&#45;&gt;Node3</title>
<g id="a_edge2_Node000002_Node000003"><a xlink:title=" ">
<path fill="none" stroke="#63b8ff" d="M310.47,-80.65C329.74,-85.69 350.55,-91.13 369.15,-96"/>
<polygon fill="#63b8ff" stroke="#63b8ff" points="311.12,-77.2 300.56,-78.06 309.35,-83.97 311.12,-77.2"/>
</a>
</g>
</g>
<!-- Node4 -->
<g id="Node000004" class="node">
<title>Node4</title>
<g id="a_Node000004"><a xlink:href="classarcade_1_1display_1_1SDLDisplayModule.html" target="_top" xlink:title="SDL&#45;based implementation of the ADisplayModule interface.">
<polygon fill="white" stroke="#666666" points="503.5,-78 351.5,-78 351.5,-48 503.5,-48 503.5,-78"/>
<text text-anchor="start" x="359.5" y="-66" font-family="Helvetica,sans-Serif" font-size="10.00">arcade::display::SDLDisplay</text>
<text text-anchor="middle" x="427.5" y="-55" font-family="Helvetica,sans-Serif" font-size="10.00">Module</text>
</a>
</g>
</g>
<!-- Node2&#45;&gt;Node4 -->
<g id="edge3_Node000002_Node000004" class="edge">
<title>Node2&#45;&gt;Node4</title>
<g id="a_edge3_Node000002_Node000004"><a xlink:title=" ">
<path fill="none" stroke="#63b8ff" d="M322.12,-63C331.81,-63 341.69,-63 351.31,-63"/>
<polygon fill="#63b8ff" stroke="#63b8ff" points="322.11,-59.5 312.11,-63 322.11,-66.5 322.11,-59.5"/>
</a>
</g>
</g>
<!-- Node5 -->
<g id="Node000005" class="node">
<title>Node5</title>
<g id="a_Node000005"><a xlink:href="classarcade_1_1display_1_1SFMLDisplayModule.html" target="_top" xlink:title=" ">
<polygon fill="white" stroke="#bfbfbf" points="507,-30 348,-30 348,0 507,0 507,-30"/>
<text text-anchor="start" x="356" y="-18" font-family="Helvetica,sans-Serif" font-size="10.00">arcade::display::SFMLDisplay</text>
<text text-anchor="middle" x="427.5" y="-7" font-family="Helvetica,sans-Serif" font-size="10.00">Module</text>
</a>
</g>
</g>
<!-- Node2&#45;&gt;Node5 -->
<g id="edge4_Node000002_Node000005" class="edge">
<title>Node2&#45;&gt;Node5</title>
<g id="a_edge4_Node000002_Node000005"><a xlink:title=" ">
<path fill="none" stroke="#63b8ff" d="M310.47,-45.35C329.74,-40.31 350.55,-34.87 369.15,-30"/>
<polygon fill="#63b8ff" stroke="#63b8ff" points="309.35,-42.03 300.56,-47.94 311.12,-48.8 309.35,-42.03"/>
</a>
</g>
</g>
</g>
</svg>
