<?xml version="1.0" encoding="UTF-8" standalone="no"?>
<!DOCTYPE svg PUBLIC "-//W3C//DTD SVG 1.1//EN"
 "http://www.w3.org/Graphics/SVG/1.1/DTD/svg11.dtd">
<!-- Generated by graphviz version 2.43.0 (0)
 -->
<!-- Title: arcade::game::pacman::Inky Pages: 1 -->
<svg width="136pt" height="171pt"
 viewBox="0.00 0.00 136.00 171.00" xmlns="http://www.w3.org/2000/svg" xmlns:xlink="http://www.w3.org/1999/xlink">
<g id="graph0" class="graph" transform="scale(1 1) rotate(0) translate(4 167)">
<title>arcade::game::pacman::Inky</title>
<!-- Node1 -->
<g id="Node000001" class="node">
<title>Node1</title>
<g id="a_Node000001"><a xlink:title="Implements the Inky class, which inherits directly from the ghost class.">
<polygon fill="#999999" stroke="#666666" points="128,-30 0,-30 0,0 128,0 128,-30"/>
<text text-anchor="start" x="8" y="-18" font-family="Helvetica,sans-Serif" font-size="10.00">arcade::game::pacman</text>
<text text-anchor="middle" x="64" y="-7" font-family="Helvetica,sans-Serif" font-size="10.00">::Inky</text>
</a>
</g>
</g>
<!-- Node2 -->
<g id="Node000002" class="node">
<title>Node2</title>
<g id="a_Node000002"><a xlink:href="classarcade_1_1game_1_1pacman_1_1Ghost.html" target="_top" xlink:title="Abstract base class for ghosts in the Pacman game.">
<polygon fill="white" stroke="#666666" points="128,-97 0,-97 0,-67 128,-67 128,-97"/>
<text text-anchor="start" x="8" y="-85" font-family="Helvetica,sans-Serif" font-size="10.00">arcade::game::pacman</text>
<text text-anchor="middle" x="64" y="-74" font-family="Helvetica,sans-Serif" font-size="10.00">::Ghost</text>
</a>
</g>
</g>
<!-- Node2&#45;&gt;Node1 -->
<g id="edge1_Node000001_Node000002" class="edge">
<title>Node2&#45;&gt;Node1</title>
<g id="a_edge1_Node000001_Node000002"><a xlink:title=" ">
<path fill="none" stroke="#63b8ff" d="M64,-56.61C64,-47.65 64,-37.82 64,-30.08"/>
<polygon fill="#63b8ff" stroke="#63b8ff" points="60.5,-56.9 64,-66.9 67.5,-56.9 60.5,-56.9"/>
</a>
</g>
</g>
<!-- Node3 -->
<g id="Node000003" class="node">
<title>Node3</title>
<g id="a_Node000003"><a xlink:href="structarcade_1_1types_1_1Position.html" target="_top" xlink:title="Defines the position of entities.">
<polygon fill="white" stroke="#666666" points="128,-163 0,-163 0,-144 128,-144 128,-163"/>
<text text-anchor="middle" x="64" y="-151" font-family="Helvetica,sans-Serif" font-size="10.00">arcade::types::Position</text>
</a>
</g>
</g>
<!-- Node3&#45;&gt;Node2 -->
<g id="edge2_Node000002_Node000003" class="edge">
<title>Node3&#45;&gt;Node2</title>
<g id="a_edge2_Node000002_Node000003"><a xlink:title=" ">
<path fill="none" stroke="#9a32cd" stroke-dasharray="5,2" d="M64,-133.71C64,-122.19 64,-107.68 64,-97.14"/>
<polygon fill="#9a32cd" stroke="#9a32cd" points="60.5,-133.98 64,-143.98 67.5,-133.98 60.5,-133.98"/>
</a>
</g>
<text text-anchor="middle" x="88" y="-118" font-family="Helvetica,sans-Serif" font-size="10.00" fill="grey"> _position</text>
</g>
</g>
</svg>
