<?xml version="1.0" encoding="UTF-8" standalone="no"?>
<!DOCTYPE svg PUBLIC "-//W3C//DTD SVG 1.1//EN"
 "http://www.w3.org/Graphics/SVG/1.1/DTD/svg11.dtd">
<!-- Generated by graphviz version 2.43.0 (0)
 -->
<!-- Title: src/Core/Core.cpp Pages: 1 -->
<svg width="1031pt" height="247pt"
 viewBox="0.00 0.00 1030.96 247.00" xmlns="http://www.w3.org/2000/svg" xmlns:xlink="http://www.w3.org/1999/xlink">
<g id="graph0" class="graph" transform="scale(1 1) rotate(0) translate(4 243)">
<title>src/Core/Core.cpp</title>
<!-- Node1 -->
<g id="Node000001" class="node">
<title>Node1</title>
<g id="a_Node000001"><a xlink:title="Contains the core program methods.">
<polygon fill="#999999" stroke="#666666" points="697.96,-239 595.96,-239 595.96,-220 697.96,-220 697.96,-239"/>
<text text-anchor="middle" x="646.96" y="-227" font-family="Helvetica,sans-Serif" font-size="10.00">src/Core/Core.cpp</text>
</a>
</g>
</g>
<!-- Node2 -->
<g id="Node000002" class="node">
<title>Node2</title>
<g id="a_Node000002"><a xlink:href="Core_8hpp.html" target="_top" xlink:title="Declaration of the Core class and associated definitions.">
<polygon fill="white" stroke="#666666" points="534.96,-184 474.96,-184 474.96,-165 534.96,-165 534.96,-184"/>
<text text-anchor="middle" x="504.96" y="-172" font-family="Helvetica,sans-Serif" font-size="10.00">Core.hpp</text>
</a>
</g>
</g>
<!-- Node1&#45;&gt;Node2 -->
<g id="edge1_Node000001_Node000002" class="edge">
<title>Node1&#45;&gt;Node2</title>
<g id="a_edge1_Node000001_Node000002"><a xlink:title=" ">
<path fill="none" stroke="#63b8ff" d="M624.14,-219.98C600.78,-211.27 564.25,-197.63 537.79,-187.75"/>
<polygon fill="#63b8ff" stroke="#63b8ff" points="538.78,-184.39 528.19,-184.17 536.33,-190.95 538.78,-184.39"/>
</a>
</g>
</g>
<!-- Node12 -->
<g id="Node000012" class="node">
<title>Node12</title>
<g id="a_Node000012"><a xlink:href="Types_8hpp.html" target="_top" xlink:title="Defines the core data structures and types used across the Arcade project.">
<polygon fill="white" stroke="#666666" points="132.96,-74 10.96,-74 10.96,-55 132.96,-55 132.96,-74"/>
<text text-anchor="middle" x="71.96" y="-62" font-family="Helvetica,sans-Serif" font-size="10.00">../../include/Types.hpp</text>
</a>
</g>
</g>
<!-- Node1&#45;&gt;Node12 -->
<g id="edge23_Node000001_Node000012" class="edge">
<title>Node1&#45;&gt;Node12</title>
<g id="a_edge23_Node000001_Node000012"><a xlink:title=" ">
<path fill="none" stroke="#63b8ff" d="M595.76,-228.71C457.4,-228.09 81.29,-218.07 4.96,-129 -11.23,-110.12 16.83,-90.79 41.44,-78.5"/>
<polygon fill="#63b8ff" stroke="#63b8ff" points="43.07,-81.6 50.6,-74.15 40.06,-75.28 43.07,-81.6"/>
</a>
</g>
</g>
<!-- Node16 -->
<g id="Node000016" class="node">
<title>Node16</title>
<g id="a_Node000016"><a xlink:href="Error_8hpp.html" target="_top" xlink:title="Declaration of the program&#39;s custom exception class.">
<polygon fill="white" stroke="#666666" points="916.46,-129 821.46,-129 821.46,-110 916.46,-110 916.46,-129"/>
<text text-anchor="middle" x="868.96" y="-117" font-family="Helvetica,sans-Serif" font-size="10.00">../Utils/Error.hpp</text>
</a>
</g>
</g>
<!-- Node1&#45;&gt;Node16 -->
<g id="edge24_Node000001_Node000016" class="edge">
<title>Node1&#45;&gt;Node16</title>
<g id="a_edge24_Node000001_Node000016"><a xlink:title=" ">
<path fill="none" stroke="#63b8ff" d="M664.75,-219.84C703.65,-200.92 796.46,-155.77 842.35,-133.45"/>
<polygon fill="#63b8ff" stroke="#63b8ff" points="843.93,-136.57 851.39,-129.05 840.87,-130.27 843.93,-136.57"/>
</a>
</g>
</g>
<!-- Node19 -->
<g id="Node000019" class="node">
<title>Node19</title>
<g id="a_Node000019"><a xlink:href="GetLib_8hpp.html" target="_top" xlink:title="This file contains the function responsible for managing shared libraries (.so).">
<polygon fill="white" stroke="#666666" points="958.96,-184 854.96,-184 854.96,-165 958.96,-165 958.96,-184"/>
<text text-anchor="middle" x="906.96" y="-172" font-family="Helvetica,sans-Serif" font-size="10.00">../Utils/GetLib.hpp</text>
</a>
</g>
</g>
<!-- Node1&#45;&gt;Node19 -->
<g id="edge28_Node000001_Node000019" class="edge">
<title>Node1&#45;&gt;Node19</title>
<g id="a_edge28_Node000001_Node000019"><a xlink:title=" ">
<path fill="none" stroke="#63b8ff" d="M688.73,-219.98C733.89,-210.78 805.95,-196.09 854.8,-186.13"/>
<polygon fill="#63b8ff" stroke="#63b8ff" points="855.76,-189.51 864.86,-184.08 854.36,-182.65 855.76,-189.51"/>
</a>
</g>
</g>
<!-- Node3 -->
<g id="Node000003" class="node">
<title>Node3</title>
<g id="a_Node000003"><a xlink:title=" ">
<polygon fill="#e0e0e0" stroke="#999999" points="236.46,-74 189.46,-74 189.46,-55 236.46,-55 236.46,-74"/>
<text text-anchor="middle" x="212.96" y="-62" font-family="Helvetica,sans-Serif" font-size="10.00">vector</text>
</a>
</g>
</g>
<!-- Node2&#45;&gt;Node3 -->
<g id="edge2_Node000002_Node000003" class="edge">
<title>Node2&#45;&gt;Node3</title>
<g id="a_edge2_Node000002_Node000003"><a xlink:title=" ">
<path fill="none" stroke="#63b8ff" d="M474.9,-174.2C401.36,-175.2 215.57,-173.2 176.96,-129 164.23,-114.42 179.5,-94.64 193.89,-81.05"/>
<polygon fill="#63b8ff" stroke="#63b8ff" points="196.45,-83.46 201.61,-74.21 191.81,-78.22 196.45,-83.46"/>
</a>
</g>
</g>
<!-- Node4 -->
<g id="Node000004" class="node">
<title>Node4</title>
<g id="a_Node000004"><a xlink:title=" ">
<polygon fill="#e0e0e0" stroke="#999999" points="736.96,-129 686.96,-129 686.96,-110 736.96,-110 736.96,-129"/>
<text text-anchor="middle" x="711.96" y="-117" font-family="Helvetica,sans-Serif" font-size="10.00">chrono</text>
</a>
</g>
</g>
<!-- Node2&#45;&gt;Node4 -->
<g id="edge3_Node000002_Node000004" class="edge">
<title>Node2&#45;&gt;Node4</title>
<g id="a_edge3_Node000002_Node000004"><a xlink:title=" ">
<path fill="none" stroke="#63b8ff" d="M535.06,-165.79C572.71,-156.15 637.06,-139.68 676.89,-129.48"/>
<polygon fill="#63b8ff" stroke="#63b8ff" points="677.89,-132.84 686.7,-126.97 676.15,-126.06 677.89,-132.84"/>
</a>
</g>
</g>
<!-- Node5 -->
<g id="Node000005" class="node">
<title>Node5</title>
<g id="a_Node000005"><a xlink:title=" ">
<polygon fill="#e0e0e0" stroke="#999999" points="802.96,-129 754.96,-129 754.96,-110 802.96,-110 802.96,-129"/>
<text text-anchor="middle" x="778.96" y="-117" font-family="Helvetica,sans-Serif" font-size="10.00">thread</text>
</a>
</g>
</g>
<!-- Node2&#45;&gt;Node5 -->
<g id="edge4_Node000002_Node000005" class="edge">
<title>Node2&#45;&gt;Node5</title>
<g id="a_edge4_Node000002_Node000005"><a xlink:title=" ">
<path fill="none" stroke="#63b8ff" d="M535.15,-168.62C579.14,-161.36 663.62,-146.84 744.95,-129.1"/>
<polygon fill="#63b8ff" stroke="#63b8ff" points="745.84,-132.48 754.85,-126.91 744.33,-125.65 745.84,-132.48"/>
</a>
</g>
</g>
<!-- Node6 -->
<g id="Node000006" class="node">
<title>Node6</title>
<g id="a_Node000006"><a xlink:title=" ">
<polygon fill="#e0e0e0" stroke="#999999" points="650.96,-19 606.96,-19 606.96,0 650.96,0 650.96,-19"/>
<text text-anchor="middle" x="628.96" y="-7" font-family="Helvetica,sans-Serif" font-size="10.00">string</text>
</a>
</g>
</g>
<!-- Node2&#45;&gt;Node6 -->
<g id="edge5_Node000002_Node000006" class="edge">
<title>Node2&#45;&gt;Node6</title>
<g id="a_edge5_Node000002_Node000006"><a xlink:title=" ">
<path fill="none" stroke="#63b8ff" d="M534.99,-170.51C561.62,-166.13 599.25,-155.39 618.96,-129 640.81,-99.73 637.24,-54.33 632.94,-29.06"/>
<polygon fill="#63b8ff" stroke="#63b8ff" points="636.33,-28.16 631.01,-19 629.46,-29.49 636.33,-28.16"/>
</a>
</g>
</g>
<!-- Node7 -->
<g id="Node000007" class="node">
<title>Node7</title>
<g id="a_Node000007"><a xlink:title=" ">
<polygon fill="#e0e0e0" stroke="#999999" points="243.96,-129 185.96,-129 185.96,-110 243.96,-110 243.96,-129"/>
<text text-anchor="middle" x="214.96" y="-117" font-family="Helvetica,sans-Serif" font-size="10.00">memory</text>
</a>
</g>
</g>
<!-- Node2&#45;&gt;Node7 -->
<g id="edge6_Node000002_Node000007" class="edge">
<title>Node2&#45;&gt;Node7</title>
<g id="a_edge6_Node000002_Node000007"><a xlink:title=" ">
<path fill="none" stroke="#63b8ff" d="M474.62,-168.6C428.96,-161.12 339.63,-146.11 253.87,-129.11"/>
<polygon fill="#63b8ff" stroke="#63b8ff" points="254.47,-125.66 243.97,-127.13 253.1,-132.52 254.47,-125.66"/>
</a>
</g>
</g>
<!-- Node8 -->
<g id="Node000008" class="node">
<title>Node8</title>
<g id="a_Node000008"><a xlink:title=" ">
<polygon fill="#e0e0e0" stroke="#999999" points="311.96,-129 261.96,-129 261.96,-110 311.96,-110 311.96,-129"/>
<text text-anchor="middle" x="286.96" y="-117" font-family="Helvetica,sans-Serif" font-size="10.00">cstring</text>
</a>
</g>
</g>
<!-- Node2&#45;&gt;Node8 -->
<g id="edge7_Node000002_Node000008" class="edge">
<title>Node2&#45;&gt;Node8</title>
<g id="a_edge7_Node000002_Node000008"><a xlink:title=" ">
<path fill="none" stroke="#63b8ff" d="M474.66,-166.25C440.1,-157.96 381.64,-143.89 322.14,-129.28"/>
<polygon fill="#63b8ff" stroke="#63b8ff" points="322.75,-125.82 312.2,-126.83 321.08,-132.62 322.75,-125.82"/>
</a>
</g>
</g>
<!-- Node9 -->
<g id="Node000009" class="node">
<title>Node9</title>
<g id="a_Node000009"><a xlink:title=" ">
<polygon fill="#e0e0e0" stroke="#999999" points="397.96,-129 329.96,-129 329.96,-110 397.96,-110 397.96,-129"/>
<text text-anchor="middle" x="363.96" y="-117" font-family="Helvetica,sans-Serif" font-size="10.00">filesystem</text>
</a>
</g>
</g>
<!-- Node2&#45;&gt;Node9 -->
<g id="edge8_Node000002_Node000009" class="edge">
<title>Node2&#45;&gt;Node9</title>
<g id="a_edge8_Node000002_Node000009"><a xlink:title=" ">
<path fill="none" stroke="#63b8ff" d="M482.3,-164.98C459.11,-156.27 422.83,-142.63 396.56,-132.75"/>
<polygon fill="#63b8ff" stroke="#63b8ff" points="397.62,-129.41 387.02,-129.17 395.15,-135.97 397.62,-129.41"/>
</a>
</g>
</g>
<!-- Node10 -->
<g id="Node000010" class="node">
<title>Node10</title>
<g id="a_Node000010"><a xlink:title=" ">
<polygon fill="#e0e0e0" stroke="#999999" points="551.46,-74 458.46,-74 458.46,-55 551.46,-55 551.46,-74"/>
<text text-anchor="middle" x="504.96" y="-62" font-family="Helvetica,sans-Serif" font-size="10.00">unordered_map</text>
</a>
</g>
</g>
<!-- Node2&#45;&gt;Node10 -->
<g id="edge9_Node000002_Node000010" class="edge">
<title>Node2&#45;&gt;Node10</title>
<g id="a_edge9_Node000002_Node000010"><a xlink:title=" ">
<path fill="none" stroke="#63b8ff" d="M535.17,-166.97C570.14,-157.9 620.7,-139.22 601.96,-110 591.87,-94.28 574.68,-84.03 557.55,-77.4"/>
<polygon fill="#63b8ff" stroke="#63b8ff" points="558.68,-74.08 548.09,-74.07 556.36,-80.69 558.68,-74.08"/>
</a>
</g>
</g>
<!-- Node11 -->
<g id="Node000011" class="node">
<title>Node11</title>
<g id="a_Node000011"><a xlink:href="IGame_8hpp.html" target="_top" xlink:title="Declaration of the game interface class.">
<polygon fill="white" stroke="#666666" points="129.96,-129 13.96,-129 13.96,-110 129.96,-110 129.96,-129"/>
<text text-anchor="middle" x="71.96" y="-117" font-family="Helvetica,sans-Serif" font-size="10.00">../Games/IGame.hpp</text>
</a>
</g>
</g>
<!-- Node2&#45;&gt;Node11 -->
<g id="edge10_Node000002_Node000011" class="edge">
<title>Node2&#45;&gt;Node11</title>
<g id="a_edge10_Node000002_Node000011"><a xlink:title=" ">
<path fill="none" stroke="#63b8ff" d="M474.85,-169.82C406.11,-161.4 236.15,-140.6 140.39,-128.88"/>
<polygon fill="#63b8ff" stroke="#63b8ff" points="140.58,-125.37 130.23,-127.63 139.73,-132.32 140.58,-125.37"/>
</a>
</g>
</g>
<!-- Node15 -->
<g id="Node000015" class="node">
<title>Node15</title>
<g id="a_Node000015"><a xlink:href="IDisplayModule_8hpp.html" target="_top" xlink:title="Declaration of the graphical display interface.">
<polygon fill="white" stroke="#666666" points="593.46,-129 416.46,-129 416.46,-110 593.46,-110 593.46,-129"/>
<text text-anchor="middle" x="504.96" y="-117" font-family="Helvetica,sans-Serif" font-size="10.00">../Graphicals/IDisplayModule.hpp</text>
</a>
</g>
</g>
<!-- Node2&#45;&gt;Node15 -->
<g id="edge18_Node000002_Node000015" class="edge">
<title>Node2&#45;&gt;Node15</title>
<g id="a_edge18_Node000002_Node000015"><a xlink:title=" ">
<path fill="none" stroke="#63b8ff" d="M504.96,-164.75C504.96,-157.8 504.96,-147.85 504.96,-139.13"/>
<polygon fill="#63b8ff" stroke="#63b8ff" points="508.46,-139.09 504.96,-129.09 501.46,-139.09 508.46,-139.09"/>
</a>
</g>
</g>
<!-- Node11&#45;&gt;Node3 -->
<g id="edge12_Node000011_Node000003" class="edge">
<title>Node11&#45;&gt;Node3</title>
<g id="a_edge12_Node000011_Node000003"><a xlink:title=" ">
<path fill="none" stroke="#63b8ff" d="M94.61,-109.98C117.8,-101.27 154.08,-87.63 180.36,-77.75"/>
<polygon fill="#63b8ff" stroke="#63b8ff" points="181.76,-80.97 189.89,-74.17 179.3,-74.41 181.76,-80.97"/>
</a>
</g>
</g>
<!-- Node11&#45;&gt;Node6 -->
<g id="edge11_Node000011_Node000006" class="edge">
<title>Node11&#45;&gt;Node6</title>
<g id="a_edge11_Node000011_Node000006"><a xlink:title=" ">
<path fill="none" stroke="#63b8ff" d="M85.11,-109.79C109.28,-93.95 160.1,-61.47 179.96,-55 257.7,-29.66 507.24,-16.05 596.68,-11.9"/>
<polygon fill="#63b8ff" stroke="#63b8ff" points="596.94,-15.39 606.77,-11.44 596.62,-8.4 596.94,-15.39"/>
</a>
</g>
</g>
<!-- Node11&#45;&gt;Node10 -->
<g id="edge13_Node000011_Node000010" class="edge">
<title>Node11&#45;&gt;Node10</title>
<g id="a_edge13_Node000011_Node000010"><a xlink:title=" ">
<path fill="none" stroke="#63b8ff" d="M130.35,-111.35C213.79,-101.14 366.09,-82.5 448.46,-72.41"/>
<polygon fill="#63b8ff" stroke="#63b8ff" points="448.89,-75.89 458.4,-71.2 448.04,-68.94 448.89,-75.89"/>
</a>
</g>
</g>
<!-- Node11&#45;&gt;Node12 -->
<g id="edge14_Node000011_Node000012" class="edge">
<title>Node11&#45;&gt;Node12</title>
<g id="a_edge14_Node000011_Node000012"><a xlink:title=" ">
<path fill="none" stroke="#63b8ff" d="M71.96,-109.75C71.96,-102.8 71.96,-92.85 71.96,-84.13"/>
<polygon fill="#63b8ff" stroke="#63b8ff" points="75.46,-84.09 71.96,-74.09 68.46,-84.09 75.46,-84.09"/>
</a>
</g>
</g>
<!-- Node12&#45;&gt;Node6 -->
<g id="edge17_Node000012_Node000006" class="edge">
<title>Node12&#45;&gt;Node6</title>
<g id="a_edge17_Node000012_Node000006"><a xlink:title=" ">
<path fill="none" stroke="#63b8ff" d="M133.34,-56.44C137.95,-55.94 142.52,-55.46 146.96,-55 316.22,-37.6 519.25,-19.89 596.76,-13.24"/>
<polygon fill="#63b8ff" stroke="#63b8ff" points="597.18,-16.72 606.84,-12.38 596.58,-9.74 597.18,-16.72"/>
</a>
</g>
</g>
<!-- Node13 -->
<g id="Node000013" class="node">
<title>Node13</title>
<g id="a_Node000013"><a xlink:title=" ">
<polygon fill="#e0e0e0" stroke="#999999" points="58.96,-19 8.96,-19 8.96,0 58.96,0 58.96,-19"/>
<text text-anchor="middle" x="33.96" y="-7" font-family="Helvetica,sans-Serif" font-size="10.00">cstdint</text>
</a>
</g>
</g>
<!-- Node12&#45;&gt;Node13 -->
<g id="edge15_Node000012_Node000013" class="edge">
<title>Node12&#45;&gt;Node13</title>
<g id="a_edge15_Node000012_Node000013"><a xlink:title=" ">
<path fill="none" stroke="#63b8ff" d="M65.68,-54.75C60.37,-47.34 52.6,-36.5 46.08,-27.41"/>
<polygon fill="#63b8ff" stroke="#63b8ff" points="48.79,-25.18 40.12,-19.09 43.1,-29.26 48.79,-25.18"/>
</a>
</g>
</g>
<!-- Node14 -->
<g id="Node000014" class="node">
<title>Node14</title>
<g id="a_Node000014"><a xlink:title=" ">
<polygon fill="#e0e0e0" stroke="#999999" points="142.46,-19 77.46,-19 77.46,0 142.46,0 142.46,-19"/>
<text text-anchor="middle" x="109.96" y="-7" font-family="Helvetica,sans-Serif" font-size="10.00">functional</text>
</a>
</g>
</g>
<!-- Node12&#45;&gt;Node14 -->
<g id="edge16_Node000012_Node000014" class="edge">
<title>Node12&#45;&gt;Node14</title>
<g id="a_edge16_Node000012_Node000014"><a xlink:title=" ">
<path fill="none" stroke="#63b8ff" d="M78.23,-54.75C83.54,-47.34 91.31,-36.5 97.83,-27.41"/>
<polygon fill="#63b8ff" stroke="#63b8ff" points="100.82,-29.26 103.8,-19.09 95.13,-25.18 100.82,-29.26"/>
</a>
</g>
</g>
<!-- Node15&#45;&gt;Node3 -->
<g id="edge22_Node000015_Node000003" class="edge">
<title>Node15&#45;&gt;Node3</title>
<g id="a_edge22_Node000015_Node000003"><a xlink:title=" ">
<path fill="none" stroke="#63b8ff" d="M458.04,-109.98C398.92,-99.25 298.75,-81.07 246.67,-71.62"/>
<polygon fill="#63b8ff" stroke="#63b8ff" points="247.09,-68.14 236.62,-69.8 245.83,-75.02 247.09,-68.14"/>
</a>
</g>
</g>
<!-- Node15&#45;&gt;Node6 -->
<g id="edge20_Node000015_Node000006" class="edge">
<title>Node15&#45;&gt;Node6</title>
<g id="a_edge20_Node000015_Node000006"><a xlink:title=" ">
<path fill="none" stroke="#63b8ff" d="M516.08,-109.84C527.32,-101.01 545.08,-86.84 559.96,-74 578.29,-58.17 598.63,-39.29 612.44,-26.25"/>
<polygon fill="#63b8ff" stroke="#63b8ff" points="614.9,-28.74 619.75,-19.32 610.09,-23.66 614.9,-28.74"/>
</a>
</g>
</g>
<!-- Node15&#45;&gt;Node10 -->
<g id="edge21_Node000015_Node000010" class="edge">
<title>Node15&#45;&gt;Node10</title>
<g id="a_edge21_Node000015_Node000010"><a xlink:title=" ">
<path fill="none" stroke="#63b8ff" d="M504.96,-109.75C504.96,-102.8 504.96,-92.85 504.96,-84.13"/>
<polygon fill="#63b8ff" stroke="#63b8ff" points="508.46,-84.09 504.96,-74.09 501.46,-84.09 508.46,-84.09"/>
</a>
</g>
</g>
<!-- Node15&#45;&gt;Node12 -->
<g id="edge19_Node000015_Node000012" class="edge">
<title>Node15&#45;&gt;Node12</title>
<g id="a_edge19_Node000015_Node000012"><a xlink:title=" ">
<path fill="none" stroke="#63b8ff" d="M435.39,-109.98C355.26,-100.18 224.3,-84.15 143.4,-74.24"/>
<polygon fill="#63b8ff" stroke="#63b8ff" points="143.65,-70.75 133.3,-73.01 142.8,-77.7 143.65,-70.75"/>
</a>
</g>
</g>
<!-- Node16&#45;&gt;Node6 -->
<g id="edge27_Node000016_Node000006" class="edge">
<title>Node16&#45;&gt;Node6</title>
<g id="a_edge27_Node000016_Node000006"><a xlink:title=" ">
<path fill="none" stroke="#63b8ff" d="M846.21,-109.96C823.62,-101.35 788.11,-87.44 757.96,-74 721.57,-57.78 680.41,-37.1 654.57,-23.83"/>
<polygon fill="#63b8ff" stroke="#63b8ff" points="655.96,-20.6 645.46,-19.13 652.75,-26.82 655.96,-20.6"/>
</a>
</g>
</g>
<!-- Node17 -->
<g id="Node000017" class="node">
<title>Node17</title>
<g id="a_Node000017"><a xlink:title=" ">
<polygon fill="#e0e0e0" stroke="#999999" points="832.46,-74 767.46,-74 767.46,-55 832.46,-55 832.46,-74"/>
<text text-anchor="middle" x="799.96" y="-62" font-family="Helvetica,sans-Serif" font-size="10.00">exception</text>
</a>
</g>
</g>
<!-- Node16&#45;&gt;Node17 -->
<g id="edge25_Node000016_Node000017" class="edge">
<title>Node16&#45;&gt;Node17</title>
<g id="a_edge25_Node000016_Node000017"><a xlink:title=" ">
<path fill="none" stroke="#63b8ff" d="M857.87,-109.98C847.47,-102 831.7,-89.88 819.24,-80.31"/>
<polygon fill="#63b8ff" stroke="#63b8ff" points="821.31,-77.49 811.24,-74.17 817.04,-83.04 821.31,-77.49"/>
</a>
</g>
</g>
<!-- Node18 -->
<g id="Node000018" class="node">
<title>Node18</title>
<g id="a_Node000018"><a xlink:title=" ">
<polygon fill="#e0e0e0" stroke="#999999" points="906.96,-74 850.96,-74 850.96,-55 906.96,-55 906.96,-74"/>
<text text-anchor="middle" x="878.96" y="-62" font-family="Helvetica,sans-Serif" font-size="10.00">sstream</text>
</a>
</g>
</g>
<!-- Node16&#45;&gt;Node18 -->
<g id="edge26_Node000016_Node000018" class="edge">
<title>Node16&#45;&gt;Node18</title>
<g id="a_edge26_Node000016_Node000018"><a xlink:title=" ">
<path fill="none" stroke="#63b8ff" d="M870.61,-109.75C871.92,-102.8 873.8,-92.85 875.44,-84.13"/>
<polygon fill="#63b8ff" stroke="#63b8ff" points="878.92,-84.56 877.34,-74.09 872.04,-83.27 878.92,-84.56"/>
</a>
</g>
</g>
<!-- Node19&#45;&gt;Node6 -->
<g id="edge31_Node000019_Node000006" class="edge">
<title>Node19&#45;&gt;Node6</title>
<g id="a_edge31_Node000019_Node000006"><a xlink:title=" ">
<path fill="none" stroke="#63b8ff" d="M911.46,-164.81C922.15,-142.85 945.99,-84.78 915.96,-55 880.53,-19.87 728.35,-12.46 661.11,-10.91"/>
<polygon fill="#63b8ff" stroke="#63b8ff" points="661.15,-7.41 651.08,-10.7 661,-14.41 661.15,-7.41"/>
</a>
</g>
</g>
<!-- Node19&#45;&gt;Node16 -->
<g id="edge29_Node000019_Node000016" class="edge">
<title>Node19&#45;&gt;Node16</title>
<g id="a_edge29_Node000019_Node000016"><a xlink:title=" ">
<path fill="none" stroke="#63b8ff" d="M900.68,-164.75C895.37,-157.34 887.6,-146.5 881.08,-137.41"/>
<polygon fill="#63b8ff" stroke="#63b8ff" points="883.79,-135.18 875.12,-129.09 878.1,-139.26 883.79,-135.18"/>
</a>
</g>
</g>
<!-- Node20 -->
<g id="Node000020" class="node">
<title>Node20</title>
<g id="a_Node000020"><a xlink:title=" ">
<polygon fill="#e0e0e0" stroke="#999999" points="1022.96,-129 972.96,-129 972.96,-110 1022.96,-110 1022.96,-129"/>
<text text-anchor="middle" x="997.96" y="-117" font-family="Helvetica,sans-Serif" font-size="10.00">dlfcn.h</text>
</a>
</g>
</g>
<!-- Node19&#45;&gt;Node20 -->
<g id="edge30_Node000019_Node000020" class="edge">
<title>Node19&#45;&gt;Node20</title>
<g id="a_edge30_Node000019_Node000020"><a xlink:title=" ">
<path fill="none" stroke="#63b8ff" d="M921.58,-164.98C935.82,-156.69 957.71,-143.94 974.41,-134.22"/>
<polygon fill="#63b8ff" stroke="#63b8ff" points="976.19,-137.23 983.07,-129.17 972.67,-131.18 976.19,-137.23"/>
</a>
</g>
</g>
</g>
</svg>
