<?xml version="1.0" encoding="UTF-8" standalone="no"?>
<!DOCTYPE svg PUBLIC "-//W3C//DTD SVG 1.1//EN"
 "http://www.w3.org/Graphics/SVG/1.1/DTD/svg11.dtd">
<!-- Generated by graphviz version 2.43.0 (0)
 -->
<!-- Title: src/Core/Core.hpp Pages: 1 -->
<svg width="401pt" height="82pt"
 viewBox="0.00 0.00 401.00 82.00" xmlns="http://www.w3.org/2000/svg" xmlns:xlink="http://www.w3.org/1999/xlink">
<g id="graph0" class="graph" transform="scale(1 1) rotate(0) translate(4 78)">
<title>src/Core/Core.hpp</title>
<!-- Node1 -->
<g id="Node000001" class="node">
<title>Node1</title>
<g id="a_Node000001"><a xlink:title="Declaration of the Core class and associated definitions.">
<polygon fill="#999999" stroke="#666666" points="246.5,-74 143.5,-74 143.5,-55 246.5,-55 246.5,-74"/>
<text text-anchor="middle" x="195" y="-62" font-family="Helvetica,sans-Serif" font-size="10.00">src/Core/Core.hpp</text>
</a>
</g>
</g>
<!-- Node2 -->
<g id="Node000002" class="node">
<title>Node2</title>
<g id="a_Node000002"><a xlink:href="Core_8cpp.html" target="_top" xlink:title="Contains the core program methods.">
<polygon fill="white" stroke="#666666" points="102,-19 0,-19 0,0 102,0 102,-19"/>
<text text-anchor="middle" x="51" y="-7" font-family="Helvetica,sans-Serif" font-size="10.00">src/Core/Core.cpp</text>
</a>
</g>
</g>
<!-- Node1&#45;&gt;Node2 -->
<g id="edge1_Node000001_Node000002" class="edge">
<title>Node1&#45;&gt;Node2</title>
<g id="a_edge1_Node000001_Node000002"><a xlink:title=" ">
<path fill="none" stroke="#63b8ff" d="M162.18,-51.42C135.47,-41.59 98.4,-27.95 74.56,-19.17"/>
<polygon fill="#63b8ff" stroke="#63b8ff" points="161.27,-54.82 171.86,-54.98 163.69,-48.25 161.27,-54.82"/>
</a>
</g>
</g>
<!-- Node3 -->
<g id="Node000003" class="node">
<title>Node3</title>
<g id="a_Node000003"><a xlink:href="Menu_8cpp.html" target="_top" xlink:title="Declares global variables used to store user selections in the Arcade menu.">
<polygon fill="white" stroke="#666666" points="269.5,-19 120.5,-19 120.5,0 269.5,0 269.5,-19"/>
<text text-anchor="middle" x="195" y="-7" font-family="Helvetica,sans-Serif" font-size="10.00">src/Games/Menu/Menu.cpp</text>
</a>
</g>
</g>
<!-- Node1&#45;&gt;Node3 -->
<g id="edge2_Node000001_Node000003" class="edge">
<title>Node1&#45;&gt;Node3</title>
<g id="a_edge2_Node000001_Node000003"><a xlink:title=" ">
<path fill="none" stroke="#63b8ff" d="M195,-44.66C195,-35.93 195,-25.99 195,-19.09"/>
<polygon fill="#63b8ff" stroke="#63b8ff" points="191.5,-44.75 195,-54.75 198.5,-44.75 191.5,-44.75"/>
</a>
</g>
</g>
<!-- Node4 -->
<g id="Node000004" class="node">
<title>Node4</title>
<g id="a_Node000004"><a xlink:href="main_8cpp.html" target="_top" xlink:title="Main entry point of the program.">
<polygon fill="white" stroke="#666666" points="393,-19 287,-19 287,0 393,0 393,-19"/>
<text text-anchor="middle" x="340" y="-7" font-family="Helvetica,sans-Serif" font-size="10.00">src/Main/main.cpp</text>
</a>
</g>
</g>
<!-- Node1&#45;&gt;Node4 -->
<g id="edge3_Node000001_Node000004" class="edge">
<title>Node1&#45;&gt;Node4</title>
<g id="a_edge3_Node000001_Node000004"><a xlink:title=" ">
<path fill="none" stroke="#63b8ff" d="M227.69,-51.55C254.62,-41.71 292.16,-27.98 316.28,-19.17"/>
<polygon fill="#63b8ff" stroke="#63b8ff" points="226.49,-48.26 218.3,-54.98 228.89,-54.84 226.49,-48.26"/>
</a>
</g>
</g>
</g>
</svg>
