<?xml version="1.0" encoding="UTF-8" standalone="no"?>
<!DOCTYPE svg PUBLIC "-//W3C//DTD SVG 1.1//EN"
 "http://www.w3.org/Graphics/SVG/1.1/DTD/svg11.dtd">
<!-- Generated by graphviz version 2.43.0 (0)
 -->
<!-- Title: src/Core/Core.hpp Pages: 1 -->
<svg width="811pt" height="192pt"
 viewBox="0.00 0.00 810.50 192.00" xmlns="http://www.w3.org/2000/svg" xmlns:xlink="http://www.w3.org/1999/xlink">
<g id="graph0" class="graph" transform="scale(1 1) rotate(0) translate(4 188)">
<title>src/Core/Core.hpp</title>
<!-- Node1 -->
<g id="Node000001" class="node">
<title>Node1</title>
<g id="a_Node000001"><a xlink:title="Declaration of the Core class and associated definitions.">
<polygon fill="#999999" stroke="#666666" points="506,-184 403,-184 403,-165 506,-165 506,-184"/>
<text text-anchor="middle" x="454.5" y="-172" font-family="Helvetica,sans-Serif" font-size="10.00">src/Core/Core.hpp</text>
</a>
</g>
</g>
<!-- Node2 -->
<g id="Node000002" class="node">
<title>Node2</title>
<g id="a_Node000002"><a xlink:title=" ">
<polygon fill="#e0e0e0" stroke="#999999" points="47,-74 0,-74 0,-55 47,-55 47,-74"/>
<text text-anchor="middle" x="23.5" y="-62" font-family="Helvetica,sans-Serif" font-size="10.00">vector</text>
</a>
</g>
</g>
<!-- Node1&#45;&gt;Node2 -->
<g id="edge1_Node000001_Node000002" class="edge">
<title>Node1&#45;&gt;Node2</title>
<g id="a_edge1_Node000001_Node000002"><a xlink:title=" ">
<path fill="none" stroke="#63b8ff" d="M402.88,-171.09C298.45,-165.76 69.71,-151.63 42.5,-129 29.52,-118.2 25.17,-98.91 23.83,-84.42"/>
<polygon fill="#63b8ff" stroke="#63b8ff" points="27.31,-83.88 23.29,-74.08 20.32,-84.25 27.31,-83.88"/>
</a>
</g>
</g>
<!-- Node3 -->
<g id="Node000003" class="node">
<title>Node3</title>
<g id="a_Node000003"><a xlink:title=" ">
<polygon fill="#e0e0e0" stroke="#999999" points="506.5,-129 456.5,-129 456.5,-110 506.5,-110 506.5,-129"/>
<text text-anchor="middle" x="481.5" y="-117" font-family="Helvetica,sans-Serif" font-size="10.00">chrono</text>
</a>
</g>
</g>
<!-- Node1&#45;&gt;Node3 -->
<g id="edge2_Node000001_Node000003" class="edge">
<title>Node1&#45;&gt;Node3</title>
<g id="a_edge2_Node000001_Node000003"><a xlink:title=" ">
<path fill="none" stroke="#63b8ff" d="M458.96,-164.75C462.62,-157.57 467.91,-147.18 472.45,-138.27"/>
<polygon fill="#63b8ff" stroke="#63b8ff" points="475.7,-139.59 477.12,-129.09 469.47,-136.41 475.7,-139.59"/>
</a>
</g>
</g>
<!-- Node4 -->
<g id="Node000004" class="node">
<title>Node4</title>
<g id="a_Node000004"><a xlink:title=" ">
<polygon fill="#e0e0e0" stroke="#999999" points="572.5,-129 524.5,-129 524.5,-110 572.5,-110 572.5,-129"/>
<text text-anchor="middle" x="548.5" y="-117" font-family="Helvetica,sans-Serif" font-size="10.00">thread</text>
</a>
</g>
</g>
<!-- Node1&#45;&gt;Node4 -->
<g id="edge3_Node000001_Node000004" class="edge">
<title>Node1&#45;&gt;Node4</title>
<g id="a_edge3_Node000001_Node000004"><a xlink:title=" ">
<path fill="none" stroke="#63b8ff" d="M469.6,-164.98C484.32,-156.69 506.92,-143.94 524.17,-134.22"/>
<polygon fill="#63b8ff" stroke="#63b8ff" points="526.13,-137.13 533.12,-129.17 522.69,-131.03 526.13,-137.13"/>
</a>
</g>
</g>
<!-- Node5 -->
<g id="Node000005" class="node">
<title>Node5</title>
<g id="a_Node000005"><a xlink:title=" ">
<polygon fill="#e0e0e0" stroke="#999999" points="271.5,-19 227.5,-19 227.5,0 271.5,0 271.5,-19"/>
<text text-anchor="middle" x="249.5" y="-7" font-family="Helvetica,sans-Serif" font-size="10.00">string</text>
</a>
</g>
</g>
<!-- Node1&#45;&gt;Node5 -->
<g id="edge4_Node000001_Node000005" class="edge">
<title>Node1&#45;&gt;Node5</title>
<g id="a_edge4_Node000001_Node000005"><a xlink:title=" ">
<path fill="none" stroke="#63b8ff" d="M449.84,-164.77C437.92,-143.22 404.23,-86.94 361.5,-55 337.56,-37.11 305.46,-25.33 281.76,-18.41"/>
<polygon fill="#63b8ff" stroke="#63b8ff" points="282.42,-14.96 271.85,-15.65 280.55,-21.7 282.42,-14.96"/>
</a>
</g>
</g>
<!-- Node6 -->
<g id="Node000006" class="node">
<title>Node6</title>
<g id="a_Node000006"><a xlink:title=" ">
<polygon fill="#e0e0e0" stroke="#999999" points="648.5,-129 590.5,-129 590.5,-110 648.5,-110 648.5,-129"/>
<text text-anchor="middle" x="619.5" y="-117" font-family="Helvetica,sans-Serif" font-size="10.00">memory</text>
</a>
</g>
</g>
<!-- Node1&#45;&gt;Node6 -->
<g id="edge5_Node000001_Node000006" class="edge">
<title>Node1&#45;&gt;Node6</title>
<g id="a_edge5_Node000001_Node000006"><a xlink:title=" ">
<path fill="none" stroke="#63b8ff" d="M481.01,-164.98C508.71,-156.09 552.36,-142.07 583.24,-132.15"/>
<polygon fill="#63b8ff" stroke="#63b8ff" points="584.33,-135.47 592.78,-129.08 582.19,-128.81 584.33,-135.47"/>
</a>
</g>
</g>
<!-- Node7 -->
<g id="Node000007" class="node">
<title>Node7</title>
<g id="a_Node000007"><a xlink:title=" ">
<polygon fill="#e0e0e0" stroke="#999999" points="716.5,-129 666.5,-129 666.5,-110 716.5,-110 716.5,-129"/>
<text text-anchor="middle" x="691.5" y="-117" font-family="Helvetica,sans-Serif" font-size="10.00">cstring</text>
</a>
</g>
</g>
<!-- Node1&#45;&gt;Node7 -->
<g id="edge6_Node000001_Node000007" class="edge">
<title>Node1&#45;&gt;Node7</title>
<g id="a_edge6_Node000001_Node000007"><a xlink:title=" ">
<path fill="none" stroke="#63b8ff" d="M495.02,-164.98C533.97,-156.71 594.73,-143.6 656.37,-129.21"/>
<polygon fill="#63b8ff" stroke="#63b8ff" points="657.33,-132.58 666.27,-126.89 655.73,-125.77 657.33,-132.58"/>
</a>
</g>
</g>
<!-- Node8 -->
<g id="Node000008" class="node">
<title>Node8</title>
<g id="a_Node000008"><a xlink:title=" ">
<polygon fill="#e0e0e0" stroke="#999999" points="802.5,-129 734.5,-129 734.5,-110 802.5,-110 802.5,-129"/>
<text text-anchor="middle" x="768.5" y="-117" font-family="Helvetica,sans-Serif" font-size="10.00">filesystem</text>
</a>
</g>
</g>
<!-- Node1&#45;&gt;Node8 -->
<g id="edge7_Node000001_Node000008" class="edge">
<title>Node1&#45;&gt;Node8</title>
<g id="a_edge7_Node000001_Node000008"><a xlink:title=" ">
<path fill="none" stroke="#63b8ff" d="M506.03,-165.55C558.48,-157.34 642.39,-143.89 724.28,-129.17"/>
<polygon fill="#63b8ff" stroke="#63b8ff" points="725.03,-132.6 734.25,-127.37 723.79,-125.71 725.03,-132.6"/>
</a>
</g>
</g>
<!-- Node9 -->
<g id="Node000009" class="node">
<title>Node9</title>
<g id="a_Node000009"><a xlink:title=" ">
<polygon fill="#e0e0e0" stroke="#999999" points="337,-74 244,-74 244,-55 337,-55 337,-74"/>
<text text-anchor="middle" x="290.5" y="-62" font-family="Helvetica,sans-Serif" font-size="10.00">unordered_map</text>
</a>
</g>
</g>
<!-- Node1&#45;&gt;Node9 -->
<g id="edge8_Node000001_Node000009" class="edge">
<title>Node1&#45;&gt;Node9</title>
<g id="a_edge8_Node000001_Node000009"><a xlink:title=" ">
<path fill="none" stroke="#63b8ff" d="M444.29,-164.72C429.16,-151.91 399.64,-127.71 372.5,-110 354.7,-98.38 333.6,-86.98 317.26,-78.63"/>
<polygon fill="#63b8ff" stroke="#63b8ff" points="318.75,-75.46 308.25,-74.08 315.6,-81.71 318.75,-75.46"/>
</a>
</g>
</g>
<!-- Node10 -->
<g id="Node000010" class="node">
<title>Node10</title>
<g id="a_Node000010"><a xlink:href="IGame_8hpp.html" target="_top" xlink:title="Declaration of the game interface class.">
<polygon fill="white" stroke="#666666" points="167.5,-129 51.5,-129 51.5,-110 167.5,-110 167.5,-129"/>
<text text-anchor="middle" x="109.5" y="-117" font-family="Helvetica,sans-Serif" font-size="10.00">../Games/IGame.hpp</text>
</a>
</g>
</g>
<!-- Node1&#45;&gt;Node10 -->
<g id="edge9_Node000001_Node000010" class="edge">
<title>Node1&#45;&gt;Node10</title>
<g id="a_edge9_Node000001_Node000010"><a xlink:title=" ">
<path fill="none" stroke="#63b8ff" d="M402.85,-165.57C342.06,-156.23 241.03,-140.71 174.84,-130.54"/>
<polygon fill="#63b8ff" stroke="#63b8ff" points="175.35,-127.08 164.94,-129.02 174.29,-133.99 175.35,-127.08"/>
</a>
</g>
</g>
<!-- Node14 -->
<g id="Node000014" class="node">
<title>Node14</title>
<g id="a_Node000014"><a xlink:href="IDisplayModule_8hpp.html" target="_top" xlink:title="Declaration of the graphical display interface.">
<polygon fill="white" stroke="#666666" points="363,-129 186,-129 186,-110 363,-110 363,-129"/>
<text text-anchor="middle" x="274.5" y="-117" font-family="Helvetica,sans-Serif" font-size="10.00">../Graphicals/IDisplayModule.hpp</text>
</a>
</g>
</g>
<!-- Node1&#45;&gt;Node14 -->
<g id="edge17_Node000001_Node000014" class="edge">
<title>Node1&#45;&gt;Node14</title>
<g id="a_edge17_Node000001_Node000014"><a xlink:title=" ">
<path fill="none" stroke="#63b8ff" d="M425.58,-164.98C395.23,-156.05 347.33,-141.94 313.62,-132.02"/>
<polygon fill="#63b8ff" stroke="#63b8ff" points="314.23,-128.55 303.65,-129.08 312.25,-135.26 314.23,-128.55"/>
</a>
</g>
</g>
<!-- Node10&#45;&gt;Node2 -->
<g id="edge11_Node000010_Node000002" class="edge">
<title>Node10&#45;&gt;Node2</title>
<g id="a_edge11_Node000010_Node000002"><a xlink:title=" ">
<path fill="none" stroke="#63b8ff" d="M95.68,-109.98C82.35,-101.77 61.92,-89.18 46.19,-79.49"/>
<polygon fill="#63b8ff" stroke="#63b8ff" points="47.92,-76.44 37.57,-74.17 44.25,-82.4 47.92,-76.44"/>
</a>
</g>
</g>
<!-- Node10&#45;&gt;Node5 -->
<g id="edge10_Node000010_Node000005" class="edge">
<title>Node10&#45;&gt;Node5</title>
<g id="a_edge10_Node000010_Node000005"><a xlink:title=" ">
<path fill="none" stroke="#63b8ff" d="M132.04,-109.95C150.52,-102.26 176.75,-89.78 196.5,-74 213.09,-60.75 228.2,-41.62 238,-27.82"/>
<polygon fill="#63b8ff" stroke="#63b8ff" points="241.11,-29.48 243.89,-19.26 235.34,-25.51 241.11,-29.48"/>
</a>
</g>
</g>
<!-- Node10&#45;&gt;Node9 -->
<g id="edge12_Node000010_Node000009" class="edge">
<title>Node10&#45;&gt;Node9</title>
<g id="a_edge12_Node000010_Node000009"><a xlink:title=" ">
<path fill="none" stroke="#63b8ff" d="M138.58,-109.98C169.1,-101.05 217.26,-86.94 251.16,-77.02"/>
<polygon fill="#63b8ff" stroke="#63b8ff" points="252.58,-80.25 261.19,-74.08 250.61,-73.53 252.58,-80.25"/>
</a>
</g>
</g>
<!-- Node11 -->
<g id="Node000011" class="node">
<title>Node11</title>
<g id="a_Node000011"><a xlink:href="Types_8hpp.html" target="_top" xlink:title="Defines the core data structures and types used across the Arcade project.">
<polygon fill="white" stroke="#666666" points="187.5,-74 65.5,-74 65.5,-55 187.5,-55 187.5,-74"/>
<text text-anchor="middle" x="126.5" y="-62" font-family="Helvetica,sans-Serif" font-size="10.00">../../include/Types.hpp</text>
</a>
</g>
</g>
<!-- Node10&#45;&gt;Node11 -->
<g id="edge13_Node000010_Node000011" class="edge">
<title>Node10&#45;&gt;Node11</title>
<g id="a_edge13_Node000010_Node000011"><a xlink:title=" ">
<path fill="none" stroke="#63b8ff" d="M112.31,-109.75C114.56,-102.72 117.8,-92.62 120.62,-83.84"/>
<polygon fill="#63b8ff" stroke="#63b8ff" points="124.02,-84.68 123.75,-74.09 117.36,-82.54 124.02,-84.68"/>
</a>
</g>
</g>
<!-- Node11&#45;&gt;Node5 -->
<g id="edge16_Node000011_Node000005" class="edge">
<title>Node11&#45;&gt;Node5</title>
<g id="a_edge16_Node000011_Node000005"><a xlink:title=" ">
<path fill="none" stroke="#63b8ff" d="M146.26,-54.98C166.23,-46.38 197.3,-32.99 220.15,-23.15"/>
<polygon fill="#63b8ff" stroke="#63b8ff" points="221.58,-26.34 229.38,-19.17 218.81,-19.91 221.58,-26.34"/>
</a>
</g>
</g>
<!-- Node12 -->
<g id="Node000012" class="node">
<title>Node12</title>
<g id="a_Node000012"><a xlink:title=" ">
<polygon fill="#e0e0e0" stroke="#999999" points="117.5,-19 67.5,-19 67.5,0 117.5,0 117.5,-19"/>
<text text-anchor="middle" x="92.5" y="-7" font-family="Helvetica,sans-Serif" font-size="10.00">cstdint</text>
</a>
</g>
</g>
<!-- Node11&#45;&gt;Node12 -->
<g id="edge14_Node000011_Node000012" class="edge">
<title>Node11&#45;&gt;Node12</title>
<g id="a_edge14_Node000011_Node000012"><a xlink:title=" ">
<path fill="none" stroke="#63b8ff" d="M120.89,-54.75C116.18,-47.42 109.33,-36.73 103.53,-27.7"/>
<polygon fill="#63b8ff" stroke="#63b8ff" points="106.36,-25.62 98.01,-19.09 100.46,-29.4 106.36,-25.62"/>
</a>
</g>
</g>
<!-- Node13 -->
<g id="Node000013" class="node">
<title>Node13</title>
<g id="a_Node000013"><a xlink:title=" ">
<polygon fill="#e0e0e0" stroke="#999999" points="201,-19 136,-19 136,0 201,0 201,-19"/>
<text text-anchor="middle" x="168.5" y="-7" font-family="Helvetica,sans-Serif" font-size="10.00">functional</text>
</a>
</g>
</g>
<!-- Node11&#45;&gt;Node13 -->
<g id="edge15_Node000011_Node000013" class="edge">
<title>Node11&#45;&gt;Node13</title>
<g id="a_edge15_Node000011_Node000013"><a xlink:title=" ">
<path fill="none" stroke="#63b8ff" d="M133.44,-54.75C139.37,-47.26 148.07,-36.28 155.32,-27.13"/>
<polygon fill="#63b8ff" stroke="#63b8ff" points="158.23,-29.1 161.69,-19.09 152.74,-24.75 158.23,-29.1"/>
</a>
</g>
</g>
<!-- Node14&#45;&gt;Node2 -->
<g id="edge21_Node000014_Node000002" class="edge">
<title>Node14&#45;&gt;Node2</title>
<g id="a_edge21_Node000014_Node000002"><a xlink:title=" ">
<path fill="none" stroke="#63b8ff" d="M229.26,-109.96C187.23,-101.87 122.66,-89.05 57.32,-74.09"/>
<polygon fill="#63b8ff" stroke="#63b8ff" points="57.79,-70.61 47.26,-71.77 56.22,-77.43 57.79,-70.61"/>
</a>
</g>
</g>
<!-- Node14&#45;&gt;Node5 -->
<g id="edge19_Node000014_Node000005" class="edge">
<title>Node14&#45;&gt;Node5</title>
<g id="a_edge19_Node000014_Node000005"><a xlink:title=" ">
<path fill="none" stroke="#63b8ff" d="M298.6,-109.89C325.03,-99.03 361.8,-78.85 346.5,-55 332.27,-32.82 303.92,-21.55 281.52,-15.91"/>
<polygon fill="#63b8ff" stroke="#63b8ff" points="282.25,-12.49 271.72,-13.7 280.71,-19.32 282.25,-12.49"/>
</a>
</g>
</g>
<!-- Node14&#45;&gt;Node9 -->
<g id="edge20_Node000014_Node000009" class="edge">
<title>Node14&#45;&gt;Node9</title>
<g id="a_edge20_Node000014_Node000009"><a xlink:title=" ">
<path fill="none" stroke="#63b8ff" d="M277.14,-109.75C279.26,-102.72 282.31,-92.62 284.96,-83.84"/>
<polygon fill="#63b8ff" stroke="#63b8ff" points="288.37,-84.67 287.91,-74.09 281.67,-82.65 288.37,-84.67"/>
</a>
</g>
</g>
<!-- Node14&#45;&gt;Node11 -->
<g id="edge18_Node000014_Node000011" class="edge">
<title>Node14&#45;&gt;Node11</title>
<g id="a_edge18_Node000014_Node000011"><a xlink:title=" ">
<path fill="none" stroke="#63b8ff" d="M250.72,-109.98C226.27,-101.23 187.97,-87.51 160.35,-77.62"/>
<polygon fill="#63b8ff" stroke="#63b8ff" points="161.31,-74.25 150.71,-74.17 158.95,-80.84 161.31,-74.25"/>
</a>
</g>
</g>
</g>
</svg>
