<?xml version="1.0" encoding="UTF-8" standalone="no"?>
<!DOCTYPE svg PUBLIC "-//W3C//DTD SVG 1.1//EN"
 "http://www.w3.org/Graphics/SVG/1.1/DTD/svg11.dtd">
<!-- Generated by graphviz version 2.43.0 (0)
 -->
<!-- Title: src/Graphicals Pages: 1 -->
<svg width="416pt" height="149pt"
 viewBox="0.00 0.00 416.00 149.00" xmlns="http://www.w3.org/2000/svg" xmlns:xlink="http://www.w3.org/1999/xlink">
<g id="graph0" class="graph" transform="scale(1 1) rotate(0) translate(4 145)">
<title>src/Graphicals</title>
<g id="clust1" class="cluster">
<title>clusterdir_68267d1309a1af8e8297ef4c3efbcdba</title>
<g id="a_clust1"><a xlink:href="dir_68267d1309a1af8e8297ef4c3efbcdba.html" target="_top" xlink:title="src">
<polygon fill="#edf0f7" stroke="#404040" stroke-dasharray="5,2" points="8,-8 8,-133 346,-133 346,-8 8,-8"/>
<text text-anchor="middle" x="177" y="-121" font-family="Helvetica,sans-Serif" font-size="10.00">src</text>
</a>
</g>
</g>
<g id="clust2" class="cluster">
<title>clusterdir_4131ad97759fd854c4db39ca58faad08</title>
<g id="a_clust2"><a xlink:href="dir_4131ad97759fd854c4db39ca58faad08.html" target="_top">
<polygon fill="#edf0f7" stroke="#404040" stroke-width="2" points="16,-16 16,-106 290,-106 290,-16 16,-16"/>
</a>
</g>
</g>
<!-- dir_a7363e98f9e0bdd87618633653859815 -->
<g id="node1" class="node">
<title>dir_a7363e98f9e0bdd87618633653859815</title>
<g id="a_node1"><a xlink:href="dir_a7363e98f9e0bdd87618633653859815.html" target="_top" xlink:title="Utils">
<polygon fill="#a2b4d6" stroke="#404040" points="337.5,-43 298.5,-43 298.5,-24 337.5,-24 337.5,-43"/>
<text text-anchor="middle" x="318" y="-31" font-family="Helvetica,sans-Serif" font-size="10.00">Utils</text>
</a>
</g>
</g>
<!-- dir_4131ad97759fd854c4db39ca58faad08 -->
<g id="node2" class="node">
<title>dir_4131ad97759fd854c4db39ca58faad08</title>
<text text-anchor="middle" x="248" y="-86" font-family="Helvetica,sans-Serif" font-size="10.00">Graphicals</text>
</g>
<!-- dir_d44c64559bbebec7f509842c48db8b23 -->
<g id="node7" class="node">
<title>dir_d44c64559bbebec7f509842c48db8b23</title>
<g id="a_node7"><a xlink:href="dir_d44c64559bbebec7f509842c48db8b23.html" target="_top" xlink:title="include">
<polygon fill="#edf0f7" stroke="#404040" points="408,-43 356,-43 356,-24 408,-24 408,-43"/>
<text text-anchor="middle" x="382" y="-31" font-family="Helvetica,sans-Serif" font-size="10.00">include</text>
</a>
</g>
</g>
<!-- dir_4131ad97759fd854c4db39ca58faad08&#45;&gt;dir_d44c64559bbebec7f509842c48db8b23 -->
<g id="edge1" class="edge">
<title>dir_4131ad97759fd854c4db39ca58faad08&#45;&gt;dir_d44c64559bbebec7f509842c48db8b23</title>
<g id="a_edge1"><a xlink:href="dir_000008_000009.html" target="_top">
<path fill="none" stroke="#63b8ff" d="M269.53,-78.98C291.47,-70.3 325.74,-56.75 350.69,-46.88"/>
<polygon fill="#63b8ff" stroke="#63b8ff" points="352.07,-50.1 360.08,-43.17 349.49,-43.59 352.07,-50.1"/>
</a>
</g>
<g id="a_edge1&#45;headlabel"><a xlink:href="dir_000008_000009.html" target="_top" xlink:title="1">
<text text-anchor="middle" x="349.77" y="-51.57" font-family="Helvetica,sans-Serif" font-size="10.00" fill="#63b8ff">1</text>
</a>
</g>
</g>
<!-- dir_4b012ecce7d50021dd503beff91f2b35 -->
<g id="node3" class="node">
<title>dir_4b012ecce7d50021dd503beff91f2b35</title>
<g id="a_node3"><a xlink:href="dir_4b012ecce7d50021dd503beff91f2b35.html" target="_top" xlink:title="Assets">
<polygon fill="#a2b4d6" stroke="#404040" points="100.5,-43 51.5,-43 51.5,-24 100.5,-24 100.5,-43"/>
<text text-anchor="middle" x="76" y="-31" font-family="Helvetica,sans-Serif" font-size="10.00">Assets</text>
</a>
</g>
</g>
<!-- dir_fe937620a474504d6b5b3c095d0334ab -->
<g id="node4" class="node">
<title>dir_fe937620a474504d6b5b3c095d0334ab</title>
<g id="a_node4"><a xlink:href="dir_fe937620a474504d6b5b3c095d0334ab.html" target="_top" xlink:title="NCurses">
<polygon fill="#a2b4d6" stroke="#404040" points="195.5,-98 138.5,-98 138.5,-79 195.5,-79 195.5,-98"/>
<text text-anchor="middle" x="167" y="-86" font-family="Helvetica,sans-Serif" font-size="10.00">NCurses</text>
</a>
</g>
</g>
<!-- dir_5c8295269a9b9930b877d1336c7457f1 -->
<g id="node5" class="node">
<title>dir_5c8295269a9b9930b877d1336c7457f1</title>
<g id="a_node5"><a xlink:href="dir_5c8295269a9b9930b877d1336c7457f1.html" target="_top" xlink:title="SDL">
<polygon fill="#a2b4d6" stroke="#404040" points="120.5,-98 85.5,-98 85.5,-79 120.5,-79 120.5,-98"/>
<text text-anchor="middle" x="103" y="-86" font-family="Helvetica,sans-Serif" font-size="10.00">SDL</text>
</a>
</g>
</g>
<!-- dir_5c8295269a9b9930b877d1336c7457f1&#45;&gt;dir_a7363e98f9e0bdd87618633653859815 -->
<g id="edge3" class="edge">
<title>dir_5c8295269a9b9930b877d1336c7457f1&#45;&gt;dir_a7363e98f9e0bdd87618633653859815</title>
<g id="a_edge3"><a xlink:href="dir_000016_000020.html" target="_top">
<path fill="none" stroke="#63b8ff" d="M120.65,-81.7C123.75,-80.75 126.96,-79.81 130,-79 198.87,-60.64 220.33,-63.21 288.48,-44.45"/>
<polygon fill="#63b8ff" stroke="#63b8ff" points="289.74,-47.73 298.42,-41.66 287.84,-41 289.74,-47.73"/>
</a>
</g>
<g id="a_edge3&#45;headlabel"><a xlink:href="dir_000016_000020.html" target="_top" xlink:title="1">
<text text-anchor="middle" x="287.05" y="-48.94" font-family="Helvetica,sans-Serif" font-size="10.00" fill="#63b8ff">1</text>
</a>
</g>
</g>
<!-- dir_5c8295269a9b9930b877d1336c7457f1&#45;&gt;dir_4b012ecce7d50021dd503beff91f2b35 -->
<g id="edge2" class="edge">
<title>dir_5c8295269a9b9930b877d1336c7457f1&#45;&gt;dir_4b012ecce7d50021dd503beff91f2b35</title>
<g id="a_edge2"><a xlink:href="dir_000016_000002.html" target="_top">
<path fill="none" stroke="#63b8ff" d="M98.54,-78.75C94.88,-71.57 89.59,-61.18 85.05,-52.27"/>
<polygon fill="#63b8ff" stroke="#63b8ff" points="88.03,-50.41 80.38,-43.09 81.8,-53.59 88.03,-50.41"/>
</a>
</g>
<g id="a_edge2&#45;headlabel"><a xlink:href="dir_000016_000002.html" target="_top" xlink:title="1">
<text text-anchor="middle" x="92.2" y="-49.82" font-family="Helvetica,sans-Serif" font-size="10.00" fill="#63b8ff">1</text>
</a>
</g>
</g>
<!-- dir_f10fc4b33a0d5547a5b7a9de5142f6b6 -->
<g id="node6" class="node">
<title>dir_f10fc4b33a0d5547a5b7a9de5142f6b6</title>
<g id="a_node6"><a xlink:href="dir_f10fc4b33a0d5547a5b7a9de5142f6b6.html" target="_top" xlink:title="SFML">
<polygon fill="#a2b4d6" stroke="#404040" points="67.5,-98 24.5,-98 24.5,-79 67.5,-79 67.5,-98"/>
<text text-anchor="middle" x="46" y="-86" font-family="Helvetica,sans-Serif" font-size="10.00">SFML</text>
</a>
</g>
</g>
<!-- dir_f10fc4b33a0d5547a5b7a9de5142f6b6&#45;&gt;dir_4b012ecce7d50021dd503beff91f2b35 -->
<g id="edge4" class="edge">
<title>dir_f10fc4b33a0d5547a5b7a9de5142f6b6&#45;&gt;dir_4b012ecce7d50021dd503beff91f2b35</title>
<g id="a_edge4"><a xlink:href="dir_000017_000002.html" target="_top">
<path fill="none" stroke="#63b8ff" d="M50.95,-78.75C55.06,-71.49 61.03,-60.95 66.1,-51.98"/>
<polygon fill="#63b8ff" stroke="#63b8ff" points="69.26,-53.52 71.14,-43.09 63.17,-50.07 69.26,-53.52"/>
</a>
</g>
<g id="a_edge4&#45;headlabel"><a xlink:href="dir_000017_000002.html" target="_top" xlink:title="1">
<text text-anchor="middle" x="69.96" y="-55.54" font-family="Helvetica,sans-Serif" font-size="10.00" fill="#63b8ff">1</text>
</a>
</g>
</g>
</g>
</svg>
