<?xml version="1.0" encoding="UTF-8" standalone="no"?>
<!DOCTYPE svg PUBLIC "-//W3C//DTD SVG 1.1//EN"
 "http://www.w3.org/Graphics/SVG/1.1/DTD/svg11.dtd">
<!-- Generated by graphviz version 2.43.0 (0)
 -->
<!-- Title: src Pages: 1 -->
<svg width="270pt" height="224pt"
 viewBox="0.00 0.00 270.00 224.00" xmlns="http://www.w3.org/2000/svg" xmlns:xlink="http://www.w3.org/1999/xlink">
<g id="graph0" class="graph" transform="scale(1 1) rotate(0) translate(4 220)">
<title>src</title>
<g id="clust1" class="cluster">
<title>clusterdir_68267d1309a1af8e8297ef4c3efbcdba</title>
<g id="a_clust1"><a xlink:href="dir_68267d1309a1af8e8297ef4c3efbcdba.html" target="_top">
<polygon fill="#edf0f7" stroke="#404040" stroke-width="2" points="8,-8 8,-208 202,-208 202,-8 8,-8"/>
</a>
</g>
</g>
<!-- dir_68267d1309a1af8e8297ef4c3efbcdba -->
<g id="node1" class="node">
<title>dir_68267d1309a1af8e8297ef4c3efbcdba</title>
<text text-anchor="middle" x="147" y="-188" font-family="Helvetica,sans-Serif" font-size="10.00">src</text>
</g>
<!-- dir_a2f0e5642e47e7ed59fe0f0829eafb5f -->
<g id="node2" class="node">
<title>dir_a2f0e5642e47e7ed59fe0f0829eafb5f</title>
<g id="a_node2"><a xlink:href="dir_a2f0e5642e47e7ed59fe0f0829eafb5f.html" target="_top" xlink:title="Core">
<polygon fill="#a2b4d6" stroke="#404040" points="148.5,-145 109.5,-145 109.5,-126 148.5,-126 148.5,-145"/>
<text text-anchor="middle" x="129" y="-133" font-family="Helvetica,sans-Serif" font-size="10.00">Core</text>
</a>
</g>
</g>
<!-- dir_c1d028e99427bd8df0a9e524a3361934 -->
<g id="node3" class="node">
<title>dir_c1d028e99427bd8df0a9e524a3361934</title>
<g id="a_node3"><a xlink:href="dir_c1d028e99427bd8df0a9e524a3361934.html" target="_top" xlink:title="Games">
<polygon fill="#a2b4d6" stroke="#404040" points="193.5,-90 142.5,-90 142.5,-71 193.5,-71 193.5,-90"/>
<text text-anchor="middle" x="168" y="-78" font-family="Helvetica,sans-Serif" font-size="10.00">Games</text>
</a>
</g>
</g>
<!-- dir_a2f0e5642e47e7ed59fe0f0829eafb5f&#45;&gt;dir_c1d028e99427bd8df0a9e524a3361934 -->
<g id="edge3" class="edge">
<title>dir_a2f0e5642e47e7ed59fe0f0829eafb5f&#45;&gt;dir_c1d028e99427bd8df0a9e524a3361934</title>
<g id="a_edge3"><a xlink:href="dir_000003_000006.html" target="_top">
<path fill="none" stroke="#63b8ff" d="M130.27,-125.75C134.21,-118.18 142.03,-107.05 149.68,-97.84"/>
<polygon fill="#63b8ff" stroke="#63b8ff" points="152.54,-99.9 156.55,-90.09 147.3,-95.26 152.54,-99.9"/>
</a>
</g>
<g id="a_edge3&#45;headlabel"><a xlink:href="dir_000003_000006.html" target="_top" xlink:title="1">
<text text-anchor="middle" x="152.29" y="-101.97" font-family="Helvetica,sans-Serif" font-size="10.00" fill="#63b8ff">1</text>
</a>
</g>
</g>
<!-- dir_4131ad97759fd854c4db39ca58faad08 -->
<g id="node4" class="node">
<title>dir_4131ad97759fd854c4db39ca58faad08</title>
<g id="a_node4"><a xlink:href="dir_4131ad97759fd854c4db39ca58faad08.html" target="_top" xlink:title="Graphicals">
<polygon fill="#a2b4d6" stroke="#404040" points="124,-90 56,-90 56,-71 124,-71 124,-90"/>
<text text-anchor="middle" x="90" y="-78" font-family="Helvetica,sans-Serif" font-size="10.00">Graphicals</text>
</a>
</g>
</g>
<!-- dir_a2f0e5642e47e7ed59fe0f0829eafb5f&#45;&gt;dir_4131ad97759fd854c4db39ca58faad08 -->
<g id="edge1" class="edge">
<title>dir_a2f0e5642e47e7ed59fe0f0829eafb5f&#45;&gt;dir_4131ad97759fd854c4db39ca58faad08</title>
<g id="a_edge1"><a xlink:href="dir_000003_000008.html" target="_top">
<path fill="none" stroke="#63b8ff" d="M122.56,-125.75C117.11,-118.34 109.14,-107.5 102.44,-98.41"/>
<polygon fill="#63b8ff" stroke="#63b8ff" points="105.07,-96.07 96.32,-90.09 99.43,-100.22 105.07,-96.07"/>
</a>
</g>
<g id="a_edge1&#45;headlabel"><a xlink:href="dir_000003_000008.html" target="_top" xlink:title="1">
<text text-anchor="middle" x="109.48" y="-94.78" font-family="Helvetica,sans-Serif" font-size="10.00" fill="#63b8ff">1</text>
</a>
</g>
</g>
<!-- dir_a7363e98f9e0bdd87618633653859815 -->
<g id="node6" class="node">
<title>dir_a7363e98f9e0bdd87618633653859815</title>
<g id="a_node6"><a xlink:href="dir_a7363e98f9e0bdd87618633653859815.html" target="_top" xlink:title="Utils">
<polygon fill="#a2b4d6" stroke="#404040" points="56.5,-35 17.5,-35 17.5,-16 56.5,-16 56.5,-35"/>
<text text-anchor="middle" x="37" y="-23" font-family="Helvetica,sans-Serif" font-size="10.00">Utils</text>
</a>
</g>
</g>
<!-- dir_a2f0e5642e47e7ed59fe0f0829eafb5f&#45;&gt;dir_a7363e98f9e0bdd87618633653859815 -->
<g id="edge2" class="edge">
<title>dir_a2f0e5642e47e7ed59fe0f0829eafb5f&#45;&gt;dir_a7363e98f9e0bdd87618633653859815</title>
<g id="a_edge2"><a xlink:href="dir_000003_000020.html" target="_top">
<path fill="none" stroke="#63b8ff" d="M109.36,-129.35C90.24,-123.26 61.95,-111.17 47,-90 37.85,-77.04 35.78,-58.89 35.74,-45.31"/>
<polygon fill="#63b8ff" stroke="#63b8ff" points="39.25,-45.3 36.09,-35.19 32.25,-45.07 39.25,-45.3"/>
</a>
</g>
<g id="a_edge2&#45;headlabel"><a xlink:href="dir_000003_000020.html" target="_top" xlink:title="2">
<text text-anchor="middle" x="41.96" y="-46.49" font-family="Helvetica,sans-Serif" font-size="10.00" fill="#63b8ff">2</text>
</a>
</g>
</g>
<!-- dir_d44c64559bbebec7f509842c48db8b23 -->
<g id="node7" class="node">
<title>dir_d44c64559bbebec7f509842c48db8b23</title>
<g id="a_node7"><a xlink:href="dir_d44c64559bbebec7f509842c48db8b23.html" target="_top" xlink:title="include">
<polygon fill="#edf0f7" stroke="#404040" points="262,-35 210,-35 210,-16 262,-16 262,-35"/>
<text text-anchor="middle" x="236" y="-23" font-family="Helvetica,sans-Serif" font-size="10.00">include</text>
</a>
</g>
</g>
<!-- dir_a2f0e5642e47e7ed59fe0f0829eafb5f&#45;&gt;dir_d44c64559bbebec7f509842c48db8b23 -->
<g id="edge4" class="edge">
<title>dir_a2f0e5642e47e7ed59fe0f0829eafb5f&#45;&gt;dir_d44c64559bbebec7f509842c48db8b23</title>
<g id="a_edge4"><a xlink:href="dir_000003_000009.html" target="_top">
<path fill="none" stroke="#63b8ff" d="M148.63,-126.1C164.57,-118.51 186.8,-106.07 202,-90 214.46,-76.82 223.72,-58.2 229.4,-44.52"/>
<polygon fill="#63b8ff" stroke="#63b8ff" points="232.66,-45.79 233.04,-35.2 226.14,-43.24 232.66,-45.79"/>
</a>
</g>
<g id="a_edge4&#45;headlabel"><a xlink:href="dir_000003_000009.html" target="_top" xlink:title="1">
<text text-anchor="middle" x="233.99" y="-47.67" font-family="Helvetica,sans-Serif" font-size="10.00" fill="#63b8ff">1</text>
</a>
</g>
</g>
<!-- dir_c1d028e99427bd8df0a9e524a3361934&#45;&gt;dir_a2f0e5642e47e7ed59fe0f0829eafb5f -->
<g id="edge6" class="edge">
<title>dir_c1d028e99427bd8df0a9e524a3361934&#45;&gt;dir_a2f0e5642e47e7ed59fe0f0829eafb5f</title>
<g id="a_edge6"><a xlink:href="dir_000006_000003.html" target="_top">
<path fill="none" stroke="#63b8ff" d="M166.81,-90.09C162.89,-97.68 154.98,-108.95 147.25,-118.24"/>
<polygon fill="#63b8ff" stroke="#63b8ff" points="144.61,-115.94 140.61,-125.75 149.85,-120.58 144.61,-115.94"/>
</a>
</g>
<g id="a_edge6&#45;headlabel"><a xlink:href="dir_000006_000003.html" target="_top" xlink:title="1">
<text text-anchor="middle" x="144.86" y="-108.86" font-family="Helvetica,sans-Serif" font-size="10.00" fill="#63b8ff">1</text>
</a>
</g>
</g>
<!-- dir_c1d028e99427bd8df0a9e524a3361934&#45;&gt;dir_d44c64559bbebec7f509842c48db8b23 -->
<g id="edge5" class="edge">
<title>dir_c1d028e99427bd8df0a9e524a3361934&#45;&gt;dir_d44c64559bbebec7f509842c48db8b23</title>
<g id="a_edge5"><a xlink:href="dir_000006_000009.html" target="_top">
<path fill="none" stroke="#63b8ff" d="M178.93,-70.98C189.08,-63.07 204.42,-51.11 216.65,-41.58"/>
<polygon fill="#63b8ff" stroke="#63b8ff" points="219.14,-44.08 224.88,-35.17 214.84,-38.56 219.14,-44.08"/>
</a>
</g>
<g id="a_edge5&#45;headlabel"><a xlink:href="dir_000006_000009.html" target="_top" xlink:title="2">
<text text-anchor="middle" x="218.05" y="-46.03" font-family="Helvetica,sans-Serif" font-size="10.00" fill="#63b8ff">2</text>
</a>
</g>
</g>
<!-- dir_4131ad97759fd854c4db39ca58faad08&#45;&gt;dir_a7363e98f9e0bdd87618633653859815 -->
<g id="edge8" class="edge">
<title>dir_4131ad97759fd854c4db39ca58faad08&#45;&gt;dir_a7363e98f9e0bdd87618633653859815</title>
<g id="a_edge8"><a xlink:href="dir_000008_000020.html" target="_top">
<path fill="none" stroke="#63b8ff" d="M81.25,-70.75C73.53,-63.03 62.1,-51.6 52.78,-42.28"/>
<polygon fill="#63b8ff" stroke="#63b8ff" points="55.14,-39.69 45.59,-35.09 50.19,-44.64 55.14,-39.69"/>
</a>
</g>
<g id="a_edge8&#45;headlabel"><a xlink:href="dir_000008_000020.html" target="_top" xlink:title="1">
<text text-anchor="middle" x="59.68" y="-37.72" font-family="Helvetica,sans-Serif" font-size="10.00" fill="#63b8ff">1</text>
</a>
</g>
</g>
<!-- dir_4131ad97759fd854c4db39ca58faad08&#45;&gt;dir_d44c64559bbebec7f509842c48db8b23 -->
<g id="edge7" class="edge">
<title>dir_4131ad97759fd854c4db39ca58faad08&#45;&gt;dir_d44c64559bbebec7f509842c48db8b23</title>
<g id="a_edge7"><a xlink:href="dir_000008_000009.html" target="_top">
<path fill="none" stroke="#63b8ff" d="M113.46,-70.98C137.58,-62.23 175.37,-48.51 202.6,-38.62"/>
<polygon fill="#63b8ff" stroke="#63b8ff" points="203.91,-41.87 212.12,-35.17 201.52,-35.29 203.91,-41.87"/>
</a>
</g>
<g id="a_edge7&#45;headlabel"><a xlink:href="dir_000008_000009.html" target="_top" xlink:title="1">
<text text-anchor="middle" x="201.5" y="-43.27" font-family="Helvetica,sans-Serif" font-size="10.00" fill="#63b8ff">1</text>
</a>
</g>
</g>
<!-- dir_4bb77202a85366e5a69049a6555c5ad7 -->
<g id="node5" class="node">
<title>dir_4bb77202a85366e5a69049a6555c5ad7</title>
<g id="a_node5"><a xlink:href="dir_4bb77202a85366e5a69049a6555c5ad7.html" target="_top" xlink:title="Main">
<polygon fill="#a2b4d6" stroke="#404040" points="83.5,-200 42.5,-200 42.5,-181 83.5,-181 83.5,-200"/>
<text text-anchor="middle" x="63" y="-188" font-family="Helvetica,sans-Serif" font-size="10.00">Main</text>
</a>
</g>
</g>
<!-- dir_4bb77202a85366e5a69049a6555c5ad7&#45;&gt;dir_a2f0e5642e47e7ed59fe0f0829eafb5f -->
<g id="edge9" class="edge">
<title>dir_4bb77202a85366e5a69049a6555c5ad7&#45;&gt;dir_a2f0e5642e47e7ed59fe0f0829eafb5f</title>
<g id="a_edge9"><a xlink:href="dir_000010_000003.html" target="_top">
<path fill="none" stroke="#63b8ff" d="M73.6,-180.98C83.46,-173.07 98.35,-161.11 110.22,-151.58"/>
<polygon fill="#63b8ff" stroke="#63b8ff" points="112.6,-154.16 118.2,-145.17 108.21,-148.7 112.6,-154.16"/>
</a>
</g>
<g id="a_edge9&#45;headlabel"><a xlink:href="dir_000010_000003.html" target="_top" xlink:title="1">
<text text-anchor="middle" x="111.57" y="-156.13" font-family="Helvetica,sans-Serif" font-size="10.00" fill="#63b8ff">1</text>
</a>
</g>
</g>
<!-- dir_4bb77202a85366e5a69049a6555c5ad7&#45;&gt;dir_a7363e98f9e0bdd87618633653859815 -->
<g id="edge10" class="edge">
<title>dir_4bb77202a85366e5a69049a6555c5ad7&#45;&gt;dir_a7363e98f9e0bdd87618633653859815</title>
<g id="a_edge10"><a xlink:href="dir_000010_000020.html" target="_top">
<path fill="none" stroke="#63b8ff" d="M59.71,-180.89C53.39,-163.85 39.76,-124.49 35,-90 33.85,-81.63 34.81,-79.44 35,-71 35.19,-62.49 35.59,-53.06 35.98,-45.09"/>
<polygon fill="#63b8ff" stroke="#63b8ff" points="39.48,-45.2 36.5,-35.03 32.49,-44.83 39.48,-45.2"/>
</a>
</g>
<g id="a_edge10&#45;headlabel"><a xlink:href="dir_000010_000020.html" target="_top" xlink:title="2">
<text text-anchor="middle" x="42.13" y="-46.43" font-family="Helvetica,sans-Serif" font-size="10.00" fill="#63b8ff">2</text>
</a>
</g>
</g>
</g>
</svg>
