<?xml version="1.0" encoding="UTF-8" standalone="no"?>
<!DOCTYPE svg PUBLIC "-//W3C//DTD SVG 1.1//EN"
 "http://www.w3.org/Graphics/SVG/1.1/DTD/svg11.dtd">
<!-- Generated by graphviz version 2.43.0 (0)
 -->
<!-- Title: src/Utils/Error.hpp Pages: 1 -->
<svg width="677pt" height="159pt"
 viewBox="0.00 0.00 677.00 159.00" xmlns="http://www.w3.org/2000/svg" xmlns:xlink="http://www.w3.org/1999/xlink">
<g id="graph0" class="graph" transform="scale(1 1) rotate(0) translate(4 155)">
<title>src/Utils/Error.hpp</title>
<!-- Node1 -->
<g id="Node000001" class="node">
<title>Node1</title>
<g id="a_Node000001"><a xlink:title="Declaration of the program&#39;s custom exception class.">
<polygon fill="#999999" stroke="#666666" points="420.5,-151 317.5,-151 317.5,-132 420.5,-132 420.5,-151"/>
<text text-anchor="middle" x="369" y="-139" font-family="Helvetica,sans-Serif" font-size="10.00">src/Utils/Error.hpp</text>
</a>
</g>
</g>
<!-- Node2 -->
<g id="Node000002" class="node">
<title>Node2</title>
<g id="a_Node000002"><a xlink:href="Core_8cpp.html" target="_top" xlink:title="Contains the core program methods.">
<polygon fill="white" stroke="#666666" points="261,-24.5 159,-24.5 159,-5.5 261,-5.5 261,-24.5"/>
<text text-anchor="middle" x="210" y="-12.5" font-family="Helvetica,sans-Serif" font-size="10.00">src/Core/Core.cpp</text>
</a>
</g>
</g>
<!-- Node1&#45;&gt;Node2 -->
<g id="edge1_Node000001_Node000002" class="edge">
<title>Node1&#45;&gt;Node2</title>
<g id="a_edge1_Node000001_Node000002"><a xlink:title=" ">
<path fill="none" stroke="#63b8ff" d="M307.44,-134.31C258.22,-127.94 194.9,-116.06 179,-96 161.32,-73.71 187.28,-40.15 201.6,-24.54"/>
<polygon fill="#63b8ff" stroke="#63b8ff" points="307.04,-137.79 317.39,-135.55 307.9,-130.84 307.04,-137.79"/>
</a>
</g>
</g>
<!-- Node3 -->
<g id="Node000003" class="node">
<title>Node3</title>
<g id="a_Node000003"><a xlink:href="SDLDisplayModule_8hpp.html" target="_top" xlink:title="Header file for SDL display module.">
<polygon fill="white" stroke="#666666" points="132,-96 0,-96 0,-66 132,-66 132,-96"/>
<text text-anchor="start" x="8" y="-84" font-family="Helvetica,sans-Serif" font-size="10.00">src/Graphicals/SDL</text>
<text text-anchor="middle" x="66" y="-73" font-family="Helvetica,sans-Serif" font-size="10.00">/SDLDisplayModule.hpp</text>
</a>
</g>
</g>
<!-- Node1&#45;&gt;Node3 -->
<g id="edge2_Node000001_Node000003" class="edge">
<title>Node1&#45;&gt;Node3</title>
<g id="a_edge2_Node000001_Node000003"><a xlink:title=" ">
<path fill="none" stroke="#63b8ff" d="M315.07,-130.09C263.95,-120.22 187.03,-105.37 132.2,-94.78"/>
<polygon fill="#63b8ff" stroke="#63b8ff" points="314.46,-133.53 324.94,-131.99 315.79,-126.66 314.46,-133.53"/>
</a>
</g>
</g>
<!-- Node5 -->
<g id="Node000005" class="node">
<title>Node5</title>
<g id="a_Node000005"><a xlink:href="main_8cpp.html" target="_top" xlink:title="Main entry point of the program.">
<polygon fill="white" stroke="#666666" points="539,-24.5 433,-24.5 433,-5.5 539,-5.5 539,-24.5"/>
<text text-anchor="middle" x="486" y="-12.5" font-family="Helvetica,sans-Serif" font-size="10.00">src/Main/main.cpp</text>
</a>
</g>
</g>
<!-- Node1&#45;&gt;Node5 -->
<g id="edge4_Node000001_Node000005" class="edge">
<title>Node1&#45;&gt;Node5</title>
<g id="a_edge4_Node000001_Node000005"><a xlink:title=" ">
<path fill="none" stroke="#63b8ff" d="M400.32,-127.6C415.56,-120.13 433.29,-109.5 446,-96 466.33,-74.4 478.59,-40.5 483.51,-24.68"/>
<polygon fill="#63b8ff" stroke="#63b8ff" points="398.8,-124.45 391.22,-131.85 401.76,-130.79 398.8,-124.45"/>
</a>
</g>
</g>
<!-- Node6 -->
<g id="Node000006" class="node">
<title>Node6</title>
<g id="a_Node000006"><a xlink:href="Error_8cpp.html" target="_top" xlink:title="Functions used by the program&#39;s custom exception class.">
<polygon fill="white" stroke="#666666" points="420,-90.5 318,-90.5 318,-71.5 420,-71.5 420,-90.5"/>
<text text-anchor="middle" x="369" y="-78.5" font-family="Helvetica,sans-Serif" font-size="10.00">src/Utils/Error.cpp</text>
</a>
</g>
</g>
<!-- Node1&#45;&gt;Node6 -->
<g id="edge5_Node000001_Node000006" class="edge">
<title>Node1&#45;&gt;Node6</title>
<g id="a_edge5_Node000001_Node000006"><a xlink:title=" ">
<path fill="none" stroke="#63b8ff" d="M369,-121.66C369,-111.24 369,-98.8 369,-90.67"/>
<polygon fill="#63b8ff" stroke="#63b8ff" points="365.5,-121.87 369,-131.87 372.5,-121.87 365.5,-121.87"/>
</a>
</g>
</g>
<!-- Node7 -->
<g id="Node000007" class="node">
<title>Node7</title>
<g id="a_Node000007"><a xlink:href="GetLib_8cpp.html" target="_top" xlink:title="This file handles loading and unloading of graphical libraries.">
<polygon fill="white" stroke="#666666" points="406.5,-24.5 295.5,-24.5 295.5,-5.5 406.5,-5.5 406.5,-24.5"/>
<text text-anchor="middle" x="351" y="-12.5" font-family="Helvetica,sans-Serif" font-size="10.00">src/Utils/GetLib.cpp</text>
</a>
</g>
</g>
<!-- Node1&#45;&gt;Node7 -->
<g id="edge6_Node000001_Node000007" class="edge">
<title>Node1&#45;&gt;Node7</title>
<g id="a_edge6_Node000001_Node000007"><a xlink:title=" ">
<path fill="none" stroke="#63b8ff" d="M397.53,-126.95C409.56,-119.61 422.31,-109.29 429,-96 434.99,-84.09 435.4,-77.7 429,-66 417.81,-45.54 394.27,-32.21 375.97,-24.51"/>
<polygon fill="#63b8ff" stroke="#63b8ff" points="395.58,-124.03 388.58,-131.98 399.01,-130.13 395.58,-124.03"/>
</a>
</g>
</g>
<!-- Node8 -->
<g id="Node000008" class="node">
<title>Node8</title>
<g id="a_Node000008"><a xlink:href="GetLib_8hpp.html" target="_top" xlink:title="This file contains the function responsible for managing shared libraries (.so).">
<polygon fill="white" stroke="#666666" points="300,-90.5 188,-90.5 188,-71.5 300,-71.5 300,-90.5"/>
<text text-anchor="middle" x="244" y="-78.5" font-family="Helvetica,sans-Serif" font-size="10.00">src/Utils/GetLib.hpp</text>
</a>
</g>
</g>
<!-- Node1&#45;&gt;Node8 -->
<g id="edge7_Node000001_Node000008" class="edge">
<title>Node1&#45;&gt;Node8</title>
<g id="a_edge7_Node000001_Node000008"><a xlink:title=" ">
<path fill="none" stroke="#63b8ff" d="M341.51,-127.63C317.4,-116.35 283.04,-100.27 262.2,-90.52"/>
<polygon fill="#63b8ff" stroke="#63b8ff" points="340.28,-130.92 350.82,-131.99 343.25,-124.58 340.28,-130.92"/>
</a>
</g>
</g>
<!-- Node9 -->
<g id="Node000009" class="node">
<title>Node9</title>
<g id="a_Node000009"><a xlink:href="Logger_8hpp.html" target="_top" xlink:title="This file contains the class used for writing debug logs.">
<polygon fill="white" stroke="#666666" points="627.5,-90.5 514.5,-90.5 514.5,-71.5 627.5,-71.5 627.5,-90.5"/>
<text text-anchor="middle" x="571" y="-78.5" font-family="Helvetica,sans-Serif" font-size="10.00">src/Utils/Logger.hpp</text>
</a>
</g>
</g>
<!-- Node1&#45;&gt;Node9 -->
<g id="edge10_Node000001_Node000009" class="edge">
<title>Node1&#45;&gt;Node9</title>
<g id="a_edge10_Node000001_Node000009"><a xlink:title=" ">
<path fill="none" stroke="#63b8ff" d="M408.34,-129.11C447.41,-117.79 506.42,-100.7 541.59,-90.52"/>
<polygon fill="#63b8ff" stroke="#63b8ff" points="407,-125.85 398.37,-131.99 408.95,-132.57 407,-125.85"/>
</a>
</g>
</g>
<!-- Node4 -->
<g id="Node000004" class="node">
<title>Node4</title>
<g id="a_Node000004"><a xlink:href="SDLDisplayModule_8cpp.html" target="_top" xlink:title="This file contains all functions related to SDL.">
<polygon fill="white" stroke="#666666" points="131.5,-30 0.5,-30 0.5,0 131.5,0 131.5,-30"/>
<text text-anchor="start" x="8.5" y="-18" font-family="Helvetica,sans-Serif" font-size="10.00">src/Graphicals/SDL</text>
<text text-anchor="middle" x="66" y="-7" font-family="Helvetica,sans-Serif" font-size="10.00">/SDLDisplayModule.cpp</text>
</a>
</g>
</g>
<!-- Node3&#45;&gt;Node4 -->
<g id="edge3_Node000003_Node000004" class="edge">
<title>Node3&#45;&gt;Node4</title>
<g id="a_edge3_Node000003_Node000004"><a xlink:title=" ">
<path fill="none" stroke="#63b8ff" d="M66,-55.54C66,-46.96 66,-37.61 66,-30.16"/>
<polygon fill="#63b8ff" stroke="#63b8ff" points="62.5,-55.8 66,-65.8 69.5,-55.8 62.5,-55.8"/>
</a>
</g>
</g>
<!-- Node8&#45;&gt;Node2 -->
<g id="edge8_Node000008_Node000002" class="edge">
<title>Node8&#45;&gt;Node2</title>
<g id="a_edge8_Node000008_Node000002"><a xlink:title=" ">
<path fill="none" stroke="#63b8ff" d="M234.54,-62.18C228.09,-50.05 219.83,-34.51 214.73,-24.91"/>
<polygon fill="#63b8ff" stroke="#63b8ff" points="231.63,-64.18 239.41,-71.37 237.81,-60.9 231.63,-64.18"/>
</a>
</g>
</g>
<!-- Node8&#45;&gt;Node7 -->
<g id="edge9_Node000008_Node000007" class="edge">
<title>Node8&#45;&gt;Node7</title>
<g id="a_edge9_Node000008_Node000007"><a xlink:title=" ">
<path fill="none" stroke="#63b8ff" d="M267.09,-66.19C288.15,-53.59 318.61,-35.37 336.46,-24.7"/>
<polygon fill="#63b8ff" stroke="#63b8ff" points="265.22,-63.23 258.43,-71.37 268.81,-69.24 265.22,-63.23"/>
</a>
</g>
</g>
<!-- Node9&#45;&gt;Node5 -->
<g id="edge11_Node000009_Node000005" class="edge">
<title>Node9&#45;&gt;Node5</title>
<g id="a_edge11_Node000009_Node000005"><a xlink:title=" ">
<path fill="none" stroke="#63b8ff" d="M551.52,-65.33C534.85,-52.78 511.41,-35.13 497.55,-24.7"/>
<polygon fill="#63b8ff" stroke="#63b8ff" points="549.44,-68.15 559.54,-71.37 553.65,-62.56 549.44,-68.15"/>
</a>
</g>
</g>
<!-- Node10 -->
<g id="Node000010" class="node">
<title>Node10</title>
<g id="a_Node000010"><a xlink:href="Logger_8cpp.html" target="_top" xlink:title="This file contains functions for writing debug logs.">
<polygon fill="white" stroke="#666666" points="669,-24.5 557,-24.5 557,-5.5 669,-5.5 669,-24.5"/>
<text text-anchor="middle" x="613" y="-12.5" font-family="Helvetica,sans-Serif" font-size="10.00">src/Utils/Logger.cpp</text>
</a>
</g>
</g>
<!-- Node9&#45;&gt;Node10 -->
<g id="edge12_Node000009_Node000010" class="edge">
<title>Node9&#45;&gt;Node10</title>
<g id="a_edge12_Node000009_Node000010"><a xlink:title=" ">
<path fill="none" stroke="#63b8ff" d="M582.22,-62.91C590.24,-50.68 600.73,-34.7 607.16,-24.91"/>
<polygon fill="#63b8ff" stroke="#63b8ff" points="579.22,-61.09 576.66,-71.37 585.08,-64.93 579.22,-61.09"/>
</a>
</g>
</g>
</g>
</svg>
