<?xml version="1.0" encoding="UTF-8" standalone="no"?>
<!DOCTYPE svg PUBLIC "-//W3C//DTD SVG 1.1//EN"
 "http://www.w3.org/Graphics/SVG/1.1/DTD/svg11.dtd">
<!-- Generated by graphviz version 2.43.0 (0)
 -->
<!-- Title: src/Graphicals/Assets/font.hpp Pages: 1 -->
<svg width="298pt" height="170pt"
 viewBox="0.00 0.00 298.00 170.00" xmlns="http://www.w3.org/2000/svg" xmlns:xlink="http://www.w3.org/1999/xlink">
<g id="graph0" class="graph" transform="scale(1 1) rotate(0) translate(4 166)">
<title>src/Graphicals/Assets/font.hpp</title>
<!-- Node1 -->
<g id="Node000001" class="node">
<title>Node1</title>
<g id="a_Node000001"><a xlink:title="Contains the binary representation of the default font used in the Arcade project.">
<polygon fill="#999999" stroke="#666666" points="203.5,-162 82.5,-162 82.5,-132 203.5,-132 203.5,-162"/>
<text text-anchor="start" x="90.5" y="-150" font-family="Helvetica,sans-Serif" font-size="10.00">src/Graphicals/Assets</text>
<text text-anchor="middle" x="143" y="-139" font-family="Helvetica,sans-Serif" font-size="10.00">/font.hpp</text>
</a>
</g>
</g>
<!-- Node2 -->
<g id="Node000002" class="node">
<title>Node2</title>
<g id="a_Node000002"><a xlink:href="SDLDisplayModule_8hpp.html" target="_top" xlink:title="Header file for SDL display module.">
<polygon fill="white" stroke="#666666" points="132,-96 0,-96 0,-66 132,-66 132,-96"/>
<text text-anchor="start" x="8" y="-84" font-family="Helvetica,sans-Serif" font-size="10.00">src/Graphicals/SDL</text>
<text text-anchor="middle" x="66" y="-73" font-family="Helvetica,sans-Serif" font-size="10.00">/SDLDisplayModule.hpp</text>
</a>
</g>
</g>
<!-- Node1&#45;&gt;Node2 -->
<g id="edge1_Node000001_Node000002" class="edge">
<title>Node1&#45;&gt;Node2</title>
<g id="a_edge1_Node000001_Node000002"><a xlink:title=" ">
<path fill="none" stroke="#63b8ff" d="M117.98,-125.2C106.55,-115.7 93.3,-104.69 83.04,-96.16"/>
<polygon fill="#63b8ff" stroke="#63b8ff" points="115.98,-128.1 125.91,-131.8 120.46,-122.71 115.98,-128.1"/>
</a>
</g>
</g>
<!-- Node4 -->
<g id="Node000004" class="node">
<title>Node4</title>
<g id="a_Node000004"><a xlink:href="SFMLDisplayModule_8hpp.html" target="_top" xlink:title="Header file for SFML display module.">
<polygon fill="white" stroke="#666666" points="290,-96 150,-96 150,-66 290,-66 290,-96"/>
<text text-anchor="start" x="158" y="-84" font-family="Helvetica,sans-Serif" font-size="10.00">src/Graphicals/SFML</text>
<text text-anchor="middle" x="220" y="-73" font-family="Helvetica,sans-Serif" font-size="10.00">/SFMLDisplayModule.hpp</text>
</a>
</g>
</g>
<!-- Node1&#45;&gt;Node4 -->
<g id="edge3_Node000001_Node000004" class="edge">
<title>Node1&#45;&gt;Node4</title>
<g id="a_edge3_Node000001_Node000004"><a xlink:title=" ">
<path fill="none" stroke="#63b8ff" d="M168.02,-125.2C179.45,-115.7 192.7,-104.69 202.96,-96.16"/>
<polygon fill="#63b8ff" stroke="#63b8ff" points="165.54,-122.71 160.09,-131.8 170.02,-128.1 165.54,-122.71"/>
</a>
</g>
</g>
<!-- Node3 -->
<g id="Node000003" class="node">
<title>Node3</title>
<g id="a_Node000003"><a xlink:href="SDLDisplayModule_8cpp.html" target="_top" xlink:title="This file contains all functions related to SDL.">
<polygon fill="white" stroke="#666666" points="131.5,-30 0.5,-30 0.5,0 131.5,0 131.5,-30"/>
<text text-anchor="start" x="8.5" y="-18" font-family="Helvetica,sans-Serif" font-size="10.00">src/Graphicals/SDL</text>
<text text-anchor="middle" x="66" y="-7" font-family="Helvetica,sans-Serif" font-size="10.00">/SDLDisplayModule.cpp</text>
</a>
</g>
</g>
<!-- Node2&#45;&gt;Node3 -->
<g id="edge2_Node000002_Node000003" class="edge">
<title>Node2&#45;&gt;Node3</title>
<g id="a_edge2_Node000002_Node000003"><a xlink:title=" ">
<path fill="none" stroke="#63b8ff" d="M66,-55.54C66,-46.96 66,-37.61 66,-30.16"/>
<polygon fill="#63b8ff" stroke="#63b8ff" points="62.5,-55.8 66,-65.8 69.5,-55.8 62.5,-55.8"/>
</a>
</g>
</g>
<!-- Node5 -->
<g id="Node000005" class="node">
<title>Node5</title>
<g id="a_Node000005"><a xlink:href="SFMLDisplayModule_8cpp.html" target="_top" xlink:title="This file contains all functions related to SFML.">
<polygon fill="white" stroke="#666666" points="289.5,-30 150.5,-30 150.5,0 289.5,0 289.5,-30"/>
<text text-anchor="start" x="158.5" y="-18" font-family="Helvetica,sans-Serif" font-size="10.00">src/Graphicals/SFML</text>
<text text-anchor="middle" x="220" y="-7" font-family="Helvetica,sans-Serif" font-size="10.00">/SFMLDisplayModule.cpp</text>
</a>
</g>
</g>
<!-- Node4&#45;&gt;Node5 -->
<g id="edge4_Node000004_Node000005" class="edge">
<title>Node4&#45;&gt;Node5</title>
<g id="a_edge4_Node000004_Node000005"><a xlink:title=" ">
<path fill="none" stroke="#63b8ff" d="M220,-55.54C220,-46.96 220,-37.61 220,-30.16"/>
<polygon fill="#63b8ff" stroke="#63b8ff" points="216.5,-55.8 220,-65.8 223.5,-55.8 216.5,-55.8"/>
</a>
</g>
</g>
</g>
</svg>
