<?xml version="1.0" encoding="UTF-8" standalone="no"?>
<!DOCTYPE svg PUBLIC "-//W3C//DTD SVG 1.1//EN"
 "http://www.w3.org/Graphics/SVG/1.1/DTD/svg11.dtd">
<!-- Generated by graphviz version 2.43.0 (0)
 -->
<!-- Title: src/Utils/GetLib.cpp Pages: 1 -->
<svg width="269pt" height="192pt"
 viewBox="0.00 0.00 268.50 192.00" xmlns="http://www.w3.org/2000/svg" xmlns:xlink="http://www.w3.org/1999/xlink">
<g id="graph0" class="graph" transform="scale(1 1) rotate(0) translate(4 188)">
<title>src/Utils/GetLib.cpp</title>
<!-- Node1 -->
<g id="Node000001" class="node">
<title>Node1</title>
<g id="a_Node000001"><a xlink:title="This file handles loading and unloading of graphical libraries.">
<polygon fill="#999999" stroke="#666666" points="232,-184 121,-184 121,-165 232,-165 232,-184"/>
<text text-anchor="middle" x="176.5" y="-172" font-family="Helvetica,sans-Serif" font-size="10.00">src/Utils/GetLib.cpp</text>
</a>
</g>
</g>
<!-- Node2 -->
<g id="Node000002" class="node">
<title>Node2</title>
<g id="a_Node000002"><a xlink:href="GetLib_8hpp.html" target="_top" xlink:title="This file contains the function responsible for managing shared libraries (.so).">
<polygon fill="white" stroke="#666666" points="211,-129 142,-129 142,-110 211,-110 211,-129"/>
<text text-anchor="middle" x="176.5" y="-117" font-family="Helvetica,sans-Serif" font-size="10.00">GetLib.hpp</text>
</a>
</g>
</g>
<!-- Node1&#45;&gt;Node2 -->
<g id="edge1_Node000001_Node000002" class="edge">
<title>Node1&#45;&gt;Node2</title>
<g id="a_edge1_Node000001_Node000002"><a xlink:title=" ">
<path fill="none" stroke="#63b8ff" d="M176.5,-164.75C176.5,-157.8 176.5,-147.85 176.5,-139.13"/>
<polygon fill="#63b8ff" stroke="#63b8ff" points="180,-139.09 176.5,-129.09 173,-139.09 180,-139.09"/>
</a>
</g>
</g>
<!-- Node3 -->
<g id="Node000003" class="node">
<title>Node3</title>
<g id="a_Node000003"><a xlink:href="Error_8hpp.html" target="_top" xlink:title="Declaration of the program&#39;s custom exception class.">
<polygon fill="white" stroke="#666666" points="143.5,-74 83.5,-74 83.5,-55 143.5,-55 143.5,-74"/>
<text text-anchor="middle" x="113.5" y="-62" font-family="Helvetica,sans-Serif" font-size="10.00">Error.hpp</text>
</a>
</g>
</g>
<!-- Node1&#45;&gt;Node3 -->
<g id="edge8_Node000001_Node000003" class="edge">
<title>Node1&#45;&gt;Node3</title>
<g id="a_edge8_Node000001_Node000003"><a xlink:title=" ">
<path fill="none" stroke="#63b8ff" d="M165.49,-164.71C155.8,-156.43 141.96,-143.22 133.5,-129 125.19,-115.03 119.97,-97.25 116.96,-84.06"/>
<polygon fill="#63b8ff" stroke="#63b8ff" points="120.38,-83.32 114.93,-74.24 113.53,-84.74 120.38,-83.32"/>
</a>
</g>
</g>
<!-- Node7 -->
<g id="Node000007" class="node">
<title>Node7</title>
<g id="a_Node000007"><a xlink:title=" ">
<polygon fill="#e0e0e0" stroke="#999999" points="260.5,-74 210.5,-74 210.5,-55 260.5,-55 260.5,-74"/>
<text text-anchor="middle" x="235.5" y="-62" font-family="Helvetica,sans-Serif" font-size="10.00">dlfcn.h</text>
</a>
</g>
</g>
<!-- Node1&#45;&gt;Node7 -->
<g id="edge9_Node000001_Node000007" class="edge">
<title>Node1&#45;&gt;Node7</title>
<g id="a_edge9_Node000001_Node000007"><a xlink:title=" ">
<path fill="none" stroke="#63b8ff" d="M188.03,-164.91C198.12,-156.77 212.39,-143.64 220.5,-129 228.14,-115.2 231.91,-97.63 233.75,-84.47"/>
<polygon fill="#63b8ff" stroke="#63b8ff" points="237.26,-84.59 234.93,-74.25 230.31,-83.78 237.26,-84.59"/>
</a>
</g>
</g>
<!-- Node2&#45;&gt;Node3 -->
<g id="edge2_Node000002_Node000003" class="edge">
<title>Node2&#45;&gt;Node3</title>
<g id="a_edge2_Node000002_Node000003"><a xlink:title=" ">
<path fill="none" stroke="#63b8ff" d="M166.38,-109.98C157.06,-102.15 143.03,-90.34 131.76,-80.86"/>
<polygon fill="#63b8ff" stroke="#63b8ff" points="133.71,-77.93 123.81,-74.17 129.21,-83.29 133.71,-77.93"/>
</a>
</g>
</g>
<!-- Node6 -->
<g id="Node000006" class="node">
<title>Node6</title>
<g id="a_Node000006"><a xlink:title=" ">
<polygon fill="#e0e0e0" stroke="#999999" points="201.5,-19 157.5,-19 157.5,0 201.5,0 201.5,-19"/>
<text text-anchor="middle" x="179.5" y="-7" font-family="Helvetica,sans-Serif" font-size="10.00">string</text>
</a>
</g>
</g>
<!-- Node2&#45;&gt;Node6 -->
<g id="edge7_Node000002_Node000006" class="edge">
<title>Node2&#45;&gt;Node6</title>
<g id="a_edge7_Node000002_Node000006"><a xlink:title=" ">
<path fill="none" stroke="#63b8ff" d="M176.75,-109.66C177.23,-92.17 178.32,-52.8 178.98,-29.27"/>
<polygon fill="#63b8ff" stroke="#63b8ff" points="182.48,-29.25 179.26,-19.16 175.48,-29.06 182.48,-29.25"/>
</a>
</g>
</g>
<!-- Node2&#45;&gt;Node7 -->
<g id="edge6_Node000002_Node000007" class="edge">
<title>Node2&#45;&gt;Node7</title>
<g id="a_edge6_Node000002_Node000007"><a xlink:title=" ">
<path fill="none" stroke="#63b8ff" d="M185.98,-109.98C194.7,-102.15 207.84,-90.34 218.4,-80.86"/>
<polygon fill="#63b8ff" stroke="#63b8ff" points="220.75,-83.46 225.85,-74.17 216.07,-78.25 220.75,-83.46"/>
</a>
</g>
</g>
<!-- Node4 -->
<g id="Node000004" class="node">
<title>Node4</title>
<g id="a_Node000004"><a xlink:title=" ">
<polygon fill="#e0e0e0" stroke="#999999" points="65,-19 0,-19 0,0 65,0 65,-19"/>
<text text-anchor="middle" x="32.5" y="-7" font-family="Helvetica,sans-Serif" font-size="10.00">exception</text>
</a>
</g>
</g>
<!-- Node3&#45;&gt;Node4 -->
<g id="edge3_Node000003_Node000004" class="edge">
<title>Node3&#45;&gt;Node4</title>
<g id="a_edge3_Node000003_Node000004"><a xlink:title=" ">
<path fill="none" stroke="#63b8ff" d="M100.49,-54.98C88.04,-46.84 69.04,-34.41 54.29,-24.76"/>
<polygon fill="#63b8ff" stroke="#63b8ff" points="56.04,-21.72 45.75,-19.17 52.2,-27.57 56.04,-21.72"/>
</a>
</g>
</g>
<!-- Node5 -->
<g id="Node000005" class="node">
<title>Node5</title>
<g id="a_Node000005"><a xlink:title=" ">
<polygon fill="#e0e0e0" stroke="#999999" points="139.5,-19 83.5,-19 83.5,0 139.5,0 139.5,-19"/>
<text text-anchor="middle" x="111.5" y="-7" font-family="Helvetica,sans-Serif" font-size="10.00">sstream</text>
</a>
</g>
</g>
<!-- Node3&#45;&gt;Node5 -->
<g id="edge4_Node000003_Node000005" class="edge">
<title>Node3&#45;&gt;Node5</title>
<g id="a_edge4_Node000003_Node000005"><a xlink:title=" ">
<path fill="none" stroke="#63b8ff" d="M113.17,-54.75C112.91,-47.8 112.53,-37.85 112.2,-29.13"/>
<polygon fill="#63b8ff" stroke="#63b8ff" points="115.7,-28.95 111.82,-19.09 108.7,-29.21 115.7,-28.95"/>
</a>
</g>
</g>
<!-- Node3&#45;&gt;Node6 -->
<g id="edge5_Node000003_Node000006" class="edge">
<title>Node3&#45;&gt;Node6</title>
<g id="a_edge5_Node000003_Node000006"><a xlink:title=" ">
<path fill="none" stroke="#63b8ff" d="M124.1,-54.98C133.96,-47.07 148.85,-35.11 160.72,-25.58"/>
<polygon fill="#63b8ff" stroke="#63b8ff" points="163.1,-28.16 168.7,-19.17 158.71,-22.7 163.1,-28.16"/>
</a>
</g>
</g>
</g>
</svg>
