<?xml version="1.0" encoding="UTF-8" standalone="no"?>
<!DOCTYPE svg PUBLIC "-//W3C//DTD SVG 1.1//EN"
 "http://www.w3.org/Graphics/SVG/1.1/DTD/svg11.dtd">
<!-- Generated by graphviz version 2.43.0 (0)
 -->
<!-- Title: src/Utils/GetLib.hpp Pages: 1 -->
<svg width="240pt" height="82pt"
 viewBox="0.00 0.00 239.50 82.00" xmlns="http://www.w3.org/2000/svg" xmlns:xlink="http://www.w3.org/1999/xlink">
<g id="graph0" class="graph" transform="scale(1 1) rotate(0) translate(4 78)">
<title>src/Utils/GetLib.hpp</title>
<!-- Node1 -->
<g id="Node000001" class="node">
<title>Node1</title>
<g id="a_Node000001"><a xlink:title="This file contains the function responsible for managing shared libraries (.so).">
<polygon fill="#999999" stroke="#666666" points="169,-74 57,-74 57,-55 169,-55 169,-74"/>
<text text-anchor="middle" x="113" y="-62" font-family="Helvetica,sans-Serif" font-size="10.00">src/Utils/GetLib.hpp</text>
</a>
</g>
</g>
<!-- Node2 -->
<g id="Node000002" class="node">
<title>Node2</title>
<g id="a_Node000002"><a xlink:href="Core_8cpp.html" target="_top" xlink:title="Contains the core program methods.">
<polygon fill="white" stroke="#666666" points="102,-19 0,-19 0,0 102,0 102,-19"/>
<text text-anchor="middle" x="51" y="-7" font-family="Helvetica,sans-Serif" font-size="10.00">src/Core/Core.cpp</text>
</a>
</g>
</g>
<!-- Node1&#45;&gt;Node2 -->
<g id="edge1_Node000001_Node000002" class="edge">
<title>Node1&#45;&gt;Node2</title>
<g id="a_edge1_Node000001_Node000002"><a xlink:title=" ">
<path fill="none" stroke="#63b8ff" d="M95.25,-48.32C84.19,-38.87 70.37,-27.06 61.14,-19.17"/>
<polygon fill="#63b8ff" stroke="#63b8ff" points="93.16,-51.15 103.04,-54.98 97.71,-45.83 93.16,-51.15"/>
</a>
</g>
</g>
<!-- Node3 -->
<g id="Node000003" class="node">
<title>Node3</title>
<g id="a_Node000003"><a xlink:href="GetLib_8cpp.html" target="_top" xlink:title="This file handles loading and unloading of graphical libraries.">
<polygon fill="white" stroke="#666666" points="231.5,-19 120.5,-19 120.5,0 231.5,0 231.5,-19"/>
<text text-anchor="middle" x="176" y="-7" font-family="Helvetica,sans-Serif" font-size="10.00">src/Utils/GetLib.cpp</text>
</a>
</g>
</g>
<!-- Node1&#45;&gt;Node3 -->
<g id="edge2_Node000001_Node000003" class="edge">
<title>Node1&#45;&gt;Node3</title>
<g id="a_edge2_Node000001_Node000003"><a xlink:title=" ">
<path fill="none" stroke="#63b8ff" d="M131.04,-48.32C142.27,-38.87 156.32,-27.06 165.69,-19.17"/>
<polygon fill="#63b8ff" stroke="#63b8ff" points="128.52,-45.87 123.12,-54.98 133.03,-51.23 128.52,-45.87"/>
</a>
</g>
</g>
</g>
</svg>
