<?xml version="1.0" encoding="UTF-8" standalone="no"?>
<!DOCTYPE svg PUBLIC "-//W3C//DTD SVG 1.1//EN"
 "http://www.w3.org/Graphics/SVG/1.1/DTD/svg11.dtd">
<!-- Generated by graphviz version 2.43.0 (0)
 -->
<!-- Title: src/Games/Pacman/Entities/Ghost.hpp Pages: 1 -->
<svg width="825pt" height="214pt"
 viewBox="0.00 0.00 825.00 214.00" xmlns="http://www.w3.org/2000/svg" xmlns:xlink="http://www.w3.org/1999/xlink">
<g id="graph0" class="graph" transform="scale(1 1) rotate(0) translate(4 210)">
<title>src/Games/Pacman/Entities/Ghost.hpp</title>
<!-- Node1 -->
<g id="Node000001" class="node">
<title>Node1</title>
<g id="a_Node000001"><a xlink:title="Contains the behavior of the ghosts.">
<polygon fill="#999999" stroke="#666666" points="483,-206 334,-206 334,-176 483,-176 483,-206"/>
<text text-anchor="start" x="342" y="-194" font-family="Helvetica,sans-Serif" font-size="10.00">src/Games/Pacman/Entities</text>
<text text-anchor="middle" x="408.5" y="-183" font-family="Helvetica,sans-Serif" font-size="10.00">/Ghost.hpp</text>
</a>
</g>
</g>
<!-- Node2 -->
<g id="Node000002" class="node">
<title>Node2</title>
<g id="a_Node000002"><a xlink:href="Blinky_8hpp.html" target="_top" xlink:title="Implements the Blinky class, which inherits directly from the ghost class.">
<polygon fill="white" stroke="#666666" points="149,-140 0,-140 0,-110 149,-110 149,-140"/>
<text text-anchor="start" x="8" y="-128" font-family="Helvetica,sans-Serif" font-size="10.00">src/Games/Pacman/Entities</text>
<text text-anchor="middle" x="74.5" y="-117" font-family="Helvetica,sans-Serif" font-size="10.00">/Blinky.hpp</text>
</a>
</g>
</g>
<!-- Node1&#45;&gt;Node2 -->
<g id="edge1_Node000001_Node000002" class="edge">
<title>Node1&#45;&gt;Node2</title>
<g id="a_edge1_Node000001_Node000002"><a xlink:title=" ">
<path fill="none" stroke="#63b8ff" d="M325.21,-174.04C270.65,-163.59 200.01,-150.05 147.63,-140.01"/>
<polygon fill="#63b8ff" stroke="#63b8ff" points="324.72,-177.51 335.2,-175.95 326.04,-170.64 324.72,-177.51"/>
</a>
</g>
</g>
<!-- Node6 -->
<g id="Node000006" class="node">
<title>Node6</title>
<g id="a_Node000006"><a xlink:href="Clyde_8hpp.html" target="_top" xlink:title="Implements the Clyde class, which inherits directly from the ghost class.">
<polygon fill="white" stroke="#666666" points="316,-140 167,-140 167,-110 316,-110 316,-140"/>
<text text-anchor="start" x="175" y="-128" font-family="Helvetica,sans-Serif" font-size="10.00">src/Games/Pacman/Entities</text>
<text text-anchor="middle" x="241.5" y="-117" font-family="Helvetica,sans-Serif" font-size="10.00">/Clyde.hpp</text>
</a>
</g>
</g>
<!-- Node1&#45;&gt;Node6 -->
<g id="edge5_Node000001_Node000006" class="edge">
<title>Node1&#45;&gt;Node6</title>
<g id="a_edge5_Node000001_Node000006"><a xlink:title=" ">
<path fill="none" stroke="#63b8ff" d="M362.37,-172.32C335.79,-162.14 302.84,-149.51 278.06,-140.01"/>
<polygon fill="#63b8ff" stroke="#63b8ff" points="361.26,-175.64 371.85,-175.95 363.77,-169.11 361.26,-175.64"/>
</a>
</g>
</g>
<!-- Node7 -->
<g id="Node000007" class="node">
<title>Node7</title>
<g id="a_Node000007"><a xlink:href="Ghost_8cpp.html" target="_top" xlink:title="Implementation file for the Ghost class used in the Pacman game.">
<polygon fill="white" stroke="#666666" points="483,-140 334,-140 334,-110 483,-110 483,-140"/>
<text text-anchor="start" x="342" y="-128" font-family="Helvetica,sans-Serif" font-size="10.00">src/Games/Pacman/Entities</text>
<text text-anchor="middle" x="408.5" y="-117" font-family="Helvetica,sans-Serif" font-size="10.00">/Ghost.cpp</text>
</a>
</g>
</g>
<!-- Node1&#45;&gt;Node7 -->
<g id="edge7_Node000001_Node000007" class="edge">
<title>Node1&#45;&gt;Node7</title>
<g id="a_edge7_Node000001_Node000007"><a xlink:title=" ">
<path fill="none" stroke="#63b8ff" d="M408.5,-165.54C408.5,-156.96 408.5,-147.61 408.5,-140.16"/>
<polygon fill="#63b8ff" stroke="#63b8ff" points="405,-165.8 408.5,-175.8 412,-165.8 405,-165.8"/>
</a>
</g>
</g>
<!-- Node8 -->
<g id="Node000008" class="node">
<title>Node8</title>
<g id="a_Node000008"><a xlink:href="Inky_8hpp.html" target="_top" xlink:title="Implements the Inky class, which inherits directly from the ghost class.">
<polygon fill="white" stroke="#666666" points="650,-140 501,-140 501,-110 650,-110 650,-140"/>
<text text-anchor="start" x="509" y="-128" font-family="Helvetica,sans-Serif" font-size="10.00">src/Games/Pacman/Entities</text>
<text text-anchor="middle" x="575.5" y="-117" font-family="Helvetica,sans-Serif" font-size="10.00">/Inky.hpp</text>
</a>
</g>
</g>
<!-- Node1&#45;&gt;Node8 -->
<g id="edge8_Node000001_Node000008" class="edge">
<title>Node1&#45;&gt;Node8</title>
<g id="a_edge8_Node000001_Node000008"><a xlink:title=" ">
<path fill="none" stroke="#63b8ff" d="M454.63,-172.32C481.21,-162.14 514.16,-149.51 538.94,-140.01"/>
<polygon fill="#63b8ff" stroke="#63b8ff" points="453.23,-169.11 445.15,-175.95 455.74,-175.64 453.23,-169.11"/>
</a>
</g>
</g>
<!-- Node9 -->
<g id="Node000009" class="node">
<title>Node9</title>
<g id="a_Node000009"><a xlink:href="Pinky_8hpp.html" target="_top" xlink:title="Implements the Pinky class, which inherits directly from the ghost class.">
<polygon fill="white" stroke="#666666" points="817,-140 668,-140 668,-110 817,-110 817,-140"/>
<text text-anchor="start" x="676" y="-128" font-family="Helvetica,sans-Serif" font-size="10.00">src/Games/Pacman/Entities</text>
<text text-anchor="middle" x="742.5" y="-117" font-family="Helvetica,sans-Serif" font-size="10.00">/Pinky.hpp</text>
</a>
</g>
</g>
<!-- Node1&#45;&gt;Node9 -->
<g id="edge10_Node000001_Node000009" class="edge">
<title>Node1&#45;&gt;Node9</title>
<g id="a_edge10_Node000001_Node000009"><a xlink:title=" ">
<path fill="none" stroke="#63b8ff" d="M491.79,-174.04C546.35,-163.59 616.99,-150.05 669.37,-140.01"/>
<polygon fill="#63b8ff" stroke="#63b8ff" points="490.96,-170.64 481.8,-175.95 492.28,-177.51 490.96,-170.64"/>
</a>
</g>
</g>
<!-- Node3 -->
<g id="Node000003" class="node">
<title>Node3</title>
<g id="a_Node000003"><a xlink:href="PacmanGame_8hpp.html" target="_top" xlink:title="Main file of the Pacman game.">
<polygon fill="white" stroke="#666666" points="509,-74 308,-74 308,-55 509,-55 509,-74"/>
<text text-anchor="middle" x="408.5" y="-62" font-family="Helvetica,sans-Serif" font-size="10.00">src/Games/Pacman/PacmanGame.hpp</text>
</a>
</g>
</g>
<!-- Node2&#45;&gt;Node3 -->
<g id="edge2_Node000002_Node000003" class="edge">
<title>Node2&#45;&gt;Node3</title>
<g id="a_edge2_Node000002_Node000003"><a xlink:title=" ">
<path fill="none" stroke="#63b8ff" d="M159.02,-109.2C222.39,-98.1 306.92,-83.29 359.51,-74.08"/>
<polygon fill="#63b8ff" stroke="#63b8ff" points="158.29,-105.77 149.04,-110.94 159.49,-112.67 158.29,-105.77"/>
</a>
</g>
</g>
<!-- Node4 -->
<g id="Node000004" class="node">
<title>Node4</title>
<g id="a_Node000004"><a xlink:href="PacmanFactory_8cpp.html" target="_top" xlink:title="Factory functions to create and destroy the Pacman game instance.">
<polygon fill="white" stroke="#666666" points="401,-19 196,-19 196,0 401,0 401,-19"/>
<text text-anchor="middle" x="298.5" y="-7" font-family="Helvetica,sans-Serif" font-size="10.00">src/Games/Pacman/PacmanFactory.cpp</text>
</a>
</g>
</g>
<!-- Node3&#45;&gt;Node4 -->
<g id="edge3_Node000003_Node000004" class="edge">
<title>Node3&#45;&gt;Node4</title>
<g id="a_edge3_Node000003_Node000004"><a xlink:title=" ">
<path fill="none" stroke="#63b8ff" d="M381.8,-50.63C361.53,-40.87 334.23,-27.71 316.49,-19.17"/>
<polygon fill="#63b8ff" stroke="#63b8ff" points="380.3,-53.8 390.83,-54.98 383.34,-47.49 380.3,-53.8"/>
</a>
</g>
</g>
<!-- Node5 -->
<g id="Node000005" class="node">
<title>Node5</title>
<g id="a_Node000005"><a xlink:href="PacmanGame_8cpp.html" target="_top" xlink:title="Implements the Main class of the Pacman game.">
<polygon fill="white" stroke="#666666" points="619.5,-19 419.5,-19 419.5,0 619.5,0 619.5,-19"/>
<text text-anchor="middle" x="519.5" y="-7" font-family="Helvetica,sans-Serif" font-size="10.00">src/Games/Pacman/PacmanGame.cpp</text>
</a>
</g>
</g>
<!-- Node3&#45;&gt;Node5 -->
<g id="edge4_Node000003_Node000005" class="edge">
<title>Node3&#45;&gt;Node5</title>
<g id="a_edge4_Node000003_Node000005"><a xlink:title=" ">
<path fill="none" stroke="#63b8ff" d="M435.45,-50.63C455.89,-40.87 483.45,-27.71 501.34,-19.17"/>
<polygon fill="#63b8ff" stroke="#63b8ff" points="433.85,-47.52 426.33,-54.98 436.87,-53.83 433.85,-47.52"/>
</a>
</g>
</g>
<!-- Node6&#45;&gt;Node3 -->
<g id="edge6_Node000006_Node000003" class="edge">
<title>Node6&#45;&gt;Node3</title>
<g id="a_edge6_Node000006_Node000003"><a xlink:title=" ">
<path fill="none" stroke="#63b8ff" d="M291.14,-106.61C321.69,-95.91 359.53,-82.65 383.84,-74.14"/>
<polygon fill="#63b8ff" stroke="#63b8ff" points="289.78,-103.38 281.5,-109.99 292.1,-109.98 289.78,-103.38"/>
</a>
</g>
</g>
<!-- Node8&#45;&gt;Node3 -->
<g id="edge9_Node000008_Node000003" class="edge">
<title>Node8&#45;&gt;Node3</title>
<g id="a_edge9_Node000008_Node000003"><a xlink:title=" ">
<path fill="none" stroke="#63b8ff" d="M525.86,-106.61C495.31,-95.91 457.47,-82.65 433.16,-74.14"/>
<polygon fill="#63b8ff" stroke="#63b8ff" points="524.9,-109.98 535.5,-109.99 527.22,-103.38 524.9,-109.98"/>
</a>
</g>
</g>
<!-- Node9&#45;&gt;Node3 -->
<g id="edge11_Node000009_Node000003" class="edge">
<title>Node9&#45;&gt;Node3</title>
<g id="a_edge11_Node000009_Node000003"><a xlink:title=" ">
<path fill="none" stroke="#63b8ff" d="M657.98,-109.2C594.61,-98.1 510.08,-83.29 457.49,-74.08"/>
<polygon fill="#63b8ff" stroke="#63b8ff" points="657.51,-112.67 667.96,-110.94 658.71,-105.77 657.51,-112.67"/>
</a>
</g>
</g>
</g>
</svg>
