<?xml version="1.0" encoding="UTF-8" standalone="no"?>
<!DOCTYPE svg PUBLIC "-//W3C//DTD SVG 1.1//EN"
 "http://www.w3.org/Graphics/SVG/1.1/DTD/svg11.dtd">
<!-- Generated by graphviz version 2.43.0 (0)
 -->
<!-- Title: src/Games/Pacman/Entities/Ghost.hpp Pages: 1 -->
<svg width="226pt" height="203pt"
 viewBox="0.00 0.00 225.50 203.00" xmlns="http://www.w3.org/2000/svg" xmlns:xlink="http://www.w3.org/1999/xlink">
<g id="graph0" class="graph" transform="scale(1 1) rotate(0) translate(4 199)">
<title>src/Games/Pacman/Entities/Ghost.hpp</title>
<!-- Node1 -->
<g id="Node000001" class="node">
<title>Node1</title>
<g id="a_Node000001"><a xlink:title="Contains the behavior of the ghosts.">
<polygon fill="#999999" stroke="#666666" points="217.5,-195 68.5,-195 68.5,-165 217.5,-165 217.5,-195"/>
<text text-anchor="start" x="76.5" y="-183" font-family="Helvetica,sans-Serif" font-size="10.00">src/Games/Pacman/Entities</text>
<text text-anchor="middle" x="143" y="-172" font-family="Helvetica,sans-Serif" font-size="10.00">/Ghost.hpp</text>
</a>
</g>
</g>
<!-- Node2 -->
<g id="Node000002" class="node">
<title>Node2</title>
<g id="a_Node000002"><a xlink:href="includes_8hpp.html" target="_top" xlink:title="Defines the specials structures and types used by the Pacman game.">
<polygon fill="white" stroke="#666666" points="144.5,-129 57.5,-129 57.5,-110 144.5,-110 144.5,-129"/>
<text text-anchor="middle" x="101" y="-117" font-family="Helvetica,sans-Serif" font-size="10.00">../includes.hpp</text>
</a>
</g>
</g>
<!-- Node1&#45;&gt;Node2 -->
<g id="edge1_Node000001_Node000002" class="edge">
<title>Node1&#45;&gt;Node2</title>
<g id="a_edge1_Node000001_Node000002"><a xlink:title=" ">
<path fill="none" stroke="#63b8ff" d="M132.83,-164.84C126.92,-156.61 119.44,-146.18 113.21,-137.51"/>
<polygon fill="#63b8ff" stroke="#63b8ff" points="115.97,-135.35 107.29,-129.27 110.28,-139.43 115.97,-135.35"/>
</a>
</g>
</g>
<!-- Node7 -->
<g id="Node000007" class="node">
<title>Node7</title>
<g id="a_Node000007"><a xlink:title=" ">
<polygon fill="#e0e0e0" stroke="#999999" points="209.5,-129 162.5,-129 162.5,-110 209.5,-110 209.5,-129"/>
<text text-anchor="middle" x="186" y="-117" font-family="Helvetica,sans-Serif" font-size="10.00">cmath</text>
</a>
</g>
</g>
<!-- Node1&#45;&gt;Node7 -->
<g id="edge6_Node000001_Node000007" class="edge">
<title>Node1&#45;&gt;Node7</title>
<g id="a_edge6_Node000001_Node000007"><a xlink:title=" ">
<path fill="none" stroke="#63b8ff" d="M153.41,-164.84C159.46,-156.61 167.12,-146.18 173.5,-137.51"/>
<polygon fill="#63b8ff" stroke="#63b8ff" points="176.45,-139.4 179.56,-129.27 170.81,-135.25 176.45,-139.4"/>
</a>
</g>
</g>
<!-- Node3 -->
<g id="Node000003" class="node">
<title>Node3</title>
<g id="a_Node000003"><a xlink:href="Types_8hpp.html" target="_top" xlink:title="Defines the core data structures and types used across the Arcade project.">
<polygon fill="white" stroke="#666666" points="166.5,-74 35.5,-74 35.5,-55 166.5,-55 166.5,-74"/>
<text text-anchor="middle" x="101" y="-62" font-family="Helvetica,sans-Serif" font-size="10.00">../../../include/Types.hpp</text>
</a>
</g>
</g>
<!-- Node2&#45;&gt;Node3 -->
<g id="edge2_Node000002_Node000003" class="edge">
<title>Node2&#45;&gt;Node3</title>
<g id="a_edge2_Node000002_Node000003"><a xlink:title=" ">
<path fill="none" stroke="#63b8ff" d="M101,-109.75C101,-102.8 101,-92.85 101,-84.13"/>
<polygon fill="#63b8ff" stroke="#63b8ff" points="104.5,-84.09 101,-74.09 97.5,-84.09 104.5,-84.09"/>
</a>
</g>
</g>
<!-- Node4 -->
<g id="Node000004" class="node">
<title>Node4</title>
<g id="a_Node000004"><a xlink:title=" ">
<polygon fill="#e0e0e0" stroke="#999999" points="50,-19 0,-19 0,0 50,0 50,-19"/>
<text text-anchor="middle" x="25" y="-7" font-family="Helvetica,sans-Serif" font-size="10.00">cstdint</text>
</a>
</g>
</g>
<!-- Node3&#45;&gt;Node4 -->
<g id="edge3_Node000003_Node000004" class="edge">
<title>Node3&#45;&gt;Node4</title>
<g id="a_edge3_Node000003_Node000004"><a xlink:title=" ">
<path fill="none" stroke="#63b8ff" d="M88.79,-54.98C77.22,-46.92 59.62,-34.65 45.84,-25.03"/>
<polygon fill="#63b8ff" stroke="#63b8ff" points="47.64,-22.02 37.43,-19.17 43.63,-27.76 47.64,-22.02"/>
</a>
</g>
</g>
<!-- Node5 -->
<g id="Node000005" class="node">
<title>Node5</title>
<g id="a_Node000005"><a xlink:title=" ">
<polygon fill="#e0e0e0" stroke="#999999" points="133.5,-19 68.5,-19 68.5,0 133.5,0 133.5,-19"/>
<text text-anchor="middle" x="101" y="-7" font-family="Helvetica,sans-Serif" font-size="10.00">functional</text>
</a>
</g>
</g>
<!-- Node3&#45;&gt;Node5 -->
<g id="edge4_Node000003_Node000005" class="edge">
<title>Node3&#45;&gt;Node5</title>
<g id="a_edge4_Node000003_Node000005"><a xlink:title=" ">
<path fill="none" stroke="#63b8ff" d="M101,-54.75C101,-47.8 101,-37.85 101,-29.13"/>
<polygon fill="#63b8ff" stroke="#63b8ff" points="104.5,-29.09 101,-19.09 97.5,-29.09 104.5,-29.09"/>
</a>
</g>
</g>
<!-- Node6 -->
<g id="Node000006" class="node">
<title>Node6</title>
<g id="a_Node000006"><a xlink:title=" ">
<polygon fill="#e0e0e0" stroke="#999999" points="196,-19 152,-19 152,0 196,0 196,-19"/>
<text text-anchor="middle" x="174" y="-7" font-family="Helvetica,sans-Serif" font-size="10.00">string</text>
</a>
</g>
</g>
<!-- Node3&#45;&gt;Node6 -->
<g id="edge5_Node000003_Node000006" class="edge">
<title>Node3&#45;&gt;Node6</title>
<g id="a_edge5_Node000003_Node000006"><a xlink:title=" ">
<path fill="none" stroke="#63b8ff" d="M112.73,-54.98C123.73,-47 140.42,-34.88 153.6,-25.31"/>
<polygon fill="#63b8ff" stroke="#63b8ff" points="156.02,-27.88 162.06,-19.17 151.91,-22.21 156.02,-27.88"/>
</a>
</g>
</g>
</g>
</svg>
