<?xml version="1.0" encoding="UTF-8" standalone="no"?>
<!DOCTYPE svg PUBLIC "-//W3C//DTD SVG 1.1//EN"
 "http://www.w3.org/Graphics/SVG/1.1/DTD/svg11.dtd">
<!-- Generated by graphviz version 2.43.0 (0)
 -->
<!-- Title: src/Games/Pacman/Entities/Ghost.hpp Pages: 1 -->
<svg width="658pt" height="159pt"
 viewBox="0.00 0.00 658.00 159.00" xmlns="http://www.w3.org/2000/svg" xmlns:xlink="http://www.w3.org/1999/xlink">
<g id="graph0" class="graph" transform="scale(1 1) rotate(0) translate(4 155)">
<title>src/Games/Pacman/Entities/Ghost.hpp</title>
<!-- Node1 -->
<g id="Node000001" class="node">
<title>Node1</title>
<g id="a_Node000001"><a xlink:title="Contains the behavior of the ghosts.">
<polygon fill="#999999" stroke="#666666" points="399,-151 250,-151 250,-121 399,-121 399,-151"/>
<text text-anchor="start" x="258" y="-139" font-family="Helvetica,sans-Serif" font-size="10.00">src/Games/Pacman/Entities</text>
<text text-anchor="middle" x="324.5" y="-128" font-family="Helvetica,sans-Serif" font-size="10.00">/Ghost.hpp</text>
</a>
</g>
</g>
<!-- Node2 -->
<g id="Node000002" class="node">
<title>Node2</title>
<g id="a_Node000002"><a xlink:href="Blinky_8hpp.html" target="_top" xlink:title="Implements the Blinky class, which inherits directly from the ghost class.">
<polygon fill="white" stroke="#666666" points="149,-85 0,-85 0,-55 149,-55 149,-85"/>
<text text-anchor="start" x="8" y="-73" font-family="Helvetica,sans-Serif" font-size="10.00">src/Games/Pacman/Entities</text>
<text text-anchor="middle" x="74.5" y="-62" font-family="Helvetica,sans-Serif" font-size="10.00">/Blinky.hpp</text>
</a>
</g>
</g>
<!-- Node1&#45;&gt;Node2 -->
<g id="edge1_Node000001_Node000002" class="edge">
<title>Node1&#45;&gt;Node2</title>
<g id="a_edge1_Node000001_Node000002"><a xlink:title=" ">
<path fill="none" stroke="#63b8ff" d="M259.86,-118.45C219.35,-108.08 167.71,-94.86 129.24,-85.01"/>
<polygon fill="#63b8ff" stroke="#63b8ff" points="259.08,-121.87 269.64,-120.95 260.82,-115.08 259.08,-121.87"/>
</a>
</g>
</g>
<!-- Node4 -->
<g id="Node000004" class="node">
<title>Node4</title>
<g id="a_Node000004"><a xlink:href="Clyde_8hpp.html" target="_top" xlink:title="Implements the Clyde class, which inherits directly from the ghost class.">
<polygon fill="white" stroke="#666666" points="316,-85 167,-85 167,-55 316,-55 316,-85"/>
<text text-anchor="start" x="175" y="-73" font-family="Helvetica,sans-Serif" font-size="10.00">src/Games/Pacman/Entities</text>
<text text-anchor="middle" x="241.5" y="-62" font-family="Helvetica,sans-Serif" font-size="10.00">/Clyde.hpp</text>
</a>
</g>
</g>
<!-- Node1&#45;&gt;Node4 -->
<g id="edge3_Node000001_Node000004" class="edge">
<title>Node1&#45;&gt;Node4</title>
<g id="a_edge3_Node000001_Node000004"><a xlink:title=" ">
<path fill="none" stroke="#63b8ff" d="M297.89,-114.48C285.48,-104.91 271.03,-93.77 259.87,-85.16"/>
<polygon fill="#63b8ff" stroke="#63b8ff" points="296.02,-117.46 306.08,-120.8 300.3,-111.92 296.02,-117.46"/>
</a>
</g>
</g>
<!-- Node5 -->
<g id="Node000005" class="node">
<title>Node5</title>
<g id="a_Node000005"><a xlink:href="Inky_8hpp.html" target="_top" xlink:title="Implements the Inky class, which inherits directly from the ghost class.">
<polygon fill="white" stroke="#666666" points="483,-85 334,-85 334,-55 483,-55 483,-85"/>
<text text-anchor="start" x="342" y="-73" font-family="Helvetica,sans-Serif" font-size="10.00">src/Games/Pacman/Entities</text>
<text text-anchor="middle" x="408.5" y="-62" font-family="Helvetica,sans-Serif" font-size="10.00">/Inky.hpp</text>
</a>
</g>
</g>
<!-- Node1&#45;&gt;Node5 -->
<g id="edge5_Node000001_Node000005" class="edge">
<title>Node1&#45;&gt;Node5</title>
<g id="a_edge5_Node000001_Node000005"><a xlink:title=" ">
<path fill="none" stroke="#63b8ff" d="M351.44,-114.48C363.99,-104.91 378.61,-93.77 389.91,-85.16"/>
<polygon fill="#63b8ff" stroke="#63b8ff" points="348.98,-111.95 343.14,-120.8 353.22,-117.52 348.98,-111.95"/>
</a>
</g>
</g>
<!-- Node6 -->
<g id="Node000006" class="node">
<title>Node6</title>
<g id="a_Node000006"><a xlink:href="Pinky_8hpp.html" target="_top" xlink:title="Implements the Pinky class, which inherits directly from the ghost class.">
<polygon fill="white" stroke="#666666" points="650,-85 501,-85 501,-55 650,-55 650,-85"/>
<text text-anchor="start" x="509" y="-73" font-family="Helvetica,sans-Serif" font-size="10.00">src/Games/Pacman/Entities</text>
<text text-anchor="middle" x="575.5" y="-62" font-family="Helvetica,sans-Serif" font-size="10.00">/Pinky.hpp</text>
</a>
</g>
</g>
<!-- Node1&#45;&gt;Node6 -->
<g id="edge7_Node000001_Node000006" class="edge">
<title>Node1&#45;&gt;Node6</title>
<g id="a_edge7_Node000001_Node000006"><a xlink:title=" ">
<path fill="none" stroke="#63b8ff" d="M389.4,-118.45C430.07,-108.08 481.91,-94.86 520.55,-85.01"/>
<polygon fill="#63b8ff" stroke="#63b8ff" points="388.41,-115.09 379.58,-120.95 390.14,-121.88 388.41,-115.09"/>
</a>
</g>
</g>
<!-- Node3 -->
<g id="Node000003" class="node">
<title>Node3</title>
<g id="a_Node000003"><a xlink:href="PacmanGame_8hpp.html" target="_top" xlink:title="Main file of the Pacman game.">
<polygon fill="white" stroke="#666666" points="425,-19 224,-19 224,0 425,0 425,-19"/>
<text text-anchor="middle" x="324.5" y="-7" font-family="Helvetica,sans-Serif" font-size="10.00">src/Games/Pacman/PacmanGame.hpp</text>
</a>
</g>
</g>
<!-- Node2&#45;&gt;Node3 -->
<g id="edge2_Node000002_Node000003" class="edge">
<title>Node2&#45;&gt;Node3</title>
<g id="a_edge2_Node000002_Node000003"><a xlink:title=" ">
<path fill="none" stroke="#63b8ff" d="M144.13,-52.71C190.78,-41.79 250.32,-27.86 287.95,-19.05"/>
<polygon fill="#63b8ff" stroke="#63b8ff" points="143.32,-49.3 134.38,-54.99 144.92,-56.12 143.32,-49.3"/>
</a>
</g>
</g>
<!-- Node4&#45;&gt;Node3 -->
<g id="edge4_Node000004_Node000003" class="edge">
<title>Node4&#45;&gt;Node3</title>
<g id="a_edge4_Node000004_Node000003"><a xlink:title=" ">
<path fill="none" stroke="#63b8ff" d="M270.14,-48.82C284.44,-38.73 301.01,-27.05 312.06,-19.27"/>
<polygon fill="#63b8ff" stroke="#63b8ff" points="267.75,-46.22 261.59,-54.84 271.78,-51.94 267.75,-46.22"/>
</a>
</g>
</g>
<!-- Node5&#45;&gt;Node3 -->
<g id="edge6_Node000005_Node000003" class="edge">
<title>Node5&#45;&gt;Node3</title>
<g id="a_edge6_Node000005_Node000003"><a xlink:title=" ">
<path fill="none" stroke="#63b8ff" d="M379.93,-49.1C365.36,-38.95 348.38,-27.13 337.09,-19.27"/>
<polygon fill="#63b8ff" stroke="#63b8ff" points="377.96,-52 388.17,-54.84 381.96,-46.25 377.96,-52"/>
</a>
</g>
</g>
<!-- Node6&#45;&gt;Node3 -->
<g id="edge8_Node000006_Node000003" class="edge">
<title>Node6&#45;&gt;Node3</title>
<g id="a_edge8_Node000006_Node000003"><a xlink:title=" ">
<path fill="none" stroke="#63b8ff" d="M505.59,-52.71C458.76,-41.79 398.97,-27.86 361.2,-19.05"/>
<polygon fill="#63b8ff" stroke="#63b8ff" points="504.85,-56.13 515.38,-54.99 506.43,-49.31 504.85,-56.13"/>
</a>
</g>
</g>
</g>
</svg>
