<?xml version="1.0" encoding="UTF-8" standalone="no"?>
<!DOCTYPE svg PUBLIC "-//W3C//DTD SVG 1.1//EN"
 "http://www.w3.org/Graphics/SVG/1.1/DTD/svg11.dtd">
<!-- Generated by graphviz version 2.43.0 (0)
 -->
<!-- Title: src/Graphicals/IDisplayModule.hpp Pages: 1 -->
<svg width="1087pt" height="214pt"
 viewBox="0.00 0.00 1087.00 214.00" xmlns="http://www.w3.org/2000/svg" xmlns:xlink="http://www.w3.org/1999/xlink">
<g id="graph0" class="graph" transform="scale(1 1) rotate(0) translate(4 210)">
<title>src/Graphicals/IDisplayModule.hpp</title>
<!-- Node1 -->
<g id="Node000001" class="node">
<title>Node1</title>
<g id="a_Node000001"><a xlink:title="Declaration of the graphical display interface.">
<polygon fill="#999999" stroke="#666666" points="537.5,-206 352.5,-206 352.5,-187 537.5,-187 537.5,-206"/>
<text text-anchor="middle" x="445" y="-194" font-family="Helvetica,sans-Serif" font-size="10.00">src/Graphicals/IDisplayModule.hpp</text>
</a>
</g>
</g>
<!-- Node2 -->
<g id="Node000002" class="node">
<title>Node2</title>
<g id="a_Node000002"><a xlink:href="Core_8hpp.html" target="_top" xlink:title="Declaration of the Core class and associated definitions.">
<polygon fill="white" stroke="#666666" points="319.5,-151 216.5,-151 216.5,-132 319.5,-132 319.5,-151"/>
<text text-anchor="middle" x="268" y="-139" font-family="Helvetica,sans-Serif" font-size="10.00">src/Core/Core.hpp</text>
</a>
</g>
</g>
<!-- Node1&#45;&gt;Node2 -->
<g id="edge1_Node000001_Node000002" class="edge">
<title>Node1&#45;&gt;Node2</title>
<g id="a_edge1_Node000001_Node000002"><a xlink:title=" ">
<path fill="none" stroke="#63b8ff" d="M406.78,-184.06C373.7,-174.15 326.59,-160.04 296.66,-151.08"/>
<polygon fill="#63b8ff" stroke="#63b8ff" points="405.98,-187.47 416.56,-186.98 407.99,-180.76 405.98,-187.47"/>
</a>
</g>
</g>
<!-- Node6 -->
<g id="Node000006" class="node">
<title>Node6</title>
<g id="a_Node000006"><a xlink:href="ADisplayModule_8hpp.html" target="_top" xlink:title="Declares the abstract base class for display modules in the Arcade project.">
<polygon fill="white" stroke="#666666" points="788.5,-151 599.5,-151 599.5,-132 788.5,-132 788.5,-151"/>
<text text-anchor="middle" x="694" y="-139" font-family="Helvetica,sans-Serif" font-size="10.00">src/Graphicals/ADisplayModule.hpp</text>
</a>
</g>
</g>
<!-- Node1&#45;&gt;Node6 -->
<g id="edge5_Node000001_Node000006" class="edge">
<title>Node1&#45;&gt;Node6</title>
<g id="a_edge5_Node000001_Node000006"><a xlink:title=" ">
<path fill="none" stroke="#63b8ff" d="M494.9,-184.88C541.57,-174.94 610.39,-160.3 653.68,-151.08"/>
<polygon fill="#63b8ff" stroke="#63b8ff" points="494.06,-181.48 485.01,-186.98 495.52,-188.33 494.06,-181.48"/>
</a>
</g>
</g>
<!-- Node3 -->
<g id="Node000003" class="node">
<title>Node3</title>
<g id="a_Node000003"><a xlink:href="Core_8cpp.html" target="_top" xlink:title="Contains the core program methods.">
<polygon fill="white" stroke="#666666" points="102,-90.5 0,-90.5 0,-71.5 102,-71.5 102,-90.5"/>
<text text-anchor="middle" x="51" y="-78.5" font-family="Helvetica,sans-Serif" font-size="10.00">src/Core/Core.cpp</text>
</a>
</g>
</g>
<!-- Node2&#45;&gt;Node3 -->
<g id="edge2_Node000002_Node000003" class="edge">
<title>Node2&#45;&gt;Node3</title>
<g id="a_edge2_Node000002_Node000003"><a xlink:title=" ">
<path fill="none" stroke="#63b8ff" d="M226.54,-129.32C184.58,-118.01 120.62,-100.77 82.59,-90.52"/>
<polygon fill="#63b8ff" stroke="#63b8ff" points="225.88,-132.77 236.45,-131.99 227.7,-126.01 225.88,-132.77"/>
</a>
</g>
</g>
<!-- Node4 -->
<g id="Node000004" class="node">
<title>Node4</title>
<g id="a_Node000004"><a xlink:href="Menu_8cpp.html" target="_top" xlink:title="Declares global variables used to store user selections in the Arcade menu.">
<polygon fill="white" stroke="#666666" points="269.5,-90.5 120.5,-90.5 120.5,-71.5 269.5,-71.5 269.5,-90.5"/>
<text text-anchor="middle" x="195" y="-78.5" font-family="Helvetica,sans-Serif" font-size="10.00">src/Games/Menu/Menu.cpp</text>
</a>
</g>
</g>
<!-- Node2&#45;&gt;Node4 -->
<g id="edge3_Node000002_Node000004" class="edge">
<title>Node2&#45;&gt;Node4</title>
<g id="a_edge3_Node000002_Node000004"><a xlink:title=" ">
<path fill="none" stroke="#63b8ff" d="M249.33,-125.54C235.54,-114.49 217.26,-99.84 205.82,-90.67"/>
<polygon fill="#63b8ff" stroke="#63b8ff" points="247.24,-128.35 257.23,-131.87 251.61,-122.88 247.24,-128.35"/>
</a>
</g>
</g>
<!-- Node5 -->
<g id="Node000005" class="node">
<title>Node5</title>
<g id="a_Node000005"><a xlink:href="main_8cpp.html" target="_top" xlink:title="Main entry point of the program.">
<polygon fill="white" stroke="#666666" points="393,-90.5 287,-90.5 287,-71.5 393,-71.5 393,-90.5"/>
<text text-anchor="middle" x="340" y="-78.5" font-family="Helvetica,sans-Serif" font-size="10.00">src/Main/main.cpp</text>
</a>
</g>
</g>
<!-- Node2&#45;&gt;Node5 -->
<g id="edge4_Node000002_Node000005" class="edge">
<title>Node2&#45;&gt;Node5</title>
<g id="a_edge4_Node000002_Node000005"><a xlink:title=" ">
<path fill="none" stroke="#63b8ff" d="M286.42,-125.54C300.01,-114.49 318.04,-99.84 329.33,-90.67"/>
<polygon fill="#63b8ff" stroke="#63b8ff" points="284.18,-122.85 278.62,-131.87 288.59,-128.28 284.18,-122.85"/>
</a>
</g>
</g>
<!-- Node7 -->
<g id="Node000007" class="node">
<title>Node7</title>
<g id="a_Node000007"><a xlink:href="ADisplayModule_8cpp.html" target="_top" xlink:title="Provides default constructor and destructor implementations for ADisplayModule.">
<polygon fill="white" stroke="#666666" points="599,-90.5 411,-90.5 411,-71.5 599,-71.5 599,-90.5"/>
<text text-anchor="middle" x="505" y="-78.5" font-family="Helvetica,sans-Serif" font-size="10.00">src/Graphicals/ADisplayModule.cpp</text>
</a>
</g>
</g>
<!-- Node6&#45;&gt;Node7 -->
<g id="edge6_Node000006_Node000007" class="edge">
<title>Node6&#45;&gt;Node7</title>
<g id="a_edge6_Node000006_Node000007"><a xlink:title=" ">
<path fill="none" stroke="#63b8ff" d="M656.73,-128.96C620.17,-117.65 565.28,-100.66 532.52,-90.52"/>
<polygon fill="#63b8ff" stroke="#63b8ff" points="655.93,-132.38 666.52,-131.99 658,-125.69 655.93,-132.38"/>
</a>
</g>
</g>
<!-- Node8 -->
<g id="Node000008" class="node">
<title>Node8</title>
<g id="a_Node000008"><a xlink:href="NCursesDisplayModule_8hpp.html" target="_top" xlink:title="Declaration of the NCursesDisplayModule class and associated definitions.">
<polygon fill="white" stroke="#666666" points="771,-96 617,-96 617,-66 771,-66 771,-96"/>
<text text-anchor="start" x="625" y="-84" font-family="Helvetica,sans-Serif" font-size="10.00">src/Graphicals/NCurses</text>
<text text-anchor="middle" x="694" y="-73" font-family="Helvetica,sans-Serif" font-size="10.00">/NCursesDisplayModule.hpp</text>
</a>
</g>
</g>
<!-- Node6&#45;&gt;Node8 -->
<g id="edge7_Node000006_Node000008" class="edge">
<title>Node6&#45;&gt;Node8</title>
<g id="a_edge7_Node000006_Node000008"><a xlink:title=" ">
<path fill="none" stroke="#63b8ff" d="M694,-121.65C694,-113.36 694,-103.78 694,-96.11"/>
<polygon fill="#63b8ff" stroke="#63b8ff" points="690.5,-121.87 694,-131.87 697.5,-121.87 690.5,-121.87"/>
</a>
</g>
</g>
<!-- Node10 -->
<g id="Node000010" class="node">
<title>Node10</title>
<g id="a_Node000010"><a xlink:href="SDLDisplayModule_8hpp.html" target="_top" xlink:title="Header file for SDL display module.">
<polygon fill="white" stroke="#666666" points="921,-96 789,-96 789,-66 921,-66 921,-96"/>
<text text-anchor="start" x="797" y="-84" font-family="Helvetica,sans-Serif" font-size="10.00">src/Graphicals/SDL</text>
<text text-anchor="middle" x="855" y="-73" font-family="Helvetica,sans-Serif" font-size="10.00">/SDLDisplayModule.hpp</text>
</a>
</g>
</g>
<!-- Node6&#45;&gt;Node10 -->
<g id="edge9_Node000006_Node000010" class="edge">
<title>Node6&#45;&gt;Node10</title>
<g id="a_edge9_Node000006_Node000010"><a xlink:title=" ">
<path fill="none" stroke="#63b8ff" d="M727.14,-128.46C753.04,-119.05 789.08,-105.95 816.29,-96.06"/>
<polygon fill="#63b8ff" stroke="#63b8ff" points="725.61,-125.29 717.41,-131.99 728,-131.87 725.61,-125.29"/>
</a>
</g>
</g>
<!-- Node12 -->
<g id="Node000012" class="node">
<title>Node12</title>
<g id="a_Node000012"><a xlink:href="SFMLDisplayModule_8hpp_source.html" target="_top" xlink:title=" ">
<polygon fill="white" stroke="#666666" points="1079,-96 939,-96 939,-66 1079,-66 1079,-96"/>
<text text-anchor="start" x="947" y="-84" font-family="Helvetica,sans-Serif" font-size="10.00">src/Graphicals/SFML</text>
<text text-anchor="middle" x="1009" y="-73" font-family="Helvetica,sans-Serif" font-size="10.00">/SFMLDisplayModule.hpp</text>
</a>
</g>
</g>
<!-- Node6&#45;&gt;Node12 -->
<g id="edge11_Node000006_Node000012" class="edge">
<title>Node6&#45;&gt;Node12</title>
<g id="a_edge11_Node000006_Node000012"><a xlink:title=" ">
<path fill="none" stroke="#63b8ff" d="M749.66,-130.16C802.44,-120.36 881.93,-105.6 938.99,-95"/>
<polygon fill="#63b8ff" stroke="#63b8ff" points="749,-126.73 739.8,-131.99 750.27,-133.61 749,-126.73"/>
</a>
</g>
</g>
<!-- Node9 -->
<g id="Node000009" class="node">
<title>Node9</title>
<g id="a_Node000009"><a xlink:href="NCursesDisplayModule_8cpp.html" target="_top" xlink:title="NCurses Display Module.">
<polygon fill="white" stroke="#666666" points="770.5,-30 617.5,-30 617.5,0 770.5,0 770.5,-30"/>
<text text-anchor="start" x="625.5" y="-18" font-family="Helvetica,sans-Serif" font-size="10.00">src/Graphicals/NCurses</text>
<text text-anchor="middle" x="694" y="-7" font-family="Helvetica,sans-Serif" font-size="10.00">/NCursesDisplayModule.cpp</text>
</a>
</g>
</g>
<!-- Node8&#45;&gt;Node9 -->
<g id="edge8_Node000008_Node000009" class="edge">
<title>Node8&#45;&gt;Node9</title>
<g id="a_edge8_Node000008_Node000009"><a xlink:title=" ">
<path fill="none" stroke="#63b8ff" d="M694,-55.54C694,-46.96 694,-37.61 694,-30.16"/>
<polygon fill="#63b8ff" stroke="#63b8ff" points="690.5,-55.8 694,-65.8 697.5,-55.8 690.5,-55.8"/>
</a>
</g>
</g>
<!-- Node11 -->
<g id="Node000011" class="node">
<title>Node11</title>
<g id="a_Node000011"><a xlink:href="SDLDisplayModule_8cpp.html" target="_top" xlink:title="This file contains all functions related to SDL.">
<polygon fill="white" stroke="#666666" points="920.5,-30 789.5,-30 789.5,0 920.5,0 920.5,-30"/>
<text text-anchor="start" x="797.5" y="-18" font-family="Helvetica,sans-Serif" font-size="10.00">src/Graphicals/SDL</text>
<text text-anchor="middle" x="855" y="-7" font-family="Helvetica,sans-Serif" font-size="10.00">/SDLDisplayModule.cpp</text>
</a>
</g>
</g>
<!-- Node10&#45;&gt;Node11 -->
<g id="edge10_Node000010_Node000011" class="edge">
<title>Node10&#45;&gt;Node11</title>
<g id="a_edge10_Node000010_Node000011"><a xlink:title=" ">
<path fill="none" stroke="#63b8ff" d="M855,-55.54C855,-46.96 855,-37.61 855,-30.16"/>
<polygon fill="#63b8ff" stroke="#63b8ff" points="851.5,-55.8 855,-65.8 858.5,-55.8 851.5,-55.8"/>
</a>
</g>
</g>
</g>
</svg>
