<?xml version="1.0" encoding="UTF-8" standalone="no"?>
<!DOCTYPE svg PUBLIC "-//W3C//DTD SVG 1.1//EN"
 "http://www.w3.org/Graphics/SVG/1.1/DTD/svg11.dtd">
<!-- Generated by graphviz version 2.43.0 (0)
 -->
<!-- Title: src/Games/IGame.hpp Pages: 1 -->
<svg width="329pt" height="137pt"
 viewBox="0.00 0.00 329.07 137.00" xmlns="http://www.w3.org/2000/svg" xmlns:xlink="http://www.w3.org/1999/xlink">
<g id="graph0" class="graph" transform="scale(1 1) rotate(0) translate(4 133)">
<title>src/Games/IGame.hpp</title>
<!-- Node1 -->
<g id="Node000001" class="node">
<title>Node1</title>
<g id="a_Node000001"><a xlink:title="Declaration of the game interface class.">
<polygon fill="#999999" stroke="#666666" points="143.07,-129 18.07,-129 18.07,-110 143.07,-110 143.07,-129"/>
<text text-anchor="middle" x="80.57" y="-117" font-family="Helvetica,sans-Serif" font-size="10.00">src/Games/IGame.hpp</text>
</a>
</g>
</g>
<!-- Node2 -->
<g id="Node000002" class="node">
<title>Node2</title>
<g id="a_Node000002"><a xlink:title=" ">
<polygon fill="#e0e0e0" stroke="#999999" points="107.57,-19 63.57,-19 63.57,0 107.57,0 107.57,-19"/>
<text text-anchor="middle" x="85.57" y="-7" font-family="Helvetica,sans-Serif" font-size="10.00">string</text>
</a>
</g>
</g>
<!-- Node1&#45;&gt;Node2 -->
<g id="edge1_Node000001_Node000002" class="edge">
<title>Node1&#45;&gt;Node2</title>
<g id="a_edge1_Node000001_Node000002"><a xlink:title=" ">
<path fill="none" stroke="#63b8ff" d="M53.76,-109.83C26.05,-99.31 -11.23,-79.87 3.57,-55 14.4,-36.8 35.57,-25.58 53.68,-18.96"/>
<polygon fill="#63b8ff" stroke="#63b8ff" points="54.97,-22.22 63.35,-15.74 52.75,-15.58 54.97,-22.22"/>
</a>
</g>
</g>
<!-- Node3 -->
<g id="Node000003" class="node">
<title>Node3</title>
<g id="a_Node000003"><a xlink:title=" ">
<polygon fill="#e0e0e0" stroke="#999999" points="60.07,-74 13.07,-74 13.07,-55 60.07,-55 60.07,-74"/>
<text text-anchor="middle" x="36.57" y="-62" font-family="Helvetica,sans-Serif" font-size="10.00">vector</text>
</a>
</g>
</g>
<!-- Node1&#45;&gt;Node3 -->
<g id="edge2_Node000001_Node000003" class="edge">
<title>Node1&#45;&gt;Node3</title>
<g id="a_edge2_Node000001_Node000003"><a xlink:title=" ">
<path fill="none" stroke="#63b8ff" d="M73.31,-109.75C67.03,-102.18 57.78,-91.05 50.14,-81.84"/>
<polygon fill="#63b8ff" stroke="#63b8ff" points="52.78,-79.55 43.7,-74.09 47.4,-84.02 52.78,-79.55"/>
</a>
</g>
</g>
<!-- Node4 -->
<g id="Node000004" class="node">
<title>Node4</title>
<g id="a_Node000004"><a xlink:title=" ">
<polygon fill="#e0e0e0" stroke="#999999" points="171.07,-74 78.07,-74 78.07,-55 171.07,-55 171.07,-74"/>
<text text-anchor="middle" x="124.57" y="-62" font-family="Helvetica,sans-Serif" font-size="10.00">unordered_map</text>
</a>
</g>
</g>
<!-- Node1&#45;&gt;Node4 -->
<g id="edge3_Node000001_Node000004" class="edge">
<title>Node1&#45;&gt;Node4</title>
<g id="a_edge3_Node000001_Node000004"><a xlink:title=" ">
<path fill="none" stroke="#63b8ff" d="M87.84,-109.75C94.12,-102.18 103.36,-91.05 111,-81.84"/>
<polygon fill="#63b8ff" stroke="#63b8ff" points="113.75,-84.02 117.44,-74.09 108.36,-79.55 113.75,-84.02"/>
</a>
</g>
</g>
<!-- Node5 -->
<g id="Node000005" class="node">
<title>Node5</title>
<g id="a_Node000005"><a xlink:href="Types_8hpp.html" target="_top" xlink:title="Defines the core data structures and types used across the Arcade project.">
<polygon fill="white" stroke="#666666" points="311.57,-74 189.57,-74 189.57,-55 311.57,-55 311.57,-74"/>
<text text-anchor="middle" x="250.57" y="-62" font-family="Helvetica,sans-Serif" font-size="10.00">../../include/Types.hpp</text>
</a>
</g>
</g>
<!-- Node1&#45;&gt;Node5 -->
<g id="edge4_Node000001_Node000005" class="edge">
<title>Node1&#45;&gt;Node5</title>
<g id="a_edge4_Node000001_Node000005"><a xlink:title=" ">
<path fill="none" stroke="#63b8ff" d="M107.88,-109.98C136.43,-101.09 181.4,-87.07 213.21,-77.15"/>
<polygon fill="#63b8ff" stroke="#63b8ff" points="214.54,-80.4 223.04,-74.08 212.46,-73.72 214.54,-80.4"/>
</a>
</g>
</g>
<!-- Node5&#45;&gt;Node2 -->
<g id="edge7_Node000005_Node000002" class="edge">
<title>Node5&#45;&gt;Node2</title>
<g id="a_edge7_Node000005_Node000002"><a xlink:title=" ">
<path fill="none" stroke="#63b8ff" d="M224.06,-54.98C195.09,-45.68 148.67,-30.77 117.66,-20.81"/>
<polygon fill="#63b8ff" stroke="#63b8ff" points="118.38,-17.36 107.78,-17.63 116.23,-24.03 118.38,-17.36"/>
</a>
</g>
</g>
<!-- Node6 -->
<g id="Node000006" class="node">
<title>Node6</title>
<g id="a_Node000006"><a xlink:title=" ">
<polygon fill="#e0e0e0" stroke="#999999" points="237.57,-19 187.57,-19 187.57,0 237.57,0 237.57,-19"/>
<text text-anchor="middle" x="212.57" y="-7" font-family="Helvetica,sans-Serif" font-size="10.00">cstdint</text>
</a>
</g>
</g>
<!-- Node5&#45;&gt;Node6 -->
<g id="edge5_Node000005_Node000006" class="edge">
<title>Node5&#45;&gt;Node6</title>
<g id="a_edge5_Node000005_Node000006"><a xlink:title=" ">
<path fill="none" stroke="#63b8ff" d="M244.3,-54.75C238.98,-47.34 231.22,-36.5 224.7,-27.41"/>
<polygon fill="#63b8ff" stroke="#63b8ff" points="227.4,-25.18 218.73,-19.09 221.71,-29.26 227.4,-25.18"/>
</a>
</g>
</g>
<!-- Node7 -->
<g id="Node000007" class="node">
<title>Node7</title>
<g id="a_Node000007"><a xlink:title=" ">
<polygon fill="#e0e0e0" stroke="#999999" points="321.07,-19 256.07,-19 256.07,0 321.07,0 321.07,-19"/>
<text text-anchor="middle" x="288.57" y="-7" font-family="Helvetica,sans-Serif" font-size="10.00">functional</text>
</a>
</g>
</g>
<!-- Node5&#45;&gt;Node7 -->
<g id="edge6_Node000005_Node000007" class="edge">
<title>Node5&#45;&gt;Node7</title>
<g id="a_edge6_Node000005_Node000007"><a xlink:title=" ">
<path fill="none" stroke="#63b8ff" d="M256.85,-54.75C262.16,-47.34 269.93,-36.5 276.45,-27.41"/>
<polygon fill="#63b8ff" stroke="#63b8ff" points="279.43,-29.26 282.41,-19.09 273.74,-25.18 279.43,-29.26"/>
</a>
</g>
</g>
</g>
</svg>
