<?xml version="1.0" encoding="UTF-8" standalone="no"?>
<!DOCTYPE svg PUBLIC "-//W3C//DTD SVG 1.1//EN"
 "http://www.w3.org/Graphics/SVG/1.1/DTD/svg11.dtd">
<!-- Generated by graphviz version 2.43.0 (0)
 -->
<!-- Title: src/Games/IGame.hpp Pages: 1 -->
<svg width="860pt" height="192pt"
 viewBox="0.00 0.00 859.50 192.00" xmlns="http://www.w3.org/2000/svg" xmlns:xlink="http://www.w3.org/1999/xlink">
<g id="graph0" class="graph" transform="scale(1 1) rotate(0) translate(4 188)">
<title>src/Games/IGame.hpp</title>
<!-- Node1 -->
<g id="Node000001" class="node">
<title>Node1</title>
<g id="a_Node000001"><a xlink:title="Declaration of the game interface class.">
<polygon fill="#999999" stroke="#666666" points="306.5,-184 181.5,-184 181.5,-165 306.5,-165 306.5,-184"/>
<text text-anchor="middle" x="244" y="-172" font-family="Helvetica,sans-Serif" font-size="10.00">src/Games/IGame.hpp</text>
</a>
</g>
</g>
<!-- Node2 -->
<g id="Node000002" class="node">
<title>Node2</title>
<g id="a_Node000002"><a xlink:href="Core_8hpp.html" target="_top" xlink:title="Declaration of the Core class and associated definitions.">
<polygon fill="white" stroke="#666666" points="222.5,-129 119.5,-129 119.5,-110 222.5,-110 222.5,-129"/>
<text text-anchor="middle" x="171" y="-117" font-family="Helvetica,sans-Serif" font-size="10.00">src/Core/Core.hpp</text>
</a>
</g>
</g>
<!-- Node1&#45;&gt;Node2 -->
<g id="edge1_Node000001_Node000002" class="edge">
<title>Node1&#45;&gt;Node2</title>
<g id="a_edge1_Node000001_Node000002"><a xlink:title=" ">
<path fill="none" stroke="#63b8ff" d="M223.86,-158.88C210.72,-149.34 194.02,-137.21 182.94,-129.17"/>
<polygon fill="#63b8ff" stroke="#63b8ff" points="222.12,-161.94 232.27,-164.98 226.24,-156.28 222.12,-161.94"/>
</a>
</g>
</g>
<!-- Node6 -->
<g id="Node000006" class="node">
<title>Node6</title>
<g id="a_Node000006"><a xlink:href="AGame_8hpp.html" target="_top" xlink:title="Declares the abstract base class for all Arcade games.">
<polygon fill="white" stroke="#666666" points="517,-129 389,-129 389,-110 517,-110 517,-129"/>
<text text-anchor="middle" x="453" y="-117" font-family="Helvetica,sans-Serif" font-size="10.00">src/Games/AGame.hpp</text>
</a>
</g>
</g>
<!-- Node1&#45;&gt;Node6 -->
<g id="edge5_Node000001_Node000006" class="edge">
<title>Node1&#45;&gt;Node6</title>
<g id="a_edge5_Node000001_Node000006"><a xlink:title=" ">
<path fill="none" stroke="#63b8ff" d="M287.37,-162.5C326.51,-152.58 383.28,-138.18 419.16,-129.08"/>
<polygon fill="#63b8ff" stroke="#63b8ff" points="286.41,-159.13 277.58,-164.98 288.13,-165.92 286.41,-159.13"/>
</a>
</g>
</g>
<!-- Node3 -->
<g id="Node000003" class="node">
<title>Node3</title>
<g id="a_Node000003"><a xlink:href="Core_8cpp.html" target="_top" xlink:title="Contains the core program methods.">
<polygon fill="white" stroke="#666666" points="102,-74 0,-74 0,-55 102,-55 102,-74"/>
<text text-anchor="middle" x="51" y="-62" font-family="Helvetica,sans-Serif" font-size="10.00">src/Core/Core.cpp</text>
</a>
</g>
</g>
<!-- Node2&#45;&gt;Node3 -->
<g id="edge2_Node000002_Node000003" class="edge">
<title>Node2&#45;&gt;Node3</title>
<g id="a_edge2_Node000002_Node000003"><a xlink:title=" ">
<path fill="none" stroke="#63b8ff" d="M142.47,-105.9C120.3,-96.11 90.15,-82.79 70.63,-74.17"/>
<polygon fill="#63b8ff" stroke="#63b8ff" points="141.16,-109.15 151.72,-109.98 143.99,-102.74 141.16,-109.15"/>
</a>
</g>
</g>
<!-- Node4 -->
<g id="Node000004" class="node">
<title>Node4</title>
<g id="a_Node000004"><a xlink:href="Menu_8cpp.html" target="_top" xlink:title="Declares global variables used to store user selections in the Arcade menu.">
<polygon fill="white" stroke="#666666" points="318.5,-19 169.5,-19 169.5,0 318.5,0 318.5,-19"/>
<text text-anchor="middle" x="244" y="-7" font-family="Helvetica,sans-Serif" font-size="10.00">src/Games/Menu/Menu.cpp</text>
</a>
</g>
</g>
<!-- Node2&#45;&gt;Node4 -->
<g id="edge3_Node000002_Node000004" class="edge">
<title>Node2&#45;&gt;Node4</title>
<g id="a_edge3_Node000002_Node000004"><a xlink:title=" ">
<path fill="none" stroke="#63b8ff" d="M157.29,-101.43C148.33,-88.07 139.84,-69.4 149,-55 160.82,-36.4 182.69,-25.45 202.47,-19.06"/>
<polygon fill="#63b8ff" stroke="#63b8ff" points="154.62,-103.72 163.35,-109.72 160.27,-99.58 154.62,-103.72"/>
</a>
</g>
</g>
<!-- Node5 -->
<g id="Node000005" class="node">
<title>Node5</title>
<g id="a_Node000005"><a xlink:href="main_8cpp.html" target="_top" xlink:title="Main entry point of the program.">
<polygon fill="white" stroke="#666666" points="264,-74 158,-74 158,-55 264,-55 264,-74"/>
<text text-anchor="middle" x="211" y="-62" font-family="Helvetica,sans-Serif" font-size="10.00">src/Main/main.cpp</text>
</a>
</g>
</g>
<!-- Node2&#45;&gt;Node5 -->
<g id="edge4_Node000002_Node000005" class="edge">
<title>Node2&#45;&gt;Node5</title>
<g id="a_edge4_Node000002_Node000005"><a xlink:title=" ">
<path fill="none" stroke="#63b8ff" d="M183.7,-101.67C190.63,-92.5 198.91,-81.52 204.52,-74.09"/>
<polygon fill="#63b8ff" stroke="#63b8ff" points="180.84,-99.66 177.61,-109.75 186.42,-103.87 180.84,-99.66"/>
</a>
</g>
</g>
<!-- Node7 -->
<g id="Node000007" class="node">
<title>Node7</title>
<g id="a_Node000007"><a xlink:href="Menu_8hpp.html" target="_top" xlink:title="Declares the Menu class, used to display and navigate game and library options.">
<polygon fill="white" stroke="#666666" points="431.5,-74 282.5,-74 282.5,-55 431.5,-55 431.5,-74"/>
<text text-anchor="middle" x="357" y="-62" font-family="Helvetica,sans-Serif" font-size="10.00">src/Games/Menu/Menu.hpp</text>
</a>
</g>
</g>
<!-- Node6&#45;&gt;Node7 -->
<g id="edge6_Node000006_Node000007" class="edge">
<title>Node6&#45;&gt;Node7</title>
<g id="a_edge6_Node000006_Node000007"><a xlink:title=" ">
<path fill="none" stroke="#63b8ff" d="M428.48,-104.97C410.94,-95.28 387.83,-82.52 372.7,-74.17"/>
<polygon fill="#63b8ff" stroke="#63b8ff" points="427.13,-108.22 437.58,-109.98 430.51,-102.09 427.13,-108.22"/>
</a>
</g>
</g>
<!-- Node8 -->
<g id="Node000008" class="node">
<title>Node8</title>
<g id="a_Node000008"><a xlink:href="PacmanGame_8hpp_source.html" target="_top" xlink:title=" ">
<polygon fill="white" stroke="#666666" points="650.5,-74 449.5,-74 449.5,-55 650.5,-55 650.5,-74"/>
<text text-anchor="middle" x="550" y="-62" font-family="Helvetica,sans-Serif" font-size="10.00">src/Games/Pacman/PacmanGame.hpp</text>
</a>
</g>
</g>
<!-- Node6&#45;&gt;Node8 -->
<g id="edge8_Node000006_Node000008" class="edge">
<title>Node6&#45;&gt;Node8</title>
<g id="a_edge8_Node000006_Node000008"><a xlink:title=" ">
<path fill="none" stroke="#63b8ff" d="M477.77,-104.97C495.5,-95.28 518.85,-82.52 534.13,-74.17"/>
<polygon fill="#63b8ff" stroke="#63b8ff" points="475.68,-102.12 468.58,-109.98 479.04,-108.26 475.68,-102.12"/>
</a>
</g>
</g>
<!-- Node9 -->
<g id="Node000009" class="node">
<title>Node9</title>
<g id="a_Node000009"><a xlink:href="SnakeGame_8hpp.html" target="_top" xlink:title="Declaration of the SnakeGame class and associated definitions.">
<polygon fill="white" stroke="#666666" points="851.5,-74 668.5,-74 668.5,-55 851.5,-55 851.5,-74"/>
<text text-anchor="middle" x="760" y="-62" font-family="Helvetica,sans-Serif" font-size="10.00">src/Games/Snake/SnakeGame.hpp</text>
</a>
</g>
</g>
<!-- Node6&#45;&gt;Node9 -->
<g id="edge9_Node000006_Node000009" class="edge">
<title>Node6&#45;&gt;Node9</title>
<g id="a_edge9_Node000006_Node000009"><a xlink:title=" ">
<path fill="none" stroke="#63b8ff" d="M512.38,-108.25C570.03,-98.3 656.53,-83.36 710.54,-74.04"/>
<polygon fill="#63b8ff" stroke="#63b8ff" points="511.58,-104.83 502.32,-109.98 512.77,-111.73 511.58,-104.83"/>
</a>
</g>
</g>
<!-- Node7&#45;&gt;Node4 -->
<g id="edge7_Node000007_Node000004" class="edge">
<title>Node7&#45;&gt;Node4</title>
<g id="a_edge7_Node000007_Node000004"><a xlink:title=" ">
<path fill="none" stroke="#63b8ff" d="M329.57,-50.63C308.75,-40.87 280.7,-27.71 262.49,-19.17"/>
<polygon fill="#63b8ff" stroke="#63b8ff" points="328.3,-53.91 338.84,-54.98 331.28,-47.57 328.3,-53.91"/>
</a>
</g>
</g>
<!-- Node10 -->
<g id="Node000010" class="node">
<title>Node10</title>
<g id="a_Node000010"><a xlink:href="SnakeGame_8cpp.html" target="_top" xlink:title="Snake Game.">
<polygon fill="white" stroke="#666666" points="851,-19 669,-19 669,0 851,0 851,-19"/>
<text text-anchor="middle" x="760" y="-7" font-family="Helvetica,sans-Serif" font-size="10.00">src/Games/Snake/SnakeGame.cpp</text>
</a>
</g>
</g>
<!-- Node9&#45;&gt;Node10 -->
<g id="edge10_Node000009_Node000010" class="edge">
<title>Node9&#45;&gt;Node10</title>
<g id="a_edge10_Node000009_Node000010"><a xlink:title=" ">
<path fill="none" stroke="#63b8ff" d="M760,-44.66C760,-35.93 760,-25.99 760,-19.09"/>
<polygon fill="#63b8ff" stroke="#63b8ff" points="756.5,-44.75 760,-54.75 763.5,-44.75 756.5,-44.75"/>
</a>
</g>
</g>
</g>
</svg>
