<?xml version="1.0" encoding="UTF-8" standalone="no"?>
<!DOCTYPE svg PUBLIC "-//W3C//DTD SVG 1.1//EN"
 "http://www.w3.org/Graphics/SVG/1.1/DTD/svg11.dtd">
<!-- Generated by graphviz version 2.43.0 (0)
 -->
<!-- Title: src/Games/Pacman/includes.hpp Pages: 1 -->
<svg width="862pt" height="214pt"
 viewBox="0.00 0.00 862.00 214.00" xmlns="http://www.w3.org/2000/svg" xmlns:xlink="http://www.w3.org/1999/xlink">
<g id="graph0" class="graph" transform="scale(1 1) rotate(0) translate(4 210)">
<title>src/Games/Pacman/includes.hpp</title>
<!-- Node1 -->
<g id="Node000001" class="node">
<title>Node1</title>
<g id="a_Node000001"><a xlink:title="Defines the specials structures and types used by the Pacman game.">
<polygon fill="#999999" stroke="#666666" points="764.5,-206 590.5,-206 590.5,-187 764.5,-187 764.5,-206"/>
<text text-anchor="middle" x="677.5" y="-194" font-family="Helvetica,sans-Serif" font-size="10.00">src/Games/Pacman/includes.hpp</text>
</a>
</g>
</g>
<!-- Node2 -->
<g id="Node000002" class="node">
<title>Node2</title>
<g id="a_Node000002"><a xlink:href="Ghost_8hpp.html" target="_top" xlink:title="Contains the behavior of the ghosts.">
<polygon fill="white" stroke="#666666" points="483,-151 334,-151 334,-121 483,-121 483,-151"/>
<text text-anchor="start" x="342" y="-139" font-family="Helvetica,sans-Serif" font-size="10.00">src/Games/Pacman/Entities</text>
<text text-anchor="middle" x="408.5" y="-128" font-family="Helvetica,sans-Serif" font-size="10.00">/Ghost.hpp</text>
</a>
</g>
</g>
<!-- Node1&#45;&gt;Node2 -->
<g id="edge1_Node000001_Node000002" class="edge">
<title>Node1&#45;&gt;Node2</title>
<g id="a_edge1_Node000001_Node000002"><a xlink:title=" ">
<path fill="none" stroke="#63b8ff" d="M628.58,-184.86C584.93,-175.37 520.72,-161.41 472.91,-151.01"/>
<polygon fill="#63b8ff" stroke="#63b8ff" points="627.87,-188.29 638.39,-186.99 629.36,-181.45 627.87,-188.29"/>
</a>
</g>
</g>
<!-- Node4 -->
<g id="Node000004" class="node">
<title>Node4</title>
<g id="a_Node000004"><a xlink:href="PacmanGame_8hpp.html" target="_top" xlink:title="Main file of the Pacman game.">
<polygon fill="white" stroke="#666666" points="592,-19 391,-19 391,0 592,0 592,-19"/>
<text text-anchor="middle" x="491.5" y="-7" font-family="Helvetica,sans-Serif" font-size="10.00">src/Games/Pacman/PacmanGame.hpp</text>
</a>
</g>
</g>
<!-- Node1&#45;&gt;Node4 -->
<g id="edge12_Node000001_Node000004" class="edge">
<title>Node1&#45;&gt;Node4</title>
<g id="a_edge12_Node000001_Node000004"><a xlink:title=" ">
<path fill="none" stroke="#63b8ff" d="M680.91,-176.72C685.14,-147.01 688.53,-89.07 658.5,-55 644.07,-38.62 592.09,-26.49 549.92,-19.06"/>
<polygon fill="#63b8ff" stroke="#63b8ff" points="677.4,-176.5 679.25,-186.93 684.31,-177.62 677.4,-176.5"/>
</a>
</g>
</g>
<!-- Node8 -->
<g id="Node000008" class="node">
<title>Node8</title>
<g id="a_Node000008"><a xlink:href="Player_8hpp_source.html" target="_top" xlink:title=" ">
<polygon fill="white" stroke="#666666" points="854,-151 705,-151 705,-121 854,-121 854,-151"/>
<text text-anchor="start" x="713" y="-139" font-family="Helvetica,sans-Serif" font-size="10.00">src/Games/Pacman/Entities</text>
<text text-anchor="middle" x="779.5" y="-128" font-family="Helvetica,sans-Serif" font-size="10.00">/Player.hpp</text>
</a>
</g>
</g>
<!-- Node1&#45;&gt;Node8 -->
<g id="edge10_Node000001_Node000008" class="edge">
<title>Node1&#45;&gt;Node8</title>
<g id="a_edge10_Node000001_Node000008"><a xlink:title=" ">
<path fill="none" stroke="#63b8ff" d="M701.36,-181.81C717.46,-172.58 738.64,-160.43 754.89,-151.11"/>
<polygon fill="#63b8ff" stroke="#63b8ff" points="699.48,-178.86 692.55,-186.87 702.97,-184.93 699.48,-178.86"/>
</a>
</g>
</g>
<!-- Node3 -->
<g id="Node000003" class="node">
<title>Node3</title>
<g id="a_Node000003"><a xlink:href="Blinky_8hpp.html" target="_top" xlink:title="Implements the Blinky class, which inherits directly from the ghost class.">
<polygon fill="white" stroke="#666666" points="149,-85 0,-85 0,-55 149,-55 149,-85"/>
<text text-anchor="start" x="8" y="-73" font-family="Helvetica,sans-Serif" font-size="10.00">src/Games/Pacman/Entities</text>
<text text-anchor="middle" x="74.5" y="-62" font-family="Helvetica,sans-Serif" font-size="10.00">/Blinky.hpp</text>
</a>
</g>
</g>
<!-- Node2&#45;&gt;Node3 -->
<g id="edge2_Node000002_Node000003" class="edge">
<title>Node2&#45;&gt;Node3</title>
<g id="a_edge2_Node000002_Node000003"><a xlink:title=" ">
<path fill="none" stroke="#63b8ff" d="M325.21,-119.04C270.65,-108.59 200.01,-95.05 147.63,-85.01"/>
<polygon fill="#63b8ff" stroke="#63b8ff" points="324.72,-122.51 335.2,-120.95 326.04,-115.64 324.72,-122.51"/>
</a>
</g>
</g>
<!-- Node5 -->
<g id="Node000005" class="node">
<title>Node5</title>
<g id="a_Node000005"><a xlink:href="Clyde_8hpp.html" target="_top" xlink:title="Implements the Clyde class, which inherits directly from the ghost class.">
<polygon fill="white" stroke="#666666" points="316,-85 167,-85 167,-55 316,-55 316,-85"/>
<text text-anchor="start" x="175" y="-73" font-family="Helvetica,sans-Serif" font-size="10.00">src/Games/Pacman/Entities</text>
<text text-anchor="middle" x="241.5" y="-62" font-family="Helvetica,sans-Serif" font-size="10.00">/Clyde.hpp</text>
</a>
</g>
</g>
<!-- Node2&#45;&gt;Node5 -->
<g id="edge4_Node000002_Node000005" class="edge">
<title>Node2&#45;&gt;Node5</title>
<g id="a_edge4_Node000002_Node000005"><a xlink:title=" ">
<path fill="none" stroke="#63b8ff" d="M362.37,-117.32C335.79,-107.14 302.84,-94.51 278.06,-85.01"/>
<polygon fill="#63b8ff" stroke="#63b8ff" points="361.26,-120.64 371.85,-120.95 363.77,-114.11 361.26,-120.64"/>
</a>
</g>
</g>
<!-- Node6 -->
<g id="Node000006" class="node">
<title>Node6</title>
<g id="a_Node000006"><a xlink:href="Inky_8hpp.html" target="_top" xlink:title="Implements the Inky class, which inherits directly from the ghost class.">
<polygon fill="white" stroke="#666666" points="483,-85 334,-85 334,-55 483,-55 483,-85"/>
<text text-anchor="start" x="342" y="-73" font-family="Helvetica,sans-Serif" font-size="10.00">src/Games/Pacman/Entities</text>
<text text-anchor="middle" x="408.5" y="-62" font-family="Helvetica,sans-Serif" font-size="10.00">/Inky.hpp</text>
</a>
</g>
</g>
<!-- Node2&#45;&gt;Node6 -->
<g id="edge6_Node000002_Node000006" class="edge">
<title>Node2&#45;&gt;Node6</title>
<g id="a_edge6_Node000002_Node000006"><a xlink:title=" ">
<path fill="none" stroke="#63b8ff" d="M408.5,-110.54C408.5,-101.96 408.5,-92.61 408.5,-85.16"/>
<polygon fill="#63b8ff" stroke="#63b8ff" points="405,-110.8 408.5,-120.8 412,-110.8 405,-110.8"/>
</a>
</g>
</g>
<!-- Node7 -->
<g id="Node000007" class="node">
<title>Node7</title>
<g id="a_Node000007"><a xlink:href="Pinky_8hpp.html" target="_top" xlink:title="Implements the Pinky class, which inherits directly from the ghost class.">
<polygon fill="white" stroke="#666666" points="650,-85 501,-85 501,-55 650,-55 650,-85"/>
<text text-anchor="start" x="509" y="-73" font-family="Helvetica,sans-Serif" font-size="10.00">src/Games/Pacman/Entities</text>
<text text-anchor="middle" x="575.5" y="-62" font-family="Helvetica,sans-Serif" font-size="10.00">/Pinky.hpp</text>
</a>
</g>
</g>
<!-- Node2&#45;&gt;Node7 -->
<g id="edge8_Node000002_Node000007" class="edge">
<title>Node2&#45;&gt;Node7</title>
<g id="a_edge8_Node000002_Node000007"><a xlink:title=" ">
<path fill="none" stroke="#63b8ff" d="M454.63,-117.32C481.21,-107.14 514.16,-94.51 538.94,-85.01"/>
<polygon fill="#63b8ff" stroke="#63b8ff" points="453.23,-114.11 445.15,-120.95 455.74,-120.64 453.23,-114.11"/>
</a>
</g>
</g>
<!-- Node3&#45;&gt;Node4 -->
<g id="edge3_Node000003_Node000004" class="edge">
<title>Node3&#45;&gt;Node4</title>
<g id="a_edge3_Node000003_Node000004"><a xlink:title=" ">
<path fill="none" stroke="#63b8ff" d="M159.09,-54.79C255.88,-40.3 356.95,-27.21 422.32,-19.01"/>
<polygon fill="#63b8ff" stroke="#63b8ff" points="158.51,-51.34 149.14,-56.29 159.55,-58.26 158.51,-51.34"/>
</a>
</g>
</g>
<!-- Node5&#45;&gt;Node4 -->
<g id="edge5_Node000005_Node000004" class="edge">
<title>Node5&#45;&gt;Node4</title>
<g id="a_edge5_Node000005_Node000004"><a xlink:title=" ">
<path fill="none" stroke="#63b8ff" d="M311.13,-52.71C357.78,-41.79 417.32,-27.86 454.95,-19.05"/>
<polygon fill="#63b8ff" stroke="#63b8ff" points="310.32,-49.3 301.38,-54.99 311.92,-56.12 310.32,-49.3"/>
</a>
</g>
</g>
<!-- Node6&#45;&gt;Node4 -->
<g id="edge7_Node000006_Node000004" class="edge">
<title>Node6&#45;&gt;Node4</title>
<g id="a_edge7_Node000006_Node000004"><a xlink:title=" ">
<path fill="none" stroke="#63b8ff" d="M437.14,-48.82C451.44,-38.73 468.01,-27.05 479.06,-19.27"/>
<polygon fill="#63b8ff" stroke="#63b8ff" points="434.75,-46.22 428.59,-54.84 438.78,-51.94 434.75,-46.22"/>
</a>
</g>
</g>
<!-- Node7&#45;&gt;Node4 -->
<g id="edge9_Node000007_Node000004" class="edge">
<title>Node7&#45;&gt;Node4</title>
<g id="a_edge9_Node000007_Node000004"><a xlink:title=" ">
<path fill="none" stroke="#63b8ff" d="M546.93,-49.1C532.36,-38.95 515.38,-27.13 504.09,-19.27"/>
<polygon fill="#63b8ff" stroke="#63b8ff" points="544.96,-52 555.17,-54.84 548.96,-46.25 544.96,-52"/>
</a>
</g>
</g>
<!-- Node8&#45;&gt;Node4 -->
<g id="edge11_Node000008_Node000004" class="edge">
<title>Node8&#45;&gt;Node4</title>
<g id="a_edge11_Node000008_Node000004"><a xlink:title=" ">
<path fill="none" stroke="#63b8ff" d="M761.16,-112.87C744.78,-94.57 719.16,-69.34 691.5,-55 655.34,-36.25 611.52,-25.37 574.12,-19.07"/>
<polygon fill="#63b8ff" stroke="#63b8ff" points="758.8,-115.49 768.01,-120.72 764.08,-110.89 758.8,-115.49"/>
</a>
</g>
</g>
</g>
</svg>
