<?xml version="1.0" encoding="UTF-8" standalone="no"?>
<!DOCTYPE svg PUBLIC "-//W3C//DTD SVG 1.1//EN"
 "http://www.w3.org/Graphics/SVG/1.1/DTD/svg11.dtd">
<!-- Generated by graphviz version 2.43.0 (0)
 -->
<!-- Title: src/Games/Pacman/includes.hpp Pages: 1 -->
<svg width="1067pt" height="269pt"
 viewBox="0.00 0.00 1067.00 269.00" xmlns="http://www.w3.org/2000/svg" xmlns:xlink="http://www.w3.org/1999/xlink">
<g id="graph0" class="graph" transform="scale(1 1) rotate(0) translate(4 265)">
<title>src/Games/Pacman/includes.hpp</title>
<!-- Node1 -->
<g id="Node000001" class="node">
<title>Node1</title>
<g id="a_Node000001"><a xlink:title="Defines the specials structures and types used by the Pacman game.">
<polygon fill="#999999" stroke="#666666" points="931.5,-261 757.5,-261 757.5,-242 931.5,-242 931.5,-261"/>
<text text-anchor="middle" x="844.5" y="-249" font-family="Helvetica,sans-Serif" font-size="10.00">src/Games/Pacman/includes.hpp</text>
</a>
</g>
</g>
<!-- Node2 -->
<g id="Node000002" class="node">
<title>Node2</title>
<g id="a_Node000002"><a xlink:href="Ghost_8hpp.html" target="_top" xlink:title="Contains the behavior of the ghosts.">
<polygon fill="white" stroke="#666666" points="567,-206 418,-206 418,-176 567,-176 567,-206"/>
<text text-anchor="start" x="426" y="-194" font-family="Helvetica,sans-Serif" font-size="10.00">src/Games/Pacman/Entities</text>
<text text-anchor="middle" x="492.5" y="-183" font-family="Helvetica,sans-Serif" font-size="10.00">/Ghost.hpp</text>
</a>
</g>
</g>
<!-- Node1&#45;&gt;Node2 -->
<g id="edge1_Node000001_Node000002" class="edge">
<title>Node1&#45;&gt;Node2</title>
<g id="a_edge1_Node000001_Node000002"><a xlink:title=" ">
<path fill="none" stroke="#63b8ff" d="M783.22,-240.31C723.12,-230.33 631.41,-215.09 567.11,-204.4"/>
<polygon fill="#63b8ff" stroke="#63b8ff" points="782.88,-243.81 793.32,-241.99 784.03,-236.9 782.88,-243.81"/>
</a>
</g>
</g>
<!-- Node4 -->
<g id="Node000004" class="node">
<title>Node4</title>
<g id="a_Node000004"><a xlink:href="PacmanGame_8hpp.html" target="_top" xlink:title="Main file of the Pacman game.">
<polygon fill="white" stroke="#666666" points="759,-74 558,-74 558,-55 759,-55 759,-74"/>
<text text-anchor="middle" x="658.5" y="-62" font-family="Helvetica,sans-Serif" font-size="10.00">src/Games/Pacman/PacmanGame.hpp</text>
</a>
</g>
</g>
<!-- Node1&#45;&gt;Node4 -->
<g id="edge16_Node000001_Node000004" class="edge">
<title>Node1&#45;&gt;Node4</title>
<g id="a_edge16_Node000001_Node000004"><a xlink:title=" ">
<path fill="none" stroke="#63b8ff" d="M847.91,-231.72C852.14,-202.01 855.53,-144.07 825.5,-110 811.07,-93.62 759.09,-81.49 716.92,-74.06"/>
<polygon fill="#63b8ff" stroke="#63b8ff" points="844.4,-231.5 846.25,-241.93 851.31,-232.62 844.4,-231.5"/>
</a>
</g>
</g>
<!-- Node11 -->
<g id="Node000011" class="node">
<title>Node11</title>
<g id="a_Node000011"><a xlink:href="Player_8hpp.html" target="_top" xlink:title="Contains methods that define possible player behaviors.">
<polygon fill="white" stroke="#666666" points="1021,-206 872,-206 872,-176 1021,-176 1021,-206"/>
<text text-anchor="start" x="880" y="-194" font-family="Helvetica,sans-Serif" font-size="10.00">src/Games/Pacman/Entities</text>
<text text-anchor="middle" x="946.5" y="-183" font-family="Helvetica,sans-Serif" font-size="10.00">/Player.hpp</text>
</a>
</g>
</g>
<!-- Node1&#45;&gt;Node11 -->
<g id="edge13_Node000001_Node000011" class="edge">
<title>Node1&#45;&gt;Node11</title>
<g id="a_edge13_Node000001_Node000011"><a xlink:title=" ">
<path fill="none" stroke="#63b8ff" d="M868.36,-236.81C884.46,-227.58 905.64,-215.43 921.89,-206.11"/>
<polygon fill="#63b8ff" stroke="#63b8ff" points="866.48,-233.86 859.55,-241.87 869.97,-239.93 866.48,-233.86"/>
</a>
</g>
</g>
<!-- Node3 -->
<g id="Node000003" class="node">
<title>Node3</title>
<g id="a_Node000003"><a xlink:href="Blinky_8hpp.html" target="_top" xlink:title="Implements the Blinky class, which inherits directly from the ghost class.">
<polygon fill="white" stroke="#666666" points="149,-140 0,-140 0,-110 149,-110 149,-140"/>
<text text-anchor="start" x="8" y="-128" font-family="Helvetica,sans-Serif" font-size="10.00">src/Games/Pacman/Entities</text>
<text text-anchor="middle" x="74.5" y="-117" font-family="Helvetica,sans-Serif" font-size="10.00">/Blinky.hpp</text>
</a>
</g>
</g>
<!-- Node2&#45;&gt;Node3 -->
<g id="edge2_Node000002_Node000003" class="edge">
<title>Node2&#45;&gt;Node3</title>
<g id="a_edge2_Node000002_Node000003"><a xlink:title=" ">
<path fill="none" stroke="#63b8ff" d="M407.73,-177.8C339.97,-167.94 242.57,-153.52 157.5,-140 154.76,-139.56 151.97,-139.12 149.15,-138.66"/>
<polygon fill="#63b8ff" stroke="#63b8ff" points="407.53,-181.31 417.93,-179.28 408.53,-174.38 407.53,-181.31"/>
</a>
</g>
</g>
<!-- Node7 -->
<g id="Node000007" class="node">
<title>Node7</title>
<g id="a_Node000007"><a xlink:href="Clyde_8hpp.html" target="_top" xlink:title="Implements the Clyde class, which inherits directly from the ghost class.">
<polygon fill="white" stroke="#666666" points="316,-140 167,-140 167,-110 316,-110 316,-140"/>
<text text-anchor="start" x="175" y="-128" font-family="Helvetica,sans-Serif" font-size="10.00">src/Games/Pacman/Entities</text>
<text text-anchor="middle" x="241.5" y="-117" font-family="Helvetica,sans-Serif" font-size="10.00">/Clyde.hpp</text>
</a>
</g>
</g>
<!-- Node2&#45;&gt;Node7 -->
<g id="edge6_Node000002_Node000007" class="edge">
<title>Node2&#45;&gt;Node7</title>
<g id="a_edge6_Node000002_Node000007"><a xlink:title=" ">
<path fill="none" stroke="#63b8ff" d="M427.6,-173.45C386.93,-163.08 335.09,-149.86 296.45,-140.01"/>
<polygon fill="#63b8ff" stroke="#63b8ff" points="426.86,-176.88 437.42,-175.95 428.59,-170.09 426.86,-176.88"/>
</a>
</g>
</g>
<!-- Node8 -->
<g id="Node000008" class="node">
<title>Node8</title>
<g id="a_Node000008"><a xlink:href="Ghost_8cpp.html" target="_top" xlink:title="Implementation file for the Ghost class used in the Pacman game.">
<polygon fill="white" stroke="#666666" points="483,-140 334,-140 334,-110 483,-110 483,-140"/>
<text text-anchor="start" x="342" y="-128" font-family="Helvetica,sans-Serif" font-size="10.00">src/Games/Pacman/Entities</text>
<text text-anchor="middle" x="408.5" y="-117" font-family="Helvetica,sans-Serif" font-size="10.00">/Ghost.cpp</text>
</a>
</g>
</g>
<!-- Node2&#45;&gt;Node8 -->
<g id="edge8_Node000002_Node000008" class="edge">
<title>Node2&#45;&gt;Node8</title>
<g id="a_edge8_Node000002_Node000008"><a xlink:title=" ">
<path fill="none" stroke="#63b8ff" d="M465.56,-169.48C453.01,-159.91 438.39,-148.77 427.09,-140.16"/>
<polygon fill="#63b8ff" stroke="#63b8ff" points="463.78,-172.52 473.86,-175.8 468.02,-166.95 463.78,-172.52"/>
</a>
</g>
</g>
<!-- Node9 -->
<g id="Node000009" class="node">
<title>Node9</title>
<g id="a_Node000009"><a xlink:href="Inky_8hpp.html" target="_top" xlink:title="Implements the Inky class, which inherits directly from the ghost class.">
<polygon fill="white" stroke="#666666" points="650,-140 501,-140 501,-110 650,-110 650,-140"/>
<text text-anchor="start" x="509" y="-128" font-family="Helvetica,sans-Serif" font-size="10.00">src/Games/Pacman/Entities</text>
<text text-anchor="middle" x="575.5" y="-117" font-family="Helvetica,sans-Serif" font-size="10.00">/Inky.hpp</text>
</a>
</g>
</g>
<!-- Node2&#45;&gt;Node9 -->
<g id="edge9_Node000002_Node000009" class="edge">
<title>Node2&#45;&gt;Node9</title>
<g id="a_edge9_Node000002_Node000009"><a xlink:title=" ">
<path fill="none" stroke="#63b8ff" d="M519.11,-169.48C531.52,-159.91 545.97,-148.77 557.13,-140.16"/>
<polygon fill="#63b8ff" stroke="#63b8ff" points="516.7,-166.92 510.92,-175.8 520.98,-172.46 516.7,-166.92"/>
</a>
</g>
</g>
<!-- Node10 -->
<g id="Node000010" class="node">
<title>Node10</title>
<g id="a_Node000010"><a xlink:href="Pinky_8hpp.html" target="_top" xlink:title="Implements the Pinky class, which inherits directly from the ghost class.">
<polygon fill="white" stroke="#666666" points="817,-140 668,-140 668,-110 817,-110 817,-140"/>
<text text-anchor="start" x="676" y="-128" font-family="Helvetica,sans-Serif" font-size="10.00">src/Games/Pacman/Entities</text>
<text text-anchor="middle" x="742.5" y="-117" font-family="Helvetica,sans-Serif" font-size="10.00">/Pinky.hpp</text>
</a>
</g>
</g>
<!-- Node2&#45;&gt;Node10 -->
<g id="edge11_Node000002_Node000010" class="edge">
<title>Node2&#45;&gt;Node10</title>
<g id="a_edge11_Node000002_Node000010"><a xlink:title=" ">
<path fill="none" stroke="#63b8ff" d="M557.14,-173.45C597.65,-163.08 649.29,-149.86 687.76,-140.01"/>
<polygon fill="#63b8ff" stroke="#63b8ff" points="556.18,-170.08 547.36,-175.95 557.92,-176.87 556.18,-170.08"/>
</a>
</g>
</g>
<!-- Node3&#45;&gt;Node4 -->
<g id="edge3_Node000003_Node000004" class="edge">
<title>Node3&#45;&gt;Node4</title>
<g id="a_edge3_Node000003_Node000004"><a xlink:title=" ">
<path fill="none" stroke="#63b8ff" d="M159.46,-109.81C303.36,-91.61 459.01,-79.13 557.97,-72.1"/>
<polygon fill="#63b8ff" stroke="#63b8ff" points="158.59,-106.39 149.12,-111.13 159.48,-113.34 158.59,-106.39"/>
</a>
</g>
</g>
<!-- Node5 -->
<g id="Node000005" class="node">
<title>Node5</title>
<g id="a_Node000005"><a xlink:href="PacmanFactory_8cpp.html" target="_top" xlink:title="Factory functions to create and destroy the Pacman game instance.">
<polygon fill="white" stroke="#666666" points="651,-19 446,-19 446,0 651,0 651,-19"/>
<text text-anchor="middle" x="548.5" y="-7" font-family="Helvetica,sans-Serif" font-size="10.00">src/Games/Pacman/PacmanFactory.cpp</text>
</a>
</g>
</g>
<!-- Node4&#45;&gt;Node5 -->
<g id="edge4_Node000004_Node000005" class="edge">
<title>Node4&#45;&gt;Node5</title>
<g id="a_edge4_Node000004_Node000005"><a xlink:title=" ">
<path fill="none" stroke="#63b8ff" d="M631.8,-50.63C611.53,-40.87 584.23,-27.71 566.49,-19.17"/>
<polygon fill="#63b8ff" stroke="#63b8ff" points="630.3,-53.8 640.83,-54.98 633.34,-47.49 630.3,-53.8"/>
</a>
</g>
</g>
<!-- Node6 -->
<g id="Node000006" class="node">
<title>Node6</title>
<g id="a_Node000006"><a xlink:href="PacmanGame_8cpp.html" target="_top" xlink:title="Implements the Main class of the Pacman game.">
<polygon fill="white" stroke="#666666" points="869.5,-19 669.5,-19 669.5,0 869.5,0 869.5,-19"/>
<text text-anchor="middle" x="769.5" y="-7" font-family="Helvetica,sans-Serif" font-size="10.00">src/Games/Pacman/PacmanGame.cpp</text>
</a>
</g>
</g>
<!-- Node4&#45;&gt;Node6 -->
<g id="edge5_Node000004_Node000006" class="edge">
<title>Node4&#45;&gt;Node6</title>
<g id="a_edge5_Node000004_Node000006"><a xlink:title=" ">
<path fill="none" stroke="#63b8ff" d="M685.45,-50.63C705.89,-40.87 733.45,-27.71 751.34,-19.17"/>
<polygon fill="#63b8ff" stroke="#63b8ff" points="683.85,-47.52 676.33,-54.98 686.87,-53.83 683.85,-47.52"/>
</a>
</g>
</g>
<!-- Node7&#45;&gt;Node4 -->
<g id="edge7_Node000007_Node000004" class="edge">
<title>Node7&#45;&gt;Node4</title>
<g id="a_edge7_Node000007_Node000004"><a xlink:title=" ">
<path fill="none" stroke="#63b8ff" d="M326.09,-109.79C422.88,-95.3 523.95,-82.21 589.32,-74.01"/>
<polygon fill="#63b8ff" stroke="#63b8ff" points="325.51,-106.34 316.14,-111.29 326.55,-113.26 325.51,-106.34"/>
</a>
</g>
</g>
<!-- Node9&#45;&gt;Node4 -->
<g id="edge10_Node000009_Node000004" class="edge">
<title>Node9&#45;&gt;Node4</title>
<g id="a_edge10_Node000009_Node000004"><a xlink:title=" ">
<path fill="none" stroke="#63b8ff" d="M604.14,-103.82C618.44,-93.73 635.01,-82.05 646.06,-74.27"/>
<polygon fill="#63b8ff" stroke="#63b8ff" points="601.75,-101.22 595.59,-109.84 605.78,-106.94 601.75,-101.22"/>
</a>
</g>
</g>
<!-- Node10&#45;&gt;Node4 -->
<g id="edge12_Node000010_Node000004" class="edge">
<title>Node10&#45;&gt;Node4</title>
<g id="a_edge12_Node000010_Node000004"><a xlink:title=" ">
<path fill="none" stroke="#63b8ff" d="M713.93,-104.1C699.36,-93.95 682.38,-82.13 671.09,-74.27"/>
<polygon fill="#63b8ff" stroke="#63b8ff" points="711.96,-107 722.17,-109.84 715.96,-101.25 711.96,-107"/>
</a>
</g>
</g>
<!-- Node11&#45;&gt;Node4 -->
<g id="edge15_Node000011_Node000004" class="edge">
<title>Node11&#45;&gt;Node4</title>
<g id="a_edge15_Node000011_Node000004"><a xlink:title=" ">
<path fill="none" stroke="#63b8ff" d="M928.16,-167.87C911.78,-149.57 886.16,-124.34 858.5,-110 822.34,-91.25 778.52,-80.37 741.12,-74.07"/>
<polygon fill="#63b8ff" stroke="#63b8ff" points="925.8,-170.49 935.01,-175.72 931.08,-165.89 925.8,-170.49"/>
</a>
</g>
</g>
<!-- Node12 -->
<g id="Node000012" class="node">
<title>Node12</title>
<g id="a_Node000012"><a xlink:href="Player_8cpp.html" target="_top" xlink:title="Implements Pacman player logic (movement, direction, lives).">
<polygon fill="white" stroke="#666666" points="1059,-140 910,-140 910,-110 1059,-110 1059,-140"/>
<text text-anchor="start" x="918" y="-128" font-family="Helvetica,sans-Serif" font-size="10.00">src/Games/Pacman/Entities</text>
<text text-anchor="middle" x="984.5" y="-117" font-family="Helvetica,sans-Serif" font-size="10.00">/Player.cpp</text>
</a>
</g>
</g>
<!-- Node11&#45;&gt;Node12 -->
<g id="edge14_Node000011_Node000012" class="edge">
<title>Node11&#45;&gt;Node12</title>
<g id="a_edge14_Node000011_Node000012"><a xlink:title=" ">
<path fill="none" stroke="#63b8ff" d="M960.18,-166.96C965.5,-158 971.42,-148.03 976.09,-140.16"/>
<polygon fill="#63b8ff" stroke="#63b8ff" points="957.03,-165.41 954.93,-175.8 963.05,-168.98 957.03,-165.41"/>
</a>
</g>
</g>
</g>
</svg>
