<?xml version="1.0" encoding="UTF-8" standalone="no"?>
<!DOCTYPE svg PUBLIC "-//W3C//DTD SVG 1.1//EN"
 "http://www.w3.org/Graphics/SVG/1.1/DTD/svg11.dtd">
<!-- Generated by graphviz version 2.43.0 (0)
 -->
<!-- Title: Graphical Class Hierarchy Pages: 1 -->
<svg width="300pt" height="182pt"
 viewBox="0.00 0.00 300.00 182.00" xmlns="http://www.w3.org/2000/svg" xmlns:xlink="http://www.w3.org/1999/xlink">
<g id="graph0" class="graph" transform="scale(1 1) rotate(0) translate(4 178)">
<title>Graphical Class Hierarchy</title>
<!-- Node0 -->
<g id="Node000000" class="node">
<title>Node0</title>
<g id="a_Node000000"><a xlink:href="classarcade_1_1game_1_1pacman_1_1Ghost.html" target="_top" xlink:title=" ">
<polygon fill="white" stroke="#666666" points="128,-102 0,-102 0,-72 128,-72 128,-102"/>
<text text-anchor="start" x="8" y="-90" font-family="Helvetica,sans-Serif" font-size="10.00">arcade::game::pacman</text>
<text text-anchor="middle" x="64" y="-79" font-family="Helvetica,sans-Serif" font-size="10.00">::Ghost</text>
</a>
</g>
</g>
<!-- Node1 -->
<g id="Node000001" class="node">
<title>Node1</title>
<g id="a_Node000001"><a xlink:href="classarcade_1_1game_1_1pacman_1_1Blinky.html" target="_top" xlink:title=" ">
<polygon fill="white" stroke="#666666" points="292,-174 164,-174 164,-144 292,-144 292,-174"/>
<text text-anchor="start" x="172" y="-162" font-family="Helvetica,sans-Serif" font-size="10.00">arcade::game::pacman</text>
<text text-anchor="middle" x="228" y="-151" font-family="Helvetica,sans-Serif" font-size="10.00">::Blinky</text>
</a>
</g>
</g>
<!-- Node0&#45;&gt;Node1 -->
<g id="edge9_Node000000_Node000001" class="edge">
<title>Node0&#45;&gt;Node1</title>
<g id="a_edge9_Node000000_Node000001"><a xlink:title=" ">
<path fill="none" stroke="#63b8ff" d="M103.68,-106.73C121.82,-115.73 143.84,-126.29 164,-135 170.98,-138.02 178.48,-141.05 185.79,-143.89"/>
<polygon fill="#63b8ff" stroke="#63b8ff" points="105.09,-103.52 94.58,-102.18 101.96,-109.78 105.09,-103.52"/>
</a>
</g>
</g>
<!-- Node2 -->
<g id="Node000002" class="node">
<title>Node2</title>
<g id="a_Node000002"><a xlink:href="classarcade_1_1game_1_1pacman_1_1Clyde.html" target="_top" xlink:title=" ">
<polygon fill="white" stroke="#666666" points="292,-126 164,-126 164,-96 292,-96 292,-126"/>
<text text-anchor="start" x="172" y="-114" font-family="Helvetica,sans-Serif" font-size="10.00">arcade::game::pacman</text>
<text text-anchor="middle" x="228" y="-103" font-family="Helvetica,sans-Serif" font-size="10.00">::Clyde</text>
</a>
</g>
</g>
<!-- Node0&#45;&gt;Node2 -->
<g id="edge10_Node000000_Node000002" class="edge">
<title>Node0&#45;&gt;Node2</title>
<g id="a_edge10_Node000000_Node000002"><a xlink:title=" ">
<path fill="none" stroke="#63b8ff" d="M138.09,-97.83C146.68,-99.1 155.38,-100.39 163.81,-101.64"/>
<polygon fill="#63b8ff" stroke="#63b8ff" points="138.5,-94.35 128.1,-96.35 137.48,-101.28 138.5,-94.35"/>
</a>
</g>
</g>
<!-- Node3 -->
<g id="Node000003" class="node">
<title>Node3</title>
<g id="a_Node000003"><a xlink:href="classarcade_1_1game_1_1pacman_1_1Inky.html" target="_top" xlink:title=" ">
<polygon fill="white" stroke="#666666" points="292,-78 164,-78 164,-48 292,-48 292,-78"/>
<text text-anchor="start" x="172" y="-66" font-family="Helvetica,sans-Serif" font-size="10.00">arcade::game::pacman</text>
<text text-anchor="middle" x="228" y="-55" font-family="Helvetica,sans-Serif" font-size="10.00">::Inky</text>
</a>
</g>
</g>
<!-- Node0&#45;&gt;Node3 -->
<g id="edge11_Node000000_Node000003" class="edge">
<title>Node0&#45;&gt;Node3</title>
<g id="a_edge11_Node000000_Node000003"><a xlink:title=" ">
<path fill="none" stroke="#63b8ff" d="M138.09,-76.17C146.68,-74.9 155.38,-73.61 163.81,-72.36"/>
<polygon fill="#63b8ff" stroke="#63b8ff" points="137.48,-72.72 128.1,-77.65 138.5,-79.65 137.48,-72.72"/>
</a>
</g>
</g>
<!-- Node4 -->
<g id="Node000004" class="node">
<title>Node4</title>
<g id="a_Node000004"><a xlink:href="classarcade_1_1game_1_1pacman_1_1Pinky.html" target="_top" xlink:title=" ">
<polygon fill="white" stroke="#666666" points="292,-30 164,-30 164,0 292,0 292,-30"/>
<text text-anchor="start" x="172" y="-18" font-family="Helvetica,sans-Serif" font-size="10.00">arcade::game::pacman</text>
<text text-anchor="middle" x="228" y="-7" font-family="Helvetica,sans-Serif" font-size="10.00">::Pinky</text>
</a>
</g>
</g>
<!-- Node0&#45;&gt;Node4 -->
<g id="edge12_Node000000_Node000004" class="edge">
<title>Node0&#45;&gt;Node4</title>
<g id="a_edge12_Node000000_Node000004"><a xlink:title=" ">
<path fill="none" stroke="#63b8ff" d="M103.68,-67.27C121.82,-58.27 143.84,-47.71 164,-39 170.98,-35.98 178.48,-32.95 185.79,-30.11"/>
<polygon fill="#63b8ff" stroke="#63b8ff" points="101.96,-64.22 94.58,-71.82 105.09,-70.48 101.96,-64.22"/>
</a>
</g>
</g>
</g>
</svg>
