<?xml version="1.0" encoding="UTF-8" standalone="no"?>
<!DOCTYPE svg PUBLIC "-//W3C//DTD SVG 1.1//EN"
 "http://www.w3.org/Graphics/SVG/1.1/DTD/svg11.dtd">
<!-- Generated by graphviz version 2.43.0 (0)
 -->
<!-- Title: Graphical Class Hierarchy Pages: 1 -->
<svg width="484pt" height="101pt"
 viewBox="0.00 0.00 484.00 101.00" xmlns="http://www.w3.org/2000/svg" xmlns:xlink="http://www.w3.org/1999/xlink">
<g id="graph0" class="graph" transform="scale(1 1) rotate(0) translate(4 97)">
<title>Graphical Class Hierarchy</title>
<!-- Node0 -->
<g id="Node000000" class="node">
<title>Node0</title>
<g id="a_Node000000"><a xlink:href="classarcade_1_1game_1_1IGame.html" target="_top" xlink:title="Game interface class.">
<polygon fill="white" stroke="#666666" points="122,-56 0,-56 0,-37 122,-37 122,-56"/>
<text text-anchor="middle" x="61" y="-44" font-family="Helvetica,sans-Serif" font-size="10.00">arcade::game::IGame</text>
</a>
</g>
</g>
<!-- Node1 -->
<g id="Node000001" class="node">
<title>Node1</title>
<g id="a_Node000001"><a xlink:href="classarcade_1_1game_1_1AGame.html" target="_top" xlink:title="Abstract base class for games in the Arcade project.">
<polygon fill="white" stroke="#666666" points="283,-56 158,-56 158,-37 283,-37 283,-56"/>
<text text-anchor="middle" x="220.5" y="-44" font-family="Helvetica,sans-Serif" font-size="10.00">arcade::game::AGame</text>
</a>
</g>
</g>
<!-- Node0&#45;&gt;Node1 -->
<g id="edge5_Node000000_Node000001" class="edge">
<title>Node0&#45;&gt;Node1</title>
<g id="a_edge5_Node000000_Node000001"><a xlink:title=" ">
<path fill="none" stroke="#63b8ff" d="M132.64,-46.5C141.07,-46.5 149.63,-46.5 157.92,-46.5"/>
<polygon fill="#63b8ff" stroke="#63b8ff" points="132.44,-43 122.44,-46.5 132.44,-50 132.44,-43"/>
</a>
</g>
</g>
<!-- Node2 -->
<g id="Node000002" class="node">
<title>Node2</title>
<g id="a_Node000002"><a xlink:href="classarcade_1_1game_1_1Menu.html" target="_top" xlink:title="Implements the game menu interface for Arcade.">
<polygon fill="white" stroke="#666666" points="455.5,-93 339.5,-93 339.5,-74 455.5,-74 455.5,-93"/>
<text text-anchor="middle" x="397.5" y="-81" font-family="Helvetica,sans-Serif" font-size="10.00">arcade::game::Menu</text>
</a>
</g>
</g>
<!-- Node1&#45;&gt;Node2 -->
<g id="edge6_Node000001_Node000002" class="edge">
<title>Node1&#45;&gt;Node2</title>
<g id="a_edge6_Node000001_Node000002"><a xlink:title=" ">
<path fill="none" stroke="#63b8ff" d="M276.61,-58.15C300.65,-63.23 328.49,-69.12 351.28,-73.94"/>
<polygon fill="#63b8ff" stroke="#63b8ff" points="277.07,-54.67 266.57,-56.03 275.63,-61.52 277.07,-54.67"/>
</a>
</g>
</g>
<!-- Node3 -->
<g id="Node000003" class="node">
<title>Node3</title>
<g id="a_Node000003"><a xlink:href="classarcade_1_1game_1_1PacmanGame.html" target="_top" xlink:title="Main class of the Pacman game.">
<polygon fill="white" stroke="#666666" points="476,-56 319,-56 319,-37 476,-37 476,-56"/>
<text text-anchor="middle" x="397.5" y="-44" font-family="Helvetica,sans-Serif" font-size="10.00">arcade::game::PacmanGame</text>
</a>
</g>
</g>
<!-- Node1&#45;&gt;Node3 -->
<g id="edge7_Node000001_Node000003" class="edge">
<title>Node1&#45;&gt;Node3</title>
<g id="a_edge7_Node000001_Node000003"><a xlink:title=" ">
<path fill="none" stroke="#63b8ff" d="M293.33,-46.5C301.73,-46.5 310.33,-46.5 318.8,-46.5"/>
<polygon fill="#63b8ff" stroke="#63b8ff" points="293.2,-43 283.2,-46.5 293.2,-50 293.2,-43"/>
</a>
</g>
</g>
<!-- Node4 -->
<g id="Node000004" class="node">
<title>Node4</title>
<g id="a_Node000004"><a xlink:href="classarcade_1_1game_1_1SnakeGame.html" target="_top" xlink:title="Implementation of the classic Snake game for the Arcade project.">
<polygon fill="white" stroke="#666666" points="471.5,-19 323.5,-19 323.5,0 471.5,0 471.5,-19"/>
<text text-anchor="middle" x="397.5" y="-7" font-family="Helvetica,sans-Serif" font-size="10.00">arcade::game::SnakeGame</text>
</a>
</g>
</g>
<!-- Node1&#45;&gt;Node4 -->
<g id="edge8_Node000001_Node000004" class="edge">
<title>Node1&#45;&gt;Node4</title>
<g id="a_edge8_Node000001_Node000004"><a xlink:title=" ">
<path fill="none" stroke="#63b8ff" d="M276.61,-34.85C300.65,-29.77 328.49,-23.88 351.28,-19.06"/>
<polygon fill="#63b8ff" stroke="#63b8ff" points="275.63,-31.48 266.57,-36.97 277.07,-38.33 275.63,-31.48"/>
</a>
</g>
</g>
</g>
</svg>
