<?xml version="1.0" encoding="UTF-8" standalone="no"?>
<!DOCTYPE svg PUBLIC "-//W3C//DTD SVG 1.1//EN"
 "http://www.w3.org/Graphics/SVG/1.1/DTD/svg11.dtd">
<!-- Generated by graphviz version 2.43.0 (0)
 -->
<!-- Title: src/Utils/Logger.cpp Pages: 1 -->
<svg width="228pt" height="192pt"
 viewBox="0.00 0.00 227.50 192.00" xmlns="http://www.w3.org/2000/svg" xmlns:xlink="http://www.w3.org/1999/xlink">
<g id="graph0" class="graph" transform="scale(1 1) rotate(0) translate(4 188)">
<title>src/Utils/Logger.cpp</title>
<!-- Node1 -->
<g id="Node000001" class="node">
<title>Node1</title>
<g id="a_Node000001"><a xlink:title="This file contains functions for writing debug logs.">
<polygon fill="#999999" stroke="#666666" points="213.5,-184 101.5,-184 101.5,-165 213.5,-165 213.5,-184"/>
<text text-anchor="middle" x="157.5" y="-172" font-family="Helvetica,sans-Serif" font-size="10.00">src/Utils/Logger.cpp</text>
</a>
</g>
</g>
<!-- Node2 -->
<g id="Node000002" class="node">
<title>Node2</title>
<g id="a_Node000002"><a xlink:href="Logger_8hpp.html" target="_top" xlink:title="This file contains the class used for writing debug logs.">
<polygon fill="white" stroke="#666666" points="161.5,-129 91.5,-129 91.5,-110 161.5,-110 161.5,-129"/>
<text text-anchor="middle" x="126.5" y="-117" font-family="Helvetica,sans-Serif" font-size="10.00">Logger.hpp</text>
</a>
</g>
</g>
<!-- Node1&#45;&gt;Node2 -->
<g id="edge1_Node000001_Node000002" class="edge">
<title>Node1&#45;&gt;Node2</title>
<g id="a_edge1_Node000001_Node000002"><a xlink:title=" ">
<path fill="none" stroke="#63b8ff" d="M152.38,-164.75C148.14,-157.49 141.97,-146.95 136.72,-137.98"/>
<polygon fill="#63b8ff" stroke="#63b8ff" points="139.59,-135.95 131.52,-129.09 133.55,-139.49 139.59,-135.95"/>
</a>
</g>
</g>
<!-- Node7 -->
<g id="Node000007" class="node">
<title>Node7</title>
<g id="a_Node000007"><a xlink:title=" ">
<polygon fill="#e0e0e0" stroke="#999999" points="219.5,-74 159.5,-74 159.5,-55 219.5,-55 219.5,-74"/>
<text text-anchor="middle" x="189.5" y="-62" font-family="Helvetica,sans-Serif" font-size="10.00">iostream</text>
</a>
</g>
</g>
<!-- Node1&#45;&gt;Node7 -->
<g id="edge7_Node000001_Node000007" class="edge">
<title>Node1&#45;&gt;Node7</title>
<g id="a_edge7_Node000001_Node000007"><a xlink:title=" ">
<path fill="none" stroke="#63b8ff" d="M160.12,-164.66C165.32,-147.09 177.07,-107.45 184.03,-83.95"/>
<polygon fill="#63b8ff" stroke="#63b8ff" points="187.45,-84.74 186.93,-74.16 180.74,-82.75 187.45,-84.74"/>
</a>
</g>
</g>
<!-- Node3 -->
<g id="Node000003" class="node">
<title>Node3</title>
<g id="a_Node000003"><a xlink:href="Error_8hpp.html" target="_top" xlink:title="Declaration of the program&#39;s custom exception class.">
<polygon fill="white" stroke="#666666" points="141.5,-74 81.5,-74 81.5,-55 141.5,-55 141.5,-74"/>
<text text-anchor="middle" x="111.5" y="-62" font-family="Helvetica,sans-Serif" font-size="10.00">Error.hpp</text>
</a>
</g>
</g>
<!-- Node2&#45;&gt;Node3 -->
<g id="edge2_Node000002_Node000003" class="edge">
<title>Node2&#45;&gt;Node3</title>
<g id="a_edge2_Node000002_Node000003"><a xlink:title=" ">
<path fill="none" stroke="#63b8ff" d="M124.02,-109.75C122.04,-102.72 119.18,-92.62 116.69,-83.84"/>
<polygon fill="#63b8ff" stroke="#63b8ff" points="120.02,-82.76 113.93,-74.09 113.29,-84.66 120.02,-82.76"/>
</a>
</g>
</g>
<!-- Node2&#45;&gt;Node7 -->
<g id="edge6_Node000002_Node000007" class="edge">
<title>Node2&#45;&gt;Node7</title>
<g id="a_edge6_Node000002_Node000007"><a xlink:title=" ">
<path fill="none" stroke="#63b8ff" d="M136.62,-109.98C145.94,-102.15 159.97,-90.34 171.24,-80.86"/>
<polygon fill="#63b8ff" stroke="#63b8ff" points="173.79,-83.29 179.19,-74.17 169.29,-77.93 173.79,-83.29"/>
</a>
</g>
</g>
<!-- Node4 -->
<g id="Node000004" class="node">
<title>Node4</title>
<g id="a_Node000004"><a xlink:title=" ">
<polygon fill="#e0e0e0" stroke="#999999" points="65,-19 0,-19 0,0 65,0 65,-19"/>
<text text-anchor="middle" x="32.5" y="-7" font-family="Helvetica,sans-Serif" font-size="10.00">exception</text>
</a>
</g>
</g>
<!-- Node3&#45;&gt;Node4 -->
<g id="edge3_Node000003_Node000004" class="edge">
<title>Node3&#45;&gt;Node4</title>
<g id="a_edge3_Node000003_Node000004"><a xlink:title=" ">
<path fill="none" stroke="#63b8ff" d="M98.81,-54.98C86.67,-46.84 68.14,-34.41 53.75,-24.76"/>
<polygon fill="#63b8ff" stroke="#63b8ff" points="55.68,-21.84 45.42,-19.17 51.78,-27.65 55.68,-21.84"/>
</a>
</g>
</g>
<!-- Node5 -->
<g id="Node000005" class="node">
<title>Node5</title>
<g id="a_Node000005"><a xlink:title=" ">
<polygon fill="#e0e0e0" stroke="#999999" points="139.5,-19 83.5,-19 83.5,0 139.5,0 139.5,-19"/>
<text text-anchor="middle" x="111.5" y="-7" font-family="Helvetica,sans-Serif" font-size="10.00">sstream</text>
</a>
</g>
</g>
<!-- Node3&#45;&gt;Node5 -->
<g id="edge4_Node000003_Node000005" class="edge">
<title>Node3&#45;&gt;Node5</title>
<g id="a_edge4_Node000003_Node000005"><a xlink:title=" ">
<path fill="none" stroke="#63b8ff" d="M111.5,-54.75C111.5,-47.8 111.5,-37.85 111.5,-29.13"/>
<polygon fill="#63b8ff" stroke="#63b8ff" points="115,-29.09 111.5,-19.09 108,-29.09 115,-29.09"/>
</a>
</g>
</g>
<!-- Node6 -->
<g id="Node000006" class="node">
<title>Node6</title>
<g id="a_Node000006"><a xlink:title=" ">
<polygon fill="#e0e0e0" stroke="#999999" points="201.5,-19 157.5,-19 157.5,0 201.5,0 201.5,-19"/>
<text text-anchor="middle" x="179.5" y="-7" font-family="Helvetica,sans-Serif" font-size="10.00">string</text>
</a>
</g>
</g>
<!-- Node3&#45;&gt;Node6 -->
<g id="edge5_Node000003_Node000006" class="edge">
<title>Node3&#45;&gt;Node6</title>
<g id="a_edge5_Node000003_Node000006"><a xlink:title=" ">
<path fill="none" stroke="#63b8ff" d="M122.43,-54.98C132.58,-47.07 147.92,-35.11 160.15,-25.58"/>
<polygon fill="#63b8ff" stroke="#63b8ff" points="162.64,-28.08 168.38,-19.17 158.34,-22.56 162.64,-28.08"/>
</a>
</g>
</g>
</g>
</svg>
