<?xml version="1.0" encoding="UTF-8" standalone="no"?>
<!DOCTYPE svg PUBLIC "-//W3C//DTD SVG 1.1//EN"
 "http://www.w3.org/Graphics/SVG/1.1/DTD/svg11.dtd">
<!-- Generated by graphviz version 2.43.0 (0)
 -->
<!-- Title: src/Utils/Logger.hpp Pages: 1 -->
<svg width="244pt" height="82pt"
 viewBox="0.00 0.00 244.00 82.00" xmlns="http://www.w3.org/2000/svg" xmlns:xlink="http://www.w3.org/1999/xlink">
<g id="graph0" class="graph" transform="scale(1 1) rotate(0) translate(4 78)">
<title>src/Utils/Logger.hpp</title>
<!-- Node1 -->
<g id="Node000001" class="node">
<title>Node1</title>
<g id="a_Node000001"><a xlink:title="This file contains the class used for writing debug logs.">
<polygon fill="#999999" stroke="#666666" points="172.5,-74 59.5,-74 59.5,-55 172.5,-55 172.5,-74"/>
<text text-anchor="middle" x="116" y="-62" font-family="Helvetica,sans-Serif" font-size="10.00">src/Utils/Logger.hpp</text>
</a>
</g>
</g>
<!-- Node2 -->
<g id="Node000002" class="node">
<title>Node2</title>
<g id="a_Node000002"><a xlink:href="main_8cpp.html" target="_top" xlink:title="Main entry point of the program.">
<polygon fill="white" stroke="#666666" points="106,-19 0,-19 0,0 106,0 106,-19"/>
<text text-anchor="middle" x="53" y="-7" font-family="Helvetica,sans-Serif" font-size="10.00">src/Main/main.cpp</text>
</a>
</g>
</g>
<!-- Node1&#45;&gt;Node2 -->
<g id="edge1_Node000001_Node000002" class="edge">
<title>Node1&#45;&gt;Node2</title>
<g id="a_edge1_Node000001_Node000002"><a xlink:title=" ">
<path fill="none" stroke="#63b8ff" d="M97.96,-48.32C86.73,-38.87 72.68,-27.06 63.31,-19.17"/>
<polygon fill="#63b8ff" stroke="#63b8ff" points="95.97,-51.23 105.88,-54.98 100.48,-45.87 95.97,-51.23"/>
</a>
</g>
</g>
<!-- Node3 -->
<g id="Node000003" class="node">
<title>Node3</title>
<g id="a_Node000003"><a xlink:href="Logger_8cpp.html" target="_top" xlink:title="This file contains functions for writing debug logs.">
<polygon fill="white" stroke="#666666" points="236,-19 124,-19 124,0 236,0 236,-19"/>
<text text-anchor="middle" x="180" y="-7" font-family="Helvetica,sans-Serif" font-size="10.00">src/Utils/Logger.cpp</text>
</a>
</g>
</g>
<!-- Node1&#45;&gt;Node3 -->
<g id="edge2_Node000001_Node000003" class="edge">
<title>Node1&#45;&gt;Node3</title>
<g id="a_edge2_Node000001_Node000003"><a xlink:title=" ">
<path fill="none" stroke="#63b8ff" d="M133.99,-48.6C145.46,-39.11 159.91,-27.13 169.53,-19.17"/>
<polygon fill="#63b8ff" stroke="#63b8ff" points="131.75,-45.91 126.28,-54.98 136.22,-51.3 131.75,-45.91"/>
</a>
</g>
</g>
</g>
</svg>
