<?xml version="1.0" encoding="UTF-8" standalone="no"?>
<!DOCTYPE svg PUBLIC "-//W3C//DTD SVG 1.1//EN"
 "http://www.w3.org/Graphics/SVG/1.1/DTD/svg11.dtd">
<!-- Generated by graphviz version 2.43.0 (0)
 -->
<!-- Title: src/Main/main.cpp Pages: 1 -->
<svg width="988pt" height="247pt"
 viewBox="0.00 0.00 988.00 247.00" xmlns="http://www.w3.org/2000/svg" xmlns:xlink="http://www.w3.org/1999/xlink">
<g id="graph0" class="graph" transform="scale(1 1) rotate(0) translate(4 243)">
<title>src/Main/main.cpp</title>
<!-- Node1 -->
<g id="Node000001" class="node">
<title>Node1</title>
<g id="a_Node000001"><a xlink:title="Main entry point of the program.">
<polygon fill="#999999" stroke="#666666" points="831,-239 725,-239 725,-220 831,-220 831,-239"/>
<text text-anchor="middle" x="778" y="-227" font-family="Helvetica,sans-Serif" font-size="10.00">src/Main/main.cpp</text>
</a>
</g>
</g>
<!-- Node2 -->
<g id="Node000002" class="node">
<title>Node2</title>
<g id="a_Node000002"><a xlink:title=" ">
<polygon fill="#e0e0e0" stroke="#999999" points="50,-129 0,-129 0,-110 50,-110 50,-129"/>
<text text-anchor="middle" x="25" y="-117" font-family="Helvetica,sans-Serif" font-size="10.00">cstring</text>
</a>
</g>
</g>
<!-- Node1&#45;&gt;Node2 -->
<g id="edge1_Node000001_Node000002" class="edge">
<title>Node1&#45;&gt;Node2</title>
<g id="a_edge1_Node000001_Node000002"><a xlink:title=" ">
<path fill="none" stroke="#63b8ff" d="M724.7,-222.32C655.53,-214.18 531.1,-199.11 425,-184 289.93,-164.77 129.81,-138.21 60.22,-126.48"/>
<polygon fill="#63b8ff" stroke="#63b8ff" points="60.67,-123.01 50.23,-124.79 59.51,-129.91 60.67,-123.01"/>
</a>
</g>
</g>
<!-- Node3 -->
<g id="Node000003" class="node">
<title>Node3</title>
<g id="a_Node000003"><a xlink:title=" ">
<polygon fill="#e0e0e0" stroke="#999999" points="980,-129 920,-129 920,-110 980,-110 980,-129"/>
<text text-anchor="middle" x="950" y="-117" font-family="Helvetica,sans-Serif" font-size="10.00">iostream</text>
</a>
</g>
</g>
<!-- Node1&#45;&gt;Node3 -->
<g id="edge2_Node000001_Node000003" class="edge">
<title>Node1&#45;&gt;Node3</title>
<g id="a_edge2_Node000001_Node000003"><a xlink:title=" ">
<path fill="none" stroke="#63b8ff" d="M831.2,-222.06C859.96,-216.22 894.5,-205.11 919,-184 932.63,-172.26 940.81,-153.14 945.32,-138.94"/>
<polygon fill="#63b8ff" stroke="#63b8ff" points="948.71,-139.82 948.08,-129.25 941.98,-137.91 948.71,-139.82"/>
</a>
</g>
</g>
<!-- Node4 -->
<g id="Node000004" class="node">
<title>Node4</title>
<g id="a_Node000004"><a xlink:href="Core_8hpp.html" target="_top" xlink:title="Declaration of the Core class and associated definitions.">
<polygon fill="white" stroke="#666666" points="529.5,-184 434.5,-184 434.5,-165 529.5,-165 529.5,-184"/>
<text text-anchor="middle" x="482" y="-172" font-family="Helvetica,sans-Serif" font-size="10.00">../Core/Core.hpp</text>
</a>
</g>
</g>
<!-- Node1&#45;&gt;Node4 -->
<g id="edge3_Node000001_Node000004" class="edge">
<title>Node1&#45;&gt;Node4</title>
<g id="a_edge3_Node000001_Node000004"><a xlink:title=" ">
<path fill="none" stroke="#63b8ff" d="M730.44,-219.98C678.6,-210.7 595.61,-195.84 539.99,-185.88"/>
<polygon fill="#63b8ff" stroke="#63b8ff" points="540.39,-182.4 529.93,-184.08 539.16,-189.29 540.39,-182.4"/>
</a>
</g>
</g>
<!-- Node17 -->
<g id="Node000017" class="node">
<title>Node17</title>
<g id="a_Node000017"><a xlink:href="Error_8hpp.html" target="_top" xlink:title="Declaration of the program&#39;s custom exception class.">
<polygon fill="white" stroke="#666666" points="901.5,-129 806.5,-129 806.5,-110 901.5,-110 901.5,-129"/>
<text text-anchor="middle" x="854" y="-117" font-family="Helvetica,sans-Serif" font-size="10.00">../Utils/Error.hpp</text>
</a>
</g>
</g>
<!-- Node1&#45;&gt;Node17 -->
<g id="edge25_Node000001_Node000017" class="edge">
<title>Node1&#45;&gt;Node17</title>
<g id="a_edge25_Node000001_Node000017"><a xlink:title=" ">
<path fill="none" stroke="#63b8ff" d="M778.88,-219.98C780.57,-207.09 785.19,-182.29 797,-165 805.38,-152.73 818.2,-142.29 829.56,-134.62"/>
<polygon fill="#63b8ff" stroke="#63b8ff" points="831.7,-137.4 838.24,-129.07 827.93,-131.51 831.7,-137.4"/>
</a>
</g>
</g>
<!-- Node20 -->
<g id="Node000020" class="node">
<title>Node20</title>
<g id="a_Node000020"><a xlink:href="Logger_8hpp.html" target="_top" xlink:title="This file contains the class used for writing debug logs.">
<polygon fill="white" stroke="#666666" points="910,-184 806,-184 806,-165 910,-165 910,-184"/>
<text text-anchor="middle" x="858" y="-172" font-family="Helvetica,sans-Serif" font-size="10.00">../Utils/Logger.hpp</text>
</a>
</g>
</g>
<!-- Node1&#45;&gt;Node20 -->
<g id="edge29_Node000001_Node000020" class="edge">
<title>Node1&#45;&gt;Node20</title>
<g id="a_edge29_Node000001_Node000020"><a xlink:title=" ">
<path fill="none" stroke="#63b8ff" d="M790.85,-219.98C803.14,-211.84 821.91,-199.41 836.48,-189.76"/>
<polygon fill="#63b8ff" stroke="#63b8ff" points="838.51,-192.61 844.91,-184.17 834.64,-186.78 838.51,-192.61"/>
</a>
</g>
</g>
<!-- Node4&#45;&gt;Node2 -->
<g id="edge9_Node000004_Node000002" class="edge">
<title>Node4&#45;&gt;Node2</title>
<g id="a_edge9_Node000004_Node000002"><a xlink:title=" ">
<path fill="none" stroke="#63b8ff" d="M434.45,-170.13C356.65,-164.23 197.46,-150.58 64,-129 62.73,-128.79 61.44,-128.57 60.14,-128.34"/>
<polygon fill="#63b8ff" stroke="#63b8ff" points="60.58,-124.86 50.1,-126.39 59.25,-131.73 60.58,-124.86"/>
</a>
</g>
</g>
<!-- Node5 -->
<g id="Node000005" class="node">
<title>Node5</title>
<g id="a_Node000005"><a xlink:title=" ">
<polygon fill="#e0e0e0" stroke="#999999" points="125.5,-74 78.5,-74 78.5,-55 125.5,-55 125.5,-74"/>
<text text-anchor="middle" x="102" y="-62" font-family="Helvetica,sans-Serif" font-size="10.00">vector</text>
</a>
</g>
</g>
<!-- Node4&#45;&gt;Node5 -->
<g id="edge4_Node000004_Node000005" class="edge">
<title>Node4&#45;&gt;Node5</title>
<g id="a_edge4_Node000004_Node000005"><a xlink:title=" ">
<path fill="none" stroke="#63b8ff" d="M434.21,-171.49C335.87,-166.85 118.16,-153.86 96,-129 85.2,-116.88 88.74,-97.81 93.73,-83.73"/>
<polygon fill="#63b8ff" stroke="#63b8ff" points="97.11,-84.72 97.63,-74.13 90.62,-82.09 97.11,-84.72"/>
</a>
</g>
</g>
<!-- Node6 -->
<g id="Node000006" class="node">
<title>Node6</title>
<g id="a_Node000006"><a xlink:title=" ">
<polygon fill="#e0e0e0" stroke="#999999" points="560,-129 510,-129 510,-110 560,-110 560,-129"/>
<text text-anchor="middle" x="535" y="-117" font-family="Helvetica,sans-Serif" font-size="10.00">chrono</text>
</a>
</g>
</g>
<!-- Node4&#45;&gt;Node6 -->
<g id="edge5_Node000004_Node000006" class="edge">
<title>Node4&#45;&gt;Node6</title>
<g id="a_edge5_Node000004_Node000006"><a xlink:title=" ">
<path fill="none" stroke="#63b8ff" d="M490.75,-164.75C498.47,-157.03 509.9,-145.6 519.22,-136.28"/>
<polygon fill="#63b8ff" stroke="#63b8ff" points="521.81,-138.64 526.41,-129.09 516.86,-133.69 521.81,-138.64"/>
</a>
</g>
</g>
<!-- Node7 -->
<g id="Node000007" class="node">
<title>Node7</title>
<g id="a_Node000007"><a xlink:title=" ">
<polygon fill="#e0e0e0" stroke="#999999" points="626,-129 578,-129 578,-110 626,-110 626,-129"/>
<text text-anchor="middle" x="602" y="-117" font-family="Helvetica,sans-Serif" font-size="10.00">thread</text>
</a>
</g>
</g>
<!-- Node4&#45;&gt;Node7 -->
<g id="edge6_Node000004_Node000007" class="edge">
<title>Node4&#45;&gt;Node7</title>
<g id="a_edge6_Node000004_Node000007"><a xlink:title=" ">
<path fill="none" stroke="#63b8ff" d="M501.28,-164.98C520.67,-156.42 550.81,-143.11 573.07,-133.28"/>
<polygon fill="#63b8ff" stroke="#63b8ff" points="574.64,-136.41 582.37,-129.17 571.81,-130.01 574.64,-136.41"/>
</a>
</g>
</g>
<!-- Node8 -->
<g id="Node000008" class="node">
<title>Node8</title>
<g id="a_Node000008"><a xlink:title=" ">
<polygon fill="#e0e0e0" stroke="#999999" points="354,-19 310,-19 310,0 354,0 354,-19"/>
<text text-anchor="middle" x="332" y="-7" font-family="Helvetica,sans-Serif" font-size="10.00">string</text>
</a>
</g>
</g>
<!-- Node4&#45;&gt;Node8 -->
<g id="edge7_Node000004_Node000008" class="edge">
<title>Node4&#45;&gt;Node8</title>
<g id="a_edge7_Node000004_Node000008"><a xlink:title=" ">
<path fill="none" stroke="#63b8ff" d="M483.27,-164.83C485.89,-143.43 489.55,-87.44 462,-55 437.69,-26.37 394.11,-16.13 364.16,-12.48"/>
<polygon fill="#63b8ff" stroke="#63b8ff" points="364.5,-9 354.19,-11.45 363.77,-15.96 364.5,-9"/>
</a>
</g>
</g>
<!-- Node9 -->
<g id="Node000009" class="node">
<title>Node9</title>
<g id="a_Node000009"><a xlink:title=" ">
<polygon fill="#e0e0e0" stroke="#999999" points="702,-129 644,-129 644,-110 702,-110 702,-129"/>
<text text-anchor="middle" x="673" y="-117" font-family="Helvetica,sans-Serif" font-size="10.00">memory</text>
</a>
</g>
</g>
<!-- Node4&#45;&gt;Node9 -->
<g id="edge8_Node000004_Node000009" class="edge">
<title>Node4&#45;&gt;Node9</title>
<g id="a_edge8_Node000004_Node000009"><a xlink:title=" ">
<path fill="none" stroke="#63b8ff" d="M512.69,-164.98C545.75,-155.81 598.43,-141.19 634.31,-131.24"/>
<polygon fill="#63b8ff" stroke="#63b8ff" points="635.25,-134.61 643.95,-128.56 633.38,-127.86 635.25,-134.61"/>
</a>
</g>
</g>
<!-- Node10 -->
<g id="Node000010" class="node">
<title>Node10</title>
<g id="a_Node000010"><a xlink:title=" ">
<polygon fill="#e0e0e0" stroke="#999999" points="788,-129 720,-129 720,-110 788,-110 788,-129"/>
<text text-anchor="middle" x="754" y="-117" font-family="Helvetica,sans-Serif" font-size="10.00">filesystem</text>
</a>
</g>
</g>
<!-- Node4&#45;&gt;Node10 -->
<g id="edge10_Node000004_Node000010" class="edge">
<title>Node4&#45;&gt;Node10</title>
<g id="a_edge10_Node000004_Node000010"><a xlink:title=" ">
<path fill="none" stroke="#63b8ff" d="M526.34,-164.93C570.4,-156.4 640.19,-142.86 709.9,-129.21"/>
<polygon fill="#63b8ff" stroke="#63b8ff" points="710.59,-132.64 719.73,-127.28 709.25,-125.77 710.59,-132.64"/>
</a>
</g>
</g>
<!-- Node11 -->
<g id="Node000011" class="node">
<title>Node11</title>
<g id="a_Node000011"><a xlink:title=" ">
<polygon fill="#e0e0e0" stroke="#999999" points="453.5,-74 360.5,-74 360.5,-55 453.5,-55 453.5,-74"/>
<text text-anchor="middle" x="407" y="-62" font-family="Helvetica,sans-Serif" font-size="10.00">unordered_map</text>
</a>
</g>
</g>
<!-- Node4&#45;&gt;Node11 -->
<g id="edge11_Node000004_Node000011" class="edge">
<title>Node4&#45;&gt;Node11</title>
<g id="a_edge11_Node000004_Node000011"><a xlink:title=" ">
<path fill="none" stroke="#63b8ff" d="M475.86,-164.66C463.38,-146.69 434.88,-105.64 418.72,-82.38"/>
<polygon fill="#63b8ff" stroke="#63b8ff" points="421.59,-80.38 413.01,-74.16 415.84,-84.37 421.59,-80.38"/>
</a>
</g>
</g>
<!-- Node12 -->
<g id="Node000012" class="node">
<title>Node12</title>
<g id="a_Node000012"><a xlink:href="IGame_8hpp.html" target="_top" xlink:title="Declaration of the game interface class.">
<polygon fill="white" stroke="#666666" points="416,-129 300,-129 300,-110 416,-110 416,-129"/>
<text text-anchor="middle" x="358" y="-117" font-family="Helvetica,sans-Serif" font-size="10.00">../Games/IGame.hpp</text>
</a>
</g>
</g>
<!-- Node4&#45;&gt;Node12 -->
<g id="edge12_Node000004_Node000012" class="edge">
<title>Node4&#45;&gt;Node12</title>
<g id="a_edge12_Node000004_Node000012"><a xlink:title=" ">
<path fill="none" stroke="#63b8ff" d="M462.08,-164.98C441.95,-156.38 410.62,-142.99 387.59,-133.15"/>
<polygon fill="#63b8ff" stroke="#63b8ff" points="388.86,-129.88 378.29,-129.17 386.1,-136.32 388.86,-129.88"/>
</a>
</g>
</g>
<!-- Node16 -->
<g id="Node000016" class="node">
<title>Node16</title>
<g id="a_Node000016"><a xlink:href="IDisplayModule_8hpp.html" target="_top" xlink:title="Declaration of the graphical display interface.">
<polygon fill="white" stroke="#666666" points="282.5,-129 105.5,-129 105.5,-110 282.5,-110 282.5,-129"/>
<text text-anchor="middle" x="194" y="-117" font-family="Helvetica,sans-Serif" font-size="10.00">../Graphicals/IDisplayModule.hpp</text>
</a>
</g>
</g>
<!-- Node4&#45;&gt;Node16 -->
<g id="edge20_Node000004_Node000016" class="edge">
<title>Node4&#45;&gt;Node16</title>
<g id="a_edge20_Node000004_Node000016"><a xlink:title=" ">
<path fill="none" stroke="#63b8ff" d="M435.73,-164.98C385.39,-155.72 304.88,-140.9 250.76,-130.94"/>
<polygon fill="#63b8ff" stroke="#63b8ff" points="251.1,-127.45 240.63,-129.08 249.84,-134.33 251.1,-127.45"/>
</a>
</g>
</g>
<!-- Node12&#45;&gt;Node5 -->
<g id="edge14_Node000012_Node000005" class="edge">
<title>Node12&#45;&gt;Node5</title>
<g id="a_edge14_Node000012_Node000005"><a xlink:title=" ">
<path fill="none" stroke="#63b8ff" d="M311.29,-109.95C268.18,-101.89 202.17,-89.11 135.58,-74.03"/>
<polygon fill="#63b8ff" stroke="#63b8ff" points="136.28,-70.6 125.75,-71.79 134.73,-77.42 136.28,-70.6"/>
</a>
</g>
</g>
<!-- Node12&#45;&gt;Node8 -->
<g id="edge13_Node000012_Node000008" class="edge">
<title>Node12&#45;&gt;Node8</title>
<g id="a_edge13_Node000012_Node000008"><a xlink:title=" ">
<path fill="none" stroke="#63b8ff" d="M355.87,-109.66C351.64,-92.09 342.1,-52.45 336.44,-28.95"/>
<polygon fill="#63b8ff" stroke="#63b8ff" points="339.83,-28.06 334.08,-19.16 333.02,-29.7 339.83,-28.06"/>
</a>
</g>
</g>
<!-- Node12&#45;&gt;Node11 -->
<g id="edge15_Node000012_Node000011" class="edge">
<title>Node12&#45;&gt;Node11</title>
<g id="a_edge15_Node000012_Node000011"><a xlink:title=" ">
<path fill="none" stroke="#63b8ff" d="M366.09,-109.75C373.16,-102.11 383.59,-90.82 392.15,-81.56"/>
<polygon fill="#63b8ff" stroke="#63b8ff" points="394.84,-83.81 399.06,-74.09 389.7,-79.06 394.84,-83.81"/>
</a>
</g>
</g>
<!-- Node13 -->
<g id="Node000013" class="node">
<title>Node13</title>
<g id="a_Node000013"><a xlink:href="Types_8hpp.html" target="_top" xlink:title="Defines the core data structures and types used across the Arcade project.">
<polygon fill="white" stroke="#666666" points="266,-74 144,-74 144,-55 266,-55 266,-74"/>
<text text-anchor="middle" x="205" y="-62" font-family="Helvetica,sans-Serif" font-size="10.00">../../include/Types.hpp</text>
</a>
</g>
</g>
<!-- Node12&#45;&gt;Node13 -->
<g id="edge16_Node000012_Node000013" class="edge">
<title>Node12&#45;&gt;Node13</title>
<g id="a_edge16_Node000012_Node000013"><a xlink:title=" ">
<path fill="none" stroke="#63b8ff" d="M333.42,-109.98C307.95,-101.16 267.96,-87.31 239.37,-77.41"/>
<polygon fill="#63b8ff" stroke="#63b8ff" points="240.37,-74.05 229.77,-74.08 238.08,-80.66 240.37,-74.05"/>
</a>
</g>
</g>
<!-- Node13&#45;&gt;Node8 -->
<g id="edge19_Node000013_Node000008" class="edge">
<title>Node13&#45;&gt;Node8</title>
<g id="a_edge19_Node000013_Node000008"><a xlink:title=" ">
<path fill="none" stroke="#63b8ff" d="M225.4,-54.98C246.02,-46.38 278.11,-32.99 301.69,-23.15"/>
<polygon fill="#63b8ff" stroke="#63b8ff" points="303.34,-26.25 311.22,-19.17 300.65,-19.79 303.34,-26.25"/>
</a>
</g>
</g>
<!-- Node14 -->
<g id="Node000014" class="node">
<title>Node14</title>
<g id="a_Node000014"><a xlink:title=" ">
<polygon fill="#e0e0e0" stroke="#999999" points="261,-19 211,-19 211,0 261,0 261,-19"/>
<text text-anchor="middle" x="236" y="-7" font-family="Helvetica,sans-Serif" font-size="10.00">cstdint</text>
</a>
</g>
</g>
<!-- Node13&#45;&gt;Node14 -->
<g id="edge17_Node000013_Node000014" class="edge">
<title>Node13&#45;&gt;Node14</title>
<g id="a_edge17_Node000013_Node000014"><a xlink:title=" ">
<path fill="none" stroke="#63b8ff" d="M210.12,-54.75C214.36,-47.49 220.53,-36.95 225.78,-27.98"/>
<polygon fill="#63b8ff" stroke="#63b8ff" points="228.95,-29.49 230.98,-19.09 222.91,-25.95 228.95,-29.49"/>
</a>
</g>
</g>
<!-- Node15 -->
<g id="Node000015" class="node">
<title>Node15</title>
<g id="a_Node000015"><a xlink:title=" ">
<polygon fill="#e0e0e0" stroke="#999999" points="192.5,-19 127.5,-19 127.5,0 192.5,0 192.5,-19"/>
<text text-anchor="middle" x="160" y="-7" font-family="Helvetica,sans-Serif" font-size="10.00">functional</text>
</a>
</g>
</g>
<!-- Node13&#45;&gt;Node15 -->
<g id="edge18_Node000013_Node000015" class="edge">
<title>Node13&#45;&gt;Node15</title>
<g id="a_edge18_Node000013_Node000015"><a xlink:title=" ">
<path fill="none" stroke="#63b8ff" d="M197.57,-54.75C191.15,-47.18 181.69,-36.05 173.88,-26.84"/>
<polygon fill="#63b8ff" stroke="#63b8ff" points="176.43,-24.45 167.29,-19.09 171.1,-28.98 176.43,-24.45"/>
</a>
</g>
</g>
<!-- Node16&#45;&gt;Node5 -->
<g id="edge24_Node000016_Node000005" class="edge">
<title>Node16&#45;&gt;Node5</title>
<g id="a_edge24_Node000016_Node000005"><a xlink:title=" ">
<path fill="none" stroke="#63b8ff" d="M179.22,-109.98C164.82,-101.69 142.69,-88.94 125.81,-79.22"/>
<polygon fill="#63b8ff" stroke="#63b8ff" points="127.46,-76.13 117.05,-74.17 123.97,-82.19 127.46,-76.13"/>
</a>
</g>
</g>
<!-- Node16&#45;&gt;Node8 -->
<g id="edge22_Node000016_Node000008" class="edge">
<title>Node16&#45;&gt;Node8</title>
<g id="a_edge22_Node000016_Node000008"><a xlink:title=" ">
<path fill="none" stroke="#63b8ff" d="M213.78,-109.94C230.92,-102.01 255.9,-89.16 275,-74 292.32,-60.25 308.83,-40.94 319.58,-27.23"/>
<polygon fill="#63b8ff" stroke="#63b8ff" points="322.46,-29.22 325.76,-19.15 316.9,-24.97 322.46,-29.22"/>
</a>
</g>
</g>
<!-- Node16&#45;&gt;Node11 -->
<g id="edge23_Node000016_Node000011" class="edge">
<title>Node16&#45;&gt;Node11</title>
<g id="a_edge23_Node000016_Node000011"><a xlink:title=" ">
<path fill="none" stroke="#63b8ff" d="M228.22,-109.98C264.76,-100.89 322.78,-86.46 362.76,-76.51"/>
<polygon fill="#63b8ff" stroke="#63b8ff" points="363.65,-79.89 372.51,-74.08 361.96,-73.1 363.65,-79.89"/>
</a>
</g>
</g>
<!-- Node16&#45;&gt;Node13 -->
<g id="edge21_Node000016_Node000013" class="edge">
<title>Node16&#45;&gt;Node13</title>
<g id="a_edge21_Node000016_Node000013"><a xlink:title=" ">
<path fill="none" stroke="#63b8ff" d="M195.82,-109.75C197.26,-102.8 199.32,-92.85 201.13,-84.13"/>
<polygon fill="#63b8ff" stroke="#63b8ff" points="204.61,-84.59 203.22,-74.09 197.76,-83.17 204.61,-84.59"/>
</a>
</g>
</g>
<!-- Node17&#45;&gt;Node8 -->
<g id="edge28_Node000017_Node000008" class="edge">
<title>Node17&#45;&gt;Node8</title>
<g id="a_edge28_Node000017_Node000008"><a xlink:title=" ">
<path fill="none" stroke="#63b8ff" d="M812.6,-109.94C711.7,-89.06 454.73,-35.89 364.18,-17.16"/>
<polygon fill="#63b8ff" stroke="#63b8ff" points="364.72,-13.7 354.22,-15.1 363.31,-20.55 364.72,-13.7"/>
</a>
</g>
</g>
<!-- Node18 -->
<g id="Node000018" class="node">
<title>Node18</title>
<g id="a_Node000018"><a xlink:title=" ">
<polygon fill="#e0e0e0" stroke="#999999" points="846.5,-74 781.5,-74 781.5,-55 846.5,-55 846.5,-74"/>
<text text-anchor="middle" x="814" y="-62" font-family="Helvetica,sans-Serif" font-size="10.00">exception</text>
</a>
</g>
</g>
<!-- Node17&#45;&gt;Node18 -->
<g id="edge26_Node000017_Node000018" class="edge">
<title>Node17&#45;&gt;Node18</title>
<g id="a_edge26_Node000017_Node000018"><a xlink:title=" ">
<path fill="none" stroke="#63b8ff" d="M847.39,-109.75C841.74,-102.26 833.46,-91.28 826.55,-82.13"/>
<polygon fill="#63b8ff" stroke="#63b8ff" points="829.3,-79.96 820.48,-74.09 823.71,-84.18 829.3,-79.96"/>
</a>
</g>
</g>
<!-- Node19 -->
<g id="Node000019" class="node">
<title>Node19</title>
<g id="a_Node000019"><a xlink:title=" ">
<polygon fill="#e0e0e0" stroke="#999999" points="921,-74 865,-74 865,-55 921,-55 921,-74"/>
<text text-anchor="middle" x="893" y="-62" font-family="Helvetica,sans-Serif" font-size="10.00">sstream</text>
</a>
</g>
</g>
<!-- Node17&#45;&gt;Node19 -->
<g id="edge27_Node000017_Node000019" class="edge">
<title>Node17&#45;&gt;Node19</title>
<g id="a_edge27_Node000017_Node000019"><a xlink:title=" ">
<path fill="none" stroke="#63b8ff" d="M860.44,-109.75C865.89,-102.34 873.86,-91.5 880.56,-82.41"/>
<polygon fill="#63b8ff" stroke="#63b8ff" points="883.57,-84.22 886.68,-74.09 877.93,-80.07 883.57,-84.22"/>
</a>
</g>
</g>
<!-- Node20&#45;&gt;Node3 -->
<g id="edge31_Node000020_Node000003" class="edge">
<title>Node20&#45;&gt;Node3</title>
<g id="a_edge31_Node000020_Node000003"><a xlink:title=" ">
<path fill="none" stroke="#63b8ff" d="M872.78,-164.98C887.18,-156.69 909.31,-143.94 926.19,-134.22"/>
<polygon fill="#63b8ff" stroke="#63b8ff" points="928.03,-137.19 934.95,-129.17 924.54,-131.13 928.03,-137.19"/>
</a>
</g>
</g>
<!-- Node20&#45;&gt;Node17 -->
<g id="edge30_Node000020_Node000017" class="edge">
<title>Node20&#45;&gt;Node17</title>
<g id="a_edge30_Node000020_Node000017"><a xlink:title=" ">
<path fill="none" stroke="#63b8ff" d="M857.34,-164.75C856.82,-157.8 856.06,-147.85 855.41,-139.13"/>
<polygon fill="#63b8ff" stroke="#63b8ff" points="858.89,-138.8 854.65,-129.09 851.91,-139.32 858.89,-138.8"/>
</a>
</g>
</g>
</g>
</svg>
