<?xml version="1.0" encoding="UTF-8" standalone="no"?>
<!DOCTYPE svg PUBLIC "-//W3C//DTD SVG 1.1//EN"
 "http://www.w3.org/Graphics/SVG/1.1/DTD/svg11.dtd">
<!-- Generated by graphviz version 2.43.0 (0)
 -->
<!-- Title: src/Games/Menu/Menu.hpp Pages: 1 -->
<svg width="321pt" height="247pt"
 viewBox="0.00 0.00 321.03 247.00" xmlns="http://www.w3.org/2000/svg" xmlns:xlink="http://www.w3.org/1999/xlink">
<g id="graph0" class="graph" transform="scale(1 1) rotate(0) translate(4 243)">
<title>src/Games/Menu/Menu.hpp</title>
<!-- Node1 -->
<g id="Node000001" class="node">
<title>Node1</title>
<g id="a_Node000001"><a xlink:title="Declares the Menu class, used to display and navigate game and library options.">
<polygon fill="#999999" stroke="#666666" points="278.03,-239 129.03,-239 129.03,-220 278.03,-220 278.03,-239"/>
<text text-anchor="middle" x="203.53" y="-227" font-family="Helvetica,sans-Serif" font-size="10.00">src/Games/Menu/Menu.hpp</text>
</a>
</g>
</g>
<!-- Node2 -->
<g id="Node000002" class="node">
<title>Node2</title>
<g id="a_Node000002"><a xlink:href="AGame_8hpp.html" target="_top" xlink:title="Declares the abstract base class for all Arcade games.">
<polygon fill="white" stroke="#666666" points="210.03,-184 127.03,-184 127.03,-165 210.03,-165 210.03,-184"/>
<text text-anchor="middle" x="168.53" y="-172" font-family="Helvetica,sans-Serif" font-size="10.00">../AGame.hpp</text>
</a>
</g>
</g>
<!-- Node1&#45;&gt;Node2 -->
<g id="edge1_Node000001_Node000002" class="edge">
<title>Node1&#45;&gt;Node2</title>
<g id="a_edge1_Node000001_Node000002"><a xlink:title=" ">
<path fill="none" stroke="#63b8ff" d="M197.75,-219.75C192.91,-212.42 185.85,-201.73 179.89,-192.7"/>
<polygon fill="#63b8ff" stroke="#63b8ff" points="182.64,-190.5 174.21,-184.09 176.8,-194.36 182.64,-190.5"/>
</a>
</g>
</g>
<!-- Node6 -->
<g id="Node000006" class="node">
<title>Node6</title>
<g id="a_Node000006"><a xlink:title=" ">
<polygon fill="#e0e0e0" stroke="#999999" points="313.03,-74 220.03,-74 220.03,-55 313.03,-55 313.03,-74"/>
<text text-anchor="middle" x="266.53" y="-62" font-family="Helvetica,sans-Serif" font-size="10.00">unordered_map</text>
</a>
</g>
</g>
<!-- Node1&#45;&gt;Node6 -->
<g id="edge10_Node000001_Node000006" class="edge">
<title>Node1&#45;&gt;Node6</title>
<g id="a_edge10_Node000001_Node000006"><a xlink:title=" ">
<path fill="none" stroke="#63b8ff" d="M206.92,-219.74C216.83,-194.09 245.94,-118.78 259.47,-83.78"/>
<polygon fill="#63b8ff" stroke="#63b8ff" points="262.79,-84.9 263.13,-74.31 256.26,-82.37 262.79,-84.9"/>
</a>
</g>
</g>
<!-- Node3 -->
<g id="Node000003" class="node">
<title>Node3</title>
<g id="a_Node000003"><a xlink:href="IGame_8hpp.html" target="_top" xlink:title="Declaration of the game interface class.">
<polygon fill="white" stroke="#666666" points="175.53,-129 105.53,-129 105.53,-110 175.53,-110 175.53,-129"/>
<text text-anchor="middle" x="140.53" y="-117" font-family="Helvetica,sans-Serif" font-size="10.00">IGame.hpp</text>
</a>
</g>
</g>
<!-- Node2&#45;&gt;Node3 -->
<g id="edge2_Node000002_Node000003" class="edge">
<title>Node2&#45;&gt;Node3</title>
<g id="a_edge2_Node000002_Node000003"><a xlink:title=" ">
<path fill="none" stroke="#63b8ff" d="M163.91,-164.75C160.08,-157.49 154.51,-146.95 149.77,-137.98"/>
<polygon fill="#63b8ff" stroke="#63b8ff" points="152.84,-136.3 145.07,-129.09 146.65,-139.57 152.84,-136.3"/>
</a>
</g>
</g>
<!-- Node4 -->
<g id="Node000004" class="node">
<title>Node4</title>
<g id="a_Node000004"><a xlink:title=" ">
<polygon fill="#e0e0e0" stroke="#999999" points="52.53,-19 8.53,-19 8.53,0 52.53,0 52.53,-19"/>
<text text-anchor="middle" x="30.53" y="-7" font-family="Helvetica,sans-Serif" font-size="10.00">string</text>
</a>
</g>
</g>
<!-- Node3&#45;&gt;Node4 -->
<g id="edge3_Node000003_Node000004" class="edge">
<title>Node3&#45;&gt;Node4</title>
<g id="a_edge3_Node000003_Node000004"><a xlink:title=" ">
<path fill="none" stroke="#63b8ff" d="M105.52,-117.85C73.39,-115.16 27.43,-105.58 4.53,-74 -5.79,-59.76 4.44,-40.82 14.96,-27.34"/>
<polygon fill="#63b8ff" stroke="#63b8ff" points="17.91,-29.27 21.69,-19.38 12.56,-24.75 17.91,-29.27"/>
</a>
</g>
</g>
<!-- Node5 -->
<g id="Node000005" class="node">
<title>Node5</title>
<g id="a_Node000005"><a xlink:title=" ">
<polygon fill="#e0e0e0" stroke="#999999" points="61.03,-74 14.03,-74 14.03,-55 61.03,-55 61.03,-74"/>
<text text-anchor="middle" x="37.53" y="-62" font-family="Helvetica,sans-Serif" font-size="10.00">vector</text>
</a>
</g>
</g>
<!-- Node3&#45;&gt;Node5 -->
<g id="edge4_Node000003_Node000005" class="edge">
<title>Node3&#45;&gt;Node5</title>
<g id="a_edge4_Node000003_Node000005"><a xlink:title=" ">
<path fill="none" stroke="#63b8ff" d="M123.98,-109.98C107.64,-101.57 82.4,-88.59 63.4,-78.81"/>
<polygon fill="#63b8ff" stroke="#63b8ff" points="64.88,-75.63 54.38,-74.17 61.67,-81.86 64.88,-75.63"/>
</a>
</g>
</g>
<!-- Node3&#45;&gt;Node6 -->
<g id="edge5_Node000003_Node000006" class="edge">
<title>Node3&#45;&gt;Node6</title>
<g id="a_edge5_Node000003_Node000006"><a xlink:title=" ">
<path fill="none" stroke="#63b8ff" d="M160.78,-109.98C181.23,-101.38 213.06,-87.99 236.47,-78.15"/>
<polygon fill="#63b8ff" stroke="#63b8ff" points="238.06,-81.27 245.92,-74.17 235.35,-74.82 238.06,-81.27"/>
</a>
</g>
</g>
<!-- Node7 -->
<g id="Node000007" class="node">
<title>Node7</title>
<g id="a_Node000007"><a xlink:href="Types_8hpp.html" target="_top" xlink:title="Defines the core data structures and types used across the Arcade project.">
<polygon fill="white" stroke="#666666" points="201.53,-74 79.53,-74 79.53,-55 201.53,-55 201.53,-74"/>
<text text-anchor="middle" x="140.53" y="-62" font-family="Helvetica,sans-Serif" font-size="10.00">../../include/Types.hpp</text>
</a>
</g>
</g>
<!-- Node3&#45;&gt;Node7 -->
<g id="edge6_Node000003_Node000007" class="edge">
<title>Node3&#45;&gt;Node7</title>
<g id="a_edge6_Node000003_Node000007"><a xlink:title=" ">
<path fill="none" stroke="#63b8ff" d="M140.53,-109.75C140.53,-102.8 140.53,-92.85 140.53,-84.13"/>
<polygon fill="#63b8ff" stroke="#63b8ff" points="144.03,-84.09 140.53,-74.09 137.03,-84.09 144.03,-84.09"/>
</a>
</g>
</g>
<!-- Node7&#45;&gt;Node4 -->
<g id="edge9_Node000007_Node000004" class="edge">
<title>Node7&#45;&gt;Node4</title>
<g id="a_edge9_Node000007_Node000004"><a xlink:title=" ">
<path fill="none" stroke="#63b8ff" d="M122.86,-54.98C105.24,-46.5 77.96,-33.35 57.61,-23.54"/>
<polygon fill="#63b8ff" stroke="#63b8ff" points="59.06,-20.36 48.53,-19.17 56.02,-26.66 59.06,-20.36"/>
</a>
</g>
</g>
<!-- Node8 -->
<g id="Node000008" class="node">
<title>Node8</title>
<g id="a_Node000008"><a xlink:title=" ">
<polygon fill="#e0e0e0" stroke="#999999" points="127.53,-19 77.53,-19 77.53,0 127.53,0 127.53,-19"/>
<text text-anchor="middle" x="102.53" y="-7" font-family="Helvetica,sans-Serif" font-size="10.00">cstdint</text>
</a>
</g>
</g>
<!-- Node7&#45;&gt;Node8 -->
<g id="edge7_Node000007_Node000008" class="edge">
<title>Node7&#45;&gt;Node8</title>
<g id="a_edge7_Node000007_Node000008"><a xlink:title=" ">
<path fill="none" stroke="#63b8ff" d="M134.26,-54.75C128.95,-47.34 121.18,-36.5 114.66,-27.41"/>
<polygon fill="#63b8ff" stroke="#63b8ff" points="117.36,-25.18 108.69,-19.09 111.67,-29.26 117.36,-25.18"/>
</a>
</g>
</g>
<!-- Node9 -->
<g id="Node000009" class="node">
<title>Node9</title>
<g id="a_Node000009"><a xlink:title=" ">
<polygon fill="#e0e0e0" stroke="#999999" points="211.03,-19 146.03,-19 146.03,0 211.03,0 211.03,-19"/>
<text text-anchor="middle" x="178.53" y="-7" font-family="Helvetica,sans-Serif" font-size="10.00">functional</text>
</a>
</g>
</g>
<!-- Node7&#45;&gt;Node9 -->
<g id="edge8_Node000007_Node000009" class="edge">
<title>Node7&#45;&gt;Node9</title>
<g id="a_edge8_Node000007_Node000009"><a xlink:title=" ">
<path fill="none" stroke="#63b8ff" d="M146.81,-54.75C152.12,-47.34 159.89,-36.5 166.41,-27.41"/>
<polygon fill="#63b8ff" stroke="#63b8ff" points="169.39,-29.26 172.38,-19.09 163.7,-25.18 169.39,-29.26"/>
</a>
</g>
</g>
</g>
</svg>
