<?xml version="1.0" encoding="UTF-8" standalone="no"?>
<!DOCTYPE svg PUBLIC "-//W3C//DTD SVG 1.1//EN"
 "http://www.w3.org/Graphics/SVG/1.1/DTD/svg11.dtd">
<!-- Generated by graphviz version 2.43.0 (0)
 -->
<!-- Title: src/Games/Menu/Menu.cpp Pages: 1 -->
<svg width="756pt" height="302pt"
 viewBox="0.00 0.00 755.50 302.00" xmlns="http://www.w3.org/2000/svg" xmlns:xlink="http://www.w3.org/1999/xlink">
<g id="graph0" class="graph" transform="scale(1 1) rotate(0) translate(4 298)">
<title>src/Games/Menu/Menu.cpp</title>
<!-- Node1 -->
<g id="Node000001" class="node">
<title>Node1</title>
<g id="a_Node000001"><a xlink:title="Declares global variables used to store user selections in the Arcade menu.">
<polygon fill="#999999" stroke="#666666" points="321,-294 172,-294 172,-275 321,-275 321,-294"/>
<text text-anchor="middle" x="246.5" y="-282" font-family="Helvetica,sans-Serif" font-size="10.00">src/Games/Menu/Menu.cpp</text>
</a>
</g>
</g>
<!-- Node2 -->
<g id="Node000002" class="node">
<title>Node2</title>
<g id="a_Node000002"><a xlink:href="Menu_8hpp.html" target="_top" xlink:title="Declares the Menu class, used to display and navigate game and library options.">
<polygon fill="white" stroke="#666666" points="110,-239 45,-239 45,-220 110,-220 110,-239"/>
<text text-anchor="middle" x="77.5" y="-227" font-family="Helvetica,sans-Serif" font-size="10.00">Menu.hpp</text>
</a>
</g>
</g>
<!-- Node1&#45;&gt;Node2 -->
<g id="edge1_Node000001_Node000002" class="edge">
<title>Node1&#45;&gt;Node2</title>
<g id="a_edge1_Node000001_Node000002"><a xlink:title=" ">
<path fill="none" stroke="#63b8ff" d="M219.35,-274.98C190.97,-266.09 146.27,-252.07 114.64,-242.15"/>
<polygon fill="#63b8ff" stroke="#63b8ff" points="115.45,-238.73 104.87,-239.08 113.36,-245.41 115.45,-238.73"/>
</a>
</g>
</g>
<!-- Node11 -->
<g id="Node000011" class="node">
<title>Node11</title>
<g id="a_Node000011"><a xlink:title=" ">
<polygon fill="#e0e0e0" stroke="#999999" points="305.5,-239 245.5,-239 245.5,-220 305.5,-220 305.5,-239"/>
<text text-anchor="middle" x="275.5" y="-227" font-family="Helvetica,sans-Serif" font-size="10.00">iostream</text>
</a>
</g>
</g>
<!-- Node1&#45;&gt;Node11 -->
<g id="edge12_Node000001_Node000011" class="edge">
<title>Node1&#45;&gt;Node11</title>
<g id="a_edge12_Node000001_Node000011"><a xlink:title=" ">
<path fill="none" stroke="#63b8ff" d="M251.29,-274.75C255.26,-267.49 261.03,-256.95 265.93,-247.98"/>
<polygon fill="#63b8ff" stroke="#63b8ff" points="269.07,-249.54 270.8,-239.09 262.93,-246.18 269.07,-249.54"/>
</a>
</g>
</g>
<!-- Node12 -->
<g id="Node000012" class="node">
<title>Node12</title>
<g id="a_Node000012"><a xlink:href="Core_8hpp.html" target="_top" xlink:title="Declaration of the Core class and associated definitions.">
<polygon fill="white" stroke="#666666" points="349.5,-184 245.5,-184 245.5,-165 349.5,-165 349.5,-184"/>
<text text-anchor="middle" x="297.5" y="-172" font-family="Helvetica,sans-Serif" font-size="10.00">../../Core/Core.hpp</text>
</a>
</g>
</g>
<!-- Node1&#45;&gt;Node12 -->
<g id="edge13_Node000001_Node000012" class="edge">
<title>Node1&#45;&gt;Node12</title>
<g id="a_edge13_Node000001_Node000012"><a xlink:title=" ">
<path fill="none" stroke="#63b8ff" d="M241.97,-274.77C236.04,-262.03 227.4,-237.91 236.5,-220 243.27,-206.68 256.1,-196.41 268.25,-189.1"/>
<polygon fill="#63b8ff" stroke="#63b8ff" points="270.25,-191.99 277.3,-184.09 266.86,-185.87 270.25,-191.99"/>
</a>
</g>
</g>
<!-- Node19 -->
<g id="Node000019" class="node">
<title>Node19</title>
<g id="a_Node000019"><a xlink:href="wallpaper_8hpp.html" target="_top" xlink:title="Contains the binary data of a resized PNG image.">
<polygon fill="white" stroke="#666666" points="443.5,-239 323.5,-239 323.5,-220 443.5,-220 443.5,-239"/>
<text text-anchor="middle" x="383.5" y="-227" font-family="Helvetica,sans-Serif" font-size="10.00">Assets/wallpaper.hpp</text>
</a>
</g>
</g>
<!-- Node1&#45;&gt;Node19 -->
<g id="edge28_Node000001_Node000019" class="edge">
<title>Node1&#45;&gt;Node19</title>
<g id="a_edge28_Node000001_Node000019"><a xlink:title=" ">
<path fill="none" stroke="#63b8ff" d="M268.51,-274.98C290.95,-266.3 325.98,-252.75 351.49,-242.88"/>
<polygon fill="#63b8ff" stroke="#63b8ff" points="353.02,-246.04 361.09,-239.17 350.5,-239.51 353.02,-246.04"/>
</a>
</g>
</g>
<!-- Node3 -->
<g id="Node000003" class="node">
<title>Node3</title>
<g id="a_Node000003"><a xlink:href="AGame_8hpp.html" target="_top" xlink:title="Declares the abstract base class for all Arcade games.">
<polygon fill="white" stroke="#666666" points="119,-184 36,-184 36,-165 119,-165 119,-184"/>
<text text-anchor="middle" x="77.5" y="-172" font-family="Helvetica,sans-Serif" font-size="10.00">../AGame.hpp</text>
</a>
</g>
</g>
<!-- Node2&#45;&gt;Node3 -->
<g id="edge2_Node000002_Node000003" class="edge">
<title>Node2&#45;&gt;Node3</title>
<g id="a_edge2_Node000002_Node000003"><a xlink:title=" ">
<path fill="none" stroke="#63b8ff" d="M77.5,-219.75C77.5,-212.8 77.5,-202.85 77.5,-194.13"/>
<polygon fill="#63b8ff" stroke="#63b8ff" points="81,-194.09 77.5,-184.09 74,-194.09 81,-194.09"/>
</a>
</g>
</g>
<!-- Node7 -->
<g id="Node000007" class="node">
<title>Node7</title>
<g id="a_Node000007"><a xlink:title=" ">
<polygon fill="#e0e0e0" stroke="#999999" points="93,-74 0,-74 0,-55 93,-55 93,-74"/>
<text text-anchor="middle" x="46.5" y="-62" font-family="Helvetica,sans-Serif" font-size="10.00">unordered_map</text>
</a>
</g>
</g>
<!-- Node2&#45;&gt;Node7 -->
<g id="edge11_Node000002_Node000007" class="edge">
<title>Node2&#45;&gt;Node7</title>
<g id="a_edge11_Node000002_Node000007"><a xlink:title=" ">
<path fill="none" stroke="#63b8ff" d="M61.92,-219.8C49.86,-212.12 33.98,-199.7 26.5,-184 12.34,-154.3 17.01,-142.04 24.5,-110 26.7,-100.57 31.21,-90.85 35.57,-82.91"/>
<polygon fill="#63b8ff" stroke="#63b8ff" points="38.62,-84.64 40.66,-74.24 32.58,-81.09 38.62,-84.64"/>
</a>
</g>
</g>
<!-- Node4 -->
<g id="Node000004" class="node">
<title>Node4</title>
<g id="a_Node000004"><a xlink:href="IGame_8hpp.html" target="_top" xlink:title="Declaration of the game interface class.">
<polygon fill="white" stroke="#666666" points="112.5,-129 42.5,-129 42.5,-110 112.5,-110 112.5,-129"/>
<text text-anchor="middle" x="77.5" y="-117" font-family="Helvetica,sans-Serif" font-size="10.00">IGame.hpp</text>
</a>
</g>
</g>
<!-- Node3&#45;&gt;Node4 -->
<g id="edge3_Node000003_Node000004" class="edge">
<title>Node3&#45;&gt;Node4</title>
<g id="a_edge3_Node000003_Node000004"><a xlink:title=" ">
<path fill="none" stroke="#63b8ff" d="M77.5,-164.75C77.5,-157.8 77.5,-147.85 77.5,-139.13"/>
<polygon fill="#63b8ff" stroke="#63b8ff" points="81,-139.09 77.5,-129.09 74,-139.09 81,-139.09"/>
</a>
</g>
</g>
<!-- Node5 -->
<g id="Node000005" class="node">
<title>Node5</title>
<g id="a_Node000005"><a xlink:title=" ">
<polygon fill="#e0e0e0" stroke="#999999" points="511.5,-19 467.5,-19 467.5,0 511.5,0 511.5,-19"/>
<text text-anchor="middle" x="489.5" y="-7" font-family="Helvetica,sans-Serif" font-size="10.00">string</text>
</a>
</g>
</g>
<!-- Node4&#45;&gt;Node5 -->
<g id="edge4_Node000004_Node000005" class="edge">
<title>Node4&#45;&gt;Node5</title>
<g id="a_edge4_Node000004_Node000005"><a xlink:title=" ">
<path fill="none" stroke="#63b8ff" d="M112.53,-111.5C115.56,-110.97 118.58,-110.46 121.5,-110 252.86,-89.38 297.37,-128.84 418.5,-74 441.92,-63.39 463.08,-42.25 476.09,-27.28"/>
<polygon fill="#63b8ff" stroke="#63b8ff" points="479.03,-29.22 482.76,-19.3 473.66,-24.73 479.03,-29.22"/>
</a>
</g>
</g>
<!-- Node6 -->
<g id="Node000006" class="node">
<title>Node6</title>
<g id="a_Node000006"><a xlink:title=" ">
<polygon fill="#e0e0e0" stroke="#999999" points="513,-74 466,-74 466,-55 513,-55 513,-74"/>
<text text-anchor="middle" x="489.5" y="-62" font-family="Helvetica,sans-Serif" font-size="10.00">vector</text>
</a>
</g>
</g>
<!-- Node4&#45;&gt;Node6 -->
<g id="edge5_Node000004_Node000006" class="edge">
<title>Node4&#45;&gt;Node6</title>
<g id="a_edge5_Node000004_Node000006"><a xlink:title=" ">
<path fill="none" stroke="#63b8ff" d="M112.52,-111.47C115.55,-110.94 118.58,-110.44 121.5,-110 267.39,-87.99 305.95,-98.14 451.5,-74 452.96,-73.76 454.45,-73.5 455.95,-73.22"/>
<polygon fill="#63b8ff" stroke="#63b8ff" points="456.75,-76.62 465.86,-71.21 455.37,-69.76 456.75,-76.62"/>
</a>
</g>
</g>
<!-- Node4&#45;&gt;Node7 -->
<g id="edge6_Node000004_Node000007" class="edge">
<title>Node4&#45;&gt;Node7</title>
<g id="a_edge6_Node000004_Node000007"><a xlink:title=" ">
<path fill="none" stroke="#63b8ff" d="M72.38,-109.75C68.14,-102.49 61.97,-91.95 56.72,-82.98"/>
<polygon fill="#63b8ff" stroke="#63b8ff" points="59.59,-80.95 51.52,-74.09 53.55,-84.49 59.59,-80.95"/>
</a>
</g>
</g>
<!-- Node8 -->
<g id="Node000008" class="node">
<title>Node8</title>
<g id="a_Node000008"><a xlink:href="Types_8hpp.html" target="_top" xlink:title="Defines the core data structures and types used across the Arcade project.">
<polygon fill="white" stroke="#666666" points="409.5,-74 287.5,-74 287.5,-55 409.5,-55 409.5,-74"/>
<text text-anchor="middle" x="348.5" y="-62" font-family="Helvetica,sans-Serif" font-size="10.00">../../include/Types.hpp</text>
</a>
</g>
</g>
<!-- Node4&#45;&gt;Node8 -->
<g id="edge7_Node000004_Node000008" class="edge">
<title>Node4&#45;&gt;Node8</title>
<g id="a_edge7_Node000004_Node000008"><a xlink:title=" ">
<path fill="none" stroke="#63b8ff" d="M112.65,-111.63C158.93,-102.57 240.75,-86.57 294.81,-76"/>
<polygon fill="#63b8ff" stroke="#63b8ff" points="295.76,-79.38 304.9,-74.03 294.41,-72.51 295.76,-79.38"/>
</a>
</g>
</g>
<!-- Node8&#45;&gt;Node5 -->
<g id="edge10_Node000008_Node000005" class="edge">
<title>Node8&#45;&gt;Node5</title>
<g id="a_edge10_Node000008_Node000005"><a xlink:title=" ">
<path fill="none" stroke="#63b8ff" d="M371.15,-54.98C394.62,-46.16 431.49,-32.31 457.83,-22.4"/>
<polygon fill="#63b8ff" stroke="#63b8ff" points="459.24,-25.61 467.37,-18.82 456.77,-19.06 459.24,-25.61"/>
</a>
</g>
</g>
<!-- Node9 -->
<g id="Node000009" class="node">
<title>Node9</title>
<g id="a_Node000009"><a xlink:title=" ">
<polygon fill="#e0e0e0" stroke="#999999" points="331.5,-19 281.5,-19 281.5,0 331.5,0 331.5,-19"/>
<text text-anchor="middle" x="306.5" y="-7" font-family="Helvetica,sans-Serif" font-size="10.00">cstdint</text>
</a>
</g>
</g>
<!-- Node8&#45;&gt;Node9 -->
<g id="edge8_Node000008_Node000009" class="edge">
<title>Node8&#45;&gt;Node9</title>
<g id="a_edge8_Node000008_Node000009"><a xlink:title=" ">
<path fill="none" stroke="#63b8ff" d="M341.56,-54.75C335.63,-47.26 326.93,-36.28 319.68,-27.13"/>
<polygon fill="#63b8ff" stroke="#63b8ff" points="322.26,-24.75 313.31,-19.09 316.77,-29.1 322.26,-24.75"/>
</a>
</g>
</g>
<!-- Node10 -->
<g id="Node000010" class="node">
<title>Node10</title>
<g id="a_Node000010"><a xlink:title=" ">
<polygon fill="#e0e0e0" stroke="#999999" points="415,-19 350,-19 350,0 415,0 415,-19"/>
<text text-anchor="middle" x="382.5" y="-7" font-family="Helvetica,sans-Serif" font-size="10.00">functional</text>
</a>
</g>
</g>
<!-- Node8&#45;&gt;Node10 -->
<g id="edge9_Node000008_Node000010" class="edge">
<title>Node8&#45;&gt;Node10</title>
<g id="a_edge9_Node000008_Node000010"><a xlink:title=" ">
<path fill="none" stroke="#63b8ff" d="M354.11,-54.75C358.82,-47.42 365.67,-36.73 371.47,-27.7"/>
<polygon fill="#63b8ff" stroke="#63b8ff" points="374.54,-29.4 376.99,-19.09 368.64,-25.62 374.54,-29.4"/>
</a>
</g>
</g>
<!-- Node12&#45;&gt;Node4 -->
<g id="edge22_Node000012_Node000004" class="edge">
<title>Node12&#45;&gt;Node4</title>
<g id="a_edge22_Node000012_Node000004"><a xlink:title=" ">
<path fill="none" stroke="#63b8ff" d="M262.15,-164.98C224.23,-155.85 163.88,-141.31 122.57,-131.36"/>
<polygon fill="#63b8ff" stroke="#63b8ff" points="123.3,-127.93 112.76,-128.99 121.66,-134.74 123.3,-127.93"/>
</a>
</g>
</g>
<!-- Node12&#45;&gt;Node5 -->
<g id="edge17_Node000012_Node000005" class="edge">
<title>Node12&#45;&gt;Node5</title>
<g id="a_edge17_Node000012_Node000005"><a xlink:title=" ">
<path fill="none" stroke="#63b8ff" d="M349.55,-170.26C438.58,-164.19 612.3,-149.79 630.5,-129 670.37,-83.45 574.18,-40.47 521.35,-21.17"/>
<polygon fill="#63b8ff" stroke="#63b8ff" points="522.31,-17.79 511.72,-17.73 519.96,-24.39 522.31,-17.79"/>
</a>
</g>
</g>
<!-- Node12&#45;&gt;Node6 -->
<g id="edge14_Node000012_Node000006" class="edge">
<title>Node12&#45;&gt;Node6</title>
<g id="a_edge14_Node000012_Node000006"><a xlink:title=" ">
<path fill="none" stroke="#63b8ff" d="M349.51,-174.05C430.23,-173.68 579.93,-167.63 613.5,-129 642.05,-96.14 569.17,-78.1 523.36,-70.28"/>
<polygon fill="#63b8ff" stroke="#63b8ff" points="523.64,-66.78 513.21,-68.64 522.52,-73.69 523.64,-66.78"/>
</a>
</g>
</g>
<!-- Node12&#45;&gt;Node7 -->
<g id="edge21_Node000012_Node000007" class="edge">
<title>Node12&#45;&gt;Node7</title>
<g id="a_edge21_Node000012_Node000007"><a xlink:title=" ">
<path fill="none" stroke="#63b8ff" d="M245.47,-172.39C176.42,-169.69 60.1,-160.46 33.5,-129 22.86,-116.42 28.65,-97.45 35.55,-83.52"/>
<polygon fill="#63b8ff" stroke="#63b8ff" points="38.8,-84.88 40.55,-74.43 32.67,-81.5 38.8,-84.88"/>
</a>
</g>
</g>
<!-- Node13 -->
<g id="Node000013" class="node">
<title>Node13</title>
<g id="a_Node000013"><a xlink:title=" ">
<polygon fill="#e0e0e0" stroke="#999999" points="747.5,-129 697.5,-129 697.5,-110 747.5,-110 747.5,-129"/>
<text text-anchor="middle" x="722.5" y="-117" font-family="Helvetica,sans-Serif" font-size="10.00">chrono</text>
</a>
</g>
</g>
<!-- Node12&#45;&gt;Node13 -->
<g id="edge15_Node000012_Node000013" class="edge">
<title>Node12&#45;&gt;Node13</title>
<g id="a_edge15_Node000012_Node000013"><a xlink:title=" ">
<path fill="none" stroke="#63b8ff" d="M349.55,-169.16C423.92,-162.59 564.72,-148.74 683.5,-129 684.77,-128.79 686.06,-128.56 687.36,-128.33"/>
<polygon fill="#63b8ff" stroke="#63b8ff" points="688.26,-131.72 697.4,-126.36 686.91,-124.85 688.26,-131.72"/>
</a>
</g>
</g>
<!-- Node14 -->
<g id="Node000014" class="node">
<title>Node14</title>
<g id="a_Node000014"><a xlink:title=" ">
<polygon fill="#e0e0e0" stroke="#999999" points="178.5,-129 130.5,-129 130.5,-110 178.5,-110 178.5,-129"/>
<text text-anchor="middle" x="154.5" y="-117" font-family="Helvetica,sans-Serif" font-size="10.00">thread</text>
</a>
</g>
</g>
<!-- Node12&#45;&gt;Node14 -->
<g id="edge16_Node000012_Node000014" class="edge">
<title>Node12&#45;&gt;Node14</title>
<g id="a_edge16_Node000012_Node000014"><a xlink:title=" ">
<path fill="none" stroke="#63b8ff" d="M274.52,-164.98C251,-156.27 214.21,-142.63 187.56,-132.75"/>
<polygon fill="#63b8ff" stroke="#63b8ff" points="188.49,-129.36 177.89,-129.17 186.05,-135.93 188.49,-129.36"/>
</a>
</g>
</g>
<!-- Node15 -->
<g id="Node000015" class="node">
<title>Node15</title>
<g id="a_Node000015"><a xlink:title=" ">
<polygon fill="#e0e0e0" stroke="#999999" points="254.5,-129 196.5,-129 196.5,-110 254.5,-110 254.5,-129"/>
<text text-anchor="middle" x="225.5" y="-117" font-family="Helvetica,sans-Serif" font-size="10.00">memory</text>
</a>
</g>
</g>
<!-- Node12&#45;&gt;Node15 -->
<g id="edge18_Node000012_Node000015" class="edge">
<title>Node12&#45;&gt;Node15</title>
<g id="a_edge18_Node000012_Node000015"><a xlink:title=" ">
<path fill="none" stroke="#63b8ff" d="M285.93,-164.98C275.08,-157 258.62,-144.88 245.62,-135.31"/>
<polygon fill="#63b8ff" stroke="#63b8ff" points="247.41,-132.28 237.28,-129.17 243.26,-137.92 247.41,-132.28"/>
</a>
</g>
</g>
<!-- Node16 -->
<g id="Node000016" class="node">
<title>Node16</title>
<g id="a_Node000016"><a xlink:title=" ">
<polygon fill="#e0e0e0" stroke="#999999" points="322.5,-129 272.5,-129 272.5,-110 322.5,-110 322.5,-129"/>
<text text-anchor="middle" x="297.5" y="-117" font-family="Helvetica,sans-Serif" font-size="10.00">cstring</text>
</a>
</g>
</g>
<!-- Node12&#45;&gt;Node16 -->
<g id="edge19_Node000012_Node000016" class="edge">
<title>Node12&#45;&gt;Node16</title>
<g id="a_edge19_Node000012_Node000016"><a xlink:title=" ">
<path fill="none" stroke="#63b8ff" d="M297.5,-164.75C297.5,-157.8 297.5,-147.85 297.5,-139.13"/>
<polygon fill="#63b8ff" stroke="#63b8ff" points="301,-139.09 297.5,-129.09 294,-139.09 301,-139.09"/>
</a>
</g>
</g>
<!-- Node17 -->
<g id="Node000017" class="node">
<title>Node17</title>
<g id="a_Node000017"><a xlink:title=" ">
<polygon fill="#e0e0e0" stroke="#999999" points="408.5,-129 340.5,-129 340.5,-110 408.5,-110 408.5,-129"/>
<text text-anchor="middle" x="374.5" y="-117" font-family="Helvetica,sans-Serif" font-size="10.00">filesystem</text>
</a>
</g>
</g>
<!-- Node12&#45;&gt;Node17 -->
<g id="edge20_Node000012_Node000017" class="edge">
<title>Node12&#45;&gt;Node17</title>
<g id="a_edge20_Node000012_Node000017"><a xlink:title=" ">
<path fill="none" stroke="#63b8ff" d="M309.87,-164.98C321.59,-156.92 339.42,-144.65 353.39,-135.03"/>
<polygon fill="#63b8ff" stroke="#63b8ff" points="355.65,-137.72 361.9,-129.17 351.68,-131.96 355.65,-137.72"/>
</a>
</g>
</g>
<!-- Node18 -->
<g id="Node000018" class="node">
<title>Node18</title>
<g id="a_Node000018"><a xlink:href="IDisplayModule_8hpp.html" target="_top" xlink:title="Declaration of the graphical display interface.">
<polygon fill="white" stroke="#666666" points="604,-129 427,-129 427,-110 604,-110 604,-129"/>
<text text-anchor="middle" x="515.5" y="-117" font-family="Helvetica,sans-Serif" font-size="10.00">../Graphicals/IDisplayModule.hpp</text>
</a>
</g>
</g>
<!-- Node12&#45;&gt;Node18 -->
<g id="edge23_Node000012_Node000018" class="edge">
<title>Node12&#45;&gt;Node18</title>
<g id="a_edge23_Node000012_Node000018"><a xlink:title=" ">
<path fill="none" stroke="#63b8ff" d="M332.53,-164.98C370,-155.87 429.55,-141.4 470.48,-131.45"/>
<polygon fill="#63b8ff" stroke="#63b8ff" points="471.31,-134.85 480.2,-129.08 469.66,-128.04 471.31,-134.85"/>
</a>
</g>
</g>
<!-- Node18&#45;&gt;Node5 -->
<g id="edge25_Node000018_Node000005" class="edge">
<title>Node18&#45;&gt;Node5</title>
<g id="a_edge25_Node000018_Node000005"><a xlink:title=" ">
<path fill="none" stroke="#63b8ff" d="M518.78,-109.63C522.89,-97.12 528.69,-73.75 522.5,-55 519.04,-44.54 512.07,-34.53 505.42,-26.66"/>
<polygon fill="#63b8ff" stroke="#63b8ff" points="507.83,-24.1 498.52,-19.04 502.64,-28.8 507.83,-24.1"/>
</a>
</g>
</g>
<!-- Node18&#45;&gt;Node6 -->
<g id="edge27_Node000018_Node000006" class="edge">
<title>Node18&#45;&gt;Node6</title>
<g id="a_edge27_Node000018_Node000006"><a xlink:title=" ">
<path fill="none" stroke="#63b8ff" d="M511.21,-109.75C507.69,-102.57 502.59,-92.18 498.22,-83.27"/>
<polygon fill="#63b8ff" stroke="#63b8ff" points="501.26,-81.53 493.71,-74.09 494.98,-84.61 501.26,-81.53"/>
</a>
</g>
</g>
<!-- Node18&#45;&gt;Node7 -->
<g id="edge26_Node000018_Node000007" class="edge">
<title>Node18&#45;&gt;Node7</title>
<g id="a_edge26_Node000018_Node000007"><a xlink:title=" ">
<path fill="none" stroke="#63b8ff" d="M440.15,-109.98C346.19,-99.37 187.69,-81.46 103.32,-71.92"/>
<polygon fill="#63b8ff" stroke="#63b8ff" points="103.49,-68.42 93.16,-70.77 102.71,-75.37 103.49,-68.42"/>
</a>
</g>
</g>
<!-- Node18&#45;&gt;Node8 -->
<g id="edge24_Node000018_Node000008" class="edge">
<title>Node18&#45;&gt;Node8</title>
<g id="a_edge24_Node000018_Node000008"><a xlink:title=" ">
<path fill="none" stroke="#63b8ff" d="M488.67,-109.98C460.63,-101.09 416.45,-87.07 385.2,-77.15"/>
<polygon fill="#63b8ff" stroke="#63b8ff" points="386.13,-73.77 375.54,-74.08 384.01,-80.44 386.13,-73.77"/>
</a>
</g>
</g>
</g>
</svg>
