<?xml version="1.0" encoding="UTF-8" standalone="no"?>
<!DOCTYPE svg PUBLIC "-//W3C//DTD SVG 1.1//EN"
 "http://www.w3.org/Graphics/SVG/1.1/DTD/svg11.dtd">
<!-- Generated by graphviz version 2.43.0 (0)
 -->
<!-- Title: src/Games/Menu/Menu.cpp Pages: 1 -->
<svg width="789pt" height="302pt"
 viewBox="0.00 0.00 789.00 302.00" xmlns="http://www.w3.org/2000/svg" xmlns:xlink="http://www.w3.org/1999/xlink">
<g id="graph0" class="graph" transform="scale(1 1) rotate(0) translate(4 298)">
<title>src/Games/Menu/Menu.cpp</title>
<!-- Node1 -->
<g id="Node000001" class="node">
<title>Node1</title>
<g id="a_Node000001"><a xlink:title="Declares global variables used to store user selections in the Arcade menu.">
<polygon fill="#999999" stroke="#666666" points="744.5,-294 595.5,-294 595.5,-275 744.5,-275 744.5,-294"/>
<text text-anchor="middle" x="670" y="-282" font-family="Helvetica,sans-Serif" font-size="10.00">src/Games/Menu/Menu.cpp</text>
</a>
</g>
</g>
<!-- Node2 -->
<g id="Node000002" class="node">
<title>Node2</title>
<g id="a_Node000002"><a xlink:href="Menu_8hpp.html" target="_top" xlink:title="Declares the Menu class, used to display and navigate game and library options.">
<polygon fill="white" stroke="#666666" points="702.5,-239 637.5,-239 637.5,-220 702.5,-220 702.5,-239"/>
<text text-anchor="middle" x="670" y="-227" font-family="Helvetica,sans-Serif" font-size="10.00">Menu.hpp</text>
</a>
</g>
</g>
<!-- Node1&#45;&gt;Node2 -->
<g id="edge1_Node000001_Node000002" class="edge">
<title>Node1&#45;&gt;Node2</title>
<g id="a_edge1_Node000001_Node000002"><a xlink:title=" ">
<path fill="none" stroke="#63b8ff" d="M670,-274.75C670,-267.8 670,-257.85 670,-249.13"/>
<polygon fill="#63b8ff" stroke="#63b8ff" points="673.5,-249.09 670,-239.09 666.5,-249.09 673.5,-249.09"/>
</a>
</g>
</g>
<!-- Node11 -->
<g id="Node000011" class="node">
<title>Node11</title>
<g id="a_Node000011"><a xlink:title=" ">
<polygon fill="#e0e0e0" stroke="#999999" points="781,-239 721,-239 721,-220 781,-220 781,-239"/>
<text text-anchor="middle" x="751" y="-227" font-family="Helvetica,sans-Serif" font-size="10.00">iostream</text>
</a>
</g>
</g>
<!-- Node1&#45;&gt;Node11 -->
<g id="edge12_Node000001_Node000011" class="edge">
<title>Node1&#45;&gt;Node11</title>
<g id="a_edge12_Node000001_Node000011"><a xlink:title=" ">
<path fill="none" stroke="#63b8ff" d="M683.01,-274.98C695.46,-266.84 714.46,-254.41 729.21,-244.76"/>
<polygon fill="#63b8ff" stroke="#63b8ff" points="731.3,-247.57 737.75,-239.17 727.46,-241.72 731.3,-247.57"/>
</a>
</g>
</g>
<!-- Node12 -->
<g id="Node000012" class="node">
<title>Node12</title>
<g id="a_Node000012"><a xlink:href="Core_8hpp.html" target="_top" xlink:title="Declaration of the Core class and associated definitions.">
<polygon fill="white" stroke="#666666" points="396,-184 292,-184 292,-165 396,-165 396,-184"/>
<text text-anchor="middle" x="344" y="-172" font-family="Helvetica,sans-Serif" font-size="10.00">../../Core/Core.hpp</text>
</a>
</g>
</g>
<!-- Node1&#45;&gt;Node12 -->
<g id="edge13_Node000001_Node000012" class="edge">
<title>Node1&#45;&gt;Node12</title>
<g id="a_edge13_Node000001_Node000012"><a xlink:title=" ">
<path fill="none" stroke="#63b8ff" d="M644.15,-274.94C586.13,-255.72 445.51,-209.13 379.42,-187.24"/>
<polygon fill="#63b8ff" stroke="#63b8ff" points="380.45,-183.89 369.86,-184.07 378.25,-190.53 380.45,-183.89"/>
</a>
</g>
</g>
<!-- Node3 -->
<g id="Node000003" class="node">
<title>Node3</title>
<g id="a_Node000003"><a xlink:href="AGame_8hpp.html" target="_top" xlink:title="Declares the abstract base class for all Arcade games.">
<polygon fill="white" stroke="#666666" points="711.5,-184 628.5,-184 628.5,-165 711.5,-165 711.5,-184"/>
<text text-anchor="middle" x="670" y="-172" font-family="Helvetica,sans-Serif" font-size="10.00">../AGame.hpp</text>
</a>
</g>
</g>
<!-- Node2&#45;&gt;Node3 -->
<g id="edge2_Node000002_Node000003" class="edge">
<title>Node2&#45;&gt;Node3</title>
<g id="a_edge2_Node000002_Node000003"><a xlink:title=" ">
<path fill="none" stroke="#63b8ff" d="M670,-219.75C670,-212.8 670,-202.85 670,-194.13"/>
<polygon fill="#63b8ff" stroke="#63b8ff" points="673.5,-194.09 670,-184.09 666.5,-194.09 673.5,-194.09"/>
</a>
</g>
</g>
<!-- Node7 -->
<g id="Node000007" class="node">
<title>Node7</title>
<g id="a_Node000007"><a xlink:title=" ">
<polygon fill="#e0e0e0" stroke="#999999" points="774.5,-74 681.5,-74 681.5,-55 774.5,-55 774.5,-74"/>
<text text-anchor="middle" x="728" y="-62" font-family="Helvetica,sans-Serif" font-size="10.00">unordered_map</text>
</a>
</g>
</g>
<!-- Node2&#45;&gt;Node7 -->
<g id="edge11_Node000002_Node000007" class="edge">
<title>Node2&#45;&gt;Node7</title>
<g id="a_edge11_Node000002_Node000007"><a xlink:title=" ">
<path fill="none" stroke="#63b8ff" d="M684.38,-219.73C696.06,-211.84 712.03,-199.17 721,-184 739.39,-152.91 735.88,-108.86 731.84,-84.16"/>
<polygon fill="#63b8ff" stroke="#63b8ff" points="735.22,-83.2 729.96,-74 728.34,-84.47 735.22,-83.2"/>
</a>
</g>
</g>
<!-- Node4 -->
<g id="Node000004" class="node">
<title>Node4</title>
<g id="a_Node000004"><a xlink:href="IGame_8hpp.html" target="_top" xlink:title="Declaration of the game interface class.">
<polygon fill="white" stroke="#666666" points="705,-129 635,-129 635,-110 705,-110 705,-129"/>
<text text-anchor="middle" x="670" y="-117" font-family="Helvetica,sans-Serif" font-size="10.00">IGame.hpp</text>
</a>
</g>
</g>
<!-- Node3&#45;&gt;Node4 -->
<g id="edge3_Node000003_Node000004" class="edge">
<title>Node3&#45;&gt;Node4</title>
<g id="a_edge3_Node000003_Node000004"><a xlink:title=" ">
<path fill="none" stroke="#63b8ff" d="M670,-164.75C670,-157.8 670,-147.85 670,-139.13"/>
<polygon fill="#63b8ff" stroke="#63b8ff" points="673.5,-139.09 670,-129.09 666.5,-139.09 673.5,-139.09"/>
</a>
</g>
</g>
<!-- Node5 -->
<g id="Node000005" class="node">
<title>Node5</title>
<g id="a_Node000005"><a xlink:title=" ">
<polygon fill="#e0e0e0" stroke="#999999" points="506,-19 462,-19 462,0 506,0 506,-19"/>
<text text-anchor="middle" x="484" y="-7" font-family="Helvetica,sans-Serif" font-size="10.00">string</text>
</a>
</g>
</g>
<!-- Node4&#45;&gt;Node5 -->
<g id="edge4_Node000004_Node000005" class="edge">
<title>Node4&#45;&gt;Node5</title>
<g id="a_edge4_Node000004_Node000005"><a xlink:title=" ">
<path fill="none" stroke="#63b8ff" d="M634.84,-111.02C596.93,-102.42 539.62,-87.73 522,-74 506.99,-62.31 496.63,-42.9 490.57,-28.61"/>
<polygon fill="#63b8ff" stroke="#63b8ff" points="493.82,-27.32 486.9,-19.3 487.31,-29.88 493.82,-27.32"/>
</a>
</g>
</g>
<!-- Node6 -->
<g id="Node000006" class="node">
<title>Node6</title>
<g id="a_Node000006"><a xlink:title=" ">
<polygon fill="#e0e0e0" stroke="#999999" points="436.5,-74 389.5,-74 389.5,-55 436.5,-55 436.5,-74"/>
<text text-anchor="middle" x="413" y="-62" font-family="Helvetica,sans-Serif" font-size="10.00">vector</text>
</a>
</g>
</g>
<!-- Node4&#45;&gt;Node6 -->
<g id="edge5_Node000004_Node000006" class="edge">
<title>Node4&#45;&gt;Node6</title>
<g id="a_edge5_Node000004_Node000006"><a xlink:title=" ">
<path fill="none" stroke="#63b8ff" d="M634.8,-111.24C585.24,-101.02 495.49,-82.51 446.73,-72.46"/>
<polygon fill="#63b8ff" stroke="#63b8ff" points="447.19,-68.98 436.69,-70.39 445.78,-75.83 447.19,-68.98"/>
</a>
</g>
</g>
<!-- Node4&#45;&gt;Node7 -->
<g id="edge6_Node000004_Node000007" class="edge">
<title>Node4&#45;&gt;Node7</title>
<g id="a_edge6_Node000004_Node000007"><a xlink:title=" ">
<path fill="none" stroke="#63b8ff" d="M679.32,-109.98C687.81,-102.23 700.56,-90.58 710.88,-81.14"/>
<polygon fill="#63b8ff" stroke="#63b8ff" points="713.49,-83.5 718.51,-74.17 708.77,-78.33 713.49,-83.5"/>
</a>
</g>
</g>
<!-- Node8 -->
<g id="Node000008" class="node">
<title>Node8</title>
<g id="a_Node000008"><a xlink:href="Types_8hpp.html" target="_top" xlink:title="Defines the core data structures and types used across the Arcade project.">
<polygon fill="white" stroke="#666666" points="653,-74 531,-74 531,-55 653,-55 653,-74"/>
<text text-anchor="middle" x="592" y="-62" font-family="Helvetica,sans-Serif" font-size="10.00">../../include/Types.hpp</text>
</a>
</g>
</g>
<!-- Node4&#45;&gt;Node8 -->
<g id="edge7_Node000004_Node000008" class="edge">
<title>Node4&#45;&gt;Node8</title>
<g id="a_edge7_Node000004_Node000008"><a xlink:title=" ">
<path fill="none" stroke="#63b8ff" d="M657.47,-109.98C645.6,-101.92 627.54,-89.65 613.39,-80.03"/>
<polygon fill="#63b8ff" stroke="#63b8ff" points="615,-76.9 604.76,-74.17 611.06,-82.69 615,-76.9"/>
</a>
</g>
</g>
<!-- Node8&#45;&gt;Node5 -->
<g id="edge10_Node000008_Node000005" class="edge">
<title>Node8&#45;&gt;Node5</title>
<g id="a_edge10_Node000008_Node000005"><a xlink:title=" ">
<path fill="none" stroke="#63b8ff" d="M574.65,-54.98C557.43,-46.54 530.8,-33.47 510.85,-23.68"/>
<polygon fill="#63b8ff" stroke="#63b8ff" points="512.19,-20.43 501.67,-19.17 509.1,-26.72 512.19,-20.43"/>
</a>
</g>
</g>
<!-- Node9 -->
<g id="Node000009" class="node">
<title>Node9</title>
<g id="a_Node000009"><a xlink:title=" ">
<polygon fill="#e0e0e0" stroke="#999999" points="595,-19 545,-19 545,0 595,0 595,-19"/>
<text text-anchor="middle" x="570" y="-7" font-family="Helvetica,sans-Serif" font-size="10.00">cstdint</text>
</a>
</g>
</g>
<!-- Node8&#45;&gt;Node9 -->
<g id="edge8_Node000008_Node000009" class="edge">
<title>Node8&#45;&gt;Node9</title>
<g id="a_edge8_Node000008_Node000009"><a xlink:title=" ">
<path fill="none" stroke="#63b8ff" d="M588.37,-54.75C585.42,-47.65 581.17,-37.4 577.49,-28.56"/>
<polygon fill="#63b8ff" stroke="#63b8ff" points="580.63,-26.98 573.57,-19.09 574.17,-29.67 580.63,-26.98"/>
</a>
</g>
</g>
<!-- Node10 -->
<g id="Node000010" class="node">
<title>Node10</title>
<g id="a_Node000010"><a xlink:title=" ">
<polygon fill="#e0e0e0" stroke="#999999" points="678.5,-19 613.5,-19 613.5,0 678.5,0 678.5,-19"/>
<text text-anchor="middle" x="646" y="-7" font-family="Helvetica,sans-Serif" font-size="10.00">functional</text>
</a>
</g>
</g>
<!-- Node8&#45;&gt;Node10 -->
<g id="edge9_Node000008_Node000010" class="edge">
<title>Node8&#45;&gt;Node10</title>
<g id="a_edge9_Node000008_Node000010"><a xlink:title=" ">
<path fill="none" stroke="#63b8ff" d="M600.92,-54.75C608.78,-47.03 620.43,-35.6 629.92,-26.28"/>
<polygon fill="#63b8ff" stroke="#63b8ff" points="632.56,-28.59 637.25,-19.09 627.66,-23.6 632.56,-28.59"/>
</a>
</g>
</g>
<!-- Node12&#45;&gt;Node4 -->
<g id="edge22_Node000012_Node000004" class="edge">
<title>Node12&#45;&gt;Node4</title>
<g id="a_edge22_Node000012_Node000004"><a xlink:title=" ">
<path fill="none" stroke="#63b8ff" d="M396.06,-165.83C450.62,-157.67 539.07,-144.1 625.03,-129.12"/>
<polygon fill="#63b8ff" stroke="#63b8ff" points="625.71,-132.55 634.96,-127.38 624.5,-125.66 625.71,-132.55"/>
</a>
</g>
</g>
<!-- Node12&#45;&gt;Node5 -->
<g id="edge17_Node000012_Node000005" class="edge">
<title>Node12&#45;&gt;Node5</title>
<g id="a_edge17_Node000012_Node000005"><a xlink:title=" ">
<path fill="none" stroke="#63b8ff" d="M343.73,-164.66C343.59,-152.19 344.24,-128.85 350,-110 358.14,-83.37 359.4,-73.73 380,-55 400.41,-36.44 429.74,-24.85 452.05,-18.17"/>
<polygon fill="#63b8ff" stroke="#63b8ff" points="453.08,-21.52 461.75,-15.44 451.18,-14.78 453.08,-21.52"/>
</a>
</g>
</g>
<!-- Node12&#45;&gt;Node6 -->
<g id="edge14_Node000012_Node000006" class="edge">
<title>Node12&#45;&gt;Node6</title>
<g id="a_edge14_Node000012_Node000006"><a xlink:title=" ">
<path fill="none" stroke="#63b8ff" d="M344.9,-164.64C346.55,-151.74 350.96,-127.42 362,-110 369.47,-98.21 380.98,-87.79 391.18,-79.99"/>
<polygon fill="#63b8ff" stroke="#63b8ff" points="393.28,-82.8 399.32,-74.1 389.17,-77.13 393.28,-82.8"/>
</a>
</g>
</g>
<!-- Node12&#45;&gt;Node7 -->
<g id="edge21_Node000012_Node000007" class="edge">
<title>Node12&#45;&gt;Node7</title>
<g id="a_edge21_Node000012_Node000007"><a xlink:title=" ">
<path fill="none" stroke="#63b8ff" d="M396.02,-174.39C486.72,-174.81 668.48,-170.3 714,-129 726.14,-117.99 729.01,-99.04 729.23,-84.7"/>
<polygon fill="#63b8ff" stroke="#63b8ff" points="732.72,-84.33 728.95,-74.43 725.72,-84.52 732.72,-84.33"/>
</a>
</g>
</g>
<!-- Node13 -->
<g id="Node000013" class="node">
<title>Node13</title>
<g id="a_Node000013"><a xlink:title=" ">
<polygon fill="#e0e0e0" stroke="#999999" points="617,-129 567,-129 567,-110 617,-110 617,-129"/>
<text text-anchor="middle" x="592" y="-117" font-family="Helvetica,sans-Serif" font-size="10.00">chrono</text>
</a>
</g>
</g>
<!-- Node12&#45;&gt;Node13 -->
<g id="edge15_Node000012_Node000013" class="edge">
<title>Node12&#45;&gt;Node13</title>
<g id="a_edge15_Node000012_Node000013"><a xlink:title=" ">
<path fill="none" stroke="#63b8ff" d="M386.93,-164.96C430.01,-156.28 498.22,-142.27 557,-129 557.1,-128.98 557.2,-128.96 557.3,-128.93"/>
<polygon fill="#63b8ff" stroke="#63b8ff" points="557.84,-132.4 566.79,-126.73 556.25,-125.58 557.84,-132.4"/>
</a>
</g>
</g>
<!-- Node14 -->
<g id="Node000014" class="node">
<title>Node14</title>
<g id="a_Node000014"><a xlink:title=" ">
<polygon fill="#e0e0e0" stroke="#999999" points="48,-129 0,-129 0,-110 48,-110 48,-129"/>
<text text-anchor="middle" x="24" y="-117" font-family="Helvetica,sans-Serif" font-size="10.00">thread</text>
</a>
</g>
</g>
<!-- Node12&#45;&gt;Node14 -->
<g id="edge16_Node000012_Node000014" class="edge">
<title>Node12&#45;&gt;Node14</title>
<g id="a_edge16_Node000012_Node000014"><a xlink:title=" ">
<path fill="none" stroke="#63b8ff" d="M291.88,-166.99C236.24,-159.68 145.35,-146.75 57.9,-129.01"/>
<polygon fill="#63b8ff" stroke="#63b8ff" points="58.59,-125.58 48.09,-127 57.18,-132.43 58.59,-125.58"/>
</a>
</g>
</g>
<!-- Node15 -->
<g id="Node000015" class="node">
<title>Node15</title>
<g id="a_Node000015"><a xlink:title=" ">
<polygon fill="#e0e0e0" stroke="#999999" points="124,-129 66,-129 66,-110 124,-110 124,-129"/>
<text text-anchor="middle" x="95" y="-117" font-family="Helvetica,sans-Serif" font-size="10.00">memory</text>
</a>
</g>
</g>
<!-- Node12&#45;&gt;Node15 -->
<g id="edge18_Node000012_Node000015" class="edge">
<title>Node12&#45;&gt;Node15</title>
<g id="a_edge18_Node000012_Node000015"><a xlink:title=" ">
<path fill="none" stroke="#63b8ff" d="M302.73,-164.95C262.25,-156.53 198.51,-143.18 133.98,-129.19"/>
<polygon fill="#63b8ff" stroke="#63b8ff" points="134.55,-125.74 124.04,-127.03 133.07,-132.58 134.55,-125.74"/>
</a>
</g>
</g>
<!-- Node16 -->
<g id="Node000016" class="node">
<title>Node16</title>
<g id="a_Node000016"><a xlink:title=" ">
<polygon fill="#e0e0e0" stroke="#999999" points="192,-129 142,-129 142,-110 192,-110 192,-129"/>
<text text-anchor="middle" x="167" y="-117" font-family="Helvetica,sans-Serif" font-size="10.00">cstring</text>
</a>
</g>
</g>
<!-- Node12&#45;&gt;Node16 -->
<g id="edge19_Node000012_Node000016" class="edge">
<title>Node12&#45;&gt;Node16</title>
<g id="a_edge19_Node000012_Node000016"><a xlink:title=" ">
<path fill="none" stroke="#63b8ff" d="M315.56,-164.98C284.65,-155.73 235.24,-140.93 201.98,-130.97"/>
<polygon fill="#63b8ff" stroke="#63b8ff" points="202.8,-127.57 192.21,-128.05 200.79,-134.27 202.8,-127.57"/>
</a>
</g>
</g>
<!-- Node17 -->
<g id="Node000017" class="node">
<title>Node17</title>
<g id="a_Node000017"><a xlink:title=" ">
<polygon fill="#e0e0e0" stroke="#999999" points="278,-129 210,-129 210,-110 278,-110 278,-129"/>
<text text-anchor="middle" x="244" y="-117" font-family="Helvetica,sans-Serif" font-size="10.00">filesystem</text>
</a>
</g>
</g>
<!-- Node12&#45;&gt;Node17 -->
<g id="edge20_Node000012_Node000017" class="edge">
<title>Node12&#45;&gt;Node17</title>
<g id="a_edge20_Node000012_Node000017"><a xlink:title=" ">
<path fill="none" stroke="#63b8ff" d="M327.93,-164.98C312.14,-156.61 287.78,-143.7 269.37,-133.95"/>
<polygon fill="#63b8ff" stroke="#63b8ff" points="270.83,-130.76 260.36,-129.17 267.56,-136.95 270.83,-130.76"/>
</a>
</g>
</g>
<!-- Node18 -->
<g id="Node000018" class="node">
<title>Node18</title>
<g id="a_Node000018"><a xlink:href="IDisplayModule_8hpp.html" target="_top" xlink:title="Declaration of the graphical display interface.">
<polygon fill="white" stroke="#666666" points="548.5,-129 371.5,-129 371.5,-110 548.5,-110 548.5,-129"/>
<text text-anchor="middle" x="460" y="-117" font-family="Helvetica,sans-Serif" font-size="10.00">../Graphicals/IDisplayModule.hpp</text>
</a>
</g>
</g>
<!-- Node12&#45;&gt;Node18 -->
<g id="edge23_Node000012_Node000018" class="edge">
<title>Node12&#45;&gt;Node18</title>
<g id="a_edge23_Node000012_Node000018"><a xlink:title=" ">
<path fill="none" stroke="#63b8ff" d="M362.64,-164.98C381.3,-156.46 410.25,-143.23 431.74,-133.41"/>
<polygon fill="#63b8ff" stroke="#63b8ff" points="433.38,-136.51 441.02,-129.17 430.47,-130.14 433.38,-136.51"/>
</a>
</g>
</g>
<!-- Node18&#45;&gt;Node5 -->
<g id="edge25_Node000018_Node000005" class="edge">
<title>Node18&#45;&gt;Node5</title>
<g id="a_edge25_Node000018_Node000005"><a xlink:title=" ">
<path fill="none" stroke="#63b8ff" d="M461.96,-109.66C465.87,-92.09 474.68,-52.45 479.9,-28.95"/>
<polygon fill="#63b8ff" stroke="#63b8ff" points="483.32,-29.68 482.08,-19.16 476.49,-28.16 483.32,-29.68"/>
</a>
</g>
</g>
<!-- Node18&#45;&gt;Node6 -->
<g id="edge27_Node000018_Node000006" class="edge">
<title>Node18&#45;&gt;Node6</title>
<g id="a_edge27_Node000018_Node000006"><a xlink:title=" ">
<path fill="none" stroke="#63b8ff" d="M452.24,-109.75C445.53,-102.18 435.66,-91.05 427.49,-81.84"/>
<polygon fill="#63b8ff" stroke="#63b8ff" points="429.87,-79.25 420.62,-74.09 424.63,-83.89 429.87,-79.25"/>
</a>
</g>
</g>
<!-- Node18&#45;&gt;Node7 -->
<g id="edge26_Node000018_Node000007" class="edge">
<title>Node18&#45;&gt;Node7</title>
<g id="a_edge26_Node000018_Node000007"><a xlink:title=" ">
<path fill="none" stroke="#63b8ff" d="M503.06,-109.98C549.71,-100.76 624.2,-86.03 674.56,-76.07"/>
<polygon fill="#63b8ff" stroke="#63b8ff" points="675.47,-79.46 684.6,-74.08 674.11,-72.59 675.47,-79.46"/>
</a>
</g>
</g>
<!-- Node18&#45;&gt;Node8 -->
<g id="edge24_Node000018_Node000008" class="edge">
<title>Node18&#45;&gt;Node8</title>
<g id="a_edge24_Node000018_Node000008"><a xlink:title=" ">
<path fill="none" stroke="#63b8ff" d="M481.21,-109.98C502.73,-101.34 536.28,-87.87 560.83,-78.02"/>
<polygon fill="#63b8ff" stroke="#63b8ff" points="562.43,-81.14 570.41,-74.17 559.82,-74.65 562.43,-81.14"/>
</a>
</g>
</g>
</g>
</svg>
