<?xml version="1.0" encoding="UTF-8" standalone="no"?>
<!DOCTYPE svg PUBLIC "-//W3C//DTD SVG 1.1//EN"
 "http://www.w3.org/Graphics/SVG/1.1/DTD/svg11.dtd">
<!-- Generated by graphviz version 2.43.0 (0)
 -->
<!-- Title: src/Graphicals/NCurses/NCursesDisplayModule.cpp Pages: 1 -->
<svg width="381pt" height="313pt"
 viewBox="0.00 0.00 380.50 313.00" xmlns="http://www.w3.org/2000/svg" xmlns:xlink="http://www.w3.org/1999/xlink">
<g id="graph0" class="graph" transform="scale(1 1) rotate(0) translate(4 309)">
<title>src/Graphicals/NCurses/NCursesDisplayModule.cpp</title>
<!-- Node1 -->
<g id="Node000001" class="node">
<title>Node1</title>
<g id="a_Node000001"><a xlink:title="NCurses Display Module.">
<polygon fill="#999999" stroke="#666666" points="245.5,-305 92.5,-305 92.5,-275 245.5,-275 245.5,-305"/>
<text text-anchor="start" x="100.5" y="-293" font-family="Helvetica,sans-Serif" font-size="10.00">src/Graphicals/NCurses</text>
<text text-anchor="middle" x="169" y="-282" font-family="Helvetica,sans-Serif" font-size="10.00">/NCursesDisplayModule.cpp</text>
</a>
</g>
</g>
<!-- Node2 -->
<g id="Node000002" class="node">
<title>Node2</title>
<g id="a_Node000002"><a xlink:href="NCursesDisplayModule_8hpp.html" target="_top" xlink:title="Declaration of the NCursesDisplayModule class and associated definitions.">
<polygon fill="white" stroke="#666666" points="244.5,-239 93.5,-239 93.5,-220 244.5,-220 244.5,-239"/>
<text text-anchor="middle" x="169" y="-227" font-family="Helvetica,sans-Serif" font-size="10.00">NCursesDisplayModule.hpp</text>
</a>
</g>
</g>
<!-- Node1&#45;&gt;Node2 -->
<g id="edge1_Node000001_Node000002" class="edge">
<title>Node1&#45;&gt;Node2</title>
<g id="a_edge1_Node000001_Node000002"><a xlink:title=" ">
<path fill="none" stroke="#63b8ff" d="M169,-274.84C169,-267.21 169,-257.7 169,-249.45"/>
<polygon fill="#63b8ff" stroke="#63b8ff" points="172.5,-249.27 169,-239.27 165.5,-249.27 172.5,-249.27"/>
</a>
</g>
</g>
<!-- Node3 -->
<g id="Node000003" class="node">
<title>Node3</title>
<g id="a_Node000003"><a xlink:title=" ">
<polygon fill="#e0e0e0" stroke="#999999" points="146.5,-184 83.5,-184 83.5,-165 146.5,-165 146.5,-184"/>
<text text-anchor="middle" x="115" y="-172" font-family="Helvetica,sans-Serif" font-size="10.00">ncurses.h</text>
</a>
</g>
</g>
<!-- Node2&#45;&gt;Node3 -->
<g id="edge2_Node000002_Node000003" class="edge">
<title>Node2&#45;&gt;Node3</title>
<g id="a_edge2_Node000002_Node000003"><a xlink:title=" ">
<path fill="none" stroke="#63b8ff" d="M160.08,-219.75C152.22,-212.03 140.57,-200.6 131.08,-191.28"/>
<polygon fill="#63b8ff" stroke="#63b8ff" points="133.34,-188.6 123.75,-184.09 128.44,-193.59 133.34,-188.6"/>
</a>
</g>
</g>
<!-- Node4 -->
<g id="Node000004" class="node">
<title>Node4</title>
<g id="a_Node000004"><a xlink:href="ADisplayModule_8hpp.html" target="_top" xlink:title="Declares the abstract base class for display modules in the Arcade project.">
<polygon fill="white" stroke="#666666" points="281.5,-184 164.5,-184 164.5,-165 281.5,-165 281.5,-184"/>
<text text-anchor="middle" x="223" y="-172" font-family="Helvetica,sans-Serif" font-size="10.00">ADisplayModule.hpp</text>
</a>
</g>
</g>
<!-- Node2&#45;&gt;Node4 -->
<g id="edge3_Node000002_Node000004" class="edge">
<title>Node2&#45;&gt;Node4</title>
<g id="a_edge3_Node000002_Node000004"><a xlink:title=" ">
<path fill="none" stroke="#63b8ff" d="M177.92,-219.75C185.78,-212.03 197.43,-200.6 206.92,-191.28"/>
<polygon fill="#63b8ff" stroke="#63b8ff" points="209.56,-193.59 214.25,-184.09 204.66,-188.6 209.56,-193.59"/>
</a>
</g>
</g>
<!-- Node5 -->
<g id="Node000005" class="node">
<title>Node5</title>
<g id="a_Node000005"><a xlink:href="IDisplayModule_8hpp.html" target="_top" xlink:title="Declaration of the graphical display interface.">
<polygon fill="white" stroke="#666666" points="279.5,-129 166.5,-129 166.5,-110 279.5,-110 279.5,-129"/>
<text text-anchor="middle" x="223" y="-117" font-family="Helvetica,sans-Serif" font-size="10.00">IDisplayModule.hpp</text>
</a>
</g>
</g>
<!-- Node4&#45;&gt;Node5 -->
<g id="edge4_Node000004_Node000005" class="edge">
<title>Node4&#45;&gt;Node5</title>
<g id="a_edge4_Node000004_Node000005"><a xlink:title=" ">
<path fill="none" stroke="#63b8ff" d="M223,-164.75C223,-157.8 223,-147.85 223,-139.13"/>
<polygon fill="#63b8ff" stroke="#63b8ff" points="226.5,-139.09 223,-129.09 219.5,-139.09 226.5,-139.09"/>
</a>
</g>
</g>
<!-- Node6 -->
<g id="Node000006" class="node">
<title>Node6</title>
<g id="a_Node000006"><a xlink:href="Types_8hpp.html" target="_top" xlink:title="Defines the core data structures and types used across the Arcade project.">
<polygon fill="white" stroke="#666666" points="158,-74 36,-74 36,-55 158,-55 158,-74"/>
<text text-anchor="middle" x="97" y="-62" font-family="Helvetica,sans-Serif" font-size="10.00">../../include/Types.hpp</text>
</a>
</g>
</g>
<!-- Node5&#45;&gt;Node6 -->
<g id="edge5_Node000005_Node000006" class="edge">
<title>Node5&#45;&gt;Node6</title>
<g id="a_edge5_Node000005_Node000006"><a xlink:title=" ">
<path fill="none" stroke="#63b8ff" d="M202.76,-109.98C182.3,-101.38 150.47,-87.99 127.07,-78.15"/>
<polygon fill="#63b8ff" stroke="#63b8ff" points="128.19,-74.82 117.61,-74.17 125.47,-81.27 128.19,-74.82"/>
</a>
</g>
</g>
<!-- Node9 -->
<g id="Node000009" class="node">
<title>Node9</title>
<g id="a_Node000009"><a xlink:title=" ">
<polygon fill="#e0e0e0" stroke="#999999" points="204,-19 160,-19 160,0 204,0 204,-19"/>
<text text-anchor="middle" x="182" y="-7" font-family="Helvetica,sans-Serif" font-size="10.00">string</text>
</a>
</g>
</g>
<!-- Node5&#45;&gt;Node9 -->
<g id="edge9_Node000005_Node000009" class="edge">
<title>Node5&#45;&gt;Node9</title>
<g id="a_edge9_Node000005_Node000009"><a xlink:title=" ">
<path fill="none" stroke="#63b8ff" d="M219.73,-109.97C216.3,-101.02 210.76,-86.52 206,-74 200.18,-58.68 193.6,-41.27 188.8,-28.55"/>
<polygon fill="#63b8ff" stroke="#63b8ff" points="192.05,-27.25 185.25,-19.13 185.5,-29.72 192.05,-27.25"/>
</a>
</g>
</g>
<!-- Node10 -->
<g id="Node000010" class="node">
<title>Node10</title>
<g id="a_Node000010"><a xlink:title=" ">
<polygon fill="#e0e0e0" stroke="#999999" points="307.5,-74 214.5,-74 214.5,-55 307.5,-55 307.5,-74"/>
<text text-anchor="middle" x="261" y="-62" font-family="Helvetica,sans-Serif" font-size="10.00">unordered_map</text>
</a>
</g>
</g>
<!-- Node5&#45;&gt;Node10 -->
<g id="edge10_Node000005_Node000010" class="edge">
<title>Node5&#45;&gt;Node10</title>
<g id="a_edge10_Node000005_Node000010"><a xlink:title=" ">
<path fill="none" stroke="#63b8ff" d="M229.27,-109.75C234.59,-102.34 242.36,-91.5 248.88,-82.41"/>
<polygon fill="#63b8ff" stroke="#63b8ff" points="251.86,-84.26 254.84,-74.09 246.17,-80.18 251.86,-84.26"/>
</a>
</g>
</g>
<!-- Node11 -->
<g id="Node000011" class="node">
<title>Node11</title>
<g id="a_Node000011"><a xlink:title=" ">
<polygon fill="#e0e0e0" stroke="#999999" points="372.5,-74 325.5,-74 325.5,-55 372.5,-55 372.5,-74"/>
<text text-anchor="middle" x="349" y="-62" font-family="Helvetica,sans-Serif" font-size="10.00">vector</text>
</a>
</g>
</g>
<!-- Node5&#45;&gt;Node11 -->
<g id="edge11_Node000005_Node000011" class="edge">
<title>Node5&#45;&gt;Node11</title>
<g id="a_edge11_Node000005_Node000011"><a xlink:title=" ">
<path fill="none" stroke="#63b8ff" d="M243.24,-109.98C263.7,-101.38 295.53,-87.99 318.93,-78.15"/>
<polygon fill="#63b8ff" stroke="#63b8ff" points="320.53,-81.27 328.39,-74.17 317.81,-74.82 320.53,-81.27"/>
</a>
</g>
</g>
<!-- Node7 -->
<g id="Node000007" class="node">
<title>Node7</title>
<g id="a_Node000007"><a xlink:title=" ">
<polygon fill="#e0e0e0" stroke="#999999" points="50,-19 0,-19 0,0 50,0 50,-19"/>
<text text-anchor="middle" x="25" y="-7" font-family="Helvetica,sans-Serif" font-size="10.00">cstdint</text>
</a>
</g>
</g>
<!-- Node6&#45;&gt;Node7 -->
<g id="edge6_Node000006_Node000007" class="edge">
<title>Node6&#45;&gt;Node7</title>
<g id="a_edge6_Node000006_Node000007"><a xlink:title=" ">
<path fill="none" stroke="#63b8ff" d="M85.43,-54.98C74.58,-47 58.12,-34.88 45.12,-25.31"/>
<polygon fill="#63b8ff" stroke="#63b8ff" points="46.91,-22.28 36.78,-19.17 42.76,-27.92 46.91,-22.28"/>
</a>
</g>
</g>
<!-- Node8 -->
<g id="Node000008" class="node">
<title>Node8</title>
<g id="a_Node000008"><a xlink:title=" ">
<polygon fill="#e0e0e0" stroke="#999999" points="133.5,-19 68.5,-19 68.5,0 133.5,0 133.5,-19"/>
<text text-anchor="middle" x="101" y="-7" font-family="Helvetica,sans-Serif" font-size="10.00">functional</text>
</a>
</g>
</g>
<!-- Node6&#45;&gt;Node8 -->
<g id="edge7_Node000006_Node000008" class="edge">
<title>Node6&#45;&gt;Node8</title>
<g id="a_edge7_Node000006_Node000008"><a xlink:title=" ">
<path fill="none" stroke="#63b8ff" d="M97.66,-54.75C98.18,-47.8 98.94,-37.85 99.59,-29.13"/>
<polygon fill="#63b8ff" stroke="#63b8ff" points="103.09,-29.32 100.35,-19.09 96.11,-28.8 103.09,-29.32"/>
</a>
</g>
</g>
<!-- Node6&#45;&gt;Node9 -->
<g id="edge8_Node000006_Node000009" class="edge">
<title>Node6&#45;&gt;Node9</title>
<g id="a_edge8_Node000006_Node000009"><a xlink:title=" ">
<path fill="none" stroke="#63b8ff" d="M110.66,-54.98C123.84,-46.77 144.03,-34.18 159.57,-24.49"/>
<polygon fill="#63b8ff" stroke="#63b8ff" points="161.46,-27.43 168.09,-19.17 157.76,-21.49 161.46,-27.43"/>
</a>
</g>
</g>
</g>
</svg>
