<?xml version="1.0" encoding="UTF-8" standalone="no"?>
<!DOCTYPE svg PUBLIC "-//W3C//DTD SVG 1.1//EN"
 "http://www.w3.org/Graphics/SVG/1.1/DTD/svg11.dtd">
<!-- Generated by graphviz version 2.43.0 (0)
 -->
<!-- Title: src/Games/Pacman/PacmanGame.hpp Pages: 1 -->
<svg width="848pt" height="302pt"
 viewBox="0.00 0.00 848.45 302.00" xmlns="http://www.w3.org/2000/svg" xmlns:xlink="http://www.w3.org/1999/xlink">
<g id="graph0" class="graph" transform="scale(1 1) rotate(0) translate(4 298)">
<title>src/Games/Pacman/PacmanGame.hpp</title>
<!-- Node1 -->
<g id="Node000001" class="node">
<title>Node1</title>
<g id="a_Node000001"><a xlink:title="Main file of the Pacman game.">
<polygon fill="#999999" stroke="#666666" points="510.45,-294 309.45,-294 309.45,-275 510.45,-275 510.45,-294"/>
<text text-anchor="middle" x="409.95" y="-282" font-family="Helvetica,sans-Serif" font-size="10.00">src/Games/Pacman/PacmanGame.hpp</text>
</a>
</g>
</g>
<!-- Node2 -->
<g id="Node000002" class="node">
<title>Node2</title>
<g id="a_Node000002"><a xlink:href="AGame_8hpp.html" target="_top" xlink:title="Declares the abstract base class for all Arcade games.">
<polygon fill="white" stroke="#666666" points="140.45,-184 57.45,-184 57.45,-165 140.45,-165 140.45,-184"/>
<text text-anchor="middle" x="98.95" y="-172" font-family="Helvetica,sans-Serif" font-size="10.00">../AGame.hpp</text>
</a>
</g>
</g>
<!-- Node1&#45;&gt;Node2 -->
<g id="edge1_Node000001_Node000002" class="edge">
<title>Node1&#45;&gt;Node2</title>
<g id="a_edge1_Node000001_Node000002"><a xlink:title=" ">
<path fill="none" stroke="#63b8ff" d="M326.62,-274.98C263.84,-267.46 183.82,-255.16 154.95,-239 135.38,-228.04 119.24,-207.59 109.4,-192.85"/>
<polygon fill="#63b8ff" stroke="#63b8ff" points="112.19,-190.71 103.87,-184.15 106.28,-194.47 112.19,-190.71"/>
</a>
</g>
</g>
<!-- Node10 -->
<g id="Node000010" class="node">
<title>Node10</title>
<g id="a_Node000010"><a xlink:href="includes_8hpp.html" target="_top" xlink:title="Defines the specials structures and types used by the Pacman game.">
<polygon fill="white" stroke="#666666" points="289.95,-129 211.95,-129 211.95,-110 289.95,-110 289.95,-129"/>
<text text-anchor="middle" x="250.95" y="-117" font-family="Helvetica,sans-Serif" font-size="10.00">includes.hpp</text>
</a>
</g>
</g>
<!-- Node1&#45;&gt;Node10 -->
<g id="edge10_Node000001_Node000010" class="edge">
<title>Node1&#45;&gt;Node10</title>
<g id="a_edge10_Node000001_Node000010"><a xlink:title=" ">
<path fill="none" stroke="#63b8ff" d="M309.35,-276.36C277.64,-270.09 244.1,-258.87 217.95,-239 189.69,-217.53 171.62,-196.51 187.95,-165 194.98,-151.41 208.29,-141.09 220.87,-133.82"/>
<polygon fill="#63b8ff" stroke="#63b8ff" points="222.61,-136.86 229.8,-129.07 219.33,-130.68 222.61,-136.86"/>
</a>
</g>
</g>
<!-- Node11 -->
<g id="Node000011" class="node">
<title>Node11</title>
<g id="a_Node000011"><a xlink:href="Player_8hpp.html" target="_top" xlink:title="Contains methods that define possible player behaviors.">
<polygon fill="white" stroke="#666666" points="304.45,-184 197.45,-184 197.45,-165 304.45,-165 304.45,-184"/>
<text text-anchor="middle" x="250.95" y="-172" font-family="Helvetica,sans-Serif" font-size="10.00">Entities/Player.hpp</text>
</a>
</g>
</g>
<!-- Node1&#45;&gt;Node11 -->
<g id="edge12_Node000001_Node000011" class="edge">
<title>Node1&#45;&gt;Node11</title>
<g id="a_edge12_Node000001_Node000011"><a xlink:title=" ">
<path fill="none" stroke="#63b8ff" d="M336.17,-274.99C291.21,-268.11 239.82,-256.63 225.95,-239 215.01,-225.1 225.33,-205.82 235.84,-192.15"/>
<polygon fill="#63b8ff" stroke="#63b8ff" points="238.83,-194.03 242.55,-184.1 233.45,-189.55 238.83,-194.03"/>
</a>
</g>
</g>
<!-- Node12 -->
<g id="Node000012" class="node">
<title>Node12</title>
<g id="a_Node000012"><a xlink:href="Blinky_8hpp.html" target="_top" xlink:title="Implements the Blinky class, which inherits directly from the ghost class.">
<polygon fill="white" stroke="#666666" points="340.95,-239 234.95,-239 234.95,-220 340.95,-220 340.95,-239"/>
<text text-anchor="middle" x="287.95" y="-227" font-family="Helvetica,sans-Serif" font-size="10.00">Entities/Blinky.hpp</text>
</a>
</g>
</g>
<!-- Node1&#45;&gt;Node12 -->
<g id="edge14_Node000001_Node000012" class="edge">
<title>Node1&#45;&gt;Node12</title>
<g id="a_edge14_Node000001_Node000012"><a xlink:title=" ">
<path fill="none" stroke="#63b8ff" d="M390.35,-274.98C370.63,-266.42 339.99,-253.11 317.36,-243.28"/>
<polygon fill="#63b8ff" stroke="#63b8ff" points="318.47,-239.94 307.91,-239.17 315.68,-246.37 318.47,-239.94"/>
</a>
</g>
</g>
<!-- Node15 -->
<g id="Node000015" class="node">
<title>Node15</title>
<g id="a_Node000015"><a xlink:href="Pinky_8hpp.html" target="_top" xlink:title="Implements the Pinky class, which inherits directly from the ghost class.">
<polygon fill="white" stroke="#666666" points="460.95,-239 358.95,-239 358.95,-220 460.95,-220 460.95,-239"/>
<text text-anchor="middle" x="409.95" y="-227" font-family="Helvetica,sans-Serif" font-size="10.00">Entities/Pinky.hpp</text>
</a>
</g>
</g>
<!-- Node1&#45;&gt;Node15 -->
<g id="edge18_Node000001_Node000015" class="edge">
<title>Node1&#45;&gt;Node15</title>
<g id="a_edge18_Node000001_Node000015"><a xlink:title=" ">
<path fill="none" stroke="#63b8ff" d="M409.95,-274.75C409.95,-267.8 409.95,-257.85 409.95,-249.13"/>
<polygon fill="#63b8ff" stroke="#63b8ff" points="413.45,-249.09 409.95,-239.09 406.45,-249.09 413.45,-249.09"/>
</a>
</g>
</g>
<!-- Node16 -->
<g id="Node000016" class="node">
<title>Node16</title>
<g id="a_Node000016"><a xlink:href="Inky_8hpp.html" target="_top" xlink:title="Implements the Inky class, which inherits directly from the ghost class.">
<polygon fill="white" stroke="#666666" points="574.95,-239 478.95,-239 478.95,-220 574.95,-220 574.95,-239"/>
<text text-anchor="middle" x="526.95" y="-227" font-family="Helvetica,sans-Serif" font-size="10.00">Entities/Inky.hpp</text>
</a>
</g>
</g>
<!-- Node1&#45;&gt;Node16 -->
<g id="edge20_Node000001_Node000016" class="edge">
<title>Node1&#45;&gt;Node16</title>
<g id="a_edge20_Node000001_Node000016"><a xlink:title=" ">
<path fill="none" stroke="#63b8ff" d="M428.75,-274.98C447.57,-266.46 476.77,-253.23 498.44,-243.41"/>
<polygon fill="#63b8ff" stroke="#63b8ff" points="500.14,-246.48 507.81,-239.17 497.25,-240.11 500.14,-246.48"/>
</a>
</g>
</g>
<!-- Node17 -->
<g id="Node000017" class="node">
<title>Node17</title>
<g id="a_Node000017"><a xlink:href="Clyde_8hpp.html" target="_top" xlink:title="Implements the Clyde class, which inherits directly from the ghost class.">
<polygon fill="white" stroke="#666666" points="698.45,-239 593.45,-239 593.45,-220 698.45,-220 698.45,-239"/>
<text text-anchor="middle" x="645.95" y="-227" font-family="Helvetica,sans-Serif" font-size="10.00">Entities/Clyde.hpp</text>
</a>
</g>
</g>
<!-- Node1&#45;&gt;Node17 -->
<g id="edge22_Node000001_Node000017" class="edge">
<title>Node1&#45;&gt;Node17</title>
<g id="a_edge22_Node000001_Node000017"><a xlink:title=" ">
<path fill="none" stroke="#63b8ff" d="M447.86,-274.98C488.6,-265.84 553.45,-251.27 597.77,-241.32"/>
<polygon fill="#63b8ff" stroke="#63b8ff" points="598.74,-244.69 607.73,-239.08 597.21,-237.86 598.74,-244.69"/>
</a>
</g>
</g>
<!-- Node18 -->
<g id="Node000018" class="node">
<title>Node18</title>
<g id="a_Node000018"><a xlink:title=" ">
<polygon fill="#e0e0e0" stroke="#999999" points="766.95,-239 716.95,-239 716.95,-220 766.95,-220 766.95,-239"/>
<text text-anchor="middle" x="741.95" y="-227" font-family="Helvetica,sans-Serif" font-size="10.00">cstring</text>
</a>
</g>
</g>
<!-- Node1&#45;&gt;Node18 -->
<g id="edge24_Node000001_Node000018" class="edge">
<title>Node1&#45;&gt;Node18</title>
<g id="a_edge24_Node000001_Node000018"><a xlink:title=" ">
<path fill="none" stroke="#63b8ff" d="M480.12,-274.97C538.41,-267.44 623.69,-255.39 706.89,-239.05"/>
<polygon fill="#63b8ff" stroke="#63b8ff" points="707.63,-242.47 716.76,-237.09 706.27,-235.6 707.63,-242.47"/>
</a>
</g>
</g>
<!-- Node19 -->
<g id="Node000019" class="node">
<title>Node19</title>
<g id="a_Node000019"><a xlink:title=" ">
<polygon fill="#e0e0e0" stroke="#999999" points="840.45,-239 785.45,-239 785.45,-220 840.45,-220 840.45,-239"/>
<text text-anchor="middle" x="812.95" y="-227" font-family="Helvetica,sans-Serif" font-size="10.00">fstream</text>
</a>
</g>
</g>
<!-- Node1&#45;&gt;Node19 -->
<g id="edge25_Node000001_Node000019" class="edge">
<title>Node1&#45;&gt;Node19</title>
<g id="a_edge25_Node000001_Node000019"><a xlink:title=" ">
<path fill="none" stroke="#63b8ff" d="M502.09,-275C573.95,-267.74 676.41,-256.02 775.27,-238.94"/>
<polygon fill="#63b8ff" stroke="#63b8ff" points="775.88,-242.39 785.13,-237.22 774.68,-235.49 775.88,-242.39"/>
</a>
</g>
</g>
<!-- Node3 -->
<g id="Node000003" class="node">
<title>Node3</title>
<g id="a_Node000003"><a xlink:href="IGame_8hpp.html" target="_top" xlink:title="Declaration of the game interface class.">
<polygon fill="white" stroke="#666666" points="133.95,-129 63.95,-129 63.95,-110 133.95,-110 133.95,-129"/>
<text text-anchor="middle" x="98.95" y="-117" font-family="Helvetica,sans-Serif" font-size="10.00">IGame.hpp</text>
</a>
</g>
</g>
<!-- Node2&#45;&gt;Node3 -->
<g id="edge2_Node000002_Node000003" class="edge">
<title>Node2&#45;&gt;Node3</title>
<g id="a_edge2_Node000002_Node000003"><a xlink:title=" ">
<path fill="none" stroke="#63b8ff" d="M98.95,-164.75C98.95,-157.8 98.95,-147.85 98.95,-139.13"/>
<polygon fill="#63b8ff" stroke="#63b8ff" points="102.45,-139.09 98.95,-129.09 95.45,-139.09 102.45,-139.09"/>
</a>
</g>
</g>
<!-- Node4 -->
<g id="Node000004" class="node">
<title>Node4</title>
<g id="a_Node000004"><a xlink:title=" ">
<polygon fill="#e0e0e0" stroke="#999999" points="107.95,-19 63.95,-19 63.95,0 107.95,0 107.95,-19"/>
<text text-anchor="middle" x="85.95" y="-7" font-family="Helvetica,sans-Serif" font-size="10.00">string</text>
</a>
</g>
</g>
<!-- Node3&#45;&gt;Node4 -->
<g id="edge3_Node000003_Node000004" class="edge">
<title>Node3&#45;&gt;Node4</title>
<g id="a_edge3_Node000003_Node000004"><a xlink:title=" ">
<path fill="none" stroke="#63b8ff" d="M63.71,-111.85C42.46,-105.82 17.04,-94.59 3.95,-74 -11.63,-49.5 24.96,-30.67 54.17,-20.08"/>
<polygon fill="#63b8ff" stroke="#63b8ff" points="55.38,-23.37 63.71,-16.82 53.12,-16.75 55.38,-23.37"/>
</a>
</g>
</g>
<!-- Node5 -->
<g id="Node000005" class="node">
<title>Node5</title>
<g id="a_Node000005"><a xlink:title=" ">
<polygon fill="#e0e0e0" stroke="#999999" points="60.45,-74 13.45,-74 13.45,-55 60.45,-55 60.45,-74"/>
<text text-anchor="middle" x="36.95" y="-62" font-family="Helvetica,sans-Serif" font-size="10.00">vector</text>
</a>
</g>
</g>
<!-- Node3&#45;&gt;Node5 -->
<g id="edge4_Node000003_Node000005" class="edge">
<title>Node3&#45;&gt;Node5</title>
<g id="a_edge4_Node000003_Node000005"><a xlink:title=" ">
<path fill="none" stroke="#63b8ff" d="M88.99,-109.98C79.82,-102.15 66.01,-90.34 54.92,-80.86"/>
<polygon fill="#63b8ff" stroke="#63b8ff" points="56.97,-78.01 47.09,-74.17 52.42,-83.33 56.97,-78.01"/>
</a>
</g>
</g>
<!-- Node6 -->
<g id="Node000006" class="node">
<title>Node6</title>
<g id="a_Node000006"><a xlink:title=" ">
<polygon fill="#e0e0e0" stroke="#999999" points="171.45,-74 78.45,-74 78.45,-55 171.45,-55 171.45,-74"/>
<text text-anchor="middle" x="124.95" y="-62" font-family="Helvetica,sans-Serif" font-size="10.00">unordered_map</text>
</a>
</g>
</g>
<!-- Node3&#45;&gt;Node6 -->
<g id="edge5_Node000003_Node000006" class="edge">
<title>Node3&#45;&gt;Node6</title>
<g id="a_edge5_Node000003_Node000006"><a xlink:title=" ">
<path fill="none" stroke="#63b8ff" d="M103.24,-109.75C106.76,-102.57 111.86,-92.18 116.23,-83.27"/>
<polygon fill="#63b8ff" stroke="#63b8ff" points="119.47,-84.61 120.73,-74.09 113.19,-81.53 119.47,-84.61"/>
</a>
</g>
</g>
<!-- Node7 -->
<g id="Node000007" class="node">
<title>Node7</title>
<g id="a_Node000007"><a xlink:href="Types_8hpp.html" target="_top" xlink:title="Defines the core data structures and types used across the Arcade project.">
<polygon fill="white" stroke="#666666" points="311.95,-74 189.95,-74 189.95,-55 311.95,-55 311.95,-74"/>
<text text-anchor="middle" x="250.95" y="-62" font-family="Helvetica,sans-Serif" font-size="10.00">../../include/Types.hpp</text>
</a>
</g>
</g>
<!-- Node3&#45;&gt;Node7 -->
<g id="edge6_Node000003_Node000007" class="edge">
<title>Node3&#45;&gt;Node7</title>
<g id="a_edge6_Node000003_Node000007"><a xlink:title=" ">
<path fill="none" stroke="#63b8ff" d="M123.37,-109.98C148.67,-101.16 188.4,-87.31 216.8,-77.41"/>
<polygon fill="#63b8ff" stroke="#63b8ff" points="218.04,-80.68 226.33,-74.08 215.74,-74.07 218.04,-80.68"/>
</a>
</g>
</g>
<!-- Node7&#45;&gt;Node4 -->
<g id="edge9_Node000007_Node000004" class="edge">
<title>Node7&#45;&gt;Node4</title>
<g id="a_edge9_Node000007_Node000004"><a xlink:title=" ">
<path fill="none" stroke="#63b8ff" d="M224.44,-54.98C195.46,-45.68 149.05,-30.77 118.04,-20.81"/>
<polygon fill="#63b8ff" stroke="#63b8ff" points="118.75,-17.36 108.16,-17.63 116.61,-24.03 118.75,-17.36"/>
</a>
</g>
</g>
<!-- Node8 -->
<g id="Node000008" class="node">
<title>Node8</title>
<g id="a_Node000008"><a xlink:title=" ">
<polygon fill="#e0e0e0" stroke="#999999" points="237.95,-19 187.95,-19 187.95,0 237.95,0 237.95,-19"/>
<text text-anchor="middle" x="212.95" y="-7" font-family="Helvetica,sans-Serif" font-size="10.00">cstdint</text>
</a>
</g>
</g>
<!-- Node7&#45;&gt;Node8 -->
<g id="edge7_Node000007_Node000008" class="edge">
<title>Node7&#45;&gt;Node8</title>
<g id="a_edge7_Node000007_Node000008"><a xlink:title=" ">
<path fill="none" stroke="#63b8ff" d="M244.67,-54.75C239.36,-47.34 231.59,-36.5 225.07,-27.41"/>
<polygon fill="#63b8ff" stroke="#63b8ff" points="227.78,-25.18 219.11,-19.09 222.09,-29.26 227.78,-25.18"/>
</a>
</g>
</g>
<!-- Node9 -->
<g id="Node000009" class="node">
<title>Node9</title>
<g id="a_Node000009"><a xlink:title=" ">
<polygon fill="#e0e0e0" stroke="#999999" points="321.45,-19 256.45,-19 256.45,0 321.45,0 321.45,-19"/>
<text text-anchor="middle" x="288.95" y="-7" font-family="Helvetica,sans-Serif" font-size="10.00">functional</text>
</a>
</g>
</g>
<!-- Node7&#45;&gt;Node9 -->
<g id="edge8_Node000007_Node000009" class="edge">
<title>Node7&#45;&gt;Node9</title>
<g id="a_edge8_Node000007_Node000009"><a xlink:title=" ">
<path fill="none" stroke="#63b8ff" d="M257.22,-54.75C262.53,-47.34 270.3,-36.5 276.82,-27.41"/>
<polygon fill="#63b8ff" stroke="#63b8ff" points="279.81,-29.26 282.79,-19.09 274.12,-25.18 279.81,-29.26"/>
</a>
</g>
</g>
<!-- Node10&#45;&gt;Node7 -->
<g id="edge11_Node000010_Node000007" class="edge">
<title>Node10&#45;&gt;Node7</title>
<g id="a_edge11_Node000010_Node000007"><a xlink:title=" ">
<path fill="none" stroke="#63b8ff" d="M250.95,-109.75C250.95,-102.8 250.95,-92.85 250.95,-84.13"/>
<polygon fill="#63b8ff" stroke="#63b8ff" points="254.45,-84.09 250.95,-74.09 247.45,-84.09 254.45,-84.09"/>
</a>
</g>
</g>
<!-- Node11&#45;&gt;Node10 -->
<g id="edge13_Node000011_Node000010" class="edge">
<title>Node11&#45;&gt;Node10</title>
<g id="a_edge13_Node000011_Node000010"><a xlink:title=" ">
<path fill="none" stroke="#63b8ff" d="M250.95,-164.75C250.95,-157.8 250.95,-147.85 250.95,-139.13"/>
<polygon fill="#63b8ff" stroke="#63b8ff" points="254.45,-139.09 250.95,-129.09 247.45,-139.09 254.45,-139.09"/>
</a>
</g>
</g>
<!-- Node13 -->
<g id="Node000013" class="node">
<title>Node13</title>
<g id="a_Node000013"><a xlink:href="Ghost_8hpp.html" target="_top" xlink:title="Contains the behavior of the ghosts.">
<polygon fill="white" stroke="#666666" points="442.95,-184 376.95,-184 376.95,-165 442.95,-165 442.95,-184"/>
<text text-anchor="middle" x="409.95" y="-172" font-family="Helvetica,sans-Serif" font-size="10.00">Ghost.hpp</text>
</a>
</g>
</g>
<!-- Node12&#45;&gt;Node13 -->
<g id="edge15_Node000012_Node000013" class="edge">
<title>Node12&#45;&gt;Node13</title>
<g id="a_edge15_Node000012_Node000013"><a xlink:title=" ">
<path fill="none" stroke="#63b8ff" d="M307.55,-219.98C327.26,-211.42 357.9,-198.11 380.53,-188.28"/>
<polygon fill="#63b8ff" stroke="#63b8ff" points="382.21,-191.37 389.99,-184.17 379.42,-184.94 382.21,-191.37"/>
</a>
</g>
</g>
<!-- Node13&#45;&gt;Node10 -->
<g id="edge16_Node000013_Node000010" class="edge">
<title>Node13&#45;&gt;Node10</title>
<g id="a_edge16_Node000013_Node000010"><a xlink:title=" ">
<path fill="none" stroke="#63b8ff" d="M384.4,-164.98C357.82,-156.13 316.01,-142.19 286.27,-132.28"/>
<polygon fill="#63b8ff" stroke="#63b8ff" points="287.29,-128.92 276.69,-129.08 285.07,-135.56 287.29,-128.92"/>
</a>
</g>
</g>
<!-- Node14 -->
<g id="Node000014" class="node">
<title>Node14</title>
<g id="a_Node000014"><a xlink:title=" ">
<polygon fill="#e0e0e0" stroke="#999999" points="433.45,-129 386.45,-129 386.45,-110 433.45,-110 433.45,-129"/>
<text text-anchor="middle" x="409.95" y="-117" font-family="Helvetica,sans-Serif" font-size="10.00">cmath</text>
</a>
</g>
</g>
<!-- Node13&#45;&gt;Node14 -->
<g id="edge17_Node000013_Node000014" class="edge">
<title>Node13&#45;&gt;Node14</title>
<g id="a_edge17_Node000013_Node000014"><a xlink:title=" ">
<path fill="none" stroke="#63b8ff" d="M409.95,-164.75C409.95,-157.8 409.95,-147.85 409.95,-139.13"/>
<polygon fill="#63b8ff" stroke="#63b8ff" points="413.45,-139.09 409.95,-129.09 406.45,-139.09 413.45,-139.09"/>
</a>
</g>
</g>
<!-- Node15&#45;&gt;Node13 -->
<g id="edge19_Node000015_Node000013" class="edge">
<title>Node15&#45;&gt;Node13</title>
<g id="a_edge19_Node000015_Node000013"><a xlink:title=" ">
<path fill="none" stroke="#63b8ff" d="M409.95,-219.75C409.95,-212.8 409.95,-202.85 409.95,-194.13"/>
<polygon fill="#63b8ff" stroke="#63b8ff" points="413.45,-194.09 409.95,-184.09 406.45,-194.09 413.45,-194.09"/>
</a>
</g>
</g>
<!-- Node16&#45;&gt;Node13 -->
<g id="edge21_Node000016_Node000013" class="edge">
<title>Node16&#45;&gt;Node13</title>
<g id="a_edge21_Node000016_Node000013"><a xlink:title=" ">
<path fill="none" stroke="#63b8ff" d="M508.15,-219.98C489.33,-211.46 460.12,-198.23 438.45,-188.41"/>
<polygon fill="#63b8ff" stroke="#63b8ff" points="439.64,-185.11 429.09,-184.17 436.75,-191.48 439.64,-185.11"/>
</a>
</g>
</g>
<!-- Node17&#45;&gt;Node13 -->
<g id="edge23_Node000017_Node000013" class="edge">
<title>Node17&#45;&gt;Node13</title>
<g id="a_edge23_Node000017_Node000013"><a xlink:title=" ">
<path fill="none" stroke="#63b8ff" d="M608.03,-219.98C565.72,-210.48 497.41,-195.14 453.09,-185.19"/>
<polygon fill="#63b8ff" stroke="#63b8ff" points="453.72,-181.74 443.19,-182.97 452.18,-188.57 453.72,-181.74"/>
</a>
</g>
</g>
</g>
</svg>
