<?xml version="1.0" encoding="UTF-8" standalone="no"?>
<!DOCTYPE svg PUBLIC "-//W3C//DTD SVG 1.1//EN"
 "http://www.w3.org/Graphics/SVG/1.1/DTD/svg11.dtd">
<!-- Generated by graphviz version 2.43.0 (0)
 -->
<!-- Title: src/Games/Pacman/PacmanFactory.cpp Pages: 1 -->
<svg width="2958pt" height="368pt"
 viewBox="0.00 0.00 2957.95 368.00" xmlns="http://www.w3.org/2000/svg" xmlns:xlink="http://www.w3.org/1999/xlink">
<g id="graph0" class="graph" transform="scale(1 1) rotate(0) translate(4 364)">
<title>src/Games/Pacman/PacmanFactory.cpp</title>
<!-- Node1 -->
<g id="Node000001" class="node">
<title>Node1</title>
<g id="a_Node000001"><a xlink:title="Factory functions to create and destroy the Pacman game instance.">
<polygon fill="#999999" stroke="#666666" points="1754.45,-360 1549.45,-360 1549.45,-341 1754.45,-341 1754.45,-360"/>
<text text-anchor="middle" x="1651.95" y="-348" font-family="Helvetica,sans-Serif" font-size="10.00">src/Games/Pacman/PacmanFactory.cpp</text>
</a>
</g>
</g>
<!-- Node2 -->
<g id="Node000002" class="node">
<title>Node2</title>
<g id="a_Node000002"><a xlink:href="PacmanGame_8hpp.html" target="_top" xlink:title="Main file of the Pacman game.">
<polygon fill="white" stroke="#666666" points="462.45,-299.5 357.45,-299.5 357.45,-280.5 462.45,-280.5 462.45,-299.5"/>
<text text-anchor="middle" x="409.95" y="-287.5" font-family="Helvetica,sans-Serif" font-size="10.00">PacmanGame.hpp</text>
</a>
</g>
</g>
<!-- Node1&#45;&gt;Node2 -->
<g id="edge1_Node000001_Node000002" class="edge">
<title>Node1&#45;&gt;Node2</title>
<g id="a_edge1_Node000001_Node000002"><a xlink:title=" ">
<path fill="none" stroke="#63b8ff" d="M1549.06,-348.05C1301.66,-344.19 678.66,-332 471.95,-305 465.63,-304.17 459,-303.01 452.54,-301.7"/>
<polygon fill="#63b8ff" stroke="#63b8ff" points="453.08,-298.24 442.56,-299.55 451.6,-305.08 453.08,-298.24"/>
</a>
</g>
</g>
<!-- Node21 -->
<g id="Node000021" class="node">
<title>Node21</title>
<g id="a_Node000021"><a xlink:href="green__bottom_8hpp.html" target="_top" xlink:title="Contains the binary data of a resized PNG image.">
<polygon fill="white" stroke="#666666" points="595.45,-305 480.45,-305 480.45,-275 595.45,-275 595.45,-305"/>
<text text-anchor="start" x="488.45" y="-293" font-family="Helvetica,sans-Serif" font-size="10.00">Assets/ghosts/green</text>
<text text-anchor="middle" x="537.95" y="-282" font-family="Helvetica,sans-Serif" font-size="10.00">_bottom.hpp</text>
</a>
</g>
</g>
<!-- Node1&#45;&gt;Node21 -->
<g id="edge27_Node000001_Node000021" class="edge">
<title>Node1&#45;&gt;Node21</title>
<g id="a_edge27_Node000001_Node000021"><a xlink:title=" ">
<path fill="none" stroke="#63b8ff" d="M1549.06,-347.27C1326.17,-342.1 803.63,-328.02 605.62,-304.88"/>
<polygon fill="#63b8ff" stroke="#63b8ff" points="605.94,-301.4 595.59,-303.67 605.1,-308.35 605.94,-301.4"/>
</a>
</g>
</g>
<!-- Node22 -->
<g id="Node000022" class="node">
<title>Node22</title>
<g id="a_Node000022"><a xlink:href="orange__bottom_8hpp.html" target="_top" xlink:title="Contains the binary data of a resized PNG image.">
<polygon fill="white" stroke="#666666" points="734.45,-305 613.45,-305 613.45,-275 734.45,-275 734.45,-305"/>
<text text-anchor="start" x="621.45" y="-293" font-family="Helvetica,sans-Serif" font-size="10.00">Assets/ghosts/orange</text>
<text text-anchor="middle" x="673.95" y="-282" font-family="Helvetica,sans-Serif" font-size="10.00">_bottom.hpp</text>
</a>
</g>
</g>
<!-- Node1&#45;&gt;Node22 -->
<g id="edge28_Node000001_Node000022" class="edge">
<title>Node1&#45;&gt;Node22</title>
<g id="a_edge28_Node000001_Node000022"><a xlink:title=" ">
<path fill="none" stroke="#63b8ff" d="M1549.39,-349.42C1382.63,-348.19 1042.25,-341.13 744.69,-304.94"/>
<polygon fill="#63b8ff" stroke="#63b8ff" points="744.92,-301.44 734.56,-303.7 744.06,-308.39 744.92,-301.44"/>
</a>
</g>
</g>
<!-- Node23 -->
<g id="Node000023" class="node">
<title>Node23</title>
<g id="a_Node000023"><a xlink:href="pink__bottom_8hpp.html" target="_top" xlink:title="Contains the binary data of a resized PNG image.">
<polygon fill="white" stroke="#666666" points="860.95,-305 752.95,-305 752.95,-275 860.95,-275 860.95,-305"/>
<text text-anchor="start" x="760.95" y="-293" font-family="Helvetica,sans-Serif" font-size="10.00">Assets/ghosts/pink</text>
<text text-anchor="middle" x="806.95" y="-282" font-family="Helvetica,sans-Serif" font-size="10.00">_bottom.hpp</text>
</a>
</g>
</g>
<!-- Node1&#45;&gt;Node23 -->
<g id="edge29_Node000001_Node000023" class="edge">
<title>Node1&#45;&gt;Node23</title>
<g id="a_edge29_Node000001_Node000023"><a xlink:title=" ">
<path fill="none" stroke="#63b8ff" d="M1549.27,-348.94C1401.29,-346.95 1119.45,-338.76 871.08,-304.99"/>
<polygon fill="#63b8ff" stroke="#63b8ff" points="871.53,-301.52 861.14,-303.63 870.57,-308.46 871.53,-301.52"/>
</a>
</g>
</g>
<!-- Node24 -->
<g id="Node000024" class="node">
<title>Node24</title>
<g id="a_Node000024"><a xlink:href="red__bottom_8hpp.html" target="_top" xlink:title="Contains the binary data of a resized PNG image.">
<polygon fill="white" stroke="#666666" points="1042.95,-299.5 878.95,-299.5 878.95,-280.5 1042.95,-280.5 1042.95,-299.5"/>
<text text-anchor="middle" x="960.95" y="-287.5" font-family="Helvetica,sans-Serif" font-size="10.00">Assets/ghosts/red_bottom.hpp</text>
</a>
</g>
</g>
<!-- Node1&#45;&gt;Node24 -->
<g id="edge30_Node000001_Node000024" class="edge">
<title>Node1&#45;&gt;Node24</title>
<g id="a_edge30_Node000001_Node000024"><a xlink:title=" ">
<path fill="none" stroke="#63b8ff" d="M1549.44,-344.29C1429.99,-337.66 1226.77,-324.65 1052.95,-305 1043.07,-303.88 1032.63,-302.5 1022.47,-301.03"/>
<polygon fill="#63b8ff" stroke="#63b8ff" points="1022.84,-297.55 1012.43,-299.55 1021.81,-304.47 1022.84,-297.55"/>
</a>
</g>
</g>
<!-- Node25 -->
<g id="Node000025" class="node">
<title>Node25</title>
<g id="a_Node000025"><a xlink:href="vulnerable__bottom_8hpp.html" target="_top" xlink:title="Contains the binary data of a resized PNG image.">
<polygon fill="white" stroke="#666666" points="1200.45,-305 1061.45,-305 1061.45,-275 1200.45,-275 1200.45,-305"/>
<text text-anchor="start" x="1069.45" y="-293" font-family="Helvetica,sans-Serif" font-size="10.00">Assets/ghosts/vulnerable</text>
<text text-anchor="middle" x="1130.95" y="-282" font-family="Helvetica,sans-Serif" font-size="10.00">_bottom.hpp</text>
</a>
</g>
</g>
<!-- Node1&#45;&gt;Node25 -->
<g id="edge31_Node000001_Node000025" class="edge">
<title>Node1&#45;&gt;Node25</title>
<g id="a_edge31_Node000001_Node000025"><a xlink:title=" ">
<path fill="none" stroke="#63b8ff" d="M1549.42,-341.37C1462.04,-333.94 1332.9,-321.75 1210.61,-305.02"/>
<polygon fill="#63b8ff" stroke="#63b8ff" points="1211.07,-301.55 1200.69,-303.65 1210.12,-308.49 1211.07,-301.55"/>
</a>
</g>
</g>
<!-- Node26 -->
<g id="Node000026" class="node">
<title>Node26</title>
<g id="a_Node000026"><a xlink:href="dead_8hpp.html" target="_top" xlink:title="Contains the binary data of a resized PNG image.">
<polygon fill="white" stroke="#666666" points="1350.95,-299.5 1218.95,-299.5 1218.95,-280.5 1350.95,-280.5 1350.95,-299.5"/>
<text text-anchor="middle" x="1284.95" y="-287.5" font-family="Helvetica,sans-Serif" font-size="10.00">Assets/ghosts/dead.hpp</text>
</a>
</g>
</g>
<!-- Node1&#45;&gt;Node26 -->
<g id="edge32_Node000001_Node000026" class="edge">
<title>Node1&#45;&gt;Node26</title>
<g id="a_edge32_Node000001_Node000026"><a xlink:title=" ">
<path fill="none" stroke="#63b8ff" d="M1592.78,-340.99C1533.93,-332.4 1441.08,-318.5 1360.95,-305 1354.19,-303.86 1347.11,-302.62 1340.09,-301.36"/>
<polygon fill="#63b8ff" stroke="#63b8ff" points="1340.38,-297.86 1329.92,-299.52 1339.13,-304.75 1340.38,-297.86"/>
</a>
</g>
</g>
<!-- Node27 -->
<g id="Node000027" class="node">
<title>Node27</title>
<g id="a_Node000027"><a xlink:href="pacgum_8hpp.html" target="_top" xlink:title="Contains the binary data of a resized PNG image.">
<polygon fill="white" stroke="#666666" points="1506.45,-299.5 1369.45,-299.5 1369.45,-280.5 1506.45,-280.5 1506.45,-299.5"/>
<text text-anchor="middle" x="1437.95" y="-287.5" font-family="Helvetica,sans-Serif" font-size="10.00">Assets/map/pacgum.hpp</text>
</a>
</g>
</g>
<!-- Node1&#45;&gt;Node27 -->
<g id="edge33_Node000001_Node000027" class="edge">
<title>Node1&#45;&gt;Node27</title>
<g id="a_edge33_Node000001_Node000027"><a xlink:title=" ">
<path fill="none" stroke="#63b8ff" d="M1620.83,-340.99C1583.35,-330.75 1520.27,-313.5 1478.87,-302.19"/>
<polygon fill="#63b8ff" stroke="#63b8ff" points="1479.67,-298.78 1469.1,-299.52 1477.83,-305.53 1479.67,-298.78"/>
</a>
</g>
</g>
<!-- Node28 -->
<g id="Node000028" class="node">
<title>Node28</title>
<g id="a_Node000028"><a xlink:href="gum_8hpp.html" target="_top" xlink:title="Contains the binary data of a resized PNG image.">
<polygon fill="white" stroke="#666666" points="1643.45,-299.5 1524.45,-299.5 1524.45,-280.5 1643.45,-280.5 1643.45,-299.5"/>
<text text-anchor="middle" x="1583.95" y="-287.5" font-family="Helvetica,sans-Serif" font-size="10.00">Assets/map/gum.hpp</text>
</a>
</g>
</g>
<!-- Node1&#45;&gt;Node28 -->
<g id="edge34_Node000001_Node000028" class="edge">
<title>Node1&#45;&gt;Node28</title>
<g id="a_edge34_Node000001_Node000028"><a xlink:title=" ">
<path fill="none" stroke="#63b8ff" d="M1641.91,-340.87C1631.37,-331.8 1614.56,-317.34 1601.75,-306.32"/>
<polygon fill="#63b8ff" stroke="#63b8ff" points="1603.89,-303.54 1594.02,-299.67 1599.32,-308.84 1603.89,-303.54"/>
</a>
</g>
</g>
<!-- Node29 -->
<g id="Node000029" class="node">
<title>Node29</title>
<g id="a_Node000029"><a xlink:href="map_8hpp.html" target="_top" xlink:title="Contains the binary data of a resized PNG image.">
<polygon fill="white" stroke="#666666" points="1780.45,-299.5 1661.45,-299.5 1661.45,-280.5 1780.45,-280.5 1780.45,-299.5"/>
<text text-anchor="middle" x="1720.95" y="-287.5" font-family="Helvetica,sans-Serif" font-size="10.00">Assets/map/map.hpp</text>
</a>
</g>
</g>
<!-- Node1&#45;&gt;Node29 -->
<g id="edge35_Node000001_Node000029" class="edge">
<title>Node1&#45;&gt;Node29</title>
<g id="a_edge35_Node000001_Node000029"><a xlink:title=" ">
<path fill="none" stroke="#63b8ff" d="M1662.13,-340.87C1672.83,-331.8 1689.88,-317.34 1702.88,-306.32"/>
<polygon fill="#63b8ff" stroke="#63b8ff" points="1705.36,-308.8 1710.72,-299.67 1700.83,-303.46 1705.36,-308.8"/>
</a>
</g>
</g>
<!-- Node30 -->
<g id="Node000030" class="node">
<title>Node30</title>
<g id="a_Node000030"><a xlink:href="pac__bottom__1_8hpp.html" target="_top" xlink:title="Contains the binary data of a resized PNG image.">
<polygon fill="white" stroke="#666666" points="1928.95,-305 1798.95,-305 1798.95,-275 1928.95,-275 1928.95,-305"/>
<text text-anchor="start" x="1806.95" y="-293" font-family="Helvetica,sans-Serif" font-size="10.00">Assets/pac/pac_bottom</text>
<text text-anchor="middle" x="1863.95" y="-282" font-family="Helvetica,sans-Serif" font-size="10.00">_1.hpp</text>
</a>
</g>
</g>
<!-- Node1&#45;&gt;Node30 -->
<g id="edge36_Node000001_Node000030" class="edge">
<title>Node1&#45;&gt;Node30</title>
<g id="a_edge36_Node000001_Node000030"><a xlink:title=" ">
<path fill="none" stroke="#63b8ff" d="M1682.77,-340.99C1714.22,-332.32 1763.84,-318.62 1803.21,-307.76"/>
<polygon fill="#63b8ff" stroke="#63b8ff" points="1804.27,-311.1 1812.98,-305.06 1802.41,-304.35 1804.27,-311.1"/>
</a>
</g>
</g>
<!-- Node31 -->
<g id="Node000031" class="node">
<title>Node31</title>
<g id="a_Node000031"><a xlink:href="life_8hpp.html" target="_top" xlink:title="Contains the binary data of a resized PNG image.">
<polygon fill="white" stroke="#666666" points="2036.45,-299.5 1947.45,-299.5 1947.45,-280.5 2036.45,-280.5 2036.45,-299.5"/>
<text text-anchor="middle" x="1991.95" y="-287.5" font-family="Helvetica,sans-Serif" font-size="10.00">Assets/life.hpp</text>
</a>
</g>
</g>
<!-- Node1&#45;&gt;Node31 -->
<g id="edge37_Node000001_Node000031" class="edge">
<title>Node1&#45;&gt;Node31</title>
<g id="a_edge37_Node000001_Node000031"><a xlink:title=" ">
<path fill="none" stroke="#63b8ff" d="M1719.03,-340.98C1777.21,-333.14 1863.52,-320.4 1937.95,-305 1942.33,-304.09 1946.9,-303.06 1951.43,-301.97"/>
<polygon fill="#63b8ff" stroke="#63b8ff" points="1952.37,-305.34 1961.23,-299.53 1950.68,-298.55 1952.37,-305.34"/>
</a>
</g>
</g>
<!-- Node32 -->
<g id="Node000032" class="node">
<title>Node32</title>
<g id="a_Node000032"><a xlink:href="apple_8hpp.html" target="_top" xlink:title="Contains the binary data of a resized PNG image.">
<polygon fill="white" stroke="#666666" points="2182.95,-299.5 2054.95,-299.5 2054.95,-280.5 2182.95,-280.5 2182.95,-299.5"/>
<text text-anchor="middle" x="2118.95" y="-287.5" font-family="Helvetica,sans-Serif" font-size="10.00">Assets/fruits/apple.hpp</text>
</a>
</g>
</g>
<!-- Node1&#45;&gt;Node32 -->
<g id="edge38_Node000001_Node000032" class="edge">
<title>Node1&#45;&gt;Node32</title>
<g id="a_edge38_Node000001_Node000032"><a xlink:title=" ">
<path fill="none" stroke="#63b8ff" d="M1745.35,-341C1825.36,-333.22 1943.52,-320.58 2045.95,-305 2052.8,-303.96 2060,-302.73 2067.09,-301.45"/>
<polygon fill="#63b8ff" stroke="#63b8ff" points="2068.16,-304.82 2077.35,-299.55 2066.88,-297.93 2068.16,-304.82"/>
</a>
</g>
</g>
<!-- Node33 -->
<g id="Node000033" class="node">
<title>Node33</title>
<g id="a_Node000033"><a xlink:href="banana_8hpp.html" target="_top" xlink:title="Contains the binary data of a resized PNG image.">
<polygon fill="white" stroke="#666666" points="2338.45,-299.5 2201.45,-299.5 2201.45,-280.5 2338.45,-280.5 2338.45,-299.5"/>
<text text-anchor="middle" x="2269.95" y="-287.5" font-family="Helvetica,sans-Serif" font-size="10.00">Assets/fruits/banana.hpp</text>
</a>
</g>
</g>
<!-- Node1&#45;&gt;Node33 -->
<g id="edge39_Node000001_Node000033" class="edge">
<title>Node1&#45;&gt;Node33</title>
<g id="a_edge39_Node000001_Node000033"><a xlink:title=" ">
<path fill="none" stroke="#63b8ff" d="M1754.52,-343.97C1863.38,-337.41 2040.26,-324.82 2191.95,-305 2200,-303.95 2208.48,-302.64 2216.77,-301.24"/>
<polygon fill="#63b8ff" stroke="#63b8ff" points="2217.49,-304.67 2226.74,-299.51 2216.29,-297.77 2217.49,-304.67"/>
</a>
</g>
</g>
<!-- Node34 -->
<g id="Node000034" class="node">
<title>Node34</title>
<g id="a_Node000034"><a xlink:href="cherries_8hpp.html" target="_top" xlink:title="Contains the binary data of a resized PNG image.">
<polygon fill="white" stroke="#666666" points="2496.95,-299.5 2356.95,-299.5 2356.95,-280.5 2496.95,-280.5 2496.95,-299.5"/>
<text text-anchor="middle" x="2426.95" y="-287.5" font-family="Helvetica,sans-Serif" font-size="10.00">Assets/fruits/cherries.hpp</text>
</a>
</g>
</g>
<!-- Node1&#45;&gt;Node34 -->
<g id="edge40_Node000001_Node000034" class="edge">
<title>Node1&#45;&gt;Node34</title>
<g id="a_edge40_Node000001_Node000034"><a xlink:title=" ">
<path fill="none" stroke="#63b8ff" d="M1754.58,-346.52C1890.64,-341.75 2138.02,-330.23 2347.95,-305 2356.4,-303.98 2365.31,-302.66 2373.99,-301.22"/>
<polygon fill="#63b8ff" stroke="#63b8ff" points="2374.76,-304.64 2384.03,-299.5 2373.58,-297.74 2374.76,-304.64"/>
</a>
</g>
</g>
<!-- Node35 -->
<g id="Node000035" class="node">
<title>Node35</title>
<g id="a_Node000035"><a xlink:href="key_8hpp.html" target="_top" xlink:title="Contains the binary data of a resized PNG image.">
<polygon fill="white" stroke="#666666" points="2632.45,-299.5 2515.45,-299.5 2515.45,-280.5 2632.45,-280.5 2632.45,-299.5"/>
<text text-anchor="middle" x="2573.95" y="-287.5" font-family="Helvetica,sans-Serif" font-size="10.00">Assets/fruits/key.hpp</text>
</a>
</g>
</g>
<!-- Node1&#45;&gt;Node35 -->
<g id="edge41_Node000001_Node000035" class="edge">
<title>Node1&#45;&gt;Node35</title>
<g id="a_edge41_Node000001_Node000035"><a xlink:title=" ">
<path fill="none" stroke="#63b8ff" d="M1754.6,-349.14C1915.42,-347.46 2236.28,-339.58 2505.95,-305 2513.1,-304.08 2520.62,-302.83 2527.95,-301.45"/>
<polygon fill="#63b8ff" stroke="#63b8ff" points="2528.64,-304.88 2537.77,-299.5 2527.28,-298.01 2528.64,-304.88"/>
</a>
</g>
</g>
<!-- Node36 -->
<g id="Node000036" class="node">
<title>Node36</title>
<g id="a_Node000036"><a xlink:href="pineapple_8hpp.html" target="_top" xlink:title="Contains the binary data of a resized PNG image.">
<polygon fill="white" stroke="#666666" points="2799.45,-299.5 2650.45,-299.5 2650.45,-280.5 2799.45,-280.5 2799.45,-299.5"/>
<text text-anchor="middle" x="2724.95" y="-287.5" font-family="Helvetica,sans-Serif" font-size="10.00">Assets/fruits/pineapple.hpp</text>
</a>
</g>
</g>
<!-- Node1&#45;&gt;Node36 -->
<g id="edge42_Node000001_Node000036" class="edge">
<title>Node1&#45;&gt;Node36</title>
<g id="a_edge42_Node000001_Node000036"><a xlink:title=" ">
<path fill="none" stroke="#63b8ff" d="M1754.51,-349.01C1934.62,-347.23 2319.24,-339.34 2641.95,-305 2651.12,-304.02 2660.83,-302.68 2670.23,-301.2"/>
<polygon fill="#63b8ff" stroke="#63b8ff" points="2670.98,-304.63 2680.29,-299.56 2669.85,-297.72 2670.98,-304.63"/>
</a>
</g>
</g>
<!-- Node37 -->
<g id="Node000037" class="node">
<title>Node37</title>
<g id="a_Node000037"><a xlink:href="potion_8hpp.html" target="_top" xlink:title="Contains the binary data of a resized PNG image.">
<polygon fill="white" stroke="#666666" points="2949.95,-299.5 2817.95,-299.5 2817.95,-280.5 2949.95,-280.5 2949.95,-299.5"/>
<text text-anchor="middle" x="2883.95" y="-287.5" font-family="Helvetica,sans-Serif" font-size="10.00">Assets/fruits/potion.hpp</text>
</a>
</g>
</g>
<!-- Node1&#45;&gt;Node37 -->
<g id="edge43_Node000001_Node000037" class="edge">
<title>Node1&#45;&gt;Node37</title>
<g id="a_edge43_Node000001_Node000037"><a xlink:title=" ">
<path fill="none" stroke="#63b8ff" d="M1754.56,-347.48C1998.22,-342.36 2606.31,-327.69 2808.95,-305 2817.09,-304.09 2825.67,-302.8 2834.01,-301.37"/>
<polygon fill="#63b8ff" stroke="#63b8ff" points="2834.8,-304.79 2844.02,-299.57 2833.56,-297.9 2834.8,-304.79"/>
</a>
</g>
</g>
<!-- Node3 -->
<g id="Node000003" class="node">
<title>Node3</title>
<g id="a_Node000003"><a xlink:href="AGame_8hpp.html" target="_top" xlink:title="Declares the abstract base class for all Arcade games.">
<polygon fill="white" stroke="#666666" points="140.45,-184 57.45,-184 57.45,-165 140.45,-165 140.45,-184"/>
<text text-anchor="middle" x="98.95" y="-172" font-family="Helvetica,sans-Serif" font-size="10.00">../AGame.hpp</text>
</a>
</g>
</g>
<!-- Node2&#45;&gt;Node3 -->
<g id="edge2_Node000002_Node000003" class="edge">
<title>Node2&#45;&gt;Node3</title>
<g id="a_edge2_Node000002_Node000003"><a xlink:title=" ">
<path fill="none" stroke="#63b8ff" d="M357.44,-288.42C303.35,-285.7 218.24,-275.31 154.95,-239 135.49,-227.84 119.34,-207.43 109.46,-192.75"/>
<polygon fill="#63b8ff" stroke="#63b8ff" points="112.25,-190.62 103.9,-184.1 106.36,-194.4 112.25,-190.62"/>
</a>
</g>
</g>
<!-- Node11 -->
<g id="Node000011" class="node">
<title>Node11</title>
<g id="a_Node000011"><a xlink:href="includes_8hpp.html" target="_top" xlink:title="Defines the specials structures and types used by the Pacman game.">
<polygon fill="white" stroke="#666666" points="289.95,-129 211.95,-129 211.95,-110 289.95,-110 289.95,-129"/>
<text text-anchor="middle" x="250.95" y="-117" font-family="Helvetica,sans-Serif" font-size="10.00">includes.hpp</text>
</a>
</g>
</g>
<!-- Node2&#45;&gt;Node11 -->
<g id="edge11_Node000002_Node000011" class="edge">
<title>Node2&#45;&gt;Node11</title>
<g id="a_edge11_Node000002_Node000011"><a xlink:title=" ">
<path fill="none" stroke="#63b8ff" d="M357.29,-286.52C315.63,-282.11 257.99,-270.27 217.95,-239 189.98,-217.15 171.62,-196.51 187.95,-165 194.98,-151.41 208.29,-141.09 220.87,-133.82"/>
<polygon fill="#63b8ff" stroke="#63b8ff" points="222.61,-136.86 229.8,-129.07 219.33,-130.68 222.61,-136.86"/>
</a>
</g>
</g>
<!-- Node12 -->
<g id="Node000012" class="node">
<title>Node12</title>
<g id="a_Node000012"><a xlink:href="Player_8hpp.html" target="_top" xlink:title="Contains methods that define possible player behaviors.">
<polygon fill="white" stroke="#666666" points="304.45,-184 197.45,-184 197.45,-165 304.45,-165 304.45,-184"/>
<text text-anchor="middle" x="250.95" y="-172" font-family="Helvetica,sans-Serif" font-size="10.00">Entities/Player.hpp</text>
</a>
</g>
</g>
<!-- Node2&#45;&gt;Node12 -->
<g id="edge13_Node000002_Node000012" class="edge">
<title>Node2&#45;&gt;Node12</title>
<g id="a_edge13_Node000002_Node000012"><a xlink:title=" ">
<path fill="none" stroke="#63b8ff" d="M357.14,-281.84C308.62,-274.04 241.88,-259.84 225.95,-239 215.2,-224.95 225.49,-205.69 235.94,-192.08"/>
<polygon fill="#63b8ff" stroke="#63b8ff" points="238.9,-193.98 242.6,-184.06 233.52,-189.51 238.9,-193.98"/>
</a>
</g>
</g>
<!-- Node13 -->
<g id="Node000013" class="node">
<title>Node13</title>
<g id="a_Node000013"><a xlink:href="Blinky_8hpp.html" target="_top" xlink:title="Implements the Blinky class, which inherits directly from the ghost class.">
<polygon fill="white" stroke="#666666" points="340.95,-239 234.95,-239 234.95,-220 340.95,-220 340.95,-239"/>
<text text-anchor="middle" x="287.95" y="-227" font-family="Helvetica,sans-Serif" font-size="10.00">Entities/Blinky.hpp</text>
</a>
</g>
</g>
<!-- Node2&#45;&gt;Node13 -->
<g id="edge15_Node000002_Node000013" class="edge">
<title>Node2&#45;&gt;Node13</title>
<g id="a_edge15_Node000002_Node000013"><a xlink:title=" ">
<path fill="none" stroke="#63b8ff" d="M392.21,-280.49C371.88,-270.75 338.34,-254.66 314.81,-243.38"/>
<polygon fill="#63b8ff" stroke="#63b8ff" points="316.24,-240.18 305.71,-239.02 313.21,-246.5 316.24,-240.18"/>
</a>
</g>
</g>
<!-- Node16 -->
<g id="Node000016" class="node">
<title>Node16</title>
<g id="a_Node000016"><a xlink:href="Pinky_8hpp.html" target="_top" xlink:title="Implements the Pinky class, which inherits directly from the ghost class.">
<polygon fill="white" stroke="#666666" points="460.95,-239 358.95,-239 358.95,-220 460.95,-220 460.95,-239"/>
<text text-anchor="middle" x="409.95" y="-227" font-family="Helvetica,sans-Serif" font-size="10.00">Entities/Pinky.hpp</text>
</a>
</g>
</g>
<!-- Node2&#45;&gt;Node16 -->
<g id="edge19_Node000002_Node000016" class="edge">
<title>Node2&#45;&gt;Node16</title>
<g id="a_edge19_Node000002_Node000016"><a xlink:title=" ">
<path fill="none" stroke="#63b8ff" d="M409.95,-280.37C409.95,-272.25 409.95,-259.81 409.95,-249.39"/>
<polygon fill="#63b8ff" stroke="#63b8ff" points="413.45,-249.17 409.95,-239.17 406.45,-249.17 413.45,-249.17"/>
</a>
</g>
</g>
<!-- Node17 -->
<g id="Node000017" class="node">
<title>Node17</title>
<g id="a_Node000017"><a xlink:href="Inky_8hpp.html" target="_top" xlink:title="Implements the Inky class, which inherits directly from the ghost class.">
<polygon fill="white" stroke="#666666" points="574.95,-239 478.95,-239 478.95,-220 574.95,-220 574.95,-239"/>
<text text-anchor="middle" x="526.95" y="-227" font-family="Helvetica,sans-Serif" font-size="10.00">Entities/Inky.hpp</text>
</a>
</g>
</g>
<!-- Node2&#45;&gt;Node17 -->
<g id="edge21_Node000002_Node000017" class="edge">
<title>Node2&#45;&gt;Node17</title>
<g id="a_edge21_Node000002_Node000017"><a xlink:title=" ">
<path fill="none" stroke="#63b8ff" d="M426.96,-280.49C446.37,-270.79 478.33,-254.81 500.89,-243.53"/>
<polygon fill="#63b8ff" stroke="#63b8ff" points="502.53,-246.62 509.91,-239.02 499.4,-240.36 502.53,-246.62"/>
</a>
</g>
</g>
<!-- Node18 -->
<g id="Node000018" class="node">
<title>Node18</title>
<g id="a_Node000018"><a xlink:href="Clyde_8hpp.html" target="_top" xlink:title="Implements the Clyde class, which inherits directly from the ghost class.">
<polygon fill="white" stroke="#666666" points="698.45,-239 593.45,-239 593.45,-220 698.45,-220 698.45,-239"/>
<text text-anchor="middle" x="645.95" y="-227" font-family="Helvetica,sans-Serif" font-size="10.00">Entities/Clyde.hpp</text>
</a>
</g>
</g>
<!-- Node2&#45;&gt;Node18 -->
<g id="edge23_Node000002_Node000018" class="edge">
<title>Node2&#45;&gt;Node18</title>
<g id="a_edge23_Node000002_Node000018"><a xlink:title=" ">
<path fill="none" stroke="#63b8ff" d="M444.26,-280.49C485.86,-270.18 556.05,-252.78 601.68,-241.47"/>
<polygon fill="#63b8ff" stroke="#63b8ff" points="602.73,-244.82 611.59,-239.02 601.04,-238.03 602.73,-244.82"/>
</a>
</g>
</g>
<!-- Node19 -->
<g id="Node000019" class="node">
<title>Node19</title>
<g id="a_Node000019"><a xlink:title=" ">
<polygon fill="#e0e0e0" stroke="#999999" points="766.95,-239 716.95,-239 716.95,-220 766.95,-220 766.95,-239"/>
<text text-anchor="middle" x="741.95" y="-227" font-family="Helvetica,sans-Serif" font-size="10.00">cstring</text>
</a>
</g>
</g>
<!-- Node2&#45;&gt;Node19 -->
<g id="edge25_Node000002_Node000019" class="edge">
<title>Node2&#45;&gt;Node19</title>
<g id="a_edge25_Node000002_Node000019"><a xlink:title=" ">
<path fill="none" stroke="#63b8ff" d="M445.59,-280.5C454.2,-278.57 463.38,-276.62 471.95,-275 573.05,-255.9 602.17,-259.63 706.74,-239.07"/>
<polygon fill="#63b8ff" stroke="#63b8ff" points="707.63,-242.47 716.76,-237.08 706.26,-235.6 707.63,-242.47"/>
</a>
</g>
</g>
<!-- Node20 -->
<g id="Node000020" class="node">
<title>Node20</title>
<g id="a_Node000020"><a xlink:title=" ">
<polygon fill="#e0e0e0" stroke="#999999" points="840.45,-239 785.45,-239 785.45,-220 840.45,-220 840.45,-239"/>
<text text-anchor="middle" x="812.95" y="-227" font-family="Helvetica,sans-Serif" font-size="10.00">fstream</text>
</a>
</g>
</g>
<!-- Node2&#45;&gt;Node20 -->
<g id="edge26_Node000002_Node000020" class="edge">
<title>Node2&#45;&gt;Node20</title>
<g id="a_edge26_Node000002_Node000020"><a xlink:title=" ">
<path fill="none" stroke="#63b8ff" d="M444.9,-280.44C453.7,-278.47 463.14,-276.51 471.95,-275 602.9,-252.52 640.16,-261.8 775.23,-238.93"/>
<polygon fill="#63b8ff" stroke="#63b8ff" points="775.87,-242.37 785.13,-237.23 774.68,-235.48 775.87,-242.37"/>
</a>
</g>
</g>
<!-- Node4 -->
<g id="Node000004" class="node">
<title>Node4</title>
<g id="a_Node000004"><a xlink:href="IGame_8hpp.html" target="_top" xlink:title="Declaration of the game interface class.">
<polygon fill="white" stroke="#666666" points="133.95,-129 63.95,-129 63.95,-110 133.95,-110 133.95,-129"/>
<text text-anchor="middle" x="98.95" y="-117" font-family="Helvetica,sans-Serif" font-size="10.00">IGame.hpp</text>
</a>
</g>
</g>
<!-- Node3&#45;&gt;Node4 -->
<g id="edge3_Node000003_Node000004" class="edge">
<title>Node3&#45;&gt;Node4</title>
<g id="a_edge3_Node000003_Node000004"><a xlink:title=" ">
<path fill="none" stroke="#63b8ff" d="M98.95,-164.75C98.95,-157.8 98.95,-147.85 98.95,-139.13"/>
<polygon fill="#63b8ff" stroke="#63b8ff" points="102.45,-139.09 98.95,-129.09 95.45,-139.09 102.45,-139.09"/>
</a>
</g>
</g>
<!-- Node5 -->
<g id="Node000005" class="node">
<title>Node5</title>
<g id="a_Node000005"><a xlink:title=" ">
<polygon fill="#e0e0e0" stroke="#999999" points="107.95,-19 63.95,-19 63.95,0 107.95,0 107.95,-19"/>
<text text-anchor="middle" x="85.95" y="-7" font-family="Helvetica,sans-Serif" font-size="10.00">string</text>
</a>
</g>
</g>
<!-- Node4&#45;&gt;Node5 -->
<g id="edge4_Node000004_Node000005" class="edge">
<title>Node4&#45;&gt;Node5</title>
<g id="a_edge4_Node000004_Node000005"><a xlink:title=" ">
<path fill="none" stroke="#63b8ff" d="M63.71,-111.85C42.46,-105.82 17.04,-94.59 3.95,-74 -11.63,-49.5 24.96,-30.67 54.17,-20.08"/>
<polygon fill="#63b8ff" stroke="#63b8ff" points="55.38,-23.37 63.71,-16.82 53.12,-16.75 55.38,-23.37"/>
</a>
</g>
</g>
<!-- Node6 -->
<g id="Node000006" class="node">
<title>Node6</title>
<g id="a_Node000006"><a xlink:title=" ">
<polygon fill="#e0e0e0" stroke="#999999" points="60.45,-74 13.45,-74 13.45,-55 60.45,-55 60.45,-74"/>
<text text-anchor="middle" x="36.95" y="-62" font-family="Helvetica,sans-Serif" font-size="10.00">vector</text>
</a>
</g>
</g>
<!-- Node4&#45;&gt;Node6 -->
<g id="edge5_Node000004_Node000006" class="edge">
<title>Node4&#45;&gt;Node6</title>
<g id="a_edge5_Node000004_Node000006"><a xlink:title=" ">
<path fill="none" stroke="#63b8ff" d="M88.99,-109.98C79.82,-102.15 66.01,-90.34 54.92,-80.86"/>
<polygon fill="#63b8ff" stroke="#63b8ff" points="56.97,-78.01 47.09,-74.17 52.42,-83.33 56.97,-78.01"/>
</a>
</g>
</g>
<!-- Node7 -->
<g id="Node000007" class="node">
<title>Node7</title>
<g id="a_Node000007"><a xlink:title=" ">
<polygon fill="#e0e0e0" stroke="#999999" points="171.45,-74 78.45,-74 78.45,-55 171.45,-55 171.45,-74"/>
<text text-anchor="middle" x="124.95" y="-62" font-family="Helvetica,sans-Serif" font-size="10.00">unordered_map</text>
</a>
</g>
</g>
<!-- Node4&#45;&gt;Node7 -->
<g id="edge6_Node000004_Node000007" class="edge">
<title>Node4&#45;&gt;Node7</title>
<g id="a_edge6_Node000004_Node000007"><a xlink:title=" ">
<path fill="none" stroke="#63b8ff" d="M103.24,-109.75C106.76,-102.57 111.86,-92.18 116.23,-83.27"/>
<polygon fill="#63b8ff" stroke="#63b8ff" points="119.47,-84.61 120.73,-74.09 113.19,-81.53 119.47,-84.61"/>
</a>
</g>
</g>
<!-- Node8 -->
<g id="Node000008" class="node">
<title>Node8</title>
<g id="a_Node000008"><a xlink:href="Types_8hpp.html" target="_top" xlink:title="Defines the core data structures and types used across the Arcade project.">
<polygon fill="white" stroke="#666666" points="311.95,-74 189.95,-74 189.95,-55 311.95,-55 311.95,-74"/>
<text text-anchor="middle" x="250.95" y="-62" font-family="Helvetica,sans-Serif" font-size="10.00">../../include/Types.hpp</text>
</a>
</g>
</g>
<!-- Node4&#45;&gt;Node8 -->
<g id="edge7_Node000004_Node000008" class="edge">
<title>Node4&#45;&gt;Node8</title>
<g id="a_edge7_Node000004_Node000008"><a xlink:title=" ">
<path fill="none" stroke="#63b8ff" d="M123.37,-109.98C148.67,-101.16 188.4,-87.31 216.8,-77.41"/>
<polygon fill="#63b8ff" stroke="#63b8ff" points="218.04,-80.68 226.33,-74.08 215.74,-74.07 218.04,-80.68"/>
</a>
</g>
</g>
<!-- Node8&#45;&gt;Node5 -->
<g id="edge10_Node000008_Node000005" class="edge">
<title>Node8&#45;&gt;Node5</title>
<g id="a_edge10_Node000008_Node000005"><a xlink:title=" ">
<path fill="none" stroke="#63b8ff" d="M224.44,-54.98C195.46,-45.68 149.05,-30.77 118.04,-20.81"/>
<polygon fill="#63b8ff" stroke="#63b8ff" points="118.75,-17.36 108.16,-17.63 116.61,-24.03 118.75,-17.36"/>
</a>
</g>
</g>
<!-- Node9 -->
<g id="Node000009" class="node">
<title>Node9</title>
<g id="a_Node000009"><a xlink:title=" ">
<polygon fill="#e0e0e0" stroke="#999999" points="237.95,-19 187.95,-19 187.95,0 237.95,0 237.95,-19"/>
<text text-anchor="middle" x="212.95" y="-7" font-family="Helvetica,sans-Serif" font-size="10.00">cstdint</text>
</a>
</g>
</g>
<!-- Node8&#45;&gt;Node9 -->
<g id="edge8_Node000008_Node000009" class="edge">
<title>Node8&#45;&gt;Node9</title>
<g id="a_edge8_Node000008_Node000009"><a xlink:title=" ">
<path fill="none" stroke="#63b8ff" d="M244.67,-54.75C239.36,-47.34 231.59,-36.5 225.07,-27.41"/>
<polygon fill="#63b8ff" stroke="#63b8ff" points="227.78,-25.18 219.11,-19.09 222.09,-29.26 227.78,-25.18"/>
</a>
</g>
</g>
<!-- Node10 -->
<g id="Node000010" class="node">
<title>Node10</title>
<g id="a_Node000010"><a xlink:title=" ">
<polygon fill="#e0e0e0" stroke="#999999" points="321.45,-19 256.45,-19 256.45,0 321.45,0 321.45,-19"/>
<text text-anchor="middle" x="288.95" y="-7" font-family="Helvetica,sans-Serif" font-size="10.00">functional</text>
</a>
</g>
</g>
<!-- Node8&#45;&gt;Node10 -->
<g id="edge9_Node000008_Node000010" class="edge">
<title>Node8&#45;&gt;Node10</title>
<g id="a_edge9_Node000008_Node000010"><a xlink:title=" ">
<path fill="none" stroke="#63b8ff" d="M257.22,-54.75C262.53,-47.34 270.3,-36.5 276.82,-27.41"/>
<polygon fill="#63b8ff" stroke="#63b8ff" points="279.81,-29.26 282.79,-19.09 274.12,-25.18 279.81,-29.26"/>
</a>
</g>
</g>
<!-- Node11&#45;&gt;Node8 -->
<g id="edge12_Node000011_Node000008" class="edge">
<title>Node11&#45;&gt;Node8</title>
<g id="a_edge12_Node000011_Node000008"><a xlink:title=" ">
<path fill="none" stroke="#63b8ff" d="M250.95,-109.75C250.95,-102.8 250.95,-92.85 250.95,-84.13"/>
<polygon fill="#63b8ff" stroke="#63b8ff" points="254.45,-84.09 250.95,-74.09 247.45,-84.09 254.45,-84.09"/>
</a>
</g>
</g>
<!-- Node12&#45;&gt;Node11 -->
<g id="edge14_Node000012_Node000011" class="edge">
<title>Node12&#45;&gt;Node11</title>
<g id="a_edge14_Node000012_Node000011"><a xlink:title=" ">
<path fill="none" stroke="#63b8ff" d="M250.95,-164.75C250.95,-157.8 250.95,-147.85 250.95,-139.13"/>
<polygon fill="#63b8ff" stroke="#63b8ff" points="254.45,-139.09 250.95,-129.09 247.45,-139.09 254.45,-139.09"/>
</a>
</g>
</g>
<!-- Node14 -->
<g id="Node000014" class="node">
<title>Node14</title>
<g id="a_Node000014"><a xlink:href="Ghost_8hpp.html" target="_top" xlink:title="Contains the behavior of the ghosts.">
<polygon fill="white" stroke="#666666" points="442.95,-184 376.95,-184 376.95,-165 442.95,-165 442.95,-184"/>
<text text-anchor="middle" x="409.95" y="-172" font-family="Helvetica,sans-Serif" font-size="10.00">Ghost.hpp</text>
</a>
</g>
</g>
<!-- Node13&#45;&gt;Node14 -->
<g id="edge16_Node000013_Node000014" class="edge">
<title>Node13&#45;&gt;Node14</title>
<g id="a_edge16_Node000013_Node000014"><a xlink:title=" ">
<path fill="none" stroke="#63b8ff" d="M307.55,-219.98C327.26,-211.42 357.9,-198.11 380.53,-188.28"/>
<polygon fill="#63b8ff" stroke="#63b8ff" points="382.21,-191.37 389.99,-184.17 379.42,-184.94 382.21,-191.37"/>
</a>
</g>
</g>
<!-- Node14&#45;&gt;Node11 -->
<g id="edge17_Node000014_Node000011" class="edge">
<title>Node14&#45;&gt;Node11</title>
<g id="a_edge17_Node000014_Node000011"><a xlink:title=" ">
<path fill="none" stroke="#63b8ff" d="M384.4,-164.98C357.82,-156.13 316.01,-142.19 286.27,-132.28"/>
<polygon fill="#63b8ff" stroke="#63b8ff" points="287.29,-128.92 276.69,-129.08 285.07,-135.56 287.29,-128.92"/>
</a>
</g>
</g>
<!-- Node15 -->
<g id="Node000015" class="node">
<title>Node15</title>
<g id="a_Node000015"><a xlink:title=" ">
<polygon fill="#e0e0e0" stroke="#999999" points="433.45,-129 386.45,-129 386.45,-110 433.45,-110 433.45,-129"/>
<text text-anchor="middle" x="409.95" y="-117" font-family="Helvetica,sans-Serif" font-size="10.00">cmath</text>
</a>
</g>
</g>
<!-- Node14&#45;&gt;Node15 -->
<g id="edge18_Node000014_Node000015" class="edge">
<title>Node14&#45;&gt;Node15</title>
<g id="a_edge18_Node000014_Node000015"><a xlink:title=" ">
<path fill="none" stroke="#63b8ff" d="M409.95,-164.75C409.95,-157.8 409.95,-147.85 409.95,-139.13"/>
<polygon fill="#63b8ff" stroke="#63b8ff" points="413.45,-139.09 409.95,-129.09 406.45,-139.09 413.45,-139.09"/>
</a>
</g>
</g>
<!-- Node16&#45;&gt;Node14 -->
<g id="edge20_Node000016_Node000014" class="edge">
<title>Node16&#45;&gt;Node14</title>
<g id="a_edge20_Node000016_Node000014"><a xlink:title=" ">
<path fill="none" stroke="#63b8ff" d="M409.95,-219.75C409.95,-212.8 409.95,-202.85 409.95,-194.13"/>
<polygon fill="#63b8ff" stroke="#63b8ff" points="413.45,-194.09 409.95,-184.09 406.45,-194.09 413.45,-194.09"/>
</a>
</g>
</g>
<!-- Node17&#45;&gt;Node14 -->
<g id="edge22_Node000017_Node000014" class="edge">
<title>Node17&#45;&gt;Node14</title>
<g id="a_edge22_Node000017_Node000014"><a xlink:title=" ">
<path fill="none" stroke="#63b8ff" d="M508.15,-219.98C489.33,-211.46 460.12,-198.23 438.45,-188.41"/>
<polygon fill="#63b8ff" stroke="#63b8ff" points="439.64,-185.11 429.09,-184.17 436.75,-191.48 439.64,-185.11"/>
</a>
</g>
</g>
<!-- Node18&#45;&gt;Node14 -->
<g id="edge24_Node000018_Node000014" class="edge">
<title>Node18&#45;&gt;Node14</title>
<g id="a_edge24_Node000018_Node000014"><a xlink:title=" ">
<path fill="none" stroke="#63b8ff" d="M608.03,-219.98C565.72,-210.48 497.41,-195.14 453.09,-185.19"/>
<polygon fill="#63b8ff" stroke="#63b8ff" points="453.72,-181.74 443.19,-182.97 452.18,-188.57 453.72,-181.74"/>
</a>
</g>
</g>
</g>
</svg>
