<?xml version="1.0" encoding="UTF-8" standalone="no"?>
<!DOCTYPE svg PUBLIC "-//W3C//DTD SVG 1.1//EN"
 "http://www.w3.org/Graphics/SVG/1.1/DTD/svg11.dtd">
<!-- Generated by graphviz version 2.43.0 (0)
 -->
<!-- Title: src/Games/Pacman/PacmanGame.hpp Pages: 1 -->
<svg width="432pt" height="82pt"
 viewBox="0.00 0.00 431.50 82.00" xmlns="http://www.w3.org/2000/svg" xmlns:xlink="http://www.w3.org/1999/xlink">
<g id="graph0" class="graph" transform="scale(1 1) rotate(0) translate(4 78)">
<title>src/Games/Pacman/PacmanGame.hpp</title>
<!-- Node1 -->
<g id="Node000001" class="node">
<title>Node1</title>
<g id="a_Node000001"><a xlink:title="Main file of the Pacman game.">
<polygon fill="#999999" stroke="#666666" points="313,-74 112,-74 112,-55 313,-55 313,-74"/>
<text text-anchor="middle" x="212.5" y="-62" font-family="Helvetica,sans-Serif" font-size="10.00">src/Games/Pacman/PacmanGame.hpp</text>
</a>
</g>
</g>
<!-- Node2 -->
<g id="Node000002" class="node">
<title>Node2</title>
<g id="a_Node000002"><a xlink:href="PacmanFactory_8cpp.html" target="_top" xlink:title="Factory functions to create and destroy the Pacman game instance.">
<polygon fill="white" stroke="#666666" points="205,-19 0,-19 0,0 205,0 205,-19"/>
<text text-anchor="middle" x="102.5" y="-7" font-family="Helvetica,sans-Serif" font-size="10.00">src/Games/Pacman/PacmanFactory.cpp</text>
</a>
</g>
</g>
<!-- Node1&#45;&gt;Node2 -->
<g id="edge1_Node000001_Node000002" class="edge">
<title>Node1&#45;&gt;Node2</title>
<g id="a_edge1_Node000001_Node000002"><a xlink:title=" ">
<path fill="none" stroke="#63b8ff" d="M185.8,-50.63C165.53,-40.87 138.23,-27.71 120.49,-19.17"/>
<polygon fill="#63b8ff" stroke="#63b8ff" points="184.3,-53.8 194.83,-54.98 187.34,-47.49 184.3,-53.8"/>
</a>
</g>
</g>
<!-- Node3 -->
<g id="Node000003" class="node">
<title>Node3</title>
<g id="a_Node000003"><a xlink:href="PacmanGame_8cpp.html" target="_top" xlink:title="Implements the Main class of the Pacman game.">
<polygon fill="white" stroke="#666666" points="423.5,-19 223.5,-19 223.5,0 423.5,0 423.5,-19"/>
<text text-anchor="middle" x="323.5" y="-7" font-family="Helvetica,sans-Serif" font-size="10.00">src/Games/Pacman/PacmanGame.cpp</text>
</a>
</g>
</g>
<!-- Node1&#45;&gt;Node3 -->
<g id="edge2_Node000001_Node000003" class="edge">
<title>Node1&#45;&gt;Node3</title>
<g id="a_edge2_Node000001_Node000003"><a xlink:title=" ">
<path fill="none" stroke="#63b8ff" d="M239.45,-50.63C259.89,-40.87 287.45,-27.71 305.34,-19.17"/>
<polygon fill="#63b8ff" stroke="#63b8ff" points="237.85,-47.52 230.33,-54.98 240.87,-53.83 237.85,-47.52"/>
</a>
</g>
</g>
</g>
</svg>
