<?xml version="1.0" encoding="UTF-8" standalone="no"?>
<!DOCTYPE svg PUBLIC "-//W3C//DTD SVG 1.1//EN"
 "http://www.w3.org/Graphics/SVG/1.1/DTD/svg11.dtd">
<!-- Generated by graphviz version 2.43.0 (0)
 -->
<!-- Title: src/Graphicals/SDL/SDLDisplayModule.cpp Pages: 1 -->
<svg width="987pt" height="313pt"
 viewBox="0.00 0.00 987.00 313.00" xmlns="http://www.w3.org/2000/svg" xmlns:xlink="http://www.w3.org/1999/xlink">
<g id="graph0" class="graph" transform="scale(1 1) rotate(0) translate(4 309)">
<title>src/Graphicals/SDL/SDLDisplayModule.cpp</title>
<!-- Node1 -->
<g id="Node000001" class="node">
<title>Node1</title>
<g id="a_Node000001"><a xlink:title="This file contains all functions related to SDL.">
<polygon fill="#999999" stroke="#666666" points="498.5,-305 367.5,-305 367.5,-275 498.5,-275 498.5,-305"/>
<text text-anchor="start" x="375.5" y="-293" font-family="Helvetica,sans-Serif" font-size="10.00">src/Graphicals/SDL</text>
<text text-anchor="middle" x="433" y="-282" font-family="Helvetica,sans-Serif" font-size="10.00">/SDLDisplayModule.cpp</text>
</a>
</g>
</g>
<!-- Node2 -->
<g id="Node000002" class="node">
<title>Node2</title>
<g id="a_Node000002"><a xlink:href="SDLDisplayModule_8hpp.html" target="_top" xlink:title="Header file for SDL display module.">
<polygon fill="white" stroke="#666666" points="497.5,-239 368.5,-239 368.5,-220 497.5,-220 497.5,-239"/>
<text text-anchor="middle" x="433" y="-227" font-family="Helvetica,sans-Serif" font-size="10.00">SDLDisplayModule.hpp</text>
</a>
</g>
</g>
<!-- Node1&#45;&gt;Node2 -->
<g id="edge1_Node000001_Node000002" class="edge">
<title>Node1&#45;&gt;Node2</title>
<g id="a_edge1_Node000001_Node000002"><a xlink:title=" ">
<path fill="none" stroke="#63b8ff" d="M433,-274.84C433,-267.21 433,-257.7 433,-249.45"/>
<polygon fill="#63b8ff" stroke="#63b8ff" points="436.5,-249.27 433,-239.27 429.5,-249.27 436.5,-249.27"/>
</a>
</g>
</g>
<!-- Node3 -->
<g id="Node000003" class="node">
<title>Node3</title>
<g id="a_Node000003"><a xlink:title=" ">
<polygon fill="#e0e0e0" stroke="#999999" points="72,-184 0,-184 0,-165 72,-165 72,-184"/>
<text text-anchor="middle" x="36" y="-172" font-family="Helvetica,sans-Serif" font-size="10.00">SDL2/SDL.h</text>
</a>
</g>
</g>
<!-- Node2&#45;&gt;Node3 -->
<g id="edge2_Node000002_Node000003" class="edge">
<title>Node2&#45;&gt;Node3</title>
<g id="a_edge2_Node000002_Node000003"><a xlink:title=" ">
<path fill="none" stroke="#63b8ff" d="M368.28,-221.52C299.68,-213.84 187.96,-200.58 82.2,-184.11"/>
<polygon fill="#63b8ff" stroke="#63b8ff" points="82.74,-180.65 72.32,-182.56 81.65,-187.56 82.74,-180.65"/>
</a>
</g>
</g>
<!-- Node4 -->
<g id="Node000004" class="node">
<title>Node4</title>
<g id="a_Node000004"><a xlink:title=" ">
<polygon fill="#e0e0e0" stroke="#999999" points="178,-184 90,-184 90,-165 178,-165 178,-184"/>
<text text-anchor="middle" x="134" y="-172" font-family="Helvetica,sans-Serif" font-size="10.00">SDL2/SDL_ttf.h</text>
</a>
</g>
</g>
<!-- Node2&#45;&gt;Node4 -->
<g id="edge3_Node000002_Node000004" class="edge">
<title>Node2&#45;&gt;Node4</title>
<g id="a_edge3_Node000002_Node000004"><a xlink:title=" ">
<path fill="none" stroke="#63b8ff" d="M384.96,-219.98C331.19,-210.45 244.26,-195.05 188.13,-185.1"/>
<polygon fill="#63b8ff" stroke="#63b8ff" points="188.48,-181.6 178.02,-183.3 187.26,-188.5 188.48,-181.6"/>
</a>
</g>
</g>
<!-- Node5 -->
<g id="Node000005" class="node">
<title>Node5</title>
<g id="a_Node000005"><a xlink:href="font_8hpp.html" target="_top" xlink:title="Contains the binary representation of the default font used in the Arcade project.">
<polygon fill="white" stroke="#666666" points="297.5,-184 196.5,-184 196.5,-165 297.5,-165 297.5,-184"/>
<text text-anchor="middle" x="247" y="-172" font-family="Helvetica,sans-Serif" font-size="10.00">../Assets/font.hpp</text>
</a>
</g>
</g>
<!-- Node2&#45;&gt;Node5 -->
<g id="edge4_Node000002_Node000005" class="edge">
<title>Node2&#45;&gt;Node5</title>
<g id="a_edge4_Node000002_Node000005"><a xlink:title=" ">
<path fill="none" stroke="#63b8ff" d="M403.12,-219.98C371.62,-211.01 321.83,-196.82 286.97,-186.89"/>
<polygon fill="#63b8ff" stroke="#63b8ff" points="287.69,-183.46 277.12,-184.08 285.78,-190.19 287.69,-183.46"/>
</a>
</g>
</g>
<!-- Node6 -->
<g id="Node000006" class="node">
<title>Node6</title>
<g id="a_Node000006"><a xlink:title=" ">
<polygon fill="#e0e0e0" stroke="#999999" points="424,-184 316,-184 316,-165 424,-165 424,-184"/>
<text text-anchor="middle" x="370" y="-172" font-family="Helvetica,sans-Serif" font-size="10.00">SDL2/SDL_image.h</text>
</a>
</g>
</g>
<!-- Node2&#45;&gt;Node6 -->
<g id="edge5_Node000002_Node000006" class="edge">
<title>Node2&#45;&gt;Node6</title>
<g id="a_edge5_Node000002_Node000006"><a xlink:title=" ">
<path fill="none" stroke="#63b8ff" d="M422.88,-219.98C413.56,-212.15 399.53,-200.34 388.26,-190.86"/>
<polygon fill="#63b8ff" stroke="#63b8ff" points="390.21,-187.93 380.31,-184.17 385.71,-193.29 390.21,-187.93"/>
</a>
</g>
</g>
<!-- Node7 -->
<g id="Node000007" class="node">
<title>Node7</title>
<g id="a_Node000007"><a xlink:title=" ">
<polygon fill="#e0e0e0" stroke="#999999" points="549.5,-184 442.5,-184 442.5,-165 549.5,-165 549.5,-184"/>
<text text-anchor="middle" x="496" y="-172" font-family="Helvetica,sans-Serif" font-size="10.00">SDL2/SDL_rwops.h</text>
</a>
</g>
</g>
<!-- Node2&#45;&gt;Node7 -->
<g id="edge6_Node000002_Node000007" class="edge">
<title>Node2&#45;&gt;Node7</title>
<g id="a_edge6_Node000002_Node000007"><a xlink:title=" ">
<path fill="none" stroke="#63b8ff" d="M443.12,-219.98C452.44,-212.15 466.47,-200.34 477.74,-190.86"/>
<polygon fill="#63b8ff" stroke="#63b8ff" points="480.29,-193.29 485.69,-184.17 475.79,-187.93 480.29,-193.29"/>
</a>
</g>
</g>
<!-- Node8 -->
<g id="Node000008" class="node">
<title>Node8</title>
<g id="a_Node000008"><a xlink:title=" ">
<polygon fill="#e0e0e0" stroke="#999999" points="612.5,-184 567.5,-184 567.5,-165 612.5,-165 612.5,-184"/>
<text text-anchor="middle" x="590" y="-172" font-family="Helvetica,sans-Serif" font-size="10.00">utility</text>
</a>
</g>
</g>
<!-- Node2&#45;&gt;Node8 -->
<g id="edge7_Node000002_Node000008" class="edge">
<title>Node2&#45;&gt;Node8</title>
<g id="a_edge7_Node000002_Node000008"><a xlink:title=" ">
<path fill="none" stroke="#63b8ff" d="M458.22,-219.98C485.21,-210.88 528.09,-196.4 557.57,-186.45"/>
<polygon fill="#63b8ff" stroke="#63b8ff" points="559.03,-189.65 567.39,-183.13 556.79,-183.02 559.03,-189.65"/>
</a>
</g>
</g>
<!-- Node9 -->
<g id="Node000009" class="node">
<title>Node9</title>
<g id="a_Node000009"><a xlink:href="ADisplayModule_8hpp.html" target="_top" xlink:title="Declares the abstract base class for display modules in the Arcade project.">
<polygon fill="white" stroke="#666666" points="747.5,-184 630.5,-184 630.5,-165 747.5,-165 747.5,-184"/>
<text text-anchor="middle" x="689" y="-172" font-family="Helvetica,sans-Serif" font-size="10.00">ADisplayModule.hpp</text>
</a>
</g>
</g>
<!-- Node2&#45;&gt;Node9 -->
<g id="edge8_Node000002_Node000009" class="edge">
<title>Node2&#45;&gt;Node9</title>
<g id="a_edge8_Node000002_Node000009"><a xlink:title=" ">
<path fill="none" stroke="#63b8ff" d="M474.13,-219.98C518.6,-210.78 589.55,-196.09 637.65,-186.13"/>
<polygon fill="#63b8ff" stroke="#63b8ff" points="638.46,-189.54 647.55,-184.08 637.04,-182.68 638.46,-189.54"/>
</a>
</g>
</g>
<!-- Node17 -->
<g id="Node000017" class="node">
<title>Node17</title>
<g id="a_Node000017"><a xlink:href="Error_8hpp.html" target="_top" xlink:title="Declaration of the program&#39;s custom exception class.">
<polygon fill="white" stroke="#666666" points="906,-184 802,-184 802,-165 906,-165 906,-184"/>
<text text-anchor="middle" x="854" y="-172" font-family="Helvetica,sans-Serif" font-size="10.00">../../Utils/Error.hpp</text>
</a>
</g>
</g>
<!-- Node2&#45;&gt;Node17 -->
<g id="edge17_Node000002_Node000017" class="edge">
<title>Node2&#45;&gt;Node17</title>
<g id="a_edge17_Node000002_Node000017"><a xlink:title=" ">
<path fill="none" stroke="#63b8ff" d="M497.86,-220.33C577.77,-210.28 712.6,-193.3 791.44,-183.38"/>
<polygon fill="#63b8ff" stroke="#63b8ff" points="792.22,-186.8 801.71,-182.08 791.35,-179.86 792.22,-186.8"/>
</a>
</g>
</g>
<!-- Node10 -->
<g id="Node000010" class="node">
<title>Node10</title>
<g id="a_Node000010"><a xlink:href="IDisplayModule_8hpp.html" target="_top" xlink:title="Declaration of the graphical display interface.">
<polygon fill="white" stroke="#666666" points="727.5,-129 614.5,-129 614.5,-110 727.5,-110 727.5,-129"/>
<text text-anchor="middle" x="671" y="-117" font-family="Helvetica,sans-Serif" font-size="10.00">IDisplayModule.hpp</text>
</a>
</g>
</g>
<!-- Node9&#45;&gt;Node10 -->
<g id="edge9_Node000009_Node000010" class="edge">
<title>Node9&#45;&gt;Node10</title>
<g id="a_edge9_Node000009_Node000010"><a xlink:title=" ">
<path fill="none" stroke="#63b8ff" d="M686.03,-164.75C683.64,-157.72 680.21,-147.62 677.23,-138.84"/>
<polygon fill="#63b8ff" stroke="#63b8ff" points="680.45,-137.43 673.92,-129.09 673.82,-139.68 680.45,-137.43"/>
</a>
</g>
</g>
<!-- Node11 -->
<g id="Node000011" class="node">
<title>Node11</title>
<g id="a_Node000011"><a xlink:href="Types_8hpp.html" target="_top" xlink:title="Defines the core data structures and types used across the Arcade project.">
<polygon fill="white" stroke="#666666" points="568,-74 446,-74 446,-55 568,-55 568,-74"/>
<text text-anchor="middle" x="507" y="-62" font-family="Helvetica,sans-Serif" font-size="10.00">../../include/Types.hpp</text>
</a>
</g>
</g>
<!-- Node10&#45;&gt;Node11 -->
<g id="edge10_Node000010_Node000011" class="edge">
<title>Node10&#45;&gt;Node11</title>
<g id="a_edge10_Node000010_Node000011"><a xlink:title=" ">
<path fill="none" stroke="#63b8ff" d="M644.65,-109.98C617.24,-101.13 574.11,-87.19 543.44,-77.28"/>
<polygon fill="#63b8ff" stroke="#63b8ff" points="544.15,-73.83 533.56,-74.08 542,-80.49 544.15,-73.83"/>
</a>
</g>
</g>
<!-- Node14 -->
<g id="Node000014" class="node">
<title>Node14</title>
<g id="a_Node000014"><a xlink:title=" ">
<polygon fill="#e0e0e0" stroke="#999999" points="618,-19 574,-19 574,0 618,0 618,-19"/>
<text text-anchor="middle" x="596" y="-7" font-family="Helvetica,sans-Serif" font-size="10.00">string</text>
</a>
</g>
</g>
<!-- Node10&#45;&gt;Node14 -->
<g id="edge14_Node000010_Node000014" class="edge">
<title>Node10&#45;&gt;Node14</title>
<g id="a_edge14_Node000010_Node000014"><a xlink:title=" ">
<path fill="none" stroke="#63b8ff" d="M655.52,-109.86C642.87,-102.05 625.44,-89.43 615,-74 605.83,-60.45 600.98,-42.36 598.49,-28.96"/>
<polygon fill="#63b8ff" stroke="#63b8ff" points="601.93,-28.33 596.9,-19 595.02,-29.43 601.93,-28.33"/>
</a>
</g>
</g>
<!-- Node15 -->
<g id="Node000015" class="node">
<title>Node15</title>
<g id="a_Node000015"><a xlink:title=" ">
<polygon fill="#e0e0e0" stroke="#999999" points="717.5,-74 624.5,-74 624.5,-55 717.5,-55 717.5,-74"/>
<text text-anchor="middle" x="671" y="-62" font-family="Helvetica,sans-Serif" font-size="10.00">unordered_map</text>
</a>
</g>
</g>
<!-- Node10&#45;&gt;Node15 -->
<g id="edge15_Node000010_Node000015" class="edge">
<title>Node10&#45;&gt;Node15</title>
<g id="a_edge15_Node000010_Node000015"><a xlink:title=" ">
<path fill="none" stroke="#63b8ff" d="M671,-109.75C671,-102.8 671,-92.85 671,-84.13"/>
<polygon fill="#63b8ff" stroke="#63b8ff" points="674.5,-84.09 671,-74.09 667.5,-84.09 674.5,-84.09"/>
</a>
</g>
</g>
<!-- Node16 -->
<g id="Node000016" class="node">
<title>Node16</title>
<g id="a_Node000016"><a xlink:title=" ">
<polygon fill="#e0e0e0" stroke="#999999" points="782.5,-74 735.5,-74 735.5,-55 782.5,-55 782.5,-74"/>
<text text-anchor="middle" x="759" y="-62" font-family="Helvetica,sans-Serif" font-size="10.00">vector</text>
</a>
</g>
</g>
<!-- Node10&#45;&gt;Node16 -->
<g id="edge16_Node000010_Node000016" class="edge">
<title>Node10&#45;&gt;Node16</title>
<g id="a_edge16_Node000010_Node000016"><a xlink:title=" ">
<path fill="none" stroke="#63b8ff" d="M685.14,-109.98C698.79,-101.77 719.69,-89.18 735.78,-79.49"/>
<polygon fill="#63b8ff" stroke="#63b8ff" points="737.84,-82.33 744.6,-74.17 734.23,-76.33 737.84,-82.33"/>
</a>
</g>
</g>
<!-- Node12 -->
<g id="Node000012" class="node">
<title>Node12</title>
<g id="a_Node000012"><a xlink:title=" ">
<polygon fill="#e0e0e0" stroke="#999999" points="464,-19 414,-19 414,0 464,0 464,-19"/>
<text text-anchor="middle" x="439" y="-7" font-family="Helvetica,sans-Serif" font-size="10.00">cstdint</text>
</a>
</g>
</g>
<!-- Node11&#45;&gt;Node12 -->
<g id="edge11_Node000011_Node000012" class="edge">
<title>Node11&#45;&gt;Node12</title>
<g id="a_edge11_Node000011_Node000012"><a xlink:title=" ">
<path fill="none" stroke="#63b8ff" d="M496.07,-54.98C485.92,-47.07 470.58,-35.11 458.35,-25.58"/>
<polygon fill="#63b8ff" stroke="#63b8ff" points="460.16,-22.56 450.12,-19.17 455.86,-28.08 460.16,-22.56"/>
</a>
</g>
</g>
<!-- Node13 -->
<g id="Node000013" class="node">
<title>Node13</title>
<g id="a_Node000013"><a xlink:title=" ">
<polygon fill="#e0e0e0" stroke="#999999" points="547.5,-19 482.5,-19 482.5,0 547.5,0 547.5,-19"/>
<text text-anchor="middle" x="515" y="-7" font-family="Helvetica,sans-Serif" font-size="10.00">functional</text>
</a>
</g>
</g>
<!-- Node11&#45;&gt;Node13 -->
<g id="edge12_Node000011_Node000013" class="edge">
<title>Node11&#45;&gt;Node13</title>
<g id="a_edge12_Node000011_Node000013"><a xlink:title=" ">
<path fill="none" stroke="#63b8ff" d="M508.32,-54.75C509.37,-47.8 510.87,-37.85 512.19,-29.13"/>
<polygon fill="#63b8ff" stroke="#63b8ff" points="515.67,-29.5 513.7,-19.09 508.75,-28.45 515.67,-29.5"/>
</a>
</g>
</g>
<!-- Node11&#45;&gt;Node14 -->
<g id="edge13_Node000011_Node000014" class="edge">
<title>Node11&#45;&gt;Node14</title>
<g id="a_edge13_Node000011_Node000014"><a xlink:title=" ">
<path fill="none" stroke="#63b8ff" d="M521.3,-54.98C535.1,-46.77 556.24,-34.18 572.51,-24.49"/>
<polygon fill="#63b8ff" stroke="#63b8ff" points="574.64,-27.29 581.44,-19.17 571.06,-21.28 574.64,-27.29"/>
</a>
</g>
</g>
<!-- Node17&#45;&gt;Node14 -->
<g id="edge20_Node000017_Node000014" class="edge">
<title>Node17&#45;&gt;Node14</title>
<g id="a_edge20_Node000017_Node000014"><a xlink:title=" ">
<path fill="none" stroke="#63b8ff" d="M849.44,-164.67C835.33,-137.35 793.22,-55.94 792,-55 743.8,-17.9 670.36,-10.69 628.4,-9.87"/>
<polygon fill="#63b8ff" stroke="#63b8ff" points="628.23,-6.37 618.2,-9.78 628.17,-13.37 628.23,-6.37"/>
</a>
</g>
</g>
<!-- Node18 -->
<g id="Node000018" class="node">
<title>Node18</title>
<g id="a_Node000018"><a xlink:title=" ">
<polygon fill="#e0e0e0" stroke="#999999" points="904.5,-129 839.5,-129 839.5,-110 904.5,-110 904.5,-129"/>
<text text-anchor="middle" x="872" y="-117" font-family="Helvetica,sans-Serif" font-size="10.00">exception</text>
</a>
</g>
</g>
<!-- Node17&#45;&gt;Node18 -->
<g id="edge18_Node000017_Node000018" class="edge">
<title>Node17&#45;&gt;Node18</title>
<g id="a_edge18_Node000017_Node000018"><a xlink:title=" ">
<path fill="none" stroke="#63b8ff" d="M856.97,-164.75C859.36,-157.72 862.79,-147.62 865.77,-138.84"/>
<polygon fill="#63b8ff" stroke="#63b8ff" points="869.18,-139.68 869.08,-129.09 862.55,-137.43 869.18,-139.68"/>
</a>
</g>
</g>
<!-- Node19 -->
<g id="Node000019" class="node">
<title>Node19</title>
<g id="a_Node000019"><a xlink:title=" ">
<polygon fill="#e0e0e0" stroke="#999999" points="979,-129 923,-129 923,-110 979,-110 979,-129"/>
<text text-anchor="middle" x="951" y="-117" font-family="Helvetica,sans-Serif" font-size="10.00">sstream</text>
</a>
</g>
</g>
<!-- Node17&#45;&gt;Node19 -->
<g id="edge19_Node000017_Node000019" class="edge">
<title>Node17&#45;&gt;Node19</title>
<g id="a_edge19_Node000017_Node000019"><a xlink:title=" ">
<path fill="none" stroke="#63b8ff" d="M869.58,-164.98C884.77,-156.69 908.1,-143.94 925.9,-134.22"/>
<polygon fill="#63b8ff" stroke="#63b8ff" points="928.03,-137.04 935.13,-129.17 924.68,-130.89 928.03,-137.04"/>
</a>
</g>
</g>
</g>
</svg>
