<?xml version="1.0" encoding="UTF-8" standalone="no"?>
<!DOCTYPE svg PUBLIC "-//W3C//DTD SVG 1.1//EN"
 "http://www.w3.org/Graphics/SVG/1.1/DTD/svg11.dtd">
<!-- Generated by graphviz version 2.43.0 (0)
 -->
<!-- Title: src/Graphicals/SDL/SDLDisplayModule.hpp Pages: 1 -->
<svg width="987pt" height="258pt"
 viewBox="0.00 0.00 987.00 258.00" xmlns="http://www.w3.org/2000/svg" xmlns:xlink="http://www.w3.org/1999/xlink">
<g id="graph0" class="graph" transform="scale(1 1) rotate(0) translate(4 254)">
<title>src/Graphicals/SDL/SDLDisplayModule.hpp</title>
<!-- Node1 -->
<g id="Node000001" class="node">
<title>Node1</title>
<g id="a_Node000001"><a xlink:title="Header file for SDL display module.">
<polygon fill="#999999" stroke="#666666" points="499,-250 367,-250 367,-220 499,-220 499,-250"/>
<text text-anchor="start" x="375" y="-238" font-family="Helvetica,sans-Serif" font-size="10.00">src/Graphicals/SDL</text>
<text text-anchor="middle" x="433" y="-227" font-family="Helvetica,sans-Serif" font-size="10.00">/SDLDisplayModule.hpp</text>
</a>
</g>
</g>
<!-- Node2 -->
<g id="Node000002" class="node">
<title>Node2</title>
<g id="a_Node000002"><a xlink:title=" ">
<polygon fill="#e0e0e0" stroke="#999999" points="72,-184 0,-184 0,-165 72,-165 72,-184"/>
<text text-anchor="middle" x="36" y="-172" font-family="Helvetica,sans-Serif" font-size="10.00">SDL2/SDL.h</text>
</a>
</g>
</g>
<!-- Node1&#45;&gt;Node2 -->
<g id="edge1_Node000001_Node000002" class="edge">
<title>Node1&#45;&gt;Node2</title>
<g id="a_edge1_Node000001_Node000002"><a xlink:title=" ">
<path fill="none" stroke="#63b8ff" d="M366.69,-225.5C298.04,-216.49 187.44,-201.4 82.46,-184.18"/>
<polygon fill="#63b8ff" stroke="#63b8ff" points="82.76,-180.68 72.32,-182.51 81.62,-187.59 82.76,-180.68"/>
</a>
</g>
</g>
<!-- Node3 -->
<g id="Node000003" class="node">
<title>Node3</title>
<g id="a_Node000003"><a xlink:title=" ">
<polygon fill="#e0e0e0" stroke="#999999" points="178,-184 90,-184 90,-165 178,-165 178,-184"/>
<text text-anchor="middle" x="134" y="-172" font-family="Helvetica,sans-Serif" font-size="10.00">SDL2/SDL_ttf.h</text>
</a>
</g>
</g>
<!-- Node1&#45;&gt;Node3 -->
<g id="edge2_Node000001_Node000003" class="edge">
<title>Node1&#45;&gt;Node3</title>
<g id="a_edge2_Node000001_Node000003"><a xlink:title=" ">
<path fill="none" stroke="#63b8ff" d="M366.64,-221.02C312.72,-210.47 237.64,-195.78 187.51,-185.97"/>
<polygon fill="#63b8ff" stroke="#63b8ff" points="188.01,-182.5 177.52,-184.02 186.66,-189.37 188.01,-182.5"/>
</a>
</g>
</g>
<!-- Node4 -->
<g id="Node000004" class="node">
<title>Node4</title>
<g id="a_Node000004"><a xlink:href="font_8hpp.html" target="_top" xlink:title="Contains the binary representation of the default font used in the Arcade project.">
<polygon fill="white" stroke="#666666" points="297.5,-184 196.5,-184 196.5,-165 297.5,-165 297.5,-184"/>
<text text-anchor="middle" x="247" y="-172" font-family="Helvetica,sans-Serif" font-size="10.00">../Assets/font.hpp</text>
</a>
</g>
</g>
<!-- Node1&#45;&gt;Node4 -->
<g id="edge3_Node000001_Node000004" class="edge">
<title>Node1&#45;&gt;Node4</title>
<g id="a_edge3_Node000001_Node000004"><a xlink:title=" ">
<path fill="none" stroke="#63b8ff" d="M388.45,-219.99C356.49,-209.94 313.94,-196.55 283.88,-187.1"/>
<polygon fill="#63b8ff" stroke="#63b8ff" points="284.79,-183.72 274.2,-184.05 282.69,-190.39 284.79,-183.72"/>
</a>
</g>
</g>
<!-- Node5 -->
<g id="Node000005" class="node">
<title>Node5</title>
<g id="a_Node000005"><a xlink:title=" ">
<polygon fill="#e0e0e0" stroke="#999999" points="424,-184 316,-184 316,-165 424,-165 424,-184"/>
<text text-anchor="middle" x="370" y="-172" font-family="Helvetica,sans-Serif" font-size="10.00">SDL2/SDL_image.h</text>
</a>
</g>
</g>
<!-- Node1&#45;&gt;Node5 -->
<g id="edge4_Node000001_Node000005" class="edge">
<title>Node1&#45;&gt;Node5</title>
<g id="a_edge4_Node000001_Node000005"><a xlink:title=" ">
<path fill="none" stroke="#63b8ff" d="M417.75,-219.84C408.42,-211.17 396.47,-200.08 386.85,-191.15"/>
<polygon fill="#63b8ff" stroke="#63b8ff" points="389.15,-188.51 379.44,-184.27 384.39,-193.64 389.15,-188.51"/>
</a>
</g>
</g>
<!-- Node6 -->
<g id="Node000006" class="node">
<title>Node6</title>
<g id="a_Node000006"><a xlink:title=" ">
<polygon fill="#e0e0e0" stroke="#999999" points="549.5,-184 442.5,-184 442.5,-165 549.5,-165 549.5,-184"/>
<text text-anchor="middle" x="496" y="-172" font-family="Helvetica,sans-Serif" font-size="10.00">SDL2/SDL_rwops.h</text>
</a>
</g>
</g>
<!-- Node1&#45;&gt;Node6 -->
<g id="edge5_Node000001_Node000006" class="edge">
<title>Node1&#45;&gt;Node6</title>
<g id="a_edge5_Node000001_Node000006"><a xlink:title=" ">
<path fill="none" stroke="#63b8ff" d="M448.25,-219.84C457.58,-211.17 469.53,-200.08 479.15,-191.15"/>
<polygon fill="#63b8ff" stroke="#63b8ff" points="481.61,-193.64 486.56,-184.27 476.85,-188.51 481.61,-193.64"/>
</a>
</g>
</g>
<!-- Node7 -->
<g id="Node000007" class="node">
<title>Node7</title>
<g id="a_Node000007"><a xlink:title=" ">
<polygon fill="#e0e0e0" stroke="#999999" points="612.5,-184 567.5,-184 567.5,-165 612.5,-165 612.5,-184"/>
<text text-anchor="middle" x="590" y="-172" font-family="Helvetica,sans-Serif" font-size="10.00">utility</text>
</a>
</g>
</g>
<!-- Node1&#45;&gt;Node7 -->
<g id="edge6_Node000001_Node000007" class="edge">
<title>Node1&#45;&gt;Node7</title>
<g id="a_edge6_Node000001_Node000007"><a xlink:title=" ">
<path fill="none" stroke="#63b8ff" d="M470.61,-219.99C497.19,-210.08 532.47,-196.94 557.77,-187.51"/>
<polygon fill="#63b8ff" stroke="#63b8ff" points="559.12,-190.74 567.27,-183.97 556.68,-184.18 559.12,-190.74"/>
</a>
</g>
</g>
<!-- Node8 -->
<g id="Node000008" class="node">
<title>Node8</title>
<g id="a_Node000008"><a xlink:href="ADisplayModule_8hpp.html" target="_top" xlink:title="Declares the abstract base class for display modules in the Arcade project.">
<polygon fill="white" stroke="#666666" points="747.5,-184 630.5,-184 630.5,-165 747.5,-165 747.5,-184"/>
<text text-anchor="middle" x="689" y="-172" font-family="Helvetica,sans-Serif" font-size="10.00">ADisplayModule.hpp</text>
</a>
</g>
</g>
<!-- Node1&#45;&gt;Node8 -->
<g id="edge7_Node000001_Node000008" class="edge">
<title>Node1&#45;&gt;Node8</title>
<g id="a_edge7_Node000001_Node000008"><a xlink:title=" ">
<path fill="none" stroke="#63b8ff" d="M494.32,-219.99C539.55,-209.65 600.2,-195.79 641.71,-186.31"/>
<polygon fill="#63b8ff" stroke="#63b8ff" points="642.6,-189.69 651.57,-184.05 641.04,-182.87 642.6,-189.69"/>
</a>
</g>
</g>
<!-- Node16 -->
<g id="Node000016" class="node">
<title>Node16</title>
<g id="a_Node000016"><a xlink:href="Error_8hpp.html" target="_top" xlink:title="Declaration of the program&#39;s custom exception class.">
<polygon fill="white" stroke="#666666" points="906,-184 802,-184 802,-165 906,-165 906,-184"/>
<text text-anchor="middle" x="854" y="-172" font-family="Helvetica,sans-Serif" font-size="10.00">../../Utils/Error.hpp</text>
</a>
</g>
</g>
<!-- Node1&#45;&gt;Node16 -->
<g id="edge16_Node000001_Node000016" class="edge">
<title>Node1&#45;&gt;Node16</title>
<g id="a_edge16_Node000001_Node000016"><a xlink:title=" ">
<path fill="none" stroke="#63b8ff" d="M499.24,-224.8C579.36,-213.66 713.18,-195.07 791.55,-184.18"/>
<polygon fill="#63b8ff" stroke="#63b8ff" points="792.34,-187.6 801.76,-182.76 791.38,-180.67 792.34,-187.6"/>
</a>
</g>
</g>
<!-- Node9 -->
<g id="Node000009" class="node">
<title>Node9</title>
<g id="a_Node000009"><a xlink:href="IDisplayModule_8hpp.html" target="_top" xlink:title="Declaration of the graphical display interface.">
<polygon fill="white" stroke="#666666" points="727.5,-129 614.5,-129 614.5,-110 727.5,-110 727.5,-129"/>
<text text-anchor="middle" x="671" y="-117" font-family="Helvetica,sans-Serif" font-size="10.00">IDisplayModule.hpp</text>
</a>
</g>
</g>
<!-- Node8&#45;&gt;Node9 -->
<g id="edge8_Node000008_Node000009" class="edge">
<title>Node8&#45;&gt;Node9</title>
<g id="a_edge8_Node000008_Node000009"><a xlink:title=" ">
<path fill="none" stroke="#63b8ff" d="M686.03,-164.75C683.64,-157.72 680.21,-147.62 677.23,-138.84"/>
<polygon fill="#63b8ff" stroke="#63b8ff" points="680.45,-137.43 673.92,-129.09 673.82,-139.68 680.45,-137.43"/>
</a>
</g>
</g>
<!-- Node10 -->
<g id="Node000010" class="node">
<title>Node10</title>
<g id="a_Node000010"><a xlink:href="Types_8hpp.html" target="_top" xlink:title="Defines the core data structures and types used across the Arcade project.">
<polygon fill="white" stroke="#666666" points="568,-74 446,-74 446,-55 568,-55 568,-74"/>
<text text-anchor="middle" x="507" y="-62" font-family="Helvetica,sans-Serif" font-size="10.00">../../include/Types.hpp</text>
</a>
</g>
</g>
<!-- Node9&#45;&gt;Node10 -->
<g id="edge9_Node000009_Node000010" class="edge">
<title>Node9&#45;&gt;Node10</title>
<g id="a_edge9_Node000009_Node000010"><a xlink:title=" ">
<path fill="none" stroke="#63b8ff" d="M644.65,-109.98C617.24,-101.13 574.11,-87.19 543.44,-77.28"/>
<polygon fill="#63b8ff" stroke="#63b8ff" points="544.15,-73.83 533.56,-74.08 542,-80.49 544.15,-73.83"/>
</a>
</g>
</g>
<!-- Node13 -->
<g id="Node000013" class="node">
<title>Node13</title>
<g id="a_Node000013"><a xlink:title=" ">
<polygon fill="#e0e0e0" stroke="#999999" points="618,-19 574,-19 574,0 618,0 618,-19"/>
<text text-anchor="middle" x="596" y="-7" font-family="Helvetica,sans-Serif" font-size="10.00">string</text>
</a>
</g>
</g>
<!-- Node9&#45;&gt;Node13 -->
<g id="edge13_Node000009_Node000013" class="edge">
<title>Node9&#45;&gt;Node13</title>
<g id="a_edge13_Node000009_Node000013"><a xlink:title=" ">
<path fill="none" stroke="#63b8ff" d="M655.52,-109.86C642.87,-102.05 625.44,-89.43 615,-74 605.83,-60.45 600.98,-42.36 598.49,-28.96"/>
<polygon fill="#63b8ff" stroke="#63b8ff" points="601.93,-28.33 596.9,-19 595.02,-29.43 601.93,-28.33"/>
</a>
</g>
</g>
<!-- Node14 -->
<g id="Node000014" class="node">
<title>Node14</title>
<g id="a_Node000014"><a xlink:title=" ">
<polygon fill="#e0e0e0" stroke="#999999" points="717.5,-74 624.5,-74 624.5,-55 717.5,-55 717.5,-74"/>
<text text-anchor="middle" x="671" y="-62" font-family="Helvetica,sans-Serif" font-size="10.00">unordered_map</text>
</a>
</g>
</g>
<!-- Node9&#45;&gt;Node14 -->
<g id="edge14_Node000009_Node000014" class="edge">
<title>Node9&#45;&gt;Node14</title>
<g id="a_edge14_Node000009_Node000014"><a xlink:title=" ">
<path fill="none" stroke="#63b8ff" d="M671,-109.75C671,-102.8 671,-92.85 671,-84.13"/>
<polygon fill="#63b8ff" stroke="#63b8ff" points="674.5,-84.09 671,-74.09 667.5,-84.09 674.5,-84.09"/>
</a>
</g>
</g>
<!-- Node15 -->
<g id="Node000015" class="node">
<title>Node15</title>
<g id="a_Node000015"><a xlink:title=" ">
<polygon fill="#e0e0e0" stroke="#999999" points="782.5,-74 735.5,-74 735.5,-55 782.5,-55 782.5,-74"/>
<text text-anchor="middle" x="759" y="-62" font-family="Helvetica,sans-Serif" font-size="10.00">vector</text>
</a>
</g>
</g>
<!-- Node9&#45;&gt;Node15 -->
<g id="edge15_Node000009_Node000015" class="edge">
<title>Node9&#45;&gt;Node15</title>
<g id="a_edge15_Node000009_Node000015"><a xlink:title=" ">
<path fill="none" stroke="#63b8ff" d="M685.14,-109.98C698.79,-101.77 719.69,-89.18 735.78,-79.49"/>
<polygon fill="#63b8ff" stroke="#63b8ff" points="737.84,-82.33 744.6,-74.17 734.23,-76.33 737.84,-82.33"/>
</a>
</g>
</g>
<!-- Node11 -->
<g id="Node000011" class="node">
<title>Node11</title>
<g id="a_Node000011"><a xlink:title=" ">
<polygon fill="#e0e0e0" stroke="#999999" points="464,-19 414,-19 414,0 464,0 464,-19"/>
<text text-anchor="middle" x="439" y="-7" font-family="Helvetica,sans-Serif" font-size="10.00">cstdint</text>
</a>
</g>
</g>
<!-- Node10&#45;&gt;Node11 -->
<g id="edge10_Node000010_Node000011" class="edge">
<title>Node10&#45;&gt;Node11</title>
<g id="a_edge10_Node000010_Node000011"><a xlink:title=" ">
<path fill="none" stroke="#63b8ff" d="M496.07,-54.98C485.92,-47.07 470.58,-35.11 458.35,-25.58"/>
<polygon fill="#63b8ff" stroke="#63b8ff" points="460.16,-22.56 450.12,-19.17 455.86,-28.08 460.16,-22.56"/>
</a>
</g>
</g>
<!-- Node12 -->
<g id="Node000012" class="node">
<title>Node12</title>
<g id="a_Node000012"><a xlink:title=" ">
<polygon fill="#e0e0e0" stroke="#999999" points="547.5,-19 482.5,-19 482.5,0 547.5,0 547.5,-19"/>
<text text-anchor="middle" x="515" y="-7" font-family="Helvetica,sans-Serif" font-size="10.00">functional</text>
</a>
</g>
</g>
<!-- Node10&#45;&gt;Node12 -->
<g id="edge11_Node000010_Node000012" class="edge">
<title>Node10&#45;&gt;Node12</title>
<g id="a_edge11_Node000010_Node000012"><a xlink:title=" ">
<path fill="none" stroke="#63b8ff" d="M508.32,-54.75C509.37,-47.8 510.87,-37.85 512.19,-29.13"/>
<polygon fill="#63b8ff" stroke="#63b8ff" points="515.67,-29.5 513.7,-19.09 508.75,-28.45 515.67,-29.5"/>
</a>
</g>
</g>
<!-- Node10&#45;&gt;Node13 -->
<g id="edge12_Node000010_Node000013" class="edge">
<title>Node10&#45;&gt;Node13</title>
<g id="a_edge12_Node000010_Node000013"><a xlink:title=" ">
<path fill="none" stroke="#63b8ff" d="M521.3,-54.98C535.1,-46.77 556.24,-34.18 572.51,-24.49"/>
<polygon fill="#63b8ff" stroke="#63b8ff" points="574.64,-27.29 581.44,-19.17 571.06,-21.28 574.64,-27.29"/>
</a>
</g>
</g>
<!-- Node16&#45;&gt;Node13 -->
<g id="edge19_Node000016_Node000013" class="edge">
<title>Node16&#45;&gt;Node13</title>
<g id="a_edge19_Node000016_Node000013"><a xlink:title=" ">
<path fill="none" stroke="#63b8ff" d="M849.44,-164.67C835.33,-137.35 793.22,-55.94 792,-55 743.8,-17.9 670.36,-10.69 628.4,-9.87"/>
<polygon fill="#63b8ff" stroke="#63b8ff" points="628.23,-6.37 618.2,-9.78 628.17,-13.37 628.23,-6.37"/>
</a>
</g>
</g>
<!-- Node17 -->
<g id="Node000017" class="node">
<title>Node17</title>
<g id="a_Node000017"><a xlink:title=" ">
<polygon fill="#e0e0e0" stroke="#999999" points="904.5,-129 839.5,-129 839.5,-110 904.5,-110 904.5,-129"/>
<text text-anchor="middle" x="872" y="-117" font-family="Helvetica,sans-Serif" font-size="10.00">exception</text>
</a>
</g>
</g>
<!-- Node16&#45;&gt;Node17 -->
<g id="edge17_Node000016_Node000017" class="edge">
<title>Node16&#45;&gt;Node17</title>
<g id="a_edge17_Node000016_Node000017"><a xlink:title=" ">
<path fill="none" stroke="#63b8ff" d="M856.97,-164.75C859.36,-157.72 862.79,-147.62 865.77,-138.84"/>
<polygon fill="#63b8ff" stroke="#63b8ff" points="869.18,-139.68 869.08,-129.09 862.55,-137.43 869.18,-139.68"/>
</a>
</g>
</g>
<!-- Node18 -->
<g id="Node000018" class="node">
<title>Node18</title>
<g id="a_Node000018"><a xlink:title=" ">
<polygon fill="#e0e0e0" stroke="#999999" points="979,-129 923,-129 923,-110 979,-110 979,-129"/>
<text text-anchor="middle" x="951" y="-117" font-family="Helvetica,sans-Serif" font-size="10.00">sstream</text>
</a>
</g>
</g>
<!-- Node16&#45;&gt;Node18 -->
<g id="edge18_Node000016_Node000018" class="edge">
<title>Node16&#45;&gt;Node18</title>
<g id="a_edge18_Node000016_Node000018"><a xlink:title=" ">
<path fill="none" stroke="#63b8ff" d="M869.58,-164.98C884.77,-156.69 908.1,-143.94 925.9,-134.22"/>
<polygon fill="#63b8ff" stroke="#63b8ff" points="928.03,-137.04 935.13,-129.17 924.68,-130.89 928.03,-137.04"/>
</a>
</g>
</g>
</g>
</svg>
