<?xml version="1.0" encoding="UTF-8" standalone="no"?>
<!DOCTYPE svg PUBLIC "-//W3C//DTD SVG 1.1//EN"
 "http://www.w3.org/Graphics/SVG/1.1/DTD/svg11.dtd">
<!-- Generated by graphviz version 2.43.0 (0)
 -->
<!-- Title: src/Graphicals/SFML/SFMLCharTraitFix.hpp Pages: 1 -->
<svg width="306pt" height="93pt"
 viewBox="0.00 0.00 305.50 93.00" xmlns="http://www.w3.org/2000/svg" xmlns:xlink="http://www.w3.org/1999/xlink">
<g id="graph0" class="graph" transform="scale(1 1) rotate(0) translate(4 89)">
<title>src/Graphicals/SFML/SFMLCharTraitFix.hpp</title>
<!-- Node1 -->
<g id="Node000001" class="node">
<title>Node1</title>
<g id="a_Node000001"><a xlink:title="Contains compatibilty functions related to SFML.">
<polygon fill="#999999" stroke="#666666" points="232.5,-85 107.5,-85 107.5,-55 232.5,-55 232.5,-85"/>
<text text-anchor="start" x="115.5" y="-73" font-family="Helvetica,sans-Serif" font-size="10.00">src/Graphicals/SFML</text>
<text text-anchor="middle" x="170" y="-62" font-family="Helvetica,sans-Serif" font-size="10.00">/SFMLCharTraitFix.hpp</text>
</a>
</g>
</g>
<!-- Node2 -->
<g id="Node000002" class="node">
<title>Node2</title>
<g id="a_Node000002"><a xlink:title=" ">
<polygon fill="#e0e0e0" stroke="#999999" points="98,-19 0,-19 0,0 98,0 98,-19"/>
<text text-anchor="middle" x="49" y="-7" font-family="Helvetica,sans-Serif" font-size="10.00">SFML/Config.hpp</text>
</a>
</g>
</g>
<!-- Node1&#45;&gt;Node2 -->
<g id="edge1_Node000001_Node000002" class="edge">
<title>Node1&#45;&gt;Node2</title>
<g id="a_edge1_Node000001_Node000002"><a xlink:title=" ">
<path fill="none" stroke="#63b8ff" d="M141.02,-54.99C121.28,-45.45 95.33,-32.9 76.03,-23.57"/>
<polygon fill="#63b8ff" stroke="#63b8ff" points="77.4,-20.34 66.87,-19.14 74.35,-26.64 77.4,-20.34"/>
</a>
</g>
</g>
<!-- Node3 -->
<g id="Node000003" class="node">
<title>Node3</title>
<g id="a_Node000003"><a xlink:title=" ">
<polygon fill="#e0e0e0" stroke="#999999" points="160,-19 116,-19 116,0 160,0 160,-19"/>
<text text-anchor="middle" x="138" y="-7" font-family="Helvetica,sans-Serif" font-size="10.00">string</text>
</a>
</g>
</g>
<!-- Node1&#45;&gt;Node3 -->
<g id="edge2_Node000001_Node000003" class="edge">
<title>Node1&#45;&gt;Node3</title>
<g id="a_edge2_Node000001_Node000003"><a xlink:title=" ">
<path fill="none" stroke="#63b8ff" d="M162.25,-54.84C157.85,-46.78 152.29,-36.62 147.6,-28.06"/>
<polygon fill="#63b8ff" stroke="#63b8ff" points="150.66,-26.36 142.8,-19.27 144.52,-29.72 150.66,-26.36"/>
</a>
</g>
</g>
<!-- Node4 -->
<g id="Node000004" class="node">
<title>Node4</title>
<g id="a_Node000004"><a xlink:title=" ">
<polygon fill="#e0e0e0" stroke="#999999" points="228,-19 178,-19 178,0 228,0 228,-19"/>
<text text-anchor="middle" x="203" y="-7" font-family="Helvetica,sans-Serif" font-size="10.00">cstring</text>
</a>
</g>
</g>
<!-- Node1&#45;&gt;Node4 -->
<g id="edge3_Node000001_Node000004" class="edge">
<title>Node1&#45;&gt;Node4</title>
<g id="a_edge3_Node000001_Node000004"><a xlink:title=" ">
<path fill="none" stroke="#63b8ff" d="M177.99,-54.84C182.53,-46.78 188.27,-36.62 193.1,-28.06"/>
<polygon fill="#63b8ff" stroke="#63b8ff" points="196.19,-29.7 198.06,-19.27 190.09,-26.26 196.19,-29.7"/>
</a>
</g>
</g>
<!-- Node5 -->
<g id="Node000005" class="node">
<title>Node5</title>
<g id="a_Node000005"><a xlink:title=" ">
<polygon fill="#e0e0e0" stroke="#999999" points="297.5,-19 246.5,-19 246.5,0 297.5,0 297.5,-19"/>
<text text-anchor="middle" x="272" y="-7" font-family="Helvetica,sans-Serif" font-size="10.00">cwchar</text>
</a>
</g>
</g>
<!-- Node1&#45;&gt;Node5 -->
<g id="edge4_Node000001_Node000005" class="edge">
<title>Node1&#45;&gt;Node5</title>
<g id="a_edge4_Node000001_Node000005"><a xlink:title=" ">
<path fill="none" stroke="#63b8ff" d="M194.43,-54.99C210.69,-45.66 231.95,-33.47 248.1,-24.21"/>
<polygon fill="#63b8ff" stroke="#63b8ff" points="250,-27.15 256.94,-19.14 246.52,-21.08 250,-27.15"/>
</a>
</g>
</g>
</g>
</svg>
