<?xml version="1.0" encoding="UTF-8" standalone="no"?>
<!DOCTYPE svg PUBLIC "-//W3C//DTD SVG 1.1//EN"
 "http://www.w3.org/Graphics/SVG/1.1/DTD/svg11.dtd">
<!-- Generated by graphviz version 2.43.0 (0)
 -->
<!-- Title: src/Graphicals/SFML/SFMLDisplayModule.hpp Pages: 1 -->
<svg width="1150pt" height="258pt"
 viewBox="0.00 0.00 1149.50 258.00" xmlns="http://www.w3.org/2000/svg" xmlns:xlink="http://www.w3.org/1999/xlink">
<g id="graph0" class="graph" transform="scale(1 1) rotate(0) translate(4 254)">
<title>src/Graphicals/SFML/SFMLDisplayModule.hpp</title>
<!-- Node1 -->
<g id="Node000001" class="node">
<title>Node1</title>
<g id="a_Node000001"><a xlink:title="Header file for SFML display module.">
<polygon fill="#999999" stroke="#666666" points="790,-250 650,-250 650,-220 790,-220 790,-250"/>
<text text-anchor="start" x="658" y="-238" font-family="Helvetica,sans-Serif" font-size="10.00">src/Graphicals/SFML</text>
<text text-anchor="middle" x="720" y="-227" font-family="Helvetica,sans-Serif" font-size="10.00">/SFMLDisplayModule.hpp</text>
</a>
</g>
</g>
<!-- Node2 -->
<g id="Node000002" class="node">
<title>Node2</title>
<g id="a_Node000002"><a xlink:href="ADisplayModule_8hpp.html" target="_top" xlink:title="Declares the abstract base class for display modules in the Arcade project.">
<polygon fill="white" stroke="#666666" points="358,-184 232,-184 232,-165 358,-165 358,-184"/>
<text text-anchor="middle" x="295" y="-172" font-family="Helvetica,sans-Serif" font-size="10.00">../ADisplayModule.hpp</text>
</a>
</g>
</g>
<!-- Node1&#45;&gt;Node2 -->
<g id="edge1_Node000001_Node000002" class="edge">
<title>Node1&#45;&gt;Node2</title>
<g id="a_edge1_Node000001_Node000002"><a xlink:title=" ">
<path fill="none" stroke="#63b8ff" d="M649.82,-224.34C571.75,-213.59 446.25,-196.32 367.32,-185.46"/>
<polygon fill="#63b8ff" stroke="#63b8ff" points="367.37,-181.93 356.98,-184.03 366.41,-188.86 367.37,-181.93"/>
</a>
</g>
</g>
<!-- Node10 -->
<g id="Node000010" class="node">
<title>Node10</title>
<g id="a_Node000010"><a xlink:href="SFMLCharTraitFix_8hpp_source.html" target="_top" xlink:title=" ">
<polygon fill="white" stroke="#666666" points="535,-184 413,-184 413,-165 535,-165 535,-184"/>
<text text-anchor="middle" x="474" y="-172" font-family="Helvetica,sans-Serif" font-size="10.00">SFMLCharTraitFix.hpp</text>
</a>
</g>
</g>
<!-- Node1&#45;&gt;Node10 -->
<g id="edge10_Node000001_Node000010" class="edge">
<title>Node1&#45;&gt;Node10</title>
<g id="a_edge10_Node000001_Node000010"><a xlink:title=" ">
<path fill="none" stroke="#63b8ff" d="M661.08,-219.99C617.8,-209.7 559.83,-195.91 519.95,-186.43"/>
<polygon fill="#63b8ff" stroke="#63b8ff" points="520.51,-182.96 509.97,-184.05 518.89,-189.77 520.51,-182.96"/>
</a>
</g>
</g>
<!-- Node14 -->
<g id="Node000014" class="node">
<title>Node14</title>
<g id="a_Node000014"><a xlink:href="font_8hpp.html" target="_top" xlink:title="Contains the binary representation of the default font used in the Arcade project.">
<polygon fill="white" stroke="#666666" points="654.5,-184 553.5,-184 553.5,-165 654.5,-165 654.5,-184"/>
<text text-anchor="middle" x="604" y="-172" font-family="Helvetica,sans-Serif" font-size="10.00">../Assets/font.hpp</text>
</a>
</g>
</g>
<!-- Node1&#45;&gt;Node14 -->
<g id="edge15_Node000001_Node000014" class="edge">
<title>Node1&#45;&gt;Node14</title>
<g id="a_edge15_Node000001_Node000014"><a xlink:title=" ">
<path fill="none" stroke="#63b8ff" d="M692.22,-219.99C673.38,-210.49 648.65,-198.02 630.16,-188.69"/>
<polygon fill="#63b8ff" stroke="#63b8ff" points="631.64,-185.52 621.13,-184.14 628.48,-191.77 631.64,-185.52"/>
</a>
</g>
</g>
<!-- Node15 -->
<g id="Node000015" class="node">
<title>Node15</title>
<g id="a_Node000015"><a xlink:title=" ">
<polygon fill="#e0e0e0" stroke="#999999" points="767.5,-184 672.5,-184 672.5,-165 767.5,-165 767.5,-184"/>
<text text-anchor="middle" x="720" y="-172" font-family="Helvetica,sans-Serif" font-size="10.00">SFML/Audio.hpp</text>
</a>
</g>
</g>
<!-- Node1&#45;&gt;Node15 -->
<g id="edge16_Node000001_Node000015" class="edge">
<title>Node1&#45;&gt;Node15</title>
<g id="a_edge16_Node000001_Node000015"><a xlink:title=" ">
<path fill="none" stroke="#63b8ff" d="M720,-219.84C720,-212.21 720,-202.7 720,-194.45"/>
<polygon fill="#63b8ff" stroke="#63b8ff" points="723.5,-194.27 720,-184.27 716.5,-194.27 723.5,-194.27"/>
</a>
</g>
</g>
<!-- Node16 -->
<g id="Node000016" class="node">
<title>Node16</title>
<g id="a_Node000016"><a xlink:title=" ">
<polygon fill="#e0e0e0" stroke="#999999" points="896,-184 786,-184 786,-165 896,-165 896,-184"/>
<text text-anchor="middle" x="841" y="-172" font-family="Helvetica,sans-Serif" font-size="10.00">SFML/Graphics.hpp</text>
</a>
</g>
</g>
<!-- Node1&#45;&gt;Node16 -->
<g id="edge17_Node000001_Node000016" class="edge">
<title>Node1&#45;&gt;Node16</title>
<g id="a_edge17_Node000001_Node000016"><a xlink:title=" ">
<path fill="none" stroke="#63b8ff" d="M748.98,-219.99C768.72,-210.45 794.67,-197.9 813.97,-188.57"/>
<polygon fill="#63b8ff" stroke="#63b8ff" points="815.65,-191.64 823.13,-184.14 812.6,-185.34 815.65,-191.64"/>
</a>
</g>
</g>
<!-- Node17 -->
<g id="Node000017" class="node">
<title>Node17</title>
<g id="a_Node000017"><a xlink:title=" ">
<polygon fill="#e0e0e0" stroke="#999999" points="1018,-184 914,-184 914,-165 1018,-165 1018,-184"/>
<text text-anchor="middle" x="966" y="-172" font-family="Helvetica,sans-Serif" font-size="10.00">SFML/System.hpp</text>
</a>
</g>
</g>
<!-- Node1&#45;&gt;Node17 -->
<g id="edge18_Node000001_Node000017" class="edge">
<title>Node1&#45;&gt;Node17</title>
<g id="a_edge18_Node000001_Node000017"><a xlink:title=" ">
<path fill="none" stroke="#63b8ff" d="M778.92,-219.99C822.2,-209.7 880.17,-195.91 920.05,-186.43"/>
<polygon fill="#63b8ff" stroke="#63b8ff" points="921.11,-189.77 930.03,-184.05 919.49,-182.96 921.11,-189.77"/>
</a>
</g>
</g>
<!-- Node18 -->
<g id="Node000018" class="node">
<title>Node18</title>
<g id="a_Node000018"><a xlink:title=" ">
<polygon fill="#e0e0e0" stroke="#999999" points="1141.5,-184 1036.5,-184 1036.5,-165 1141.5,-165 1141.5,-184"/>
<text text-anchor="middle" x="1089" y="-172" font-family="Helvetica,sans-Serif" font-size="10.00">SFML/Window.hpp</text>
</a>
</g>
</g>
<!-- Node1&#45;&gt;Node18 -->
<g id="edge19_Node000001_Node000018" class="edge">
<title>Node1&#45;&gt;Node18</title>
<g id="a_edge19_Node000001_Node000018"><a xlink:title=" ">
<path fill="none" stroke="#63b8ff" d="M790.27,-222.86C858.36,-212.07 960.65,-195.85 1026.11,-185.47"/>
<polygon fill="#63b8ff" stroke="#63b8ff" points="1026.96,-188.88 1036.29,-183.86 1025.86,-181.97 1026.96,-188.88"/>
</a>
</g>
</g>
<!-- Node3 -->
<g id="Node000003" class="node">
<title>Node3</title>
<g id="a_Node000003"><a xlink:href="IDisplayModule_8hpp.html" target="_top" xlink:title="Declaration of the graphical display interface.">
<polygon fill="white" stroke="#666666" points="313.5,-129 200.5,-129 200.5,-110 313.5,-110 313.5,-129"/>
<text text-anchor="middle" x="257" y="-117" font-family="Helvetica,sans-Serif" font-size="10.00">IDisplayModule.hpp</text>
</a>
</g>
</g>
<!-- Node2&#45;&gt;Node3 -->
<g id="edge2_Node000002_Node000003" class="edge">
<title>Node2&#45;&gt;Node3</title>
<g id="a_edge2_Node000002_Node000003"><a xlink:title=" ">
<path fill="none" stroke="#63b8ff" d="M288.73,-164.75C283.41,-157.34 275.64,-146.5 269.12,-137.41"/>
<polygon fill="#63b8ff" stroke="#63b8ff" points="271.83,-135.18 263.16,-129.09 266.14,-139.26 271.83,-135.18"/>
</a>
</g>
</g>
<!-- Node4 -->
<g id="Node000004" class="node">
<title>Node4</title>
<g id="a_Node000004"><a xlink:href="Types_8hpp.html" target="_top" xlink:title="Defines the core data structures and types used across the Arcade project.">
<polygon fill="white" stroke="#666666" points="154,-74 32,-74 32,-55 154,-55 154,-74"/>
<text text-anchor="middle" x="93" y="-62" font-family="Helvetica,sans-Serif" font-size="10.00">../../include/Types.hpp</text>
</a>
</g>
</g>
<!-- Node3&#45;&gt;Node4 -->
<g id="edge3_Node000003_Node000004" class="edge">
<title>Node3&#45;&gt;Node4</title>
<g id="a_edge3_Node000003_Node000004"><a xlink:title=" ">
<path fill="none" stroke="#63b8ff" d="M230.65,-109.98C203.24,-101.13 160.11,-87.19 129.44,-77.28"/>
<polygon fill="#63b8ff" stroke="#63b8ff" points="130.15,-73.83 119.56,-74.08 128,-80.49 130.15,-73.83"/>
</a>
</g>
</g>
<!-- Node7 -->
<g id="Node000007" class="node">
<title>Node7</title>
<g id="a_Node000007"><a xlink:title=" ">
<polygon fill="#e0e0e0" stroke="#999999" points="204,-19 160,-19 160,0 204,0 204,-19"/>
<text text-anchor="middle" x="182" y="-7" font-family="Helvetica,sans-Serif" font-size="10.00">string</text>
</a>
</g>
</g>
<!-- Node3&#45;&gt;Node7 -->
<g id="edge7_Node000003_Node000007" class="edge">
<title>Node3&#45;&gt;Node7</title>
<g id="a_edge7_Node000003_Node000007"><a xlink:title=" ">
<path fill="none" stroke="#63b8ff" d="M241.52,-109.86C228.87,-102.05 211.44,-89.43 201,-74 191.83,-60.45 186.98,-42.36 184.49,-28.96"/>
<polygon fill="#63b8ff" stroke="#63b8ff" points="187.93,-28.33 182.9,-19 181.02,-29.43 187.93,-28.33"/>
</a>
</g>
</g>
<!-- Node8 -->
<g id="Node000008" class="node">
<title>Node8</title>
<g id="a_Node000008"><a xlink:title=" ">
<polygon fill="#e0e0e0" stroke="#999999" points="303.5,-74 210.5,-74 210.5,-55 303.5,-55 303.5,-74"/>
<text text-anchor="middle" x="257" y="-62" font-family="Helvetica,sans-Serif" font-size="10.00">unordered_map</text>
</a>
</g>
</g>
<!-- Node3&#45;&gt;Node8 -->
<g id="edge8_Node000003_Node000008" class="edge">
<title>Node3&#45;&gt;Node8</title>
<g id="a_edge8_Node000003_Node000008"><a xlink:title=" ">
<path fill="none" stroke="#63b8ff" d="M257,-109.75C257,-102.8 257,-92.85 257,-84.13"/>
<polygon fill="#63b8ff" stroke="#63b8ff" points="260.5,-84.09 257,-74.09 253.5,-84.09 260.5,-84.09"/>
</a>
</g>
</g>
<!-- Node9 -->
<g id="Node000009" class="node">
<title>Node9</title>
<g id="a_Node000009"><a xlink:title=" ">
<polygon fill="#e0e0e0" stroke="#999999" points="368.5,-74 321.5,-74 321.5,-55 368.5,-55 368.5,-74"/>
<text text-anchor="middle" x="345" y="-62" font-family="Helvetica,sans-Serif" font-size="10.00">vector</text>
</a>
</g>
</g>
<!-- Node3&#45;&gt;Node9 -->
<g id="edge9_Node000003_Node000009" class="edge">
<title>Node3&#45;&gt;Node9</title>
<g id="a_edge9_Node000003_Node000009"><a xlink:title=" ">
<path fill="none" stroke="#63b8ff" d="M271.14,-109.98C284.79,-101.77 305.69,-89.18 321.78,-79.49"/>
<polygon fill="#63b8ff" stroke="#63b8ff" points="323.84,-82.33 330.6,-74.17 320.23,-76.33 323.84,-82.33"/>
</a>
</g>
</g>
<!-- Node5 -->
<g id="Node000005" class="node">
<title>Node5</title>
<g id="a_Node000005"><a xlink:title=" ">
<polygon fill="#e0e0e0" stroke="#999999" points="50,-19 0,-19 0,0 50,0 50,-19"/>
<text text-anchor="middle" x="25" y="-7" font-family="Helvetica,sans-Serif" font-size="10.00">cstdint</text>
</a>
</g>
</g>
<!-- Node4&#45;&gt;Node5 -->
<g id="edge4_Node000004_Node000005" class="edge">
<title>Node4&#45;&gt;Node5</title>
<g id="a_edge4_Node000004_Node000005"><a xlink:title=" ">
<path fill="none" stroke="#63b8ff" d="M82.07,-54.98C71.92,-47.07 56.58,-35.11 44.35,-25.58"/>
<polygon fill="#63b8ff" stroke="#63b8ff" points="46.16,-22.56 36.12,-19.17 41.86,-28.08 46.16,-22.56"/>
</a>
</g>
</g>
<!-- Node6 -->
<g id="Node000006" class="node">
<title>Node6</title>
<g id="a_Node000006"><a xlink:title=" ">
<polygon fill="#e0e0e0" stroke="#999999" points="133.5,-19 68.5,-19 68.5,0 133.5,0 133.5,-19"/>
<text text-anchor="middle" x="101" y="-7" font-family="Helvetica,sans-Serif" font-size="10.00">functional</text>
</a>
</g>
</g>
<!-- Node4&#45;&gt;Node6 -->
<g id="edge5_Node000004_Node000006" class="edge">
<title>Node4&#45;&gt;Node6</title>
<g id="a_edge5_Node000004_Node000006"><a xlink:title=" ">
<path fill="none" stroke="#63b8ff" d="M94.32,-54.75C95.37,-47.8 96.87,-37.85 98.19,-29.13"/>
<polygon fill="#63b8ff" stroke="#63b8ff" points="101.67,-29.5 99.7,-19.09 94.75,-28.45 101.67,-29.5"/>
</a>
</g>
</g>
<!-- Node4&#45;&gt;Node7 -->
<g id="edge6_Node000004_Node000007" class="edge">
<title>Node4&#45;&gt;Node7</title>
<g id="a_edge6_Node000004_Node000007"><a xlink:title=" ">
<path fill="none" stroke="#63b8ff" d="M107.3,-54.98C121.1,-46.77 142.24,-34.18 158.51,-24.49"/>
<polygon fill="#63b8ff" stroke="#63b8ff" points="160.64,-27.29 167.44,-19.17 157.06,-21.28 160.64,-27.29"/>
</a>
</g>
</g>
<!-- Node10&#45;&gt;Node7 -->
<g id="edge12_Node000010_Node000007" class="edge">
<title>Node10&#45;&gt;Node7</title>
<g id="a_edge12_Node000010_Node000007"><a xlink:title=" ">
<path fill="none" stroke="#63b8ff" d="M459.22,-164.74C446.55,-156.67 428.44,-143.75 416,-129 392.03,-100.58 406.48,-77.65 377,-55 329,-18.12 255.95,-10.83 214.22,-9.94"/>
<polygon fill="#63b8ff" stroke="#63b8ff" points="214.11,-6.44 204.08,-9.83 214.04,-13.44 214.11,-6.44"/>
</a>
</g>
</g>
<!-- Node11 -->
<g id="Node000011" class="node">
<title>Node11</title>
<g id="a_Node000011"><a xlink:title=" ">
<polygon fill="#e0e0e0" stroke="#999999" points="523,-129 425,-129 425,-110 523,-110 523,-129"/>
<text text-anchor="middle" x="474" y="-117" font-family="Helvetica,sans-Serif" font-size="10.00">SFML/Config.hpp</text>
</a>
</g>
</g>
<!-- Node10&#45;&gt;Node11 -->
<g id="edge11_Node000010_Node000011" class="edge">
<title>Node10&#45;&gt;Node11</title>
<g id="a_edge11_Node000010_Node000011"><a xlink:title=" ">
<path fill="none" stroke="#63b8ff" d="M474,-164.75C474,-157.8 474,-147.85 474,-139.13"/>
<polygon fill="#63b8ff" stroke="#63b8ff" points="477.5,-139.09 474,-129.09 470.5,-139.09 477.5,-139.09"/>
</a>
</g>
</g>
<!-- Node12 -->
<g id="Node000012" class="node">
<title>Node12</title>
<g id="a_Node000012"><a xlink:title=" ">
<polygon fill="#e0e0e0" stroke="#999999" points="591,-129 541,-129 541,-110 591,-110 591,-129"/>
<text text-anchor="middle" x="566" y="-117" font-family="Helvetica,sans-Serif" font-size="10.00">cstring</text>
</a>
</g>
</g>
<!-- Node10&#45;&gt;Node12 -->
<g id="edge13_Node000010_Node000012" class="edge">
<title>Node10&#45;&gt;Node12</title>
<g id="a_edge13_Node000010_Node000012"><a xlink:title=" ">
<path fill="none" stroke="#63b8ff" d="M488.78,-164.98C503.18,-156.69 525.31,-143.94 542.19,-134.22"/>
<polygon fill="#63b8ff" stroke="#63b8ff" points="544.03,-137.19 550.95,-129.17 540.54,-131.13 544.03,-137.19"/>
</a>
</g>
</g>
<!-- Node13 -->
<g id="Node000013" class="node">
<title>Node13</title>
<g id="a_Node000013"><a xlink:title=" ">
<polygon fill="#e0e0e0" stroke="#999999" points="660.5,-129 609.5,-129 609.5,-110 660.5,-110 660.5,-129"/>
<text text-anchor="middle" x="635" y="-117" font-family="Helvetica,sans-Serif" font-size="10.00">cwchar</text>
</a>
</g>
</g>
<!-- Node10&#45;&gt;Node13 -->
<g id="edge14_Node000010_Node000013" class="edge">
<title>Node10&#45;&gt;Node13</title>
<g id="a_edge14_Node000010_Node000013"><a xlink:title=" ">
<path fill="none" stroke="#63b8ff" d="M499.87,-164.98C526.94,-156.07 569.62,-142.02 599.76,-132.1"/>
<polygon fill="#63b8ff" stroke="#63b8ff" points="601.06,-135.36 609.46,-128.91 598.87,-128.71 601.06,-135.36"/>
</a>
</g>
</g>
</g>
</svg>
