<?xml version="1.0" encoding="UTF-8" standalone="no"?>
<!DOCTYPE svg PUBLIC "-//W3C//DTD SVG 1.1//EN"
 "http://www.w3.org/Graphics/SVG/1.1/DTD/svg11.dtd">
<!-- Generated by graphviz version 2.43.0 (0)
 -->
<!-- Title: src/Graphicals/SFML/SFMLCharTraitFix.hpp Pages: 1 -->
<svg width="148pt" height="170pt"
 viewBox="0.00 0.00 148.00 170.00" xmlns="http://www.w3.org/2000/svg" xmlns:xlink="http://www.w3.org/1999/xlink">
<g id="graph0" class="graph" transform="scale(1 1) rotate(0) translate(4 166)">
<title>src/Graphicals/SFML/SFMLCharTraitFix.hpp</title>
<!-- Node1 -->
<g id="Node000001" class="node">
<title>Node1</title>
<g id="a_Node000001"><a xlink:title="Contains compatibilty functions related to SFML.">
<polygon fill="#999999" stroke="#666666" points="132.5,-162 7.5,-162 7.5,-132 132.5,-132 132.5,-162"/>
<text text-anchor="start" x="15.5" y="-150" font-family="Helvetica,sans-Serif" font-size="10.00">src/Graphicals/SFML</text>
<text text-anchor="middle" x="70" y="-139" font-family="Helvetica,sans-Serif" font-size="10.00">/SFMLCharTraitFix.hpp</text>
</a>
</g>
</g>
<!-- Node2 -->
<g id="Node000002" class="node">
<title>Node2</title>
<g id="a_Node000002"><a xlink:href="SFMLDisplayModule_8hpp.html" target="_top" xlink:title="Header file for SFML display module.">
<polygon fill="white" stroke="#666666" points="140,-96 0,-96 0,-66 140,-66 140,-96"/>
<text text-anchor="start" x="8" y="-84" font-family="Helvetica,sans-Serif" font-size="10.00">src/Graphicals/SFML</text>
<text text-anchor="middle" x="70" y="-73" font-family="Helvetica,sans-Serif" font-size="10.00">/SFMLDisplayModule.hpp</text>
</a>
</g>
</g>
<!-- Node1&#45;&gt;Node2 -->
<g id="edge1_Node000001_Node000002" class="edge">
<title>Node1&#45;&gt;Node2</title>
<g id="a_edge1_Node000001_Node000002"><a xlink:title=" ">
<path fill="none" stroke="#63b8ff" d="M70,-121.54C70,-112.96 70,-103.61 70,-96.16"/>
<polygon fill="#63b8ff" stroke="#63b8ff" points="66.5,-121.8 70,-131.8 73.5,-121.8 66.5,-121.8"/>
</a>
</g>
</g>
<!-- Node3 -->
<g id="Node000003" class="node">
<title>Node3</title>
<g id="a_Node000003"><a xlink:href="SFMLDisplayModule_8cpp.html" target="_top" xlink:title="This file contains all functions related to SFML.">
<polygon fill="white" stroke="#666666" points="139.5,-30 0.5,-30 0.5,0 139.5,0 139.5,-30"/>
<text text-anchor="start" x="8.5" y="-18" font-family="Helvetica,sans-Serif" font-size="10.00">src/Graphicals/SFML</text>
<text text-anchor="middle" x="70" y="-7" font-family="Helvetica,sans-Serif" font-size="10.00">/SFMLDisplayModule.cpp</text>
</a>
</g>
</g>
<!-- Node2&#45;&gt;Node3 -->
<g id="edge2_Node000002_Node000003" class="edge">
<title>Node2&#45;&gt;Node3</title>
<g id="a_edge2_Node000002_Node000003"><a xlink:title=" ">
<path fill="none" stroke="#63b8ff" d="M70,-55.54C70,-46.96 70,-37.61 70,-30.16"/>
<polygon fill="#63b8ff" stroke="#63b8ff" points="66.5,-55.8 70,-65.8 73.5,-55.8 66.5,-55.8"/>
</a>
</g>
</g>
</g>
</svg>
