<?xml version="1.0" encoding="UTF-8" standalone="no"?>
<!DOCTYPE svg PUBLIC "-//W3C//DTD SVG 1.1//EN"
 "http://www.w3.org/Graphics/SVG/1.1/DTD/svg11.dtd">
<!-- Generated by graphviz version 2.43.0 (0)
 -->
<!-- Title: arcade::types::Entity Pages: 1 -->
<svg width="272pt" height="93pt"
 viewBox="0.00 0.00 271.50 93.00" xmlns="http://www.w3.org/2000/svg" xmlns:xlink="http://www.w3.org/1999/xlink">
<g id="graph0" class="graph" transform="scale(1 1) rotate(0) translate(4 89)">
<title>arcade::types::Entity</title>
<!-- Node1 -->
<g id="Node000001" class="node">
<title>Node1</title>
<g id="a_Node000001"><a xlink:title="Structure used to store and describe an entity.">
<polygon fill="#999999" stroke="#666666" points="192.5,-19 75.5,-19 75.5,0 192.5,0 192.5,-19"/>
<text text-anchor="middle" x="134" y="-7" font-family="Helvetica,sans-Serif" font-size="10.00">arcade::types::Entity</text>
</a>
</g>
</g>
<!-- Node2 -->
<g id="Node000002" class="node">
<title>Node2</title>
<g id="a_Node000002"><a xlink:href="structarcade_1_1types_1_1Position.html" target="_top" xlink:title="Defines the position of entities.">
<polygon fill="white" stroke="#666666" points="128,-85 0,-85 0,-66 128,-66 128,-85"/>
<text text-anchor="middle" x="64" y="-73" font-family="Helvetica,sans-Serif" font-size="10.00">arcade::types::Position</text>
</a>
</g>
</g>
<!-- Node2&#45;&gt;Node1 -->
<g id="edge1_Node000001_Node000002" class="edge">
<title>Node2&#45;&gt;Node1</title>
<g id="a_edge1_Node000001_Node000002"><a xlink:title=" ">
<path fill="none" stroke="#9a32cd" stroke-dasharray="5,2" d="M81.14,-58.83C94.69,-46.44 113.13,-29.59 124.26,-19.41"/>
<polygon fill="#9a32cd" stroke="#9a32cd" points="78.46,-56.54 73.44,-65.87 83.18,-61.7 78.46,-56.54"/>
</a>
</g>
<text text-anchor="middle" x="114.5" y="-40" font-family="Helvetica,sans-Serif" font-size="10.00" fill="grey"> pos</text>
</g>
<!-- Node3 -->
<g id="Node000003" class="node">
<title>Node3</title>
<g id="a_Node000003"><a xlink:href="structarcade_1_1types_1_1Sprite.html" target="_top" xlink:title="Structure that holds a sprite.">
<polygon fill="white" stroke="#666666" points="263.5,-85 146.5,-85 146.5,-66 263.5,-66 263.5,-85"/>
<text text-anchor="middle" x="205" y="-73" font-family="Helvetica,sans-Serif" font-size="10.00">arcade::types::Sprite</text>
</a>
</g>
</g>
<!-- Node3&#45;&gt;Node1 -->
<g id="edge2_Node000001_Node000003" class="edge">
<title>Node3&#45;&gt;Node1</title>
<g id="a_edge2_Node000001_Node000003"><a xlink:title=" ">
<path fill="none" stroke="#9a32cd" stroke-dasharray="5,2" d="M187.62,-58.83C173.87,-46.44 155.17,-29.59 143.88,-19.41"/>
<polygon fill="#9a32cd" stroke="#9a32cd" points="185.65,-61.77 195.42,-65.87 190.34,-56.57 185.65,-61.77"/>
</a>
</g>
<text text-anchor="middle" x="188.5" y="-40" font-family="Helvetica,sans-Serif" font-size="10.00" fill="grey"> sprite</text>
</g>
</g>
</svg>
