<?xml version="1.0" encoding="UTF-8" standalone="no"?>
<!DOCTYPE svg PUBLIC "-//W3C//DTD SVG 1.1//EN"
 "http://www.w3.org/Graphics/SVG/1.1/DTD/svg11.dtd">
<!-- Generated by graphviz version 2.43.0 (0)
 -->
<!-- Title: include/Types.hpp Pages: 1 -->
<svg width="2442pt" height="335pt"
 viewBox="0.00 0.00 2442.00 335.00" xmlns="http://www.w3.org/2000/svg" xmlns:xlink="http://www.w3.org/1999/xlink">
<g id="graph0" class="graph" transform="scale(1 1) rotate(0) translate(4 331)">
<title>include/Types.hpp</title>
<!-- Node1 -->
<g id="Node000001" class="node">
<title>Node1</title>
<g id="a_Node000001"><a xlink:title="Defines the core data structures and types used across the Arcade project.">
<polygon fill="#999999" stroke="#666666" points="669,-327 565,-327 565,-308 669,-308 669,-327"/>
<text text-anchor="middle" x="617" y="-315" font-family="Helvetica,sans-Serif" font-size="10.00">include/Types.hpp</text>
</a>
</g>
</g>
<!-- Node2 -->
<g id="Node000002" class="node">
<title>Node2</title>
<g id="a_Node000002"><a xlink:href="Core_8cpp.html" target="_top" xlink:title="Contains the core program methods.">
<polygon fill="white" stroke="#666666" points="102,-145.5 0,-145.5 0,-126.5 102,-126.5 102,-145.5"/>
<text text-anchor="middle" x="51" y="-133.5" font-family="Helvetica,sans-Serif" font-size="10.00">src/Core/Core.cpp</text>
</a>
</g>
</g>
<!-- Node1&#45;&gt;Node2 -->
<g id="edge1_Node000001_Node000002" class="edge">
<title>Node1&#45;&gt;Node2</title>
<g id="a_edge1_Node000001_Node000002"><a xlink:title=" ">
<path fill="none" stroke="#63b8ff" d="M554.69,-312.47C462.27,-304.5 285.24,-281.46 150,-217 111.3,-198.55 74.4,-162.12 58.8,-145.56"/>
<polygon fill="#63b8ff" stroke="#63b8ff" points="554.47,-315.96 564.72,-313.31 555.05,-308.99 554.47,-315.96"/>
</a>
</g>
</g>
<!-- Node3 -->
<g id="Node000003" class="node">
<title>Node3</title>
<g id="a_Node000003"><a xlink:href="IGame_8hpp.html" target="_top" xlink:title="Declaration of the game interface class.">
<polygon fill="white" stroke="#666666" points="595.5,-272 470.5,-272 470.5,-253 595.5,-253 595.5,-272"/>
<text text-anchor="middle" x="533" y="-260" font-family="Helvetica,sans-Serif" font-size="10.00">src/Games/IGame.hpp</text>
</a>
</g>
</g>
<!-- Node1&#45;&gt;Node3 -->
<g id="edge2_Node000001_Node000003" class="edge">
<title>Node1&#45;&gt;Node3</title>
<g id="a_edge2_Node000001_Node000003"><a xlink:title=" ">
<path fill="none" stroke="#63b8ff" d="M594.69,-302.42C579.45,-292.81 559.73,-280.37 546.74,-272.17"/>
<polygon fill="#63b8ff" stroke="#63b8ff" points="593.18,-305.61 603.5,-307.98 596.91,-299.69 593.18,-305.61"/>
</a>
</g>
</g>
<!-- Node14 -->
<g id="Node000014" class="node">
<title>Node14</title>
<g id="a_Node000014"><a xlink:href="includes_8hpp.html" target="_top" xlink:title="Defines the specials structures and types used by the Pacman game.">
<polygon fill="white" stroke="#666666" points="788,-272 614,-272 614,-253 788,-253 788,-272"/>
<text text-anchor="middle" x="701" y="-260" font-family="Helvetica,sans-Serif" font-size="10.00">src/Games/Pacman/includes.hpp</text>
</a>
</g>
</g>
<!-- Node1&#45;&gt;Node14 -->
<g id="edge15_Node000001_Node000014" class="edge">
<title>Node1&#45;&gt;Node14</title>
<g id="a_edge15_Node000001_Node000014"><a xlink:title=" ">
<path fill="none" stroke="#63b8ff" d="M639.31,-302.42C654.55,-292.81 674.27,-280.37 687.26,-272.17"/>
<polygon fill="#63b8ff" stroke="#63b8ff" points="637.09,-299.69 630.5,-307.98 640.82,-305.61 637.09,-299.69"/>
</a>
</g>
</g>
<!-- Node23 -->
<g id="Node000023" class="node">
<title>Node23</title>
<g id="a_Node000023"><a xlink:href="IDisplayModule_8hpp.html" target="_top" xlink:title="Declaration of the graphical display interface.">
<polygon fill="white" stroke="#666666" points="991.5,-272 806.5,-272 806.5,-253 991.5,-253 991.5,-272"/>
<text text-anchor="middle" x="899" y="-260" font-family="Helvetica,sans-Serif" font-size="10.00">src/Graphicals/IDisplayModule.hpp</text>
</a>
</g>
</g>
<!-- Node1&#45;&gt;Node23 -->
<g id="edge30_Node000001_Node000023" class="edge">
<title>Node1&#45;&gt;Node23</title>
<g id="a_edge30_Node000001_Node000023"><a xlink:title=" ">
<path fill="none" stroke="#63b8ff" d="M672.19,-306.13C725.06,-296.19 803.9,-281.37 853.34,-272.08"/>
<polygon fill="#63b8ff" stroke="#63b8ff" points="671.49,-302.7 662.31,-307.98 672.78,-309.58 671.49,-302.7"/>
</a>
</g>
</g>
<!-- Node4 -->
<g id="Node000004" class="node">
<title>Node4</title>
<g id="a_Node000004"><a xlink:href="Core_8hpp.html" target="_top" xlink:title="Declaration of the Core class and associated definitions.">
<polygon fill="white" stroke="#666666" points="262.5,-211.5 159.5,-211.5 159.5,-192.5 262.5,-192.5 262.5,-211.5"/>
<text text-anchor="middle" x="211" y="-199.5" font-family="Helvetica,sans-Serif" font-size="10.00">src/Core/Core.hpp</text>
</a>
</g>
</g>
<!-- Node3&#45;&gt;Node4 -->
<g id="edge3_Node000003_Node000004" class="edge">
<title>Node3&#45;&gt;Node4</title>
<g id="a_edge3_Node000003_Node000004"><a xlink:title=" ">
<path fill="none" stroke="#63b8ff" d="M476.16,-251.17C414.06,-239.89 315.73,-222.03 257.88,-211.52"/>
<polygon fill="#63b8ff" stroke="#63b8ff" points="475.71,-254.65 486.18,-252.99 476.97,-247.76 475.71,-254.65"/>
</a>
</g>
</g>
<!-- Node7 -->
<g id="Node000007" class="node">
<title>Node7</title>
<g id="a_Node000007"><a xlink:href="AGame_8hpp.html" target="_top" xlink:title="Declares the abstract base class for all Arcade games.">
<polygon fill="white" stroke="#666666" points="600,-211.5 472,-211.5 472,-192.5 600,-192.5 600,-211.5"/>
<text text-anchor="middle" x="536" y="-199.5" font-family="Helvetica,sans-Serif" font-size="10.00">src/Games/AGame.hpp</text>
</a>
</g>
</g>
<!-- Node3&#45;&gt;Node7 -->
<g id="edge7_Node000003_Node000007" class="edge">
<title>Node3&#45;&gt;Node7</title>
<g id="a_edge7_Node000003_Node000007"><a xlink:title=" ">
<path fill="none" stroke="#63b8ff" d="M533.97,-242.66C534.5,-232.24 535.14,-219.8 535.56,-211.67"/>
<polygon fill="#63b8ff" stroke="#63b8ff" points="530.46,-242.7 533.44,-252.87 537.45,-243.06 530.46,-242.7"/>
</a>
</g>
</g>
<!-- Node4&#45;&gt;Node2 -->
<g id="edge4_Node000004_Node000002" class="edge">
<title>Node4&#45;&gt;Node2</title>
<g id="a_edge4_Node000004_Node000002"><a xlink:title=" ">
<path fill="none" stroke="#63b8ff" d="M179.78,-188.51C148.15,-175.86 100.08,-156.63 72.49,-145.6"/>
<polygon fill="#63b8ff" stroke="#63b8ff" points="178.84,-191.9 189.42,-192.37 181.44,-185.41 178.84,-191.9"/>
</a>
</g>
</g>
<!-- Node5 -->
<g id="Node000005" class="node">
<title>Node5</title>
<g id="a_Node000005"><a xlink:href="Menu_8cpp.html" target="_top" xlink:title="Declares global variables used to store user selections in the Arcade menu.">
<polygon fill="white" stroke="#666666" points="318.5,-79.5 169.5,-79.5 169.5,-60.5 318.5,-60.5 318.5,-79.5"/>
<text text-anchor="middle" x="244" y="-67.5" font-family="Helvetica,sans-Serif" font-size="10.00">src/Games/Menu/Menu.cpp</text>
</a>
</g>
</g>
<!-- Node4&#45;&gt;Node5 -->
<g id="edge5_Node000004_Node000005" class="edge">
<title>Node4&#45;&gt;Node5</title>
<g id="a_edge5_Node000004_Node000005"><a xlink:title=" ">
<path fill="none" stroke="#63b8ff" d="M184.29,-187.06C171.06,-178.58 156.37,-166.41 149,-151 143.25,-138.97 142.11,-132.41 149,-121 162,-99.46 187.71,-86.73 209.11,-79.51"/>
<polygon fill="#63b8ff" stroke="#63b8ff" points="182.73,-190.21 193.11,-192.34 186.32,-184.2 182.73,-190.21"/>
</a>
</g>
</g>
<!-- Node6 -->
<g id="Node000006" class="node">
<title>Node6</title>
<g id="a_Node000006"><a xlink:href="main_8cpp.html" target="_top" xlink:title="Main entry point of the program.">
<polygon fill="white" stroke="#666666" points="264,-145.5 158,-145.5 158,-126.5 264,-126.5 264,-145.5"/>
<text text-anchor="middle" x="211" y="-133.5" font-family="Helvetica,sans-Serif" font-size="10.00">src/Main/main.cpp</text>
</a>
</g>
</g>
<!-- Node4&#45;&gt;Node6 -->
<g id="edge6_Node000004_Node000006" class="edge">
<title>Node4&#45;&gt;Node6</title>
<g id="a_edge6_Node000004_Node000006"><a xlink:title=" ">
<path fill="none" stroke="#63b8ff" d="M211,-182.08C211,-170.13 211,-155.22 211,-145.91"/>
<polygon fill="#63b8ff" stroke="#63b8ff" points="207.5,-182.37 211,-192.37 214.5,-182.37 207.5,-182.37"/>
</a>
</g>
</g>
<!-- Node8 -->
<g id="Node000008" class="node">
<title>Node8</title>
<g id="a_Node000008"><a xlink:href="Menu_8hpp.html" target="_top" xlink:title="Declares the Menu class, used to display and navigate game and library options.">
<polygon fill="white" stroke="#666666" points="431.5,-145.5 282.5,-145.5 282.5,-126.5 431.5,-126.5 431.5,-145.5"/>
<text text-anchor="middle" x="357" y="-133.5" font-family="Helvetica,sans-Serif" font-size="10.00">src/Games/Menu/Menu.hpp</text>
</a>
</g>
</g>
<!-- Node7&#45;&gt;Node8 -->
<g id="edge8_Node000007_Node000008" class="edge">
<title>Node7&#45;&gt;Node8</title>
<g id="a_edge8_Node000007_Node000008"><a xlink:title=" ">
<path fill="none" stroke="#63b8ff" d="M502.44,-189C467.09,-176.36 412.31,-156.78 381.04,-145.6"/>
<polygon fill="#63b8ff" stroke="#63b8ff" points="501.26,-192.3 511.86,-192.37 503.62,-185.71 501.26,-192.3"/>
</a>
</g>
</g>
<!-- Node9 -->
<g id="Node000009" class="node">
<title>Node9</title>
<g id="a_Node000009"><a xlink:href="PacmanGame_8hpp.html" target="_top" xlink:title="Main file of the Pacman game.">
<polygon fill="white" stroke="#666666" points="1068.5,-79.5 867.5,-79.5 867.5,-60.5 1068.5,-60.5 1068.5,-79.5"/>
<text text-anchor="middle" x="968" y="-67.5" font-family="Helvetica,sans-Serif" font-size="10.00">src/Games/Pacman/PacmanGame.hpp</text>
</a>
</g>
</g>
<!-- Node7&#45;&gt;Node9 -->
<g id="edge10_Node000007_Node000009" class="edge">
<title>Node7&#45;&gt;Node9</title>
<g id="a_edge10_Node000007_Node000009"><a xlink:title=" ">
<path fill="none" stroke="#63b8ff" d="M565.43,-188.45C586.82,-178.98 616.25,-165.22 641,-151 661.52,-139.21 663.08,-129.93 685,-121 742.88,-97.44 811.86,-84.96 867.23,-78.36"/>
<polygon fill="#63b8ff" stroke="#63b8ff" points="563.96,-185.27 556.21,-192.49 566.77,-191.68 563.96,-185.27"/>
</a>
</g>
</g>
<!-- Node12 -->
<g id="Node000012" class="node">
<title>Node12</title>
<g id="a_Node000012"><a xlink:href="SnakeGame_8hpp.html" target="_top" xlink:title="Declaration of the SnakeGame class and associated definitions.">
<polygon fill="white" stroke="#666666" points="632.5,-145.5 449.5,-145.5 449.5,-126.5 632.5,-126.5 632.5,-145.5"/>
<text text-anchor="middle" x="541" y="-133.5" font-family="Helvetica,sans-Serif" font-size="10.00">src/Games/Snake/SnakeGame.hpp</text>
</a>
</g>
</g>
<!-- Node7&#45;&gt;Node12 -->
<g id="edge13_Node000007_Node000012" class="edge">
<title>Node7&#45;&gt;Node12</title>
<g id="a_edge13_Node000007_Node000012"><a xlink:title=" ">
<path fill="none" stroke="#63b8ff" d="M537.48,-182.08C538.41,-170.13 539.58,-155.22 540.3,-145.91"/>
<polygon fill="#63b8ff" stroke="#63b8ff" points="533.96,-182.13 536.67,-192.37 540.94,-182.67 533.96,-182.13"/>
</a>
</g>
</g>
<!-- Node8&#45;&gt;Node5 -->
<g id="edge9_Node000008_Node000005" class="edge">
<title>Node8&#45;&gt;Node5</title>
<g id="a_edge9_Node000008_Node000005"><a xlink:title=" ">
<path fill="none" stroke="#63b8ff" d="M332.91,-121.36C310.67,-108.76 278.29,-90.42 259.36,-79.7"/>
<polygon fill="#63b8ff" stroke="#63b8ff" points="331.33,-124.49 341.76,-126.37 334.78,-118.39 331.33,-124.49"/>
</a>
</g>
</g>
<!-- Node10 -->
<g id="Node000010" class="node">
<title>Node10</title>
<g id="a_Node000010"><a xlink:href="PacmanFactory_8cpp.html" target="_top" xlink:title="Factory functions to create and destroy the Pacman game instance.">
<polygon fill="white" stroke="#666666" points="959.5,-19 754.5,-19 754.5,0 959.5,0 959.5,-19"/>
<text text-anchor="middle" x="857" y="-7" font-family="Helvetica,sans-Serif" font-size="10.00">src/Games/Pacman/PacmanFactory.cpp</text>
</a>
</g>
</g>
<!-- Node9&#45;&gt;Node10 -->
<g id="edge11_Node000009_Node000010" class="edge">
<title>Node9&#45;&gt;Node10</title>
<g id="a_edge11_Node000009_Node000010"><a xlink:title=" ">
<path fill="none" stroke="#63b8ff" d="M942.53,-55.58C921.29,-44.38 891.67,-28.77 873.45,-19.17"/>
<polygon fill="#63b8ff" stroke="#63b8ff" points="941.14,-58.8 951.62,-60.37 944.41,-52.61 941.14,-58.8"/>
</a>
</g>
</g>
<!-- Node11 -->
<g id="Node000011" class="node">
<title>Node11</title>
<g id="a_Node000011"><a xlink:href="PacmanGame_8cpp.html" target="_top" xlink:title="Implements the Main class of the Pacman game.">
<polygon fill="white" stroke="#666666" points="1178,-19 978,-19 978,0 1178,0 1178,-19"/>
<text text-anchor="middle" x="1078" y="-7" font-family="Helvetica,sans-Serif" font-size="10.00">src/Games/Pacman/PacmanGame.cpp</text>
</a>
</g>
</g>
<!-- Node9&#45;&gt;Node11 -->
<g id="edge12_Node000009_Node000011" class="edge">
<title>Node9&#45;&gt;Node11</title>
<g id="a_edge12_Node000009_Node000011"><a xlink:title=" ">
<path fill="none" stroke="#63b8ff" d="M993.24,-55.58C1014.28,-44.38 1043.64,-28.77 1061.7,-19.17"/>
<polygon fill="#63b8ff" stroke="#63b8ff" points="991.42,-52.58 984.23,-60.37 994.7,-58.76 991.42,-52.58"/>
</a>
</g>
</g>
<!-- Node13 -->
<g id="Node000013" class="node">
<title>Node13</title>
<g id="a_Node000013"><a xlink:href="SnakeGame_8cpp.html" target="_top" xlink:title="Snake Game.">
<polygon fill="white" stroke="#666666" points="632,-79.5 450,-79.5 450,-60.5 632,-60.5 632,-79.5"/>
<text text-anchor="middle" x="541" y="-67.5" font-family="Helvetica,sans-Serif" font-size="10.00">src/Games/Snake/SnakeGame.cpp</text>
</a>
</g>
</g>
<!-- Node12&#45;&gt;Node13 -->
<g id="edge14_Node000012_Node000013" class="edge">
<title>Node12&#45;&gt;Node13</title>
<g id="a_edge14_Node000012_Node000013"><a xlink:title=" ">
<path fill="none" stroke="#63b8ff" d="M541,-116.08C541,-104.13 541,-89.22 541,-79.91"/>
<polygon fill="#63b8ff" stroke="#63b8ff" points="537.5,-116.37 541,-126.37 544.5,-116.37 537.5,-116.37"/>
</a>
</g>
</g>
<!-- Node14&#45;&gt;Node9 -->
<g id="edge29_Node000014_Node000009" class="edge">
<title>Node14&#45;&gt;Node9</title>
<g id="a_edge29_Node000014_Node000009"><a xlink:title=" ">
<path fill="none" stroke="#63b8ff" d="M696.94,-242.94C691.61,-213.12 686.2,-154.48 717,-121 737.42,-98.81 806.76,-86.09 867.4,-79.04"/>
<polygon fill="#63b8ff" stroke="#63b8ff" points="693.53,-243.72 698.91,-252.85 700.39,-242.36 693.53,-243.72"/>
</a>
</g>
</g>
<!-- Node15 -->
<g id="Node000015" class="node">
<title>Node15</title>
<g id="a_Node000015"><a xlink:href="Ghost_8hpp.html" target="_top" xlink:title="Contains the behavior of the ghosts.">
<polygon fill="white" stroke="#666666" points="1125.5,-217 976.5,-217 976.5,-187 1125.5,-187 1125.5,-217"/>
<text text-anchor="start" x="984.5" y="-205" font-family="Helvetica,sans-Serif" font-size="10.00">src/Games/Pacman/Entities</text>
<text text-anchor="middle" x="1051" y="-194" font-family="Helvetica,sans-Serif" font-size="10.00">/Ghost.hpp</text>
</a>
</g>
</g>
<!-- Node14&#45;&gt;Node15 -->
<g id="edge16_Node000014_Node000015" class="edge">
<title>Node14&#45;&gt;Node15</title>
<g id="a_edge16_Node000014_Node000015"><a xlink:title=" ">
<path fill="none" stroke="#63b8ff" d="M761.92,-251.32C821.57,-241.35 912.56,-226.14 976.49,-215.45"/>
<polygon fill="#63b8ff" stroke="#63b8ff" points="761.18,-247.89 751.89,-252.99 762.33,-254.8 761.18,-247.89"/>
</a>
</g>
</g>
<!-- Node21 -->
<g id="Node000021" class="node">
<title>Node21</title>
<g id="a_Node000021"><a xlink:href="Player_8hpp.html" target="_top" xlink:title="Contains methods that define possible player behaviors.">
<polygon fill="white" stroke="#666666" points="1645.5,-217 1496.5,-217 1496.5,-187 1645.5,-187 1645.5,-217"/>
<text text-anchor="start" x="1504.5" y="-205" font-family="Helvetica,sans-Serif" font-size="10.00">src/Games/Pacman/Entities</text>
<text text-anchor="middle" x="1571" y="-194" font-family="Helvetica,sans-Serif" font-size="10.00">/Player.hpp</text>
</a>
</g>
</g>
<!-- Node14&#45;&gt;Node21 -->
<g id="edge26_Node000014_Node000021" class="edge">
<title>Node14&#45;&gt;Node21</title>
<g id="a_edge26_Node000014_Node000021"><a xlink:title=" ">
<path fill="none" stroke="#63b8ff" d="M798.24,-252.92C1061.15,-232.91 1359.83,-215.1 1496.24,-207.24"/>
<polygon fill="#63b8ff" stroke="#63b8ff" points="797.82,-249.44 788.11,-253.7 798.35,-256.42 797.82,-249.44"/>
</a>
</g>
</g>
<!-- Node16 -->
<g id="Node000016" class="node">
<title>Node16</title>
<g id="a_Node000016"><a xlink:href="Blinky_8hpp.html" target="_top" xlink:title="Implements the Blinky class, which inherits directly from the ghost class.">
<polygon fill="white" stroke="#666666" points="875.5,-151 726.5,-151 726.5,-121 875.5,-121 875.5,-151"/>
<text text-anchor="start" x="734.5" y="-139" font-family="Helvetica,sans-Serif" font-size="10.00">src/Games/Pacman/Entities</text>
<text text-anchor="middle" x="801" y="-128" font-family="Helvetica,sans-Serif" font-size="10.00">/Blinky.hpp</text>
</a>
</g>
</g>
<!-- Node15&#45;&gt;Node16 -->
<g id="edge17_Node000015_Node000016" class="edge">
<title>Node15&#45;&gt;Node16</title>
<g id="a_edge17_Node000015_Node000016"><a xlink:title=" ">
<path fill="none" stroke="#63b8ff" d="M986.36,-184.45C945.85,-174.08 894.21,-160.86 855.74,-151.01"/>
<polygon fill="#63b8ff" stroke="#63b8ff" points="985.58,-187.87 996.14,-186.95 987.32,-181.08 985.58,-187.87"/>
</a>
</g>
</g>
<!-- Node17 -->
<g id="Node000017" class="node">
<title>Node17</title>
<g id="a_Node000017"><a xlink:href="Clyde_8hpp.html" target="_top" xlink:title="Implements the Clyde class, which inherits directly from the ghost class.">
<polygon fill="white" stroke="#666666" points="1042.5,-151 893.5,-151 893.5,-121 1042.5,-121 1042.5,-151"/>
<text text-anchor="start" x="901.5" y="-139" font-family="Helvetica,sans-Serif" font-size="10.00">src/Games/Pacman/Entities</text>
<text text-anchor="middle" x="968" y="-128" font-family="Helvetica,sans-Serif" font-size="10.00">/Clyde.hpp</text>
</a>
</g>
</g>
<!-- Node15&#45;&gt;Node17 -->
<g id="edge19_Node000015_Node000017" class="edge">
<title>Node15&#45;&gt;Node17</title>
<g id="a_edge19_Node000015_Node000017"><a xlink:title=" ">
<path fill="none" stroke="#63b8ff" d="M1024.39,-180.48C1011.98,-170.91 997.53,-159.77 986.37,-151.16"/>
<polygon fill="#63b8ff" stroke="#63b8ff" points="1022.52,-183.46 1032.58,-186.8 1026.8,-177.92 1022.52,-183.46"/>
</a>
</g>
</g>
<!-- Node18 -->
<g id="Node000018" class="node">
<title>Node18</title>
<g id="a_Node000018"><a xlink:href="Ghost_8cpp.html" target="_top" xlink:title="Implementation file for the Ghost class used in the Pacman game.">
<polygon fill="white" stroke="#666666" points="1209.5,-151 1060.5,-151 1060.5,-121 1209.5,-121 1209.5,-151"/>
<text text-anchor="start" x="1068.5" y="-139" font-family="Helvetica,sans-Serif" font-size="10.00">src/Games/Pacman/Entities</text>
<text text-anchor="middle" x="1135" y="-128" font-family="Helvetica,sans-Serif" font-size="10.00">/Ghost.cpp</text>
</a>
</g>
</g>
<!-- Node15&#45;&gt;Node18 -->
<g id="edge21_Node000015_Node000018" class="edge">
<title>Node15&#45;&gt;Node18</title>
<g id="a_edge21_Node000015_Node000018"><a xlink:title=" ">
<path fill="none" stroke="#63b8ff" d="M1077.94,-180.48C1090.49,-170.91 1105.11,-159.77 1116.41,-151.16"/>
<polygon fill="#63b8ff" stroke="#63b8ff" points="1075.48,-177.95 1069.64,-186.8 1079.72,-183.52 1075.48,-177.95"/>
</a>
</g>
</g>
<!-- Node19 -->
<g id="Node000019" class="node">
<title>Node19</title>
<g id="a_Node000019"><a xlink:href="Inky_8hpp.html" target="_top" xlink:title="Implements the Inky class, which inherits directly from the ghost class.">
<polygon fill="white" stroke="#666666" points="1376.5,-151 1227.5,-151 1227.5,-121 1376.5,-121 1376.5,-151"/>
<text text-anchor="start" x="1235.5" y="-139" font-family="Helvetica,sans-Serif" font-size="10.00">src/Games/Pacman/Entities</text>
<text text-anchor="middle" x="1302" y="-128" font-family="Helvetica,sans-Serif" font-size="10.00">/Inky.hpp</text>
</a>
</g>
</g>
<!-- Node15&#45;&gt;Node19 -->
<g id="edge22_Node000015_Node000019" class="edge">
<title>Node15&#45;&gt;Node19</title>
<g id="a_edge22_Node000015_Node000019"><a xlink:title=" ">
<path fill="none" stroke="#63b8ff" d="M1115.9,-184.45C1156.57,-174.08 1208.41,-160.86 1247.05,-151.01"/>
<polygon fill="#63b8ff" stroke="#63b8ff" points="1114.91,-181.09 1106.08,-186.95 1116.64,-187.88 1114.91,-181.09"/>
</a>
</g>
</g>
<!-- Node20 -->
<g id="Node000020" class="node">
<title>Node20</title>
<g id="a_Node000020"><a xlink:href="Pinky_8hpp.html" target="_top" xlink:title="Implements the Pinky class, which inherits directly from the ghost class.">
<polygon fill="white" stroke="#666666" points="1543.5,-151 1394.5,-151 1394.5,-121 1543.5,-121 1543.5,-151"/>
<text text-anchor="start" x="1402.5" y="-139" font-family="Helvetica,sans-Serif" font-size="10.00">src/Games/Pacman/Entities</text>
<text text-anchor="middle" x="1469" y="-128" font-family="Helvetica,sans-Serif" font-size="10.00">/Pinky.hpp</text>
</a>
</g>
</g>
<!-- Node15&#45;&gt;Node20 -->
<g id="edge24_Node000015_Node000020" class="edge">
<title>Node15&#45;&gt;Node20</title>
<g id="a_edge24_Node000015_Node000020"><a xlink:title=" ">
<path fill="none" stroke="#63b8ff" d="M1135.84,-188.7C1203.38,-178.8 1300.31,-164.4 1385,-151 1388.07,-150.51 1391.2,-150.02 1394.36,-149.51"/>
<polygon fill="#63b8ff" stroke="#63b8ff" points="1135.06,-185.27 1125.67,-190.18 1136.07,-192.2 1135.06,-185.27"/>
</a>
</g>
</g>
<!-- Node16&#45;&gt;Node9 -->
<g id="edge18_Node000016_Node000009" class="edge">
<title>Node16&#45;&gt;Node9</title>
<g id="a_edge18_Node000016_Node000009"><a xlink:title=" ">
<path fill="none" stroke="#63b8ff" d="M847.29,-117.26C879.41,-104.95 920.75,-89.11 945.78,-79.52"/>
<polygon fill="#63b8ff" stroke="#63b8ff" points="845.73,-114.11 837.65,-120.95 848.24,-120.64 845.73,-114.11"/>
</a>
</g>
</g>
<!-- Node17&#45;&gt;Node9 -->
<g id="edge20_Node000017_Node000009" class="edge">
<title>Node17&#45;&gt;Node9</title>
<g id="a_edge20_Node000017_Node000009"><a xlink:title=" ">
<path fill="none" stroke="#63b8ff" d="M968,-110.6C968,-99.8 968,-87.78 968,-79.84"/>
<polygon fill="#63b8ff" stroke="#63b8ff" points="964.5,-110.8 968,-120.8 971.5,-110.8 964.5,-110.8"/>
</a>
</g>
</g>
<!-- Node19&#45;&gt;Node9 -->
<g id="edge23_Node000019_Node000009" class="edge">
<title>Node19&#45;&gt;Node9</title>
<g id="a_edge23_Node000019_Node000009"><a xlink:title=" ">
<path fill="none" stroke="#63b8ff" d="M1218.83,-119.06C1153.46,-106.54 1064.97,-89.58 1012.45,-79.52"/>
<polygon fill="#63b8ff" stroke="#63b8ff" points="1218.22,-122.51 1228.7,-120.95 1219.54,-115.64 1218.22,-122.51"/>
</a>
</g>
</g>
<!-- Node20&#45;&gt;Node9 -->
<g id="edge25_Node000020_Node000009" class="edge">
<title>Node20&#45;&gt;Node9</title>
<g id="a_edge25_Node000020_Node000009"><a xlink:title=" ">
<path fill="none" stroke="#63b8ff" d="M1384.36,-120.95C1260.94,-103.44 1129.93,-88.44 1048.08,-79.5"/>
<polygon fill="#63b8ff" stroke="#63b8ff" points="1383.98,-124.43 1394.37,-122.38 1384.97,-117.5 1383.98,-124.43"/>
</a>
</g>
</g>
<!-- Node21&#45;&gt;Node9 -->
<g id="edge28_Node000021_Node000009" class="edge">
<title>Node21&#45;&gt;Node9</title>
<g id="a_edge28_Node000021_Node000009"><a xlink:title=" ">
<path fill="none" stroke="#63b8ff" d="M1572.23,-176.77C1571.72,-158.59 1567.74,-134.57 1552,-121 1516.28,-90.21 1226.07,-77.79 1068.66,-73.29"/>
<polygon fill="#63b8ff" stroke="#63b8ff" points="1568.73,-176.92 1572.18,-186.94 1575.73,-176.96 1568.73,-176.92"/>
</a>
</g>
</g>
<!-- Node22 -->
<g id="Node000022" class="node">
<title>Node22</title>
<g id="a_Node000022"><a xlink:href="Player_8cpp.html" target="_top" xlink:title="Implements Pacman player logic (movement, direction, lives).">
<polygon fill="white" stroke="#666666" points="1747.5,-151 1598.5,-151 1598.5,-121 1747.5,-121 1747.5,-151"/>
<text text-anchor="start" x="1606.5" y="-139" font-family="Helvetica,sans-Serif" font-size="10.00">src/Games/Pacman/Entities</text>
<text text-anchor="middle" x="1673" y="-128" font-family="Helvetica,sans-Serif" font-size="10.00">/Player.cpp</text>
</a>
</g>
</g>
<!-- Node21&#45;&gt;Node22 -->
<g id="edge27_Node000021_Node000022" class="edge">
<title>Node21&#45;&gt;Node22</title>
<g id="a_edge27_Node000021_Node000022"><a xlink:title=" ">
<path fill="none" stroke="#63b8ff" d="M1602.21,-181.42C1617.86,-171.6 1636.46,-159.93 1650.67,-151.01"/>
<polygon fill="#63b8ff" stroke="#63b8ff" points="1599.99,-178.68 1593.38,-186.95 1603.72,-184.6 1599.99,-178.68"/>
</a>
</g>
</g>
<!-- Node23&#45;&gt;Node4 -->
<g id="edge31_Node000023_Node000004" class="edge">
<title>Node23&#45;&gt;Node4</title>
<g id="a_edge31_Node000023_Node000004"><a xlink:title=" ">
<path fill="none" stroke="#63b8ff" d="M796.13,-252.75C646.97,-240.07 376.14,-217.04 262.92,-207.41"/>
<polygon fill="#63b8ff" stroke="#63b8ff" points="795.95,-256.25 806.21,-253.61 796.55,-249.28 795.95,-256.25"/>
</a>
</g>
</g>
<!-- Node24 -->
<g id="Node000024" class="node">
<title>Node24</title>
<g id="a_Node000024"><a xlink:href="ADisplayModule_8hpp.html" target="_top" xlink:title="Declares the abstract base class for display modules in the Arcade project.">
<polygon fill="white" stroke="#666666" points="2143.5,-211.5 1954.5,-211.5 1954.5,-192.5 2143.5,-192.5 2143.5,-211.5"/>
<text text-anchor="middle" x="2049" y="-199.5" font-family="Helvetica,sans-Serif" font-size="10.00">src/Graphicals/ADisplayModule.hpp</text>
</a>
</g>
</g>
<!-- Node23&#45;&gt;Node24 -->
<g id="edge32_Node000023_Node000024" class="edge">
<title>Node23&#45;&gt;Node24</title>
<g id="a_edge32_Node000023_Node000024"><a xlink:title=" ">
<path fill="none" stroke="#63b8ff" d="M1001.96,-256.26C1223.18,-245.01 1741.05,-218.67 1954.49,-207.81"/>
<polygon fill="#63b8ff" stroke="#63b8ff" points="1001.46,-252.78 991.65,-256.79 1001.81,-259.77 1001.46,-252.78"/>
</a>
</g>
</g>
<!-- Node25 -->
<g id="Node000025" class="node">
<title>Node25</title>
<g id="a_Node000025"><a xlink:href="ADisplayModule_8cpp.html" target="_top" xlink:title="Provides default constructor and destructor implementations for ADisplayModule.">
<polygon fill="white" stroke="#666666" points="1954,-145.5 1766,-145.5 1766,-126.5 1954,-126.5 1954,-145.5"/>
<text text-anchor="middle" x="1860" y="-133.5" font-family="Helvetica,sans-Serif" font-size="10.00">src/Graphicals/ADisplayModule.cpp</text>
</a>
</g>
</g>
<!-- Node24&#45;&gt;Node25 -->
<g id="edge33_Node000024_Node000025" class="edge">
<title>Node24&#45;&gt;Node25</title>
<g id="a_edge33_Node000024_Node000025"><a xlink:title=" ">
<path fill="none" stroke="#63b8ff" d="M2013.57,-189C1976.24,-176.36 1918.4,-156.78 1885.39,-145.6"/>
<polygon fill="#63b8ff" stroke="#63b8ff" points="2012.92,-192.48 2023.51,-192.37 2015.16,-185.85 2012.92,-192.48"/>
</a>
</g>
</g>
<!-- Node26 -->
<g id="Node000026" class="node">
<title>Node26</title>
<g id="a_Node000026"><a xlink:href="NCursesDisplayModule_8hpp.html" target="_top" xlink:title="Declaration of the NCursesDisplayModule class and associated definitions.">
<polygon fill="white" stroke="#666666" points="2126,-151 1972,-151 1972,-121 2126,-121 2126,-151"/>
<text text-anchor="start" x="1980" y="-139" font-family="Helvetica,sans-Serif" font-size="10.00">src/Graphicals/NCurses</text>
<text text-anchor="middle" x="2049" y="-128" font-family="Helvetica,sans-Serif" font-size="10.00">/NCursesDisplayModule.hpp</text>
</a>
</g>
</g>
<!-- Node24&#45;&gt;Node26 -->
<g id="edge34_Node000024_Node000026" class="edge">
<title>Node24&#45;&gt;Node26</title>
<g id="a_edge34_Node000024_Node000026"><a xlink:title=" ">
<path fill="none" stroke="#63b8ff" d="M2049,-182.35C2049,-172.47 2049,-160.51 2049,-151.36"/>
<polygon fill="#63b8ff" stroke="#63b8ff" points="2045.5,-182.37 2049,-192.37 2052.5,-182.37 2045.5,-182.37"/>
</a>
</g>
</g>
<!-- Node28 -->
<g id="Node000028" class="node">
<title>Node28</title>
<g id="a_Node000028"><a xlink:href="SDLDisplayModule_8hpp.html" target="_top" xlink:title="Header file for SDL display module.">
<polygon fill="white" stroke="#666666" points="2276,-151 2144,-151 2144,-121 2276,-121 2276,-151"/>
<text text-anchor="start" x="2152" y="-139" font-family="Helvetica,sans-Serif" font-size="10.00">src/Graphicals/SDL</text>
<text text-anchor="middle" x="2210" y="-128" font-family="Helvetica,sans-Serif" font-size="10.00">/SDLDisplayModule.hpp</text>
</a>
</g>
</g>
<!-- Node24&#45;&gt;Node28 -->
<g id="edge36_Node000024_Node000028" class="edge">
<title>Node24&#45;&gt;Node28</title>
<g id="a_edge36_Node000024_Node000028"><a xlink:title=" ">
<path fill="none" stroke="#63b8ff" d="M2080.08,-188.65C2107.1,-177.9 2146.24,-162.35 2174.49,-151.12"/>
<polygon fill="#63b8ff" stroke="#63b8ff" points="2078.71,-185.42 2070.71,-192.37 2081.3,-191.93 2078.71,-185.42"/>
</a>
</g>
</g>
<!-- Node30 -->
<g id="Node000030" class="node">
<title>Node30</title>
<g id="a_Node000030"><a xlink:href="SFMLDisplayModule_8hpp.html" target="_top" xlink:title="Header file for SFML display module.">
<polygon fill="white" stroke="#666666" points="2434,-151 2294,-151 2294,-121 2434,-121 2434,-151"/>
<text text-anchor="start" x="2302" y="-139" font-family="Helvetica,sans-Serif" font-size="10.00">src/Graphicals/SFML</text>
<text text-anchor="middle" x="2364" y="-128" font-family="Helvetica,sans-Serif" font-size="10.00">/SFMLDisplayModule.hpp</text>
</a>
</g>
</g>
<!-- Node24&#45;&gt;Node30 -->
<g id="edge38_Node000024_Node000030" class="edge">
<title>Node24&#45;&gt;Node30</title>
<g id="a_edge38_Node000024_Node000030"><a xlink:title=" ">
<path fill="none" stroke="#63b8ff" d="M2101.02,-190.43C2154.03,-179.66 2236.53,-162.9 2294.97,-151.02"/>
<polygon fill="#63b8ff" stroke="#63b8ff" points="2100.26,-187.01 2091.16,-192.44 2101.65,-193.87 2100.26,-187.01"/>
</a>
</g>
</g>
<!-- Node27 -->
<g id="Node000027" class="node">
<title>Node27</title>
<g id="a_Node000027"><a xlink:href="NCursesDisplayModule_8cpp.html" target="_top" xlink:title="NCurses Display Module.">
<polygon fill="white" stroke="#666666" points="2125.5,-85 1972.5,-85 1972.5,-55 2125.5,-55 2125.5,-85"/>
<text text-anchor="start" x="1980.5" y="-73" font-family="Helvetica,sans-Serif" font-size="10.00">src/Graphicals/NCurses</text>
<text text-anchor="middle" x="2049" y="-62" font-family="Helvetica,sans-Serif" font-size="10.00">/NCursesDisplayModule.cpp</text>
</a>
</g>
</g>
<!-- Node26&#45;&gt;Node27 -->
<g id="edge35_Node000026_Node000027" class="edge">
<title>Node26&#45;&gt;Node27</title>
<g id="a_edge35_Node000026_Node000027"><a xlink:title=" ">
<path fill="none" stroke="#63b8ff" d="M2049,-110.54C2049,-101.96 2049,-92.61 2049,-85.16"/>
<polygon fill="#63b8ff" stroke="#63b8ff" points="2045.5,-110.8 2049,-120.8 2052.5,-110.8 2045.5,-110.8"/>
</a>
</g>
</g>
<!-- Node29 -->
<g id="Node000029" class="node">
<title>Node29</title>
<g id="a_Node000029"><a xlink:href="SDLDisplayModule_8cpp.html" target="_top" xlink:title="This file contains all functions related to SDL.">
<polygon fill="white" stroke="#666666" points="2275.5,-85 2144.5,-85 2144.5,-55 2275.5,-55 2275.5,-85"/>
<text text-anchor="start" x="2152.5" y="-73" font-family="Helvetica,sans-Serif" font-size="10.00">src/Graphicals/SDL</text>
<text text-anchor="middle" x="2210" y="-62" font-family="Helvetica,sans-Serif" font-size="10.00">/SDLDisplayModule.cpp</text>
</a>
</g>
</g>
<!-- Node28&#45;&gt;Node29 -->
<g id="edge37_Node000028_Node000029" class="edge">
<title>Node28&#45;&gt;Node29</title>
<g id="a_edge37_Node000028_Node000029"><a xlink:title=" ">
<path fill="none" stroke="#63b8ff" d="M2210,-110.54C2210,-101.96 2210,-92.61 2210,-85.16"/>
<polygon fill="#63b8ff" stroke="#63b8ff" points="2206.5,-110.8 2210,-120.8 2213.5,-110.8 2206.5,-110.8"/>
</a>
</g>
</g>
<!-- Node31 -->
<g id="Node000031" class="node">
<title>Node31</title>
<g id="a_Node000031"><a xlink:href="SFMLDisplayModule_8cpp.html" target="_top" xlink:title="This file contains all functions related to SFML.">
<polygon fill="white" stroke="#666666" points="2433.5,-85 2294.5,-85 2294.5,-55 2433.5,-55 2433.5,-85"/>
<text text-anchor="start" x="2302.5" y="-73" font-family="Helvetica,sans-Serif" font-size="10.00">src/Graphicals/SFML</text>
<text text-anchor="middle" x="2364" y="-62" font-family="Helvetica,sans-Serif" font-size="10.00">/SFMLDisplayModule.cpp</text>
</a>
</g>
</g>
<!-- Node30&#45;&gt;Node31 -->
<g id="edge39_Node000030_Node000031" class="edge">
<title>Node30&#45;&gt;Node31</title>
<g id="a_edge39_Node000030_Node000031"><a xlink:title=" ">
<path fill="none" stroke="#63b8ff" d="M2364,-110.54C2364,-101.96 2364,-92.61 2364,-85.16"/>
<polygon fill="#63b8ff" stroke="#63b8ff" points="2360.5,-110.8 2364,-120.8 2367.5,-110.8 2360.5,-110.8"/>
</a>
</g>
</g>
</g>
</svg>
