<?xml version="1.0" encoding="UTF-8" standalone="no"?>
<!DOCTYPE svg PUBLIC "-//W3C//DTD SVG 1.1//EN"
 "http://www.w3.org/Graphics/SVG/1.1/DTD/svg11.dtd">
<!-- Generated by graphviz version 2.43.0 (0)
 -->
<!-- Title: include/Types.hpp Pages: 1 -->
<svg width="2214pt" height="280pt"
 viewBox="0.00 0.00 2214.00 280.00" xmlns="http://www.w3.org/2000/svg" xmlns:xlink="http://www.w3.org/1999/xlink">
<g id="graph0" class="graph" transform="scale(1 1) rotate(0) translate(4 276)">
<title>include/Types.hpp</title>
<!-- Node1 -->
<g id="Node000001" class="node">
<title>Node1</title>
<g id="a_Node000001"><a xlink:title="Defines the core data structures and types used across the Arcade project.">
<polygon fill="#999999" stroke="#666666" points="371,-272 267,-272 267,-253 371,-253 371,-272"/>
<text text-anchor="middle" x="319" y="-260" font-family="Helvetica,sans-Serif" font-size="10.00">include/Types.hpp</text>
</a>
</g>
</g>
<!-- Node2 -->
<g id="Node000002" class="node">
<title>Node2</title>
<g id="a_Node000002"><a xlink:href="Core_8cpp.html" target="_top" xlink:title="Contains the core program methods.">
<polygon fill="white" stroke="#666666" points="102,-90.5 0,-90.5 0,-71.5 102,-71.5 102,-90.5"/>
<text text-anchor="middle" x="51" y="-78.5" font-family="Helvetica,sans-Serif" font-size="10.00">src/Core/Core.cpp</text>
</a>
</g>
</g>
<!-- Node1&#45;&gt;Node2 -->
<g id="edge1_Node000001_Node000002" class="edge">
<title>Node1&#45;&gt;Node2</title>
<g id="a_edge1_Node000001_Node000002"><a xlink:title=" ">
<path fill="none" stroke="#63b8ff" d="M256.76,-253.04C226.06,-246.7 189.58,-235.75 161,-217 108.43,-182.5 68.67,-114.94 55.61,-90.82"/>
<polygon fill="#63b8ff" stroke="#63b8ff" points="256.45,-256.55 266.94,-255.02 257.79,-249.68 256.45,-256.55"/>
</a>
</g>
</g>
<!-- Node3 -->
<g id="Node000003" class="node">
<title>Node3</title>
<g id="a_Node000003"><a xlink:href="IGame_8hpp.html" target="_top" xlink:title="Declaration of the game interface class.">
<polygon fill="white" stroke="#666666" points="295.5,-217 170.5,-217 170.5,-198 295.5,-198 295.5,-217"/>
<text text-anchor="middle" x="233" y="-205" font-family="Helvetica,sans-Serif" font-size="10.00">src/Games/IGame.hpp</text>
</a>
</g>
</g>
<!-- Node1&#45;&gt;Node3 -->
<g id="edge2_Node000001_Node000003" class="edge">
<title>Node1&#45;&gt;Node3</title>
<g id="a_edge2_Node000001_Node000003"><a xlink:title=" ">
<path fill="none" stroke="#63b8ff" d="M296.6,-247.7C280.93,-238.04 260.49,-225.44 247.07,-217.17"/>
<polygon fill="#63b8ff" stroke="#63b8ff" points="294.83,-250.72 305.18,-252.98 298.51,-244.76 294.83,-250.72"/>
</a>
</g>
</g>
<!-- Node12 -->
<g id="Node000012" class="node">
<title>Node12</title>
<g id="a_Node000012"><a xlink:href="includes_8hpp_source.html" target="_top" xlink:title=" ">
<polygon fill="white" stroke="#666666" points="838,-217 664,-217 664,-198 838,-198 838,-217"/>
<text text-anchor="middle" x="751" y="-205" font-family="Helvetica,sans-Serif" font-size="10.00">src/Games/Pacman/includes.hpp</text>
</a>
</g>
</g>
<!-- Node1&#45;&gt;Node12 -->
<g id="edge13_Node000001_Node000012" class="edge">
<title>Node1&#45;&gt;Node12</title>
<g id="a_edge13_Node000001_Node000012"><a xlink:title=" ">
<path fill="none" stroke="#63b8ff" d="M381.49,-253.83C461.21,-244.05 598.67,-227.19 681.58,-217.02"/>
<polygon fill="#63b8ff" stroke="#63b8ff" points="380.61,-250.42 371.11,-255.11 381.46,-257.36 380.61,-250.42"/>
</a>
</g>
</g>
<!-- Node19 -->
<g id="Node000019" class="node">
<title>Node19</title>
<g id="a_Node000019"><a xlink:href="IDisplayModule_8hpp.html" target="_top" xlink:title="Declaration of the graphical display interface.">
<polygon fill="white" stroke="#666666" points="498.5,-217 313.5,-217 313.5,-198 498.5,-198 498.5,-217"/>
<text text-anchor="middle" x="406" y="-205" font-family="Helvetica,sans-Serif" font-size="10.00">src/Graphicals/IDisplayModule.hpp</text>
</a>
</g>
</g>
<!-- Node1&#45;&gt;Node19 -->
<g id="edge22_Node000001_Node000019" class="edge">
<title>Node1&#45;&gt;Node19</title>
<g id="a_edge22_Node000001_Node000019"><a xlink:title=" ">
<path fill="none" stroke="#63b8ff" d="M341.66,-247.7C357.51,-238.04 378.19,-225.44 391.77,-217.17"/>
<polygon fill="#63b8ff" stroke="#63b8ff" points="339.7,-244.79 332.98,-252.98 343.34,-250.77 339.7,-244.79"/>
</a>
</g>
</g>
<!-- Node4 -->
<g id="Node000004" class="node">
<title>Node4</title>
<g id="a_Node000004"><a xlink:href="Core_8hpp.html" target="_top" xlink:title="Declaration of the Core class and associated definitions.">
<polygon fill="white" stroke="#666666" points="262.5,-156.5 159.5,-156.5 159.5,-137.5 262.5,-137.5 262.5,-156.5"/>
<text text-anchor="middle" x="211" y="-144.5" font-family="Helvetica,sans-Serif" font-size="10.00">src/Core/Core.hpp</text>
</a>
</g>
</g>
<!-- Node3&#45;&gt;Node4 -->
<g id="edge3_Node000003_Node000004" class="edge">
<title>Node3&#45;&gt;Node4</title>
<g id="a_edge3_Node000003_Node000004"><a xlink:title=" ">
<path fill="none" stroke="#63b8ff" d="M226.16,-188.32C222.2,-177.78 217.38,-164.98 214.26,-156.67"/>
<polygon fill="#63b8ff" stroke="#63b8ff" points="222.96,-189.74 229.75,-197.87 229.51,-187.28 222.96,-189.74"/>
</a>
</g>
</g>
<!-- Node7 -->
<g id="Node000007" class="node">
<title>Node7</title>
<g id="a_Node000007"><a xlink:href="AGame_8hpp.html" target="_top" xlink:title="Declares the abstract base class for all Arcade games.">
<polygon fill="white" stroke="#666666" points="513,-156.5 385,-156.5 385,-137.5 513,-137.5 513,-156.5"/>
<text text-anchor="middle" x="449" y="-144.5" font-family="Helvetica,sans-Serif" font-size="10.00">src/Games/AGame.hpp</text>
</a>
</g>
</g>
<!-- Node3&#45;&gt;Node7 -->
<g id="edge7_Node000003_Node000007" class="edge">
<title>Node3&#45;&gt;Node7</title>
<g id="a_edge7_Node000003_Node000007"><a xlink:title=" ">
<path fill="none" stroke="#63b8ff" d="M274.27,-195.32C316.04,-184.01 379.7,-166.77 417.55,-156.52"/>
<polygon fill="#63b8ff" stroke="#63b8ff" points="273.15,-192 264.41,-197.99 274.98,-198.76 273.15,-192"/>
</a>
</g>
</g>
<!-- Node4&#45;&gt;Node2 -->
<g id="edge4_Node000004_Node000002" class="edge">
<title>Node4&#45;&gt;Node2</title>
<g id="a_edge4_Node000004_Node000002"><a xlink:title=" ">
<path fill="none" stroke="#63b8ff" d="M179.78,-133.51C148.15,-120.86 100.08,-101.63 72.49,-90.6"/>
<polygon fill="#63b8ff" stroke="#63b8ff" points="178.84,-136.9 189.42,-137.37 181.44,-130.41 178.84,-136.9"/>
</a>
</g>
</g>
<!-- Node5 -->
<g id="Node000005" class="node">
<title>Node5</title>
<g id="a_Node000005"><a xlink:href="Menu_8cpp.html" target="_top" xlink:title="Declares global variables used to store user selections in the Arcade menu.">
<polygon fill="white" stroke="#666666" points="318.5,-24.5 169.5,-24.5 169.5,-5.5 318.5,-5.5 318.5,-24.5"/>
<text text-anchor="middle" x="244" y="-12.5" font-family="Helvetica,sans-Serif" font-size="10.00">src/Games/Menu/Menu.cpp</text>
</a>
</g>
</g>
<!-- Node4&#45;&gt;Node5 -->
<g id="edge5_Node000004_Node000005" class="edge">
<title>Node4&#45;&gt;Node5</title>
<g id="a_edge5_Node000004_Node000005"><a xlink:title=" ">
<path fill="none" stroke="#63b8ff" d="M184.29,-132.06C171.06,-123.58 156.37,-111.41 149,-96 143.25,-83.97 142.11,-77.41 149,-66 162,-44.46 187.71,-31.73 209.11,-24.51"/>
<polygon fill="#63b8ff" stroke="#63b8ff" points="182.73,-135.21 193.11,-137.34 186.32,-129.2 182.73,-135.21"/>
</a>
</g>
</g>
<!-- Node6 -->
<g id="Node000006" class="node">
<title>Node6</title>
<g id="a_Node000006"><a xlink:href="main_8cpp.html" target="_top" xlink:title="Main entry point of the program.">
<polygon fill="white" stroke="#666666" points="264,-90.5 158,-90.5 158,-71.5 264,-71.5 264,-90.5"/>
<text text-anchor="middle" x="211" y="-78.5" font-family="Helvetica,sans-Serif" font-size="10.00">src/Main/main.cpp</text>
</a>
</g>
</g>
<!-- Node4&#45;&gt;Node6 -->
<g id="edge6_Node000004_Node000006" class="edge">
<title>Node4&#45;&gt;Node6</title>
<g id="a_edge6_Node000004_Node000006"><a xlink:title=" ">
<path fill="none" stroke="#63b8ff" d="M211,-127.08C211,-115.13 211,-100.22 211,-90.91"/>
<polygon fill="#63b8ff" stroke="#63b8ff" points="207.5,-127.37 211,-137.37 214.5,-127.37 207.5,-127.37"/>
</a>
</g>
</g>
<!-- Node8 -->
<g id="Node000008" class="node">
<title>Node8</title>
<g id="a_Node000008"><a xlink:href="Menu_8hpp.html" target="_top" xlink:title="Declares the Menu class, used to display and navigate game and library options.">
<polygon fill="white" stroke="#666666" points="431.5,-90.5 282.5,-90.5 282.5,-71.5 431.5,-71.5 431.5,-90.5"/>
<text text-anchor="middle" x="357" y="-78.5" font-family="Helvetica,sans-Serif" font-size="10.00">src/Games/Menu/Menu.hpp</text>
</a>
</g>
</g>
<!-- Node7&#45;&gt;Node8 -->
<g id="edge8_Node000007_Node000008" class="edge">
<title>Node7&#45;&gt;Node8</title>
<g id="a_edge8_Node000007_Node000008"><a xlink:title=" ">
<path fill="none" stroke="#63b8ff" d="M427.92,-131.33C409.87,-118.78 384.5,-101.13 369.5,-90.7"/>
<polygon fill="#63b8ff" stroke="#63b8ff" points="426.38,-134.53 436.59,-137.37 430.38,-128.78 426.38,-134.53"/>
</a>
</g>
</g>
<!-- Node9 -->
<g id="Node000009" class="node">
<title>Node9</title>
<g id="a_Node000009"><a xlink:href="PacmanGame_8hpp_source.html" target="_top" xlink:title=" ">
<polygon fill="white" stroke="#666666" points="851.5,-90.5 650.5,-90.5 650.5,-71.5 851.5,-71.5 851.5,-90.5"/>
<text text-anchor="middle" x="751" y="-78.5" font-family="Helvetica,sans-Serif" font-size="10.00">src/Games/Pacman/PacmanGame.hpp</text>
</a>
</g>
</g>
<!-- Node7&#45;&gt;Node9 -->
<g id="edge10_Node000007_Node000009" class="edge">
<title>Node7&#45;&gt;Node9</title>
<g id="a_edge10_Node000007_Node000009"><a xlink:title=" ">
<path fill="none" stroke="#63b8ff" d="M499.32,-135.34C558.71,-122.75 656.25,-102.08 710.82,-90.51"/>
<polygon fill="#63b8ff" stroke="#63b8ff" points="498.47,-131.94 489.42,-137.44 499.92,-138.79 498.47,-131.94"/>
</a>
</g>
</g>
<!-- Node10 -->
<g id="Node000010" class="node">
<title>Node10</title>
<g id="a_Node000010"><a xlink:href="SnakeGame_8hpp.html" target="_top" xlink:title="Declaration of the SnakeGame class and associated definitions.">
<polygon fill="white" stroke="#666666" points="632.5,-90.5 449.5,-90.5 449.5,-71.5 632.5,-71.5 632.5,-90.5"/>
<text text-anchor="middle" x="541" y="-78.5" font-family="Helvetica,sans-Serif" font-size="10.00">src/Games/Snake/SnakeGame.hpp</text>
</a>
</g>
</g>
<!-- Node7&#45;&gt;Node10 -->
<g id="edge11_Node000007_Node000010" class="edge">
<title>Node7&#45;&gt;Node10</title>
<g id="a_edge11_Node000007_Node000010"><a xlink:title=" ">
<path fill="none" stroke="#63b8ff" d="M470.08,-131.33C488.13,-118.78 513.5,-101.13 528.5,-90.7"/>
<polygon fill="#63b8ff" stroke="#63b8ff" points="467.62,-128.78 461.41,-137.37 471.62,-134.53 467.62,-128.78"/>
</a>
</g>
</g>
<!-- Node8&#45;&gt;Node5 -->
<g id="edge9_Node000008_Node000005" class="edge">
<title>Node8&#45;&gt;Node5</title>
<g id="a_edge9_Node000008_Node000005"><a xlink:title=" ">
<path fill="none" stroke="#63b8ff" d="M332.91,-66.36C310.67,-53.76 278.29,-35.42 259.36,-24.7"/>
<polygon fill="#63b8ff" stroke="#63b8ff" points="331.33,-69.49 341.76,-71.37 334.78,-63.39 331.33,-69.49"/>
</a>
</g>
</g>
<!-- Node11 -->
<g id="Node000011" class="node">
<title>Node11</title>
<g id="a_Node000011"><a xlink:href="SnakeGame_8cpp.html" target="_top" xlink:title="Snake Game.">
<polygon fill="white" stroke="#666666" points="632,-24.5 450,-24.5 450,-5.5 632,-5.5 632,-24.5"/>
<text text-anchor="middle" x="541" y="-12.5" font-family="Helvetica,sans-Serif" font-size="10.00">src/Games/Snake/SnakeGame.cpp</text>
</a>
</g>
</g>
<!-- Node10&#45;&gt;Node11 -->
<g id="edge12_Node000010_Node000011" class="edge">
<title>Node10&#45;&gt;Node11</title>
<g id="a_edge12_Node000010_Node000011"><a xlink:title=" ">
<path fill="none" stroke="#63b8ff" d="M541,-61.08C541,-49.13 541,-34.22 541,-24.91"/>
<polygon fill="#63b8ff" stroke="#63b8ff" points="537.5,-61.37 541,-71.37 544.5,-61.37 537.5,-61.37"/>
</a>
</g>
</g>
<!-- Node12&#45;&gt;Node9 -->
<g id="edge21_Node000012_Node000009" class="edge">
<title>Node12&#45;&gt;Node9</title>
<g id="a_edge21_Node000012_Node000009"><a xlink:title=" ">
<path fill="none" stroke="#63b8ff" d="M735.08,-190.34C728.43,-182.47 721.46,-172.46 718,-162 713.82,-149.34 714.17,-144.77 718,-132 722.85,-115.86 734.77,-100.13 742.88,-90.75"/>
<polygon fill="#63b8ff" stroke="#63b8ff" points="732.67,-192.9 741.98,-197.96 737.86,-188.2 732.67,-192.9"/>
</a>
</g>
</g>
<!-- Node13 -->
<g id="Node000013" class="node">
<title>Node13</title>
<g id="a_Node000013"><a xlink:href="Ghost_8hpp_source.html" target="_top" xlink:title=" ">
<polygon fill="white" stroke="#666666" points="1185.5,-162 1036.5,-162 1036.5,-132 1185.5,-132 1185.5,-162"/>
<text text-anchor="start" x="1044.5" y="-150" font-family="Helvetica,sans-Serif" font-size="10.00">src/Games/Pacman/Entities</text>
<text text-anchor="middle" x="1111" y="-139" font-family="Helvetica,sans-Serif" font-size="10.00">/Ghost.hpp</text>
</a>
</g>
</g>
<!-- Node12&#45;&gt;Node13 -->
<g id="edge14_Node000012_Node000013" class="edge">
<title>Node12&#45;&gt;Node13</title>
<g id="a_edge14_Node000012_Node000013"><a xlink:title=" ">
<path fill="none" stroke="#63b8ff" d="M813.38,-196.36C875.35,-186.29 970.42,-170.85 1036.36,-160.13"/>
<polygon fill="#63b8ff" stroke="#63b8ff" points="812.66,-192.93 803.35,-197.99 813.78,-199.84 812.66,-192.93"/>
</a>
</g>
</g>
<!-- Node18 -->
<g id="Node000018" class="node">
<title>Node18</title>
<g id="a_Node000018"><a xlink:href="Player_8hpp_source.html" target="_top" xlink:title=" ">
<polygon fill="white" stroke="#666666" points="876.5,-162 727.5,-162 727.5,-132 876.5,-132 876.5,-162"/>
<text text-anchor="start" x="735.5" y="-150" font-family="Helvetica,sans-Serif" font-size="10.00">src/Games/Pacman/Entities</text>
<text text-anchor="middle" x="802" y="-139" font-family="Helvetica,sans-Serif" font-size="10.00">/Player.hpp</text>
</a>
</g>
</g>
<!-- Node12&#45;&gt;Node18 -->
<g id="edge19_Node000012_Node000018" class="edge">
<title>Node12&#45;&gt;Node18</title>
<g id="a_edge19_Node000012_Node000018"><a xlink:title=" ">
<path fill="none" stroke="#63b8ff" d="M765.25,-190.15C772.94,-181.34 782.33,-170.56 789.69,-162.11"/>
<polygon fill="#63b8ff" stroke="#63b8ff" points="762.46,-188.03 758.53,-197.87 767.73,-192.63 762.46,-188.03"/>
</a>
</g>
</g>
<!-- Node14 -->
<g id="Node000014" class="node">
<title>Node14</title>
<g id="a_Node000014"><a xlink:href="Blinky_8hpp_source.html" target="_top" xlink:title=" ">
<polygon fill="white" stroke="#666666" points="1018.5,-96 869.5,-96 869.5,-66 1018.5,-66 1018.5,-96"/>
<text text-anchor="start" x="877.5" y="-84" font-family="Helvetica,sans-Serif" font-size="10.00">src/Games/Pacman/Entities</text>
<text text-anchor="middle" x="944" y="-73" font-family="Helvetica,sans-Serif" font-size="10.00">/Blinky.hpp</text>
</a>
</g>
</g>
<!-- Node13&#45;&gt;Node14 -->
<g id="edge15_Node000013_Node000014" class="edge">
<title>Node13&#45;&gt;Node14</title>
<g id="a_edge15_Node000013_Node000014"><a xlink:title=" ">
<path fill="none" stroke="#63b8ff" d="M1064.87,-128.32C1038.29,-118.14 1005.34,-105.51 980.56,-96.01"/>
<polygon fill="#63b8ff" stroke="#63b8ff" points="1063.76,-131.64 1074.35,-131.95 1066.27,-125.11 1063.76,-131.64"/>
</a>
</g>
</g>
<!-- Node15 -->
<g id="Node000015" class="node">
<title>Node15</title>
<g id="a_Node000015"><a xlink:href="Clyde_8hpp_source.html" target="_top" xlink:title=" ">
<polygon fill="white" stroke="#666666" points="1185.5,-96 1036.5,-96 1036.5,-66 1185.5,-66 1185.5,-96"/>
<text text-anchor="start" x="1044.5" y="-84" font-family="Helvetica,sans-Serif" font-size="10.00">src/Games/Pacman/Entities</text>
<text text-anchor="middle" x="1111" y="-73" font-family="Helvetica,sans-Serif" font-size="10.00">/Clyde.hpp</text>
</a>
</g>
</g>
<!-- Node13&#45;&gt;Node15 -->
<g id="edge16_Node000013_Node000015" class="edge">
<title>Node13&#45;&gt;Node15</title>
<g id="a_edge16_Node000013_Node000015"><a xlink:title=" ">
<path fill="none" stroke="#63b8ff" d="M1111,-121.54C1111,-112.96 1111,-103.61 1111,-96.16"/>
<polygon fill="#63b8ff" stroke="#63b8ff" points="1107.5,-121.8 1111,-131.8 1114.5,-121.8 1107.5,-121.8"/>
</a>
</g>
</g>
<!-- Node16 -->
<g id="Node000016" class="node">
<title>Node16</title>
<g id="a_Node000016"><a xlink:href="Inky_8hpp_source.html" target="_top" xlink:title=" ">
<polygon fill="white" stroke="#666666" points="1352.5,-96 1203.5,-96 1203.5,-66 1352.5,-66 1352.5,-96"/>
<text text-anchor="start" x="1211.5" y="-84" font-family="Helvetica,sans-Serif" font-size="10.00">src/Games/Pacman/Entities</text>
<text text-anchor="middle" x="1278" y="-73" font-family="Helvetica,sans-Serif" font-size="10.00">/Inky.hpp</text>
</a>
</g>
</g>
<!-- Node13&#45;&gt;Node16 -->
<g id="edge17_Node000013_Node000016" class="edge">
<title>Node13&#45;&gt;Node16</title>
<g id="a_edge17_Node000013_Node000016"><a xlink:title=" ">
<path fill="none" stroke="#63b8ff" d="M1157.13,-128.32C1183.71,-118.14 1216.66,-105.51 1241.44,-96.01"/>
<polygon fill="#63b8ff" stroke="#63b8ff" points="1155.73,-125.11 1147.65,-131.95 1158.24,-131.64 1155.73,-125.11"/>
</a>
</g>
</g>
<!-- Node17 -->
<g id="Node000017" class="node">
<title>Node17</title>
<g id="a_Node000017"><a xlink:href="Pinky_8hpp_source.html" target="_top" xlink:title=" ">
<polygon fill="white" stroke="#666666" points="1519.5,-96 1370.5,-96 1370.5,-66 1519.5,-66 1519.5,-96"/>
<text text-anchor="start" x="1378.5" y="-84" font-family="Helvetica,sans-Serif" font-size="10.00">src/Games/Pacman/Entities</text>
<text text-anchor="middle" x="1445" y="-73" font-family="Helvetica,sans-Serif" font-size="10.00">/Pinky.hpp</text>
</a>
</g>
</g>
<!-- Node13&#45;&gt;Node17 -->
<g id="edge18_Node000013_Node000017" class="edge">
<title>Node13&#45;&gt;Node17</title>
<g id="a_edge18_Node000013_Node000017"><a xlink:title=" ">
<path fill="none" stroke="#63b8ff" d="M1194.29,-130.04C1248.85,-119.59 1319.49,-106.05 1371.87,-96.01"/>
<polygon fill="#63b8ff" stroke="#63b8ff" points="1193.46,-126.64 1184.3,-131.95 1194.78,-133.51 1193.46,-126.64"/>
</a>
</g>
</g>
<!-- Node18&#45;&gt;Node9 -->
<g id="edge20_Node000018_Node000009" class="edge">
<title>Node18&#45;&gt;Node9</title>
<g id="a_edge20_Node000018_Node000009"><a xlink:title=" ">
<path fill="none" stroke="#63b8ff" d="M784.42,-123.94C775.37,-112.58 764.83,-99.36 758.05,-90.84"/>
<polygon fill="#63b8ff" stroke="#63b8ff" points="781.71,-126.16 790.68,-131.8 787.19,-121.79 781.71,-126.16"/>
</a>
</g>
</g>
<!-- Node19&#45;&gt;Node4 -->
<g id="edge23_Node000019_Node000004" class="edge">
<title>Node19&#45;&gt;Node4</title>
<g id="a_edge23_Node000019_Node000004"><a xlink:title=" ">
<path fill="none" stroke="#63b8ff" d="M368.03,-195.11C330.31,-183.79 273.34,-166.7 239.39,-156.52"/>
<polygon fill="#63b8ff" stroke="#63b8ff" points="367.06,-198.47 377.65,-197.99 369.07,-191.77 367.06,-198.47"/>
</a>
</g>
</g>
<!-- Node20 -->
<g id="Node000020" class="node">
<title>Node20</title>
<g id="a_Node000020"><a xlink:href="ADisplayModule_8hpp.html" target="_top" xlink:title="Declares the abstract base class for display modules in the Arcade project.">
<polygon fill="white" stroke="#666666" points="1915.5,-156.5 1726.5,-156.5 1726.5,-137.5 1915.5,-137.5 1915.5,-156.5"/>
<text text-anchor="middle" x="1821" y="-144.5" font-family="Helvetica,sans-Serif" font-size="10.00">src/Graphicals/ADisplayModule.hpp</text>
</a>
</g>
</g>
<!-- Node19&#45;&gt;Node20 -->
<g id="edge24_Node000019_Node000020" class="edge">
<title>Node19&#45;&gt;Node20</title>
<g id="a_edge24_Node000019_Node000020"><a xlink:title=" ">
<path fill="none" stroke="#63b8ff" d="M508.92,-202.25C772.99,-191.33 1471.66,-162.44 1726.37,-151.91"/>
<polygon fill="#63b8ff" stroke="#63b8ff" points="508.42,-198.76 498.57,-202.67 508.71,-205.76 508.42,-198.76"/>
</a>
</g>
</g>
<!-- Node21 -->
<g id="Node000021" class="node">
<title>Node21</title>
<g id="a_Node000021"><a xlink:href="ADisplayModule_8cpp.html" target="_top" xlink:title="Provides default constructor and destructor implementations for ADisplayModule.">
<polygon fill="white" stroke="#666666" points="1726,-90.5 1538,-90.5 1538,-71.5 1726,-71.5 1726,-90.5"/>
<text text-anchor="middle" x="1632" y="-78.5" font-family="Helvetica,sans-Serif" font-size="10.00">src/Graphicals/ADisplayModule.cpp</text>
</a>
</g>
</g>
<!-- Node20&#45;&gt;Node21 -->
<g id="edge25_Node000020_Node000021" class="edge">
<title>Node20&#45;&gt;Node21</title>
<g id="a_edge25_Node000020_Node000021"><a xlink:title=" ">
<path fill="none" stroke="#63b8ff" d="M1785.57,-134C1748.24,-121.36 1690.4,-101.78 1657.39,-90.6"/>
<polygon fill="#63b8ff" stroke="#63b8ff" points="1784.92,-137.48 1795.51,-137.37 1787.16,-130.85 1784.92,-137.48"/>
</a>
</g>
</g>
<!-- Node22 -->
<g id="Node000022" class="node">
<title>Node22</title>
<g id="a_Node000022"><a xlink:href="NCursesDisplayModule_8hpp.html" target="_top" xlink:title="Declaration of the NCursesDisplayModule class and associated definitions.">
<polygon fill="white" stroke="#666666" points="1898,-96 1744,-96 1744,-66 1898,-66 1898,-96"/>
<text text-anchor="start" x="1752" y="-84" font-family="Helvetica,sans-Serif" font-size="10.00">src/Graphicals/NCurses</text>
<text text-anchor="middle" x="1821" y="-73" font-family="Helvetica,sans-Serif" font-size="10.00">/NCursesDisplayModule.hpp</text>
</a>
</g>
</g>
<!-- Node20&#45;&gt;Node22 -->
<g id="edge26_Node000020_Node000022" class="edge">
<title>Node20&#45;&gt;Node22</title>
<g id="a_edge26_Node000020_Node000022"><a xlink:title=" ">
<path fill="none" stroke="#63b8ff" d="M1821,-127.35C1821,-117.47 1821,-105.51 1821,-96.36"/>
<polygon fill="#63b8ff" stroke="#63b8ff" points="1817.5,-127.37 1821,-137.37 1824.5,-127.37 1817.5,-127.37"/>
</a>
</g>
</g>
<!-- Node24 -->
<g id="Node000024" class="node">
<title>Node24</title>
<g id="a_Node000024"><a xlink:href="SDLDisplayModule_8hpp.html" target="_top" xlink:title="Header file for SDL display module.">
<polygon fill="white" stroke="#666666" points="2048,-96 1916,-96 1916,-66 2048,-66 2048,-96"/>
<text text-anchor="start" x="1924" y="-84" font-family="Helvetica,sans-Serif" font-size="10.00">src/Graphicals/SDL</text>
<text text-anchor="middle" x="1982" y="-73" font-family="Helvetica,sans-Serif" font-size="10.00">/SDLDisplayModule.hpp</text>
</a>
</g>
</g>
<!-- Node20&#45;&gt;Node24 -->
<g id="edge28_Node000020_Node000024" class="edge">
<title>Node20&#45;&gt;Node24</title>
<g id="a_edge28_Node000020_Node000024"><a xlink:title=" ">
<path fill="none" stroke="#63b8ff" d="M1852.08,-133.65C1879.1,-122.9 1918.24,-107.35 1946.49,-96.12"/>
<polygon fill="#63b8ff" stroke="#63b8ff" points="1850.71,-130.42 1842.71,-137.37 1853.3,-136.93 1850.71,-130.42"/>
</a>
</g>
</g>
<!-- Node26 -->
<g id="Node000026" class="node">
<title>Node26</title>
<g id="a_Node000026"><a xlink:href="SFMLDisplayModule_8hpp_source.html" target="_top" xlink:title=" ">
<polygon fill="white" stroke="#666666" points="2206,-96 2066,-96 2066,-66 2206,-66 2206,-96"/>
<text text-anchor="start" x="2074" y="-84" font-family="Helvetica,sans-Serif" font-size="10.00">src/Graphicals/SFML</text>
<text text-anchor="middle" x="2136" y="-73" font-family="Helvetica,sans-Serif" font-size="10.00">/SFMLDisplayModule.hpp</text>
</a>
</g>
</g>
<!-- Node20&#45;&gt;Node26 -->
<g id="edge30_Node000020_Node000026" class="edge">
<title>Node20&#45;&gt;Node26</title>
<g id="a_edge30_Node000020_Node000026"><a xlink:title=" ">
<path fill="none" stroke="#63b8ff" d="M1873.02,-135.43C1926.03,-124.66 2008.53,-107.9 2066.97,-96.02"/>
<polygon fill="#63b8ff" stroke="#63b8ff" points="1872.26,-132.01 1863.16,-137.44 1873.65,-138.87 1872.26,-132.01"/>
</a>
</g>
</g>
<!-- Node23 -->
<g id="Node000023" class="node">
<title>Node23</title>
<g id="a_Node000023"><a xlink:href="NCursesDisplayModule_8cpp.html" target="_top" xlink:title="NCurses Display Module.">
<polygon fill="white" stroke="#666666" points="1897.5,-30 1744.5,-30 1744.5,0 1897.5,0 1897.5,-30"/>
<text text-anchor="start" x="1752.5" y="-18" font-family="Helvetica,sans-Serif" font-size="10.00">src/Graphicals/NCurses</text>
<text text-anchor="middle" x="1821" y="-7" font-family="Helvetica,sans-Serif" font-size="10.00">/NCursesDisplayModule.cpp</text>
</a>
</g>
</g>
<!-- Node22&#45;&gt;Node23 -->
<g id="edge27_Node000022_Node000023" class="edge">
<title>Node22&#45;&gt;Node23</title>
<g id="a_edge27_Node000022_Node000023"><a xlink:title=" ">
<path fill="none" stroke="#63b8ff" d="M1821,-55.54C1821,-46.96 1821,-37.61 1821,-30.16"/>
<polygon fill="#63b8ff" stroke="#63b8ff" points="1817.5,-55.8 1821,-65.8 1824.5,-55.8 1817.5,-55.8"/>
</a>
</g>
</g>
<!-- Node25 -->
<g id="Node000025" class="node">
<title>Node25</title>
<g id="a_Node000025"><a xlink:href="SDLDisplayModule_8cpp.html" target="_top" xlink:title="This file contains all functions related to SDL.">
<polygon fill="white" stroke="#666666" points="2047.5,-30 1916.5,-30 1916.5,0 2047.5,0 2047.5,-30"/>
<text text-anchor="start" x="1924.5" y="-18" font-family="Helvetica,sans-Serif" font-size="10.00">src/Graphicals/SDL</text>
<text text-anchor="middle" x="1982" y="-7" font-family="Helvetica,sans-Serif" font-size="10.00">/SDLDisplayModule.cpp</text>
</a>
</g>
</g>
<!-- Node24&#45;&gt;Node25 -->
<g id="edge29_Node000024_Node000025" class="edge">
<title>Node24&#45;&gt;Node25</title>
<g id="a_edge29_Node000024_Node000025"><a xlink:title=" ">
<path fill="none" stroke="#63b8ff" d="M1982,-55.54C1982,-46.96 1982,-37.61 1982,-30.16"/>
<polygon fill="#63b8ff" stroke="#63b8ff" points="1978.5,-55.8 1982,-65.8 1985.5,-55.8 1978.5,-55.8"/>
</a>
</g>
</g>
</g>
</svg>
