<?xml version="1.0" encoding="UTF-8" standalone="no"?>
<!DOCTYPE svg PUBLIC "-//W3C//DTD SVG 1.1//EN"
 "http://www.w3.org/Graphics/SVG/1.1/DTD/svg11.dtd">
<!-- Generated by graphviz version 2.43.0 (0)
 -->
<!-- Title: include/Types.hpp Pages: 1 -->
<svg width="2087pt" height="280pt"
 viewBox="0.00 0.00 2087.26 280.00" xmlns="http://www.w3.org/2000/svg" xmlns:xlink="http://www.w3.org/1999/xlink">
<g id="graph0" class="graph" transform="scale(1 1) rotate(0) translate(4 276)">
<title>include/Types.hpp</title>
<!-- Node1 -->
<g id="Node000001" class="node">
<title>Node1</title>
<g id="a_Node000001"><a xlink:title="Defines the core data structures and types used across the Arcade project.">
<polygon fill="#999999" stroke="#666666" points="435,-272 331,-272 331,-253 435,-253 435,-272"/>
<text text-anchor="middle" x="383" y="-260" font-family="Helvetica,sans-Serif" font-size="10.00">include/Types.hpp</text>
</a>
</g>
</g>
<!-- Node2 -->
<g id="Node000002" class="node">
<title>Node2</title>
<g id="a_Node000002"><a xlink:href="Core_8cpp.html" target="_top" xlink:title="Contains the core program methods.">
<polygon fill="white" stroke="#666666" points="102,-90.5 0,-90.5 0,-71.5 102,-71.5 102,-90.5"/>
<text text-anchor="middle" x="51" y="-78.5" font-family="Helvetica,sans-Serif" font-size="10.00">src/Core/Core.cpp</text>
</a>
</g>
</g>
<!-- Node1&#45;&gt;Node2 -->
<g id="edge1_Node000001_Node000002" class="edge">
<title>Node1&#45;&gt;Node2</title>
<g id="a_edge1_Node000001_Node000002"><a xlink:title=" ">
<path fill="none" stroke="#63b8ff" d="M326.69,-250.8C295.7,-243.66 257.13,-232.66 225,-217 153.52,-182.15 83.33,-114.81 59.52,-90.78"/>
<polygon fill="#63b8ff" stroke="#63b8ff" points="325.95,-254.22 336.47,-252.99 327.47,-247.39 325.95,-254.22"/>
</a>
</g>
</g>
<!-- Node3 -->
<g id="Node000003" class="node">
<title>Node3</title>
<g id="a_Node000003"><a xlink:href="IGame_8hpp.html" target="_top" xlink:title="Declaration of the game interface class.">
<polygon fill="white" stroke="#666666" points="359.5,-217 234.5,-217 234.5,-198 359.5,-198 359.5,-217"/>
<text text-anchor="middle" x="297" y="-205" font-family="Helvetica,sans-Serif" font-size="10.00">src/Games/IGame.hpp</text>
</a>
</g>
</g>
<!-- Node1&#45;&gt;Node3 -->
<g id="edge2_Node000001_Node000003" class="edge">
<title>Node1&#45;&gt;Node3</title>
<g id="a_edge2_Node000001_Node000003"><a xlink:title=" ">
<path fill="none" stroke="#63b8ff" d="M360.6,-247.7C344.93,-238.04 324.49,-225.44 311.07,-217.17"/>
<polygon fill="#63b8ff" stroke="#63b8ff" points="358.83,-250.72 369.18,-252.98 362.51,-244.76 358.83,-250.72"/>
</a>
</g>
</g>
<!-- Node12 -->
<g id="Node000012" class="node">
<title>Node12</title>
<g id="a_Node000012"><a xlink:href="includes_8hpp.html" target="_top" xlink:title="Defines the specials structures and types used by the Pacman game.">
<polygon fill="white" stroke="#666666" points="1606,-217 1432,-217 1432,-198 1606,-198 1606,-217"/>
<text text-anchor="middle" x="1519" y="-205" font-family="Helvetica,sans-Serif" font-size="10.00">src/Games/Pacman/includes.hpp</text>
</a>
</g>
</g>
<!-- Node1&#45;&gt;Node12 -->
<g id="edge13_Node000001_Node000012" class="edge">
<title>Node1&#45;&gt;Node12</title>
<g id="a_edge13_Node000001_Node000012"><a xlink:title=" ">
<path fill="none" stroke="#63b8ff" d="M445.26,-258.6C635.73,-249.71 1211.06,-222.87 1431.63,-212.58"/>
<polygon fill="#63b8ff" stroke="#63b8ff" points="444.96,-255.11 435.14,-259.07 445.29,-262.1 444.96,-255.11"/>
</a>
</g>
</g>
<!-- Node19 -->
<g id="Node000019" class="node">
<title>Node19</title>
<g id="a_Node000019"><a xlink:href="IDisplayModule_8hpp.html" target="_top" xlink:title="Declaration of the graphical display interface.">
<polygon fill="white" stroke="#666666" points="562.5,-217 377.5,-217 377.5,-198 562.5,-198 562.5,-217"/>
<text text-anchor="middle" x="470" y="-205" font-family="Helvetica,sans-Serif" font-size="10.00">src/Graphicals/IDisplayModule.hpp</text>
</a>
</g>
</g>
<!-- Node1&#45;&gt;Node19 -->
<g id="edge26_Node000001_Node000019" class="edge">
<title>Node1&#45;&gt;Node19</title>
<g id="a_edge26_Node000001_Node000019"><a xlink:title=" ">
<path fill="none" stroke="#63b8ff" d="M405.66,-247.7C421.51,-238.04 442.19,-225.44 455.77,-217.17"/>
<polygon fill="#63b8ff" stroke="#63b8ff" points="403.7,-244.79 396.98,-252.98 407.34,-250.77 403.7,-244.79"/>
</a>
</g>
</g>
<!-- Node4 -->
<g id="Node000004" class="node">
<title>Node4</title>
<g id="a_Node000004"><a xlink:href="Core_8hpp.html" target="_top" xlink:title="Declaration of the Core class and associated definitions.">
<polygon fill="white" stroke="#666666" points="262.5,-156.5 159.5,-156.5 159.5,-137.5 262.5,-137.5 262.5,-156.5"/>
<text text-anchor="middle" x="211" y="-144.5" font-family="Helvetica,sans-Serif" font-size="10.00">src/Core/Core.hpp</text>
</a>
</g>
</g>
<!-- Node3&#45;&gt;Node4 -->
<g id="edge3_Node000003_Node000004" class="edge">
<title>Node3&#45;&gt;Node4</title>
<g id="a_edge3_Node000003_Node000004"><a xlink:title=" ">
<path fill="none" stroke="#63b8ff" d="M275.92,-192.16C259.58,-181.05 237.48,-166.01 223.74,-156.67"/>
<polygon fill="#63b8ff" stroke="#63b8ff" points="274.07,-195.14 284.31,-197.87 278.01,-189.35 274.07,-195.14"/>
</a>
</g>
</g>
<!-- Node7 -->
<g id="Node000007" class="node">
<title>Node7</title>
<g id="a_Node000007"><a xlink:href="AGame_8hpp.html" target="_top" xlink:title="Declares the abstract base class for all Arcade games.">
<polygon fill="white" stroke="#666666" points="520,-156.5 392,-156.5 392,-137.5 520,-137.5 520,-156.5"/>
<text text-anchor="middle" x="456" y="-144.5" font-family="Helvetica,sans-Serif" font-size="10.00">src/Games/AGame.hpp</text>
</a>
</g>
</g>
<!-- Node3&#45;&gt;Node7 -->
<g id="edge7_Node000003_Node000007" class="edge">
<title>Node3&#45;&gt;Node7</title>
<g id="a_edge7_Node000003_Node000007"><a xlink:title=" ">
<path fill="none" stroke="#63b8ff" d="M329.55,-194.52C360.29,-183.21 405.64,-166.53 432.85,-156.52"/>
<polygon fill="#63b8ff" stroke="#63b8ff" points="328.3,-191.26 320.12,-197.99 330.71,-197.83 328.3,-191.26"/>
</a>
</g>
</g>
<!-- Node4&#45;&gt;Node2 -->
<g id="edge4_Node000004_Node000002" class="edge">
<title>Node4&#45;&gt;Node2</title>
<g id="a_edge4_Node000004_Node000002"><a xlink:title=" ">
<path fill="none" stroke="#63b8ff" d="M179.78,-133.51C148.15,-120.86 100.08,-101.63 72.49,-90.6"/>
<polygon fill="#63b8ff" stroke="#63b8ff" points="178.84,-136.9 189.42,-137.37 181.44,-130.41 178.84,-136.9"/>
</a>
</g>
</g>
<!-- Node5 -->
<g id="Node000005" class="node">
<title>Node5</title>
<g id="a_Node000005"><a xlink:href="Menu_8cpp.html" target="_top" xlink:title="Declares global variables used to store user selections in the Arcade menu.">
<polygon fill="white" stroke="#666666" points="318.5,-24.5 169.5,-24.5 169.5,-5.5 318.5,-5.5 318.5,-24.5"/>
<text text-anchor="middle" x="244" y="-12.5" font-family="Helvetica,sans-Serif" font-size="10.00">src/Games/Menu/Menu.cpp</text>
</a>
</g>
</g>
<!-- Node4&#45;&gt;Node5 -->
<g id="edge5_Node000004_Node000005" class="edge">
<title>Node4&#45;&gt;Node5</title>
<g id="a_edge5_Node000004_Node000005"><a xlink:title=" ">
<path fill="none" stroke="#63b8ff" d="M184.29,-132.06C171.06,-123.58 156.37,-111.41 149,-96 143.25,-83.97 142.11,-77.41 149,-66 162,-44.46 187.71,-31.73 209.11,-24.51"/>
<polygon fill="#63b8ff" stroke="#63b8ff" points="182.73,-135.21 193.11,-137.34 186.32,-129.2 182.73,-135.21"/>
</a>
</g>
</g>
<!-- Node6 -->
<g id="Node000006" class="node">
<title>Node6</title>
<g id="a_Node000006"><a xlink:href="main_8cpp.html" target="_top" xlink:title="Main entry point of the program.">
<polygon fill="white" stroke="#666666" points="264,-90.5 158,-90.5 158,-71.5 264,-71.5 264,-90.5"/>
<text text-anchor="middle" x="211" y="-78.5" font-family="Helvetica,sans-Serif" font-size="10.00">src/Main/main.cpp</text>
</a>
</g>
</g>
<!-- Node4&#45;&gt;Node6 -->
<g id="edge6_Node000004_Node000006" class="edge">
<title>Node4&#45;&gt;Node6</title>
<g id="a_edge6_Node000004_Node000006"><a xlink:title=" ">
<path fill="none" stroke="#63b8ff" d="M211,-127.08C211,-115.13 211,-100.22 211,-90.91"/>
<polygon fill="#63b8ff" stroke="#63b8ff" points="207.5,-127.37 211,-137.37 214.5,-127.37 207.5,-127.37"/>
</a>
</g>
</g>
<!-- Node8 -->
<g id="Node000008" class="node">
<title>Node8</title>
<g id="a_Node000008"><a xlink:href="Menu_8hpp.html" target="_top" xlink:title="Declares the Menu class, used to display and navigate game and library options.">
<polygon fill="white" stroke="#666666" points="431.5,-90.5 282.5,-90.5 282.5,-71.5 431.5,-71.5 431.5,-90.5"/>
<text text-anchor="middle" x="357" y="-78.5" font-family="Helvetica,sans-Serif" font-size="10.00">src/Games/Menu/Menu.hpp</text>
</a>
</g>
</g>
<!-- Node7&#45;&gt;Node8 -->
<g id="edge8_Node000007_Node000008" class="edge">
<title>Node7&#45;&gt;Node8</title>
<g id="a_edge8_Node000007_Node000008"><a xlink:title=" ">
<path fill="none" stroke="#63b8ff" d="M434.11,-131.85C414.65,-119.27 386.82,-101.28 370.46,-90.7"/>
<polygon fill="#63b8ff" stroke="#63b8ff" points="432.35,-134.88 442.65,-137.37 436.15,-129 432.35,-134.88"/>
</a>
</g>
</g>
<!-- Node9 -->
<g id="Node000009" class="node">
<title>Node9</title>
<g id="a_Node000009"><a xlink:href="PacmanGame_8hpp.html" target="_top" xlink:title="Main file of the Pacman game.">
<polygon fill="white" stroke="#666666" points="1754.5,-24.5 1553.5,-24.5 1553.5,-5.5 1754.5,-5.5 1754.5,-24.5"/>
<text text-anchor="middle" x="1654" y="-12.5" font-family="Helvetica,sans-Serif" font-size="10.00">src/Games/Pacman/PacmanGame.hpp</text>
</a>
</g>
</g>
<!-- Node7&#45;&gt;Node9 -->
<g id="edge10_Node000007_Node000009" class="edge">
<title>Node7&#45;&gt;Node9</title>
<g id="a_edge10_Node000007_Node000009"><a xlink:title=" ">
<path fill="none" stroke="#63b8ff" d="M530.54,-142.86C692.85,-135.68 1068.05,-117.02 1122,-96 1142.05,-88.19 1140.05,-74.07 1160,-66 1229.07,-38.05 1430.13,-25.05 1553.42,-19.55"/>
<polygon fill="#63b8ff" stroke="#63b8ff" points="530,-139.38 520.17,-143.32 530.31,-146.38 530,-139.38"/>
</a>
</g>
</g>
<!-- Node10 -->
<g id="Node000010" class="node">
<title>Node10</title>
<g id="a_Node000010"><a xlink:href="SnakeGame_8hpp.html" target="_top" xlink:title="Declaration of the SnakeGame class and associated definitions.">
<polygon fill="white" stroke="#666666" points="632.5,-90.5 449.5,-90.5 449.5,-71.5 632.5,-71.5 632.5,-90.5"/>
<text text-anchor="middle" x="541" y="-78.5" font-family="Helvetica,sans-Serif" font-size="10.00">src/Games/Snake/SnakeGame.hpp</text>
</a>
</g>
</g>
<!-- Node7&#45;&gt;Node10 -->
<g id="edge11_Node000007_Node000010" class="edge">
<title>Node7&#45;&gt;Node10</title>
<g id="a_edge11_Node000007_Node000010"><a xlink:title=" ">
<path fill="none" stroke="#63b8ff" d="M475.48,-131.33C492.15,-118.78 515.59,-101.13 529.45,-90.7"/>
<polygon fill="#63b8ff" stroke="#63b8ff" points="473.35,-128.56 467.46,-137.37 477.56,-134.15 473.35,-128.56"/>
</a>
</g>
</g>
<!-- Node8&#45;&gt;Node5 -->
<g id="edge9_Node000008_Node000005" class="edge">
<title>Node8&#45;&gt;Node5</title>
<g id="a_edge9_Node000008_Node000005"><a xlink:title=" ">
<path fill="none" stroke="#63b8ff" d="M332.91,-66.36C310.67,-53.76 278.29,-35.42 259.36,-24.7"/>
<polygon fill="#63b8ff" stroke="#63b8ff" points="331.33,-69.49 341.76,-71.37 334.78,-63.39 331.33,-69.49"/>
</a>
</g>
</g>
<!-- Node11 -->
<g id="Node000011" class="node">
<title>Node11</title>
<g id="a_Node000011"><a xlink:href="SnakeGame_8cpp.html" target="_top" xlink:title="Snake Game.">
<polygon fill="white" stroke="#666666" points="632,-24.5 450,-24.5 450,-5.5 632,-5.5 632,-24.5"/>
<text text-anchor="middle" x="541" y="-12.5" font-family="Helvetica,sans-Serif" font-size="10.00">src/Games/Snake/SnakeGame.cpp</text>
</a>
</g>
</g>
<!-- Node10&#45;&gt;Node11 -->
<g id="edge12_Node000010_Node000011" class="edge">
<title>Node10&#45;&gt;Node11</title>
<g id="a_edge12_Node000010_Node000011"><a xlink:title=" ">
<path fill="none" stroke="#63b8ff" d="M541,-61.08C541,-49.13 541,-34.22 541,-24.91"/>
<polygon fill="#63b8ff" stroke="#63b8ff" points="537.5,-61.37 541,-71.37 544.5,-61.37 537.5,-61.37"/>
</a>
</g>
</g>
<!-- Node12&#45;&gt;Node9 -->
<g id="edge25_Node000012_Node000009" class="edge">
<title>Node12&#45;&gt;Node9</title>
<g id="a_edge25_Node000012_Node000009"><a xlink:title=" ">
<path fill="none" stroke="#63b8ff" d="M1493.41,-193.08C1448.97,-168.08 1365.75,-112.65 1404,-66 1423.08,-42.72 1492.45,-30.07 1553.28,-23.32"/>
<polygon fill="#63b8ff" stroke="#63b8ff" points="1491.8,-196.19 1502.25,-197.94 1495.17,-190.06 1491.8,-196.19"/>
</a>
</g>
</g>
<!-- Node13 -->
<g id="Node000013" class="node">
<title>Node13</title>
<g id="a_Node000013"><a xlink:href="Ghost_8hpp.html" target="_top" xlink:title="Contains the behavior of the ghosts.">
<polygon fill="white" stroke="#666666" points="1728.5,-162 1579.5,-162 1579.5,-132 1728.5,-132 1728.5,-162"/>
<text text-anchor="start" x="1587.5" y="-150" font-family="Helvetica,sans-Serif" font-size="10.00">src/Games/Pacman/Entities</text>
<text text-anchor="middle" x="1654" y="-139" font-family="Helvetica,sans-Serif" font-size="10.00">/Ghost.hpp</text>
</a>
</g>
</g>
<!-- Node12&#45;&gt;Node13 -->
<g id="edge14_Node000012_Node000013" class="edge">
<title>Node12&#45;&gt;Node13</title>
<g id="a_edge14_Node000012_Node000013"><a xlink:title=" ">
<path fill="none" stroke="#63b8ff" d="M1547.95,-193.95C1569.57,-184.59 1599.13,-171.78 1621.54,-162.06"/>
<polygon fill="#63b8ff" stroke="#63b8ff" points="1546.41,-190.81 1538.63,-197.99 1549.2,-197.23 1546.41,-190.81"/>
</a>
</g>
</g>
<!-- Node18 -->
<g id="Node000018" class="node">
<title>Node18</title>
<g id="a_Node000018"><a xlink:href="Player_8hpp_source.html" target="_top" xlink:title=" ">
<polygon fill="white" stroke="#666666" points="2029.5,-162 1880.5,-162 1880.5,-132 2029.5,-132 2029.5,-162"/>
<text text-anchor="start" x="1888.5" y="-150" font-family="Helvetica,sans-Serif" font-size="10.00">src/Games/Pacman/Entities</text>
<text text-anchor="middle" x="1955" y="-139" font-family="Helvetica,sans-Serif" font-size="10.00">/Player.hpp</text>
</a>
</g>
</g>
<!-- Node12&#45;&gt;Node18 -->
<g id="edge23_Node000012_Node000018" class="edge">
<title>Node12&#45;&gt;Node18</title>
<g id="a_edge23_Node000012_Node000018"><a xlink:title=" ">
<path fill="none" stroke="#63b8ff" d="M1592.39,-196.65C1672.37,-185.92 1799.66,-168.84 1880.19,-158.04"/>
<polygon fill="#63b8ff" stroke="#63b8ff" points="1591.84,-193.19 1582.4,-197.99 1592.77,-200.13 1591.84,-193.19"/>
</a>
</g>
</g>
<!-- Node14 -->
<g id="Node000014" class="node">
<title>Node14</title>
<g id="a_Node000014"><a xlink:href="Blinky_8hpp.html" target="_top" xlink:title="Implements the Blinky class, which inherits directly from the ghost class.">
<polygon fill="white" stroke="#666666" points="1561.5,-96 1412.5,-96 1412.5,-66 1561.5,-66 1561.5,-96"/>
<text text-anchor="start" x="1420.5" y="-84" font-family="Helvetica,sans-Serif" font-size="10.00">src/Games/Pacman/Entities</text>
<text text-anchor="middle" x="1487" y="-73" font-family="Helvetica,sans-Serif" font-size="10.00">/Blinky.hpp</text>
</a>
</g>
</g>
<!-- Node13&#45;&gt;Node14 -->
<g id="edge15_Node000013_Node000014" class="edge">
<title>Node13&#45;&gt;Node14</title>
<g id="a_edge15_Node000013_Node000014"><a xlink:title=" ">
<path fill="none" stroke="#63b8ff" d="M1607.87,-128.32C1581.29,-118.14 1548.34,-105.51 1523.56,-96.01"/>
<polygon fill="#63b8ff" stroke="#63b8ff" points="1606.76,-131.64 1617.35,-131.95 1609.27,-125.11 1606.76,-131.64"/>
</a>
</g>
</g>
<!-- Node15 -->
<g id="Node000015" class="node">
<title>Node15</title>
<g id="a_Node000015"><a xlink:href="Clyde_8hpp.html" target="_top" xlink:title="Implements the Clyde class, which inherits directly from the ghost class.">
<polygon fill="white" stroke="#666666" points="1728.5,-96 1579.5,-96 1579.5,-66 1728.5,-66 1728.5,-96"/>
<text text-anchor="start" x="1587.5" y="-84" font-family="Helvetica,sans-Serif" font-size="10.00">src/Games/Pacman/Entities</text>
<text text-anchor="middle" x="1654" y="-73" font-family="Helvetica,sans-Serif" font-size="10.00">/Clyde.hpp</text>
</a>
</g>
</g>
<!-- Node13&#45;&gt;Node15 -->
<g id="edge17_Node000013_Node000015" class="edge">
<title>Node13&#45;&gt;Node15</title>
<g id="a_edge17_Node000013_Node000015"><a xlink:title=" ">
<path fill="none" stroke="#63b8ff" d="M1654,-121.54C1654,-112.96 1654,-103.61 1654,-96.16"/>
<polygon fill="#63b8ff" stroke="#63b8ff" points="1650.5,-121.8 1654,-131.8 1657.5,-121.8 1650.5,-121.8"/>
</a>
</g>
</g>
<!-- Node16 -->
<g id="Node000016" class="node">
<title>Node16</title>
<g id="a_Node000016"><a xlink:href="Inky_8hpp.html" target="_top" xlink:title="Implements the Inky class, which inherits directly from the ghost class.">
<polygon fill="white" stroke="#666666" points="1895.5,-96 1746.5,-96 1746.5,-66 1895.5,-66 1895.5,-96"/>
<text text-anchor="start" x="1754.5" y="-84" font-family="Helvetica,sans-Serif" font-size="10.00">src/Games/Pacman/Entities</text>
<text text-anchor="middle" x="1821" y="-73" font-family="Helvetica,sans-Serif" font-size="10.00">/Inky.hpp</text>
</a>
</g>
</g>
<!-- Node13&#45;&gt;Node16 -->
<g id="edge19_Node000013_Node000016" class="edge">
<title>Node13&#45;&gt;Node16</title>
<g id="a_edge19_Node000013_Node000016"><a xlink:title=" ">
<path fill="none" stroke="#63b8ff" d="M1700.13,-128.32C1726.71,-118.14 1759.66,-105.51 1784.44,-96.01"/>
<polygon fill="#63b8ff" stroke="#63b8ff" points="1698.73,-125.11 1690.65,-131.95 1701.24,-131.64 1698.73,-125.11"/>
</a>
</g>
</g>
<!-- Node17 -->
<g id="Node000017" class="node">
<title>Node17</title>
<g id="a_Node000017"><a xlink:href="Pinky_8hpp.html" target="_top" xlink:title="Implements the Pinky class, which inherits directly from the ghost class.">
<polygon fill="white" stroke="#666666" points="2062.5,-96 1913.5,-96 1913.5,-66 2062.5,-66 2062.5,-96"/>
<text text-anchor="start" x="1921.5" y="-84" font-family="Helvetica,sans-Serif" font-size="10.00">src/Games/Pacman/Entities</text>
<text text-anchor="middle" x="1988" y="-73" font-family="Helvetica,sans-Serif" font-size="10.00">/Pinky.hpp</text>
</a>
</g>
</g>
<!-- Node13&#45;&gt;Node17 -->
<g id="edge21_Node000013_Node000017" class="edge">
<title>Node13&#45;&gt;Node17</title>
<g id="a_edge21_Node000013_Node000017"><a xlink:title=" ">
<path fill="none" stroke="#63b8ff" d="M1737.29,-130.04C1791.85,-119.59 1862.49,-106.05 1914.87,-96.01"/>
<polygon fill="#63b8ff" stroke="#63b8ff" points="1736.46,-126.64 1727.3,-131.95 1737.78,-133.51 1736.46,-126.64"/>
</a>
</g>
</g>
<!-- Node14&#45;&gt;Node9 -->
<g id="edge16_Node000014_Node000009" class="edge">
<title>Node14&#45;&gt;Node9</title>
<g id="a_edge16_Node000014_Node000009"><a xlink:title=" ">
<path fill="none" stroke="#63b8ff" d="M1533.29,-62.26C1565.41,-49.95 1606.75,-34.11 1631.78,-24.52"/>
<polygon fill="#63b8ff" stroke="#63b8ff" points="1531.73,-59.11 1523.65,-65.95 1534.24,-65.64 1531.73,-59.11"/>
</a>
</g>
</g>
<!-- Node15&#45;&gt;Node9 -->
<g id="edge18_Node000015_Node000009" class="edge">
<title>Node15&#45;&gt;Node9</title>
<g id="a_edge18_Node000015_Node000009"><a xlink:title=" ">
<path fill="none" stroke="#63b8ff" d="M1654,-55.6C1654,-44.8 1654,-32.78 1654,-24.84"/>
<polygon fill="#63b8ff" stroke="#63b8ff" points="1650.5,-55.8 1654,-65.8 1657.5,-55.8 1650.5,-55.8"/>
</a>
</g>
</g>
<!-- Node16&#45;&gt;Node9 -->
<g id="edge20_Node000016_Node000009" class="edge">
<title>Node16&#45;&gt;Node9</title>
<g id="a_edge20_Node000016_Node000009"><a xlink:title=" ">
<path fill="none" stroke="#63b8ff" d="M1774.71,-62.26C1742.59,-49.95 1701.25,-34.11 1676.22,-24.52"/>
<polygon fill="#63b8ff" stroke="#63b8ff" points="1773.76,-65.64 1784.35,-65.95 1776.27,-59.11 1773.76,-65.64"/>
</a>
</g>
</g>
<!-- Node17&#45;&gt;Node9 -->
<g id="edge22_Node000017_Node000009" class="edge">
<title>Node17&#45;&gt;Node9</title>
<g id="a_edge22_Node000017_Node000009"><a xlink:title=" ">
<path fill="none" stroke="#63b8ff" d="M1904.83,-64.06C1839.46,-51.54 1750.97,-34.58 1698.45,-24.52"/>
<polygon fill="#63b8ff" stroke="#63b8ff" points="1904.22,-67.51 1914.7,-65.95 1905.54,-60.64 1904.22,-67.51"/>
</a>
</g>
</g>
<!-- Node18&#45;&gt;Node9 -->
<g id="edge24_Node000018_Node000009" class="edge">
<title>Node18&#45;&gt;Node9</title>
<g id="a_edge24_Node000018_Node000009"><a xlink:title=" ">
<path fill="none" stroke="#63b8ff" d="M2016.63,-128.49C2055.92,-114.3 2095.41,-92.38 2072,-66 2051.25,-42.61 1871.46,-28.15 1754.53,-21.13"/>
<polygon fill="#63b8ff" stroke="#63b8ff" points="2014.99,-125.35 2006.68,-131.92 2017.28,-131.97 2014.99,-125.35"/>
</a>
</g>
</g>
<!-- Node19&#45;&gt;Node4 -->
<g id="edge27_Node000019_Node000004" class="edge">
<title>Node19&#45;&gt;Node4</title>
<g id="a_edge27_Node000019_Node000004"><a xlink:title=" ">
<path fill="none" stroke="#63b8ff" d="M422.41,-195.75C372.38,-184.45 294.67,-166.9 248.71,-156.52"/>
<polygon fill="#63b8ff" stroke="#63b8ff" points="421.81,-199.2 432.34,-197.99 423.36,-192.38 421.81,-199.2"/>
</a>
</g>
</g>
<!-- Node20 -->
<g id="Node000020" class="node">
<title>Node20</title>
<g id="a_Node000020"><a xlink:href="ADisplayModule_8hpp.html" target="_top" xlink:title="Declares the abstract base class for display modules in the Arcade project.">
<polygon fill="white" stroke="#666666" points="965.5,-156.5 776.5,-156.5 776.5,-137.5 965.5,-137.5 965.5,-156.5"/>
<text text-anchor="middle" x="871" y="-144.5" font-family="Helvetica,sans-Serif" font-size="10.00">src/Graphicals/ADisplayModule.hpp</text>
</a>
</g>
</g>
<!-- Node19&#45;&gt;Node20 -->
<g id="edge28_Node000019_Node000020" class="edge">
<title>Node19&#45;&gt;Node20</title>
<g id="a_edge28_Node000019_Node000020"><a xlink:title=" ">
<path fill="none" stroke="#63b8ff" d="M538.41,-196.52C615.59,-185.26 739.83,-167.14 812.62,-156.52"/>
<polygon fill="#63b8ff" stroke="#63b8ff" points="537.7,-193.09 528.31,-197.99 538.71,-200.01 537.7,-193.09"/>
</a>
</g>
</g>
<!-- Node21 -->
<g id="Node000021" class="node">
<title>Node21</title>
<g id="a_Node000021"><a xlink:href="ADisplayModule_8cpp.html" target="_top" xlink:title="Provides default constructor and destructor implementations for ADisplayModule.">
<polygon fill="white" stroke="#666666" points="1357,-90.5 1169,-90.5 1169,-71.5 1357,-71.5 1357,-90.5"/>
<text text-anchor="middle" x="1263" y="-78.5" font-family="Helvetica,sans-Serif" font-size="10.00">src/Graphicals/ADisplayModule.cpp</text>
</a>
</g>
</g>
<!-- Node20&#45;&gt;Node21 -->
<g id="edge29_Node000020_Node000021" class="edge">
<title>Node20&#45;&gt;Node21</title>
<g id="a_edge29_Node000020_Node000021"><a xlink:title=" ">
<path fill="none" stroke="#63b8ff" d="M933.48,-135.8C1010.25,-123.26 1139.14,-102.22 1210.85,-90.51"/>
<polygon fill="#63b8ff" stroke="#63b8ff" points="932.77,-132.37 923.46,-137.44 933.89,-139.28 932.77,-132.37"/>
</a>
</g>
</g>
<!-- Node22 -->
<g id="Node000022" class="node">
<title>Node22</title>
<g id="a_Node000022"><a xlink:href="NCursesDisplayModule_8hpp.html" target="_top" xlink:title="Declaration of the NCursesDisplayModule class and associated definitions.">
<polygon fill="white" stroke="#666666" points="1113,-96 959,-96 959,-66 1113,-66 1113,-96"/>
<text text-anchor="start" x="967" y="-84" font-family="Helvetica,sans-Serif" font-size="10.00">src/Graphicals/NCurses</text>
<text text-anchor="middle" x="1036" y="-73" font-family="Helvetica,sans-Serif" font-size="10.00">/NCursesDisplayModule.hpp</text>
</a>
</g>
</g>
<!-- Node20&#45;&gt;Node22 -->
<g id="edge30_Node000020_Node000022" class="edge">
<title>Node20&#45;&gt;Node22</title>
<g id="a_edge30_Node000020_Node000022"><a xlink:title=" ">
<path fill="none" stroke="#63b8ff" d="M902.85,-133.65C930.54,-122.9 970.66,-107.35 999.61,-96.12"/>
<polygon fill="#63b8ff" stroke="#63b8ff" points="901.31,-130.49 893.25,-137.37 903.84,-137.02 901.31,-130.49"/>
</a>
</g>
</g>
<!-- Node24 -->
<g id="Node000024" class="node">
<title>Node24</title>
<g id="a_Node000024"><a xlink:href="SDLDisplayModule_8hpp.html" target="_top" xlink:title="Header file for SDL display module.">
<polygon fill="white" stroke="#666666" points="783,-96 651,-96 651,-66 783,-66 783,-96"/>
<text text-anchor="start" x="659" y="-84" font-family="Helvetica,sans-Serif" font-size="10.00">src/Graphicals/SDL</text>
<text text-anchor="middle" x="717" y="-73" font-family="Helvetica,sans-Serif" font-size="10.00">/SDLDisplayModule.hpp</text>
</a>
</g>
</g>
<!-- Node20&#45;&gt;Node24 -->
<g id="edge32_Node000020_Node000024" class="edge">
<title>Node20&#45;&gt;Node24</title>
<g id="a_edge32_Node000020_Node000024"><a xlink:title=" ">
<path fill="none" stroke="#63b8ff" d="M840.93,-133.5C815.1,-122.77 777.87,-107.3 750.97,-96.12"/>
<polygon fill="#63b8ff" stroke="#63b8ff" points="839.65,-136.76 850.23,-137.37 842.34,-130.3 839.65,-136.76"/>
</a>
</g>
</g>
<!-- Node26 -->
<g id="Node000026" class="node">
<title>Node26</title>
<g id="a_Node000026"><a xlink:href="SFMLDisplayModule_8hpp.html" target="_top" xlink:title="Header file for SFML display module.">
<polygon fill="white" stroke="#666666" points="941,-96 801,-96 801,-66 941,-66 941,-96"/>
<text text-anchor="start" x="809" y="-84" font-family="Helvetica,sans-Serif" font-size="10.00">src/Graphicals/SFML</text>
<text text-anchor="middle" x="871" y="-73" font-family="Helvetica,sans-Serif" font-size="10.00">/SFMLDisplayModule.hpp</text>
</a>
</g>
</g>
<!-- Node20&#45;&gt;Node26 -->
<g id="edge34_Node000020_Node000026" class="edge">
<title>Node20&#45;&gt;Node26</title>
<g id="a_edge34_Node000020_Node000026"><a xlink:title=" ">
<path fill="none" stroke="#63b8ff" d="M871,-127.35C871,-117.47 871,-105.51 871,-96.36"/>
<polygon fill="#63b8ff" stroke="#63b8ff" points="867.5,-127.37 871,-137.37 874.5,-127.37 867.5,-127.37"/>
</a>
</g>
</g>
<!-- Node23 -->
<g id="Node000023" class="node">
<title>Node23</title>
<g id="a_Node000023"><a xlink:href="NCursesDisplayModule_8cpp.html" target="_top" xlink:title="NCurses Display Module.">
<polygon fill="white" stroke="#666666" points="1112.5,-30 959.5,-30 959.5,0 1112.5,0 1112.5,-30"/>
<text text-anchor="start" x="967.5" y="-18" font-family="Helvetica,sans-Serif" font-size="10.00">src/Graphicals/NCurses</text>
<text text-anchor="middle" x="1036" y="-7" font-family="Helvetica,sans-Serif" font-size="10.00">/NCursesDisplayModule.cpp</text>
</a>
</g>
</g>
<!-- Node22&#45;&gt;Node23 -->
<g id="edge31_Node000022_Node000023" class="edge">
<title>Node22&#45;&gt;Node23</title>
<g id="a_edge31_Node000022_Node000023"><a xlink:title=" ">
<path fill="none" stroke="#63b8ff" d="M1036,-55.54C1036,-46.96 1036,-37.61 1036,-30.16"/>
<polygon fill="#63b8ff" stroke="#63b8ff" points="1032.5,-55.8 1036,-65.8 1039.5,-55.8 1032.5,-55.8"/>
</a>
</g>
</g>
<!-- Node25 -->
<g id="Node000025" class="node">
<title>Node25</title>
<g id="a_Node000025"><a xlink:href="SDLDisplayModule_8cpp.html" target="_top" xlink:title="This file contains all functions related to SDL.">
<polygon fill="white" stroke="#666666" points="782.5,-30 651.5,-30 651.5,0 782.5,0 782.5,-30"/>
<text text-anchor="start" x="659.5" y="-18" font-family="Helvetica,sans-Serif" font-size="10.00">src/Graphicals/SDL</text>
<text text-anchor="middle" x="717" y="-7" font-family="Helvetica,sans-Serif" font-size="10.00">/SDLDisplayModule.cpp</text>
</a>
</g>
</g>
<!-- Node24&#45;&gt;Node25 -->
<g id="edge33_Node000024_Node000025" class="edge">
<title>Node24&#45;&gt;Node25</title>
<g id="a_edge33_Node000024_Node000025"><a xlink:title=" ">
<path fill="none" stroke="#63b8ff" d="M717,-55.54C717,-46.96 717,-37.61 717,-30.16"/>
<polygon fill="#63b8ff" stroke="#63b8ff" points="713.5,-55.8 717,-65.8 720.5,-55.8 713.5,-55.8"/>
</a>
</g>
</g>
<!-- Node27 -->
<g id="Node000027" class="node">
<title>Node27</title>
<g id="a_Node000027"><a xlink:href="SFMLDisplayModule_8cpp.html" target="_top" xlink:title="This file contains all functions related to SFML.">
<polygon fill="white" stroke="#666666" points="940.5,-30 801.5,-30 801.5,0 940.5,0 940.5,-30"/>
<text text-anchor="start" x="809.5" y="-18" font-family="Helvetica,sans-Serif" font-size="10.00">src/Graphicals/SFML</text>
<text text-anchor="middle" x="871" y="-7" font-family="Helvetica,sans-Serif" font-size="10.00">/SFMLDisplayModule.cpp</text>
</a>
</g>
</g>
<!-- Node26&#45;&gt;Node27 -->
<g id="edge35_Node000026_Node000027" class="edge">
<title>Node26&#45;&gt;Node27</title>
<g id="a_edge35_Node000026_Node000027"><a xlink:title=" ">
<path fill="none" stroke="#63b8ff" d="M871,-55.54C871,-46.96 871,-37.61 871,-30.16"/>
<polygon fill="#63b8ff" stroke="#63b8ff" points="867.5,-55.8 871,-65.8 874.5,-55.8 867.5,-55.8"/>
</a>
</g>
</g>
</g>
</svg>
